<?xml version="1.0" encoding="UTF-8" standalone="no"?>
<!-- Created with Inkscape (http://www.inkscape.org/) -->

<svg
   xmlns:ns0="http://www.iki.fi/pav/software/textext/"
   xmlns:dc="http://purl.org/dc/elements/1.1/"
   xmlns:cc="http://creativecommons.org/ns#"
   xmlns:rdf="http://www.w3.org/1999/02/22-rdf-syntax-ns#"
   xmlns:svg="http://www.w3.org/2000/svg"
   xmlns="http://www.w3.org/2000/svg"
   xmlns:xlink="http://www.w3.org/1999/xlink"
   xmlns:sodipodi="http://sodipodi.sourceforge.net/DTD/sodipodi-0.dtd"
   xmlns:inkscape="http://www.inkscape.org/namespaces/inkscape"
   sodipodi:docname="FresnelCartoon.svg"
   inkscape:version="0.48.1 r9760"
   version="1.1"
   id="svg2"
   height="276.39392"
   width="459.45325">
  <sodipodi:namedview
     id="base"
     pagecolor="#ffffff"
     bordercolor="#666666"
     borderopacity="1.0"
     inkscape:pageopacity="0.0"
     inkscape:pageshadow="2"
     inkscape:zoom="2"
     inkscape:cx="225.71447"
     inkscape:cy="99.205332"
     inkscape:document-units="px"
     inkscape:current-layer="layer1"
     showgrid="true"
     inkscape:window-width="1350"
     inkscape:window-height="1000"
     inkscape:window-x="528"
     inkscape:window-y="102"
     inkscape:window-maximized="0"
     fit-margin-top="0"
     fit-margin-left="0"
     fit-margin-right="0"
     fit-margin-bottom="0">
    <inkscape:grid
       snapvisiblegridlinesonly="true"
       enabled="true"
       visible="true"
       empspacing="5"
       id="grid2985"
       type="xygrid" />
  </sodipodi:namedview>
  <defs
     id="defs4">
    <inkscape:path-effect
       is_visible="true"
       id="path-effect19142"
       effect="spiro" />
    <inkscape:path-effect
       effect="spiro"
       id="path-effect19138"
       is_visible="true" />
    <inkscape:path-effect
       is_visible="true"
       id="path-effect18750"
       effect="spiro" />
    <inkscape:path-effect
       effect="spiro"
       id="path-effect8904"
       is_visible="true" />
    <inkscape:path-effect
       is_visible="true"
       id="path-effect8876"
       effect="spiro" />
    <inkscape:path-effect
       effect="spiro"
       id="path-effect8872"
       is_visible="true" />
    <inkscape:path-effect
       is_visible="true"
       id="path-effect8870"
       effect="spiro" />
    <inkscape:path-effect
       is_visible="true"
       id="path-effect8864"
       effect="spiro" />
    <inkscape:path-effect
       effect="spiro"
       id="path-effect8287"
       is_visible="true" />
    <inkscape:path-effect
       is_visible="true"
       id="path-effect8285"
       effect="spiro" />
    <inkscape:path-effect
       is_visible="true"
       id="path-effect7458"
       effect="spiro" />
    <inkscape:path-effect
       effect="spiro"
       id="path-effect6205"
       is_visible="true" />
    <marker
       inkscape:stockid="Arrow2Lstart"
       orient="auto"
       refY="0"
       refX="0"
       id="Arrow2Lstart"
       style="overflow:visible">
      <path
         inkscape:connector-curvature="0"
         id="path3876"
         style="font-size:12px;fill-rule:evenodd;stroke-width:0.625;stroke-linejoin:round"
         d="M 8.7185878,4.0337352 -2.2072895,0.01601326 8.7185884,-4.0017078 c -1.7454984,2.3720609 -1.7354408,5.6174519 -6e-7,8.035443 z"
         transform="matrix(1.1,0,0,1.1,1.1,0)" />
    </marker>
    <marker
       inkscape:stockid="Arrow1Lstart"
       orient="auto"
       refY="0"
       refX="0"
       id="Arrow1Lstart"
       style="overflow:visible">
      <path
         inkscape:connector-curvature="0"
         id="path3858"
         d="M 0,0 5,-5 -12.5,0 5,5 0,0 z"
         style="fill-rule:evenodd;stroke:#000000;stroke-width:1pt;marker-start:none"
         transform="matrix(0.8,0,0,0.8,10,0)" />
    </marker>
    <inkscape:path-effect
       is_visible="true"
       id="path-effect4853"
       effect="spiro" />
    <marker
       inkscape:stockid="Arrow2Mend"
       orient="auto"
       refY="0"
       refX="0"
       id="Arrow2Mend"
       style="overflow:visible">
      <path
         inkscape:connector-curvature="0"
         id="path3885"
         style="font-size:12px;fill-rule:evenodd;stroke-width:0.625;stroke-linejoin:round"
         d="M 8.7185878,4.0337352 -2.2072895,0.01601326 8.7185884,-4.0017078 c -1.7454984,2.3720609 -1.7354408,5.6174519 -6e-7,8.035443 z"
         transform="scale(-0.6,-0.6)" />
    </marker>
    <marker
       inkscape:stockid="Arrow1Lend"
       orient="auto"
       refY="0"
       refX="0"
       id="Arrow1Lend"
       style="overflow:visible">
      <path
         inkscape:connector-curvature="0"
         id="path3861"
         d="M 0,0 5,-5 -12.5,0 5,5 0,0 z"
         style="fill-rule:evenodd;stroke:#000000;stroke-width:1pt;marker-start:none"
         transform="matrix(-0.8,0,0,-0.8,-10,0)" />
    </marker>
    <inkscape:path-effect
       effect="spiro"
       id="path-effect3853"
       is_visible="true" />
    <inkscape:path-effect
       is_visible="true"
       id="path-effect2989"
       effect="spiro" />
    <marker
       inkscape:stockid="Arrow2Lstartf"
       orient="auto"
       refY="0"
       refX="0"
       id="Arrow2Lstartf"
       style="overflow:visible">
      <path
         inkscape:connector-curvature="0"
         id="path5815"
         style="font-size:12px;fill:#0000ff;fill-rule:evenodd;stroke:#0000ff;stroke-width:0.625;stroke-linejoin:round"
         d="M 8.7185878,4.0337352 -2.2072895,0.01601326 8.7185884,-4.0017078 c -1.7454984,2.3720609 -1.7354408,5.6174519 -6e-7,8.035443 z"
         transform="matrix(1.1,0,0,1.1,1.1,0)" />
    </marker>
    <marker
       inkscape:stockid="Arrow2LstartK"
       orient="auto"
       refY="0"
       refX="0"
       id="Arrow2LstartK"
       style="overflow:visible">
      <path
         inkscape:connector-curvature="0"
         id="path6112"
         style="font-size:12px;fill:#0000ff;fill-rule:evenodd;stroke:#0000ff;stroke-width:0.625;stroke-linejoin:round"
         d="M 8.7185878,4.0337352 -2.2072895,0.01601326 8.7185884,-4.0017078 c -1.7454984,2.3720609 -1.7354408,5.6174519 -6e-7,8.035443 z"
         transform="matrix(1.1,0,0,1.1,1.1,0)" />
    </marker>
  </defs>
  <metadata
     id="metadata7">
    <rdf:RDF>
      <cc:Work
         rdf:about="">
        <dc:format>image/svg+xml</dc:format>
        <dc:type
           rdf:resource="http://purl.org/dc/dcmitype/StillImage" />
        <dc:title />
      </cc:Work>
    </rdf:RDF>
  </metadata>
  <g
     transform="translate(61.130362,-40.615123)"
     id="layer1"
     inkscape:groupmode="layer"
     inkscape:label="Layer 1">
    <path
       sodipodi:nodetypes="cc"
       inkscape:connector-curvature="0"
       inkscape:original-d="m 393.86964,177.00904 c 99,0 -450.000002,0 -450.000002,0"
       inkscape:path-effect="#path-effect2989"
       id="path2987"
       d="m 393.86964,177.00904 -450.000002,0"
       style="fill:#000000;fill-opacity:1;stroke:#000000;stroke-width:2.64575148;stroke-linecap:butt;stroke-linejoin:miter;stroke-miterlimit:4;stroke-opacity:1;stroke-dasharray:none" />
    <rect
       y="177.36218"
       x="-56.397129"
       height="139.64687"
       width="450"
       id="rect3762"
       style="opacity:0.98999999;color:#000000;fill:#000000;fill-opacity:0.39215686;stroke:none;stroke-width:2;marker:none;visibility:visible;display:inline;overflow:visible;enable-background:accumulate" />
    <path
       style="fill:none;stroke:#0000ff;stroke-width:2;stroke-linecap:butt;stroke-linejoin:miter;stroke-miterlimit:4;stroke-opacity:1;stroke-dasharray:none;marker-mid:none"
       d="M 170,177.36218 70,77.362183"
       id="path3851"
       inkscape:path-effect="#path-effect3853"
       inkscape:original-d="m 170,177.36218 c 0,-5 -100,-99.999997 -100,-99.999997"
       inkscape:connector-curvature="0"
       sodipodi:nodetypes="cc" />
    <path
       sodipodi:nodetypes="cc"
       inkscape:connector-curvature="0"
       inkscape:original-d="m 130,137.36218 c 0,-2.5 -60,-59.999997 -60,-59.999997"
       inkscape:path-effect="#path-effect4853"
       id="path4851"
       d="M 130,137.36218 70,77.362183"
       style="fill:none;stroke:#0000ff;stroke-width:2;stroke-linecap:butt;stroke-linejoin:miter;stroke-miterlimit:4;stroke-opacity:1;stroke-dasharray:none;marker-start:url(#Arrow2LstartK);marker-mid:none" />
    <path
       style="fill:none;stroke:#000000;stroke-width:1;stroke-linecap:butt;stroke-linejoin:miter;stroke-miterlimit:4;stroke-opacity:1;stroke-dasharray:6, 6;stroke-dashoffset:0"
       d="M 170,177.36218 170,52.362183"
       id="path6203"
       inkscape:path-effect="#path-effect6205"
       inkscape:original-d="M 170,177.36218 170,52.362183"
       inkscape:connector-curvature="0" />
    <g
       ns0:text="$\\theta$"
       ns0:preamble=""
       transform="matrix(2.5,0,0,2.5,-437.72093,-269.78175)"
       id="g6297">
      <defs
         id="defs6299">
        <g
           id="g6301">
          <symbol
             style="overflow:visible"
             overflow="visible"
             id="textext-bfdbd9ef-0">
            <path
               inkscape:connector-curvature="0"
               style="stroke:none"
               d="m 4.53125,-4.984375 c 0,-0.65625 -0.171875,-2.046875 -1.1875,-2.046875 -1.390625,0 -2.921875,2.8125 -2.921875,5.09375 0,0.9375 0.28125,2.046875 1.1875,2.046875 1.40625,0 2.921875,-2.859375 2.921875,-5.09375 z M 1.46875,-3.625 C 1.640625,-4.25 1.84375,-5.046875 2.25,-5.765625 2.515625,-6.25 2.875,-6.8125 3.328125,-6.8125 c 0.484375,0 0.546875,0.640625 0.546875,1.203125 0,0.5 -0.078125,1 -0.3125,1.984375 z m 2,0.328125 C 3.359375,-2.84375 3.15625,-2 2.765625,-1.28125 c -0.34375,0.6875 -0.71875,1.171875 -1.15625,1.171875 -0.328125,0 -0.53125,-0.296875 -0.53125,-1.21875 0,-0.421875 0.0625,-1 0.3125,-1.96875 z m 0,0"
               id="path6304" />
          </symbol>
        </g>
      </defs>
      <g
         id="textext-bfdbd9ef-1">
        <g
           style="fill:#ff0000;fill-opacity:1"
           id="g6307">
          <use
             height="1052.3622"
             width="744.09448"
             xlink:href="#textext-bfdbd9ef-0"
             x="223.43201"
             y="134.765"
             id="use6309" />
          <use
             id="use8878"
             y="134.765"
             x="223.43201"
             xlink:href="#textext-bfdbd9ef-0"
             width="744.09448"
             height="1052.3622" />
          <use
             height="1052.3622"
             width="744.09448"
             xlink:href="#textext-bfdbd9ef-0"
             x="223.43201"
             y="134.765"
             id="use8880" />
        </g>
      </g>
    </g>
    <g
       ns0:text="\\fbox{\\hspace{0.06in}$\\epsilon,\\mu$\\hspace{0.06in}}"
       ns0:preamble=""
       transform="matrix(2.5,0,0,2.5,-557.22093,-125.28175)"
       id="g7338">
      <defs
         id="defs7340">
        <g
           id="g7342">
          <symbol
             style="overflow:visible"
             overflow="visible"
             id="textext-8d6d536f-0">
            <path
               inkscape:connector-curvature="0"
               style="stroke:none"
               d="m 2.96875,-2.25 c 0.15625,0 0.34375,0 0.34375,-0.171875 0,-0.140625 -0.125,-0.140625 -0.296875,-0.140625 l -1.609375,0 c 0.234375,-0.84375 0.796875,-1.421875 1.703125,-1.421875 l 0.3125,0 c 0.171875,0 0.328125,0 0.328125,-0.171875 0,-0.140625 -0.125,-0.140625 -0.296875,-0.140625 l -0.359375,0 c -1.296875,0 -2.625,1 -2.625,2.515625 0,1.109375 0.75,1.890625 1.796875,1.890625 0.65625,0 1.296875,-0.40625 1.296875,-0.515625 0,-0.015625 0,-0.125 -0.09375,-0.125 -0.015625,0 -0.046875,0 -0.125,0.046875 -0.3125,0.203125 -0.6875,0.375 -1.046875,0.375 -0.578125,0 -1.078125,-0.421875 -1.078125,-1.296875 0,-0.34375 0.078125,-0.734375 0.109375,-0.84375 z m 0,0"
               id="path7345" />
          </symbol>
          <symbol
             style="overflow:visible"
             overflow="visible"
             id="textext-8d6d536f-1">
            <path
               inkscape:connector-curvature="0"
               style="stroke:none"
               d="m 2.03125,-0.015625 c 0,-0.65625 -0.25,-1.046875 -0.640625,-1.046875 -0.328125,0 -0.53125,0.25 -0.53125,0.53125 C 0.859375,-0.265625 1.0625,0 1.390625,0 1.5,0 1.640625,-0.046875 1.734375,-0.125 1.765625,-0.15625 1.78125,-0.15625 1.78125,-0.15625 c 0.015625,0 0.015625,0 0.015625,0.140625 0,0.75 -0.34375,1.34375 -0.671875,1.671875 -0.109375,0.109375 -0.109375,0.125 -0.109375,0.15625 0,0.078125 0.046875,0.109375 0.09375,0.109375 0.109375,0 0.921875,-0.765625 0.921875,-1.9375 z m 0,0"
               id="path7348" />
          </symbol>
          <symbol
             style="overflow:visible"
             overflow="visible"
             id="textext-8d6d536f-2">
            <path
               inkscape:connector-curvature="0"
               style="stroke:none"
               d="m 2.296875,-3.5 c 0.0625,-0.203125 0.15625,-0.59375 0.15625,-0.640625 0,-0.171875 -0.125,-0.265625 -0.296875,-0.265625 -0.015625,0 -0.296875,0.015625 -0.390625,0.359375 l -1.4375,5.765625 c -0.03125,0.125 -0.03125,0.140625 -0.03125,0.171875 0,0.140625 0.109375,0.265625 0.28125,0.265625 0.203125,0 0.328125,-0.1875 0.34375,-0.21875 C 0.96875,1.859375 1.09375,1.328125 1.46875,-0.203125 1.796875,0.0625 2.25,0.109375 2.4375,0.109375 c 0.703125,0 1.09375,-0.453125 1.328125,-0.734375 0.09375,0.453125 0.46875,0.734375 0.90625,0.734375 0.34375,0 0.578125,-0.234375 0.734375,-0.546875 0.171875,-0.359375 0.296875,-0.96875 0.296875,-0.984375 0,-0.109375 -0.09375,-0.109375 -0.125,-0.109375 -0.09375,0 -0.109375,0.046875 -0.140625,0.1875 -0.15625,0.640625 -0.34375,1.234375 -0.75,1.234375 -0.265625,0 -0.296875,-0.265625 -0.296875,-0.453125 0,-0.21875 0.109375,-0.6875 0.1875,-1.046875 L 4.859375,-2.6875 C 4.890625,-2.828125 5,-3.203125 5.03125,-3.359375 5.078125,-3.59375 5.1875,-3.96875 5.1875,-4.03125 c 0,-0.171875 -0.140625,-0.265625 -0.296875,-0.265625 -0.046875,0 -0.3125,0.015625 -0.390625,0.34375 l -0.46875,1.875 c -0.109375,0.5 -0.21875,0.90625 -0.25,1.015625 -0.015625,0.046875 -0.484375,0.953125 -1.296875,0.953125 -0.5,0 -0.734375,-0.328125 -0.734375,-0.875 0,-0.28125 0.0625,-0.5625 0.140625,-0.84375 z m 0,0"
               id="path7351" />
          </symbol>
        </g>
      </defs>
      <g
         id="textext-8d6d536f-3">
        <path
           inkscape:connector-curvature="0"
           style="fill:none;stroke:#000000;stroke-width:0.398;stroke-linecap:butt;stroke-linejoin:miter;stroke-miterlimit:10;stroke-opacity:1"
           d="m 0.00159375,0.00184375 29.88671825,0"
           transform="matrix(1,0,0,-1,223.432,127.287)"
           id="path7354" />
        <path
           inkscape:connector-curvature="0"
           style="fill:none;stroke:#000000;stroke-width:0.398;stroke-linecap:butt;stroke-linejoin:miter;stroke-miterlimit:10;stroke-opacity:1"
           d="m 0.0018125,-4.0625e-4 0,12.20312525"
           transform="matrix(1,0,0,-1,223.631,139.691)"
           id="path7356" />
        <g
           style="fill:#000000;fill-opacity:1"
           id="g7358">
          <use
             height="1052.3622"
             width="744.09448"
             xlink:href="#textext-8d6d536f-0"
             x="231.13901"
             y="134.765"
             id="use7360" />
          <use
             height="1052.3622"
             width="744.09448"
             xlink:href="#textext-8d6d536f-1"
             x="235.18282"
             y="134.765"
             id="use7362" />
        </g>
        <g
           style="fill:#000000;fill-opacity:1"
           id="g7364">
          <use
             height="1052.3622"
             width="744.09448"
             xlink:href="#textext-8d6d536f-2"
             x="239.61418"
             y="134.765"
             id="use7366" />
        </g>
        <path
           inkscape:connector-curvature="0"
           style="fill:none;stroke:#000000;stroke-width:0.398;stroke-linecap:butt;stroke-linejoin:miter;stroke-miterlimit:10;stroke-opacity:1"
           d="m -9.0625e-4,-4.0625e-4 0,12.20312525"
           transform="matrix(1,0,0,-1,253.122,139.691)"
           id="path7368" />
        <path
           inkscape:connector-curvature="0"
           style="fill:none;stroke:#000000;stroke-width:0.398;stroke-linecap:butt;stroke-linejoin:miter;stroke-miterlimit:10;stroke-opacity:1"
           d="m 0.00159375,-6.25e-4 29.88671825,0"
           transform="matrix(1,0,0,-1,223.432,139.89)"
           id="path7370" />
      </g>
    </g>
    <path
       sodipodi:nodetypes="ccc"
       inkscape:connector-curvature="0"
       inkscape:original-d="m 115,104.86218 c 4.69853,-9.595881 6.82224,-22.147664 10,-24.999997 6.47104,-5.648507 40,-10 40,-10"
       inkscape:path-effect="#path-effect7458"
       id="path7456"
       d="m 115,104.86218 c 0.13546,-9.177547 3.76875,-18.260765 10,-24.999997 4.93703,-5.339502 11.45408,-9.199746 18.50912,-10.963508 7.05505,-1.763761 14.62197,-1.42451 21.49088,0.963508"
       style="fill:none;stroke:#ff0000;stroke-width:2;stroke-linecap:butt;stroke-linejoin:miter;stroke-miterlimit:4;stroke-opacity:1;stroke-dasharray:none" />
    <g
       id="g7558"
       transform="matrix(2.5,0,0,2.5,-520.22093,-262.28175)"
       ns0:preamble=""
       ns0:text="$\\mathbf{E}^{\\hbox{\\scriptsize{inc}}}$">
      <defs
         id="defs7560">
        <g
           id="g7562">
          <symbol
             id="textext-3f8bf975-0"
             overflow="visible"
             style="overflow:visible">
            <path
               id="path7565"
               d="m 7.203125,-2.734375 -0.46875,0 c -0.21875,1.375 -0.5,2.265625 -2.34375,2.265625 l -1.515625,0 0,-2.8125 0.546875,0 c 0.96875,0 1.0625,0.4375 1.0625,1.171875 l 0.46875,0 0,-2.8125 -0.46875,0 c 0,0.75 -0.09375,1.171875 -1.0625,1.171875 l -0.546875,0 0,-2.5625 1.515625,0 c 1.609375,0 1.875,0.734375 2.03125,1.9375 l 0.46875,0 -0.3125,-2.40625 -6.1875,0 0,0.46875 1.078125,0 0,5.84375 -1.078125,0 0,0.46875 L 6.75,0 z m 0,0"
               style="stroke:none"
               inkscape:connector-curvature="0" />
          </symbol>
          <symbol
             id="textext-3f8bf975-1"
             overflow="visible"
             style="overflow:visible">
            <path
               id="path7568"
               d="m 1.46875,-4.296875 c 0,-0.203125 -0.171875,-0.40625 -0.40625,-0.40625 -0.203125,0 -0.390625,0.171875 -0.390625,0.40625 0,0.25 0.203125,0.40625 0.390625,0.40625 0.234375,0 0.40625,-0.171875 0.40625,-0.40625 z M 0.40625,-3 l 0,0.25 c 0.4375,0 0.5,0.046875 0.5,0.390625 l 0,1.8125 C 0.90625,-0.25 0.84375,-0.25 0.390625,-0.25 l 0,0.25 c 0.015625,0 0.5,-0.03125 0.78125,-0.03125 0.25,0 0.5,0.015625 0.734375,0.03125 l 0,-0.25 C 1.5,-0.25 1.4375,-0.25 1.4375,-0.546875 l 0,-2.53125 z m 0,0"
               style="stroke:none"
               inkscape:connector-curvature="0" />
          </symbol>
          <symbol
             id="textext-3f8bf975-2"
             overflow="visible"
             style="overflow:visible">
            <path
               id="path7571"
               d="m 3.59375,-2.109375 c 0,-0.609375 -0.296875,-0.96875 -1.046875,-0.96875 -0.578125,0 -0.9375,0.3125 -1.140625,0.6875 l 0,-0.6875 L 0.375,-3 l 0,0.25 c 0.46875,0 0.53125,0.046875 0.53125,0.390625 l 0,1.8125 C 0.90625,-0.25 0.828125,-0.25 0.375,-0.25 l 0,0.25 C 0.390625,0 0.875,-0.03125 1.171875,-0.03125 1.421875,-0.03125 1.90625,0 1.96875,0 l 0,-0.25 c -0.453125,0 -0.515625,0 -0.515625,-0.296875 l 0,-1.265625 c 0,-0.71875 0.578125,-1.0625 1.03125,-1.0625 0.484375,0 0.546875,0.375 0.546875,0.734375 l 0,1.59375 C 3.03125,-0.25 2.96875,-0.25 2.515625,-0.25 l 0,0.25 C 2.53125,0 3.015625,-0.03125 3.3125,-0.03125 3.5625,-0.03125 4.046875,0 4.109375,0 l 0,-0.25 c -0.453125,0 -0.515625,0 -0.515625,-0.296875 z m 0,0"
               style="stroke:none"
               inkscape:connector-curvature="0" />
          </symbol>
          <symbol
             id="textext-3f8bf975-3"
             overflow="visible"
             style="overflow:visible">
            <path
               id="path7574"
               d="m 2.703125,-2.78125 c -0.125,0.0625 -0.1875,0.171875 -0.1875,0.3125 0,0.1875 0.125,0.328125 0.328125,0.328125 0.1875,0 0.328125,-0.125 0.328125,-0.34375 0,-0.625 -0.96875,-0.625 -1.15625,-0.625 -1.046875,0 -1.6875,0.796875 -1.6875,1.609375 0,0.875 0.734375,1.5625 1.65625,1.5625 1.03125,0 1.28125,-0.8125 1.28125,-0.90625 0,-0.078125 -0.09375,-0.078125 -0.125,-0.078125 -0.09375,0 -0.09375,0.015625 -0.125,0.125 C 2.859375,-0.375 2.484375,-0.15625 2.0625,-0.15625 c -0.484375,0 -1.109375,-0.359375 -1.109375,-1.359375 0,-0.875 0.4375,-1.375 1.078125,-1.375 0.09375,0 0.421875,0 0.671875,0.109375 z m 0,0"
               style="stroke:none"
               inkscape:connector-curvature="0" />
          </symbol>
        </g>
      </defs>
      <g
         id="textext-3f8bf975-4">
        <g
           id="g7577"
           style="fill:#0000ff;fill-opacity:1">
          <use
             id="use7579"
             y="134.765"
             x="223.43201"
             xlink:href="#textext-3f8bf975-0"
             width="744.09448"
             height="1052.3622" />
        </g>
        <g
           id="g7581"
           style="fill:#0000ff;fill-opacity:1">
          <use
             id="use7583"
             y="131.14999"
             x="230.959"
             xlink:href="#textext-3f8bf975-1"
             width="744.09448"
             height="1052.3622" />
          <use
             id="use7585"
             y="131.14999"
             x="233.21432"
             xlink:href="#textext-3f8bf975-2"
             width="744.09448"
             height="1052.3622" />
          <use
             id="use7587"
             y="131.14999"
             x="237.61479"
             xlink:href="#textext-3f8bf975-3"
             width="744.09448"
             height="1052.3622" />
        </g>
      </g>
    </g>
    <path
       sodipodi:nodetypes="cc"
       inkscape:connector-curvature="0"
       inkscape:original-d="m 170,177.36218 c 0,-5 100,-99.999997 100,-99.999997"
       inkscape:path-effect="#path-effect8285"
       id="path8281"
       d="M 170,177.36218 270,77.362183"
       style="fill:none;stroke:#0000ff;stroke-width:2;stroke-linecap:butt;stroke-linejoin:miter;stroke-miterlimit:4;stroke-opacity:1;stroke-dasharray:none;marker-mid:none" />
    <path
       style="fill:none;stroke:#0000ff;stroke-width:2;stroke-linecap:butt;stroke-linejoin:miter;stroke-miterlimit:4;stroke-opacity:1;stroke-dasharray:none;marker-start:url(#Arrow2LstartK);marker-mid:none"
       d="M 228.45931,118.95269 195,152.36218"
       id="path8283"
       inkscape:path-effect="#path-effect8287"
       inkscape:original-d="m 228.45931,118.95269 c 0,2.5 -33.45931,33.40949 -33.45931,33.40949"
       inkscape:connector-curvature="0"
       sodipodi:nodetypes="cc" />
    <path
       sodipodi:nodetypes="cc"
       inkscape:connector-curvature="0"
       inkscape:original-d="m 232.02082,304.23224 c 0,-5 -62.02082,-126.87006 -62.02082,-126.87006"
       inkscape:path-effect="#path-effect8870"
       id="path8866"
       d="M 232.02082,304.23224 170,177.36218"
       style="fill:none;stroke:#0000ff;stroke-width:2;stroke-linecap:butt;stroke-linejoin:miter;stroke-miterlimit:4;stroke-opacity:1;stroke-dasharray:none;marker-mid:none" />
    <path
       style="fill:none;stroke:#0000ff;stroke-width:2;stroke-linecap:butt;stroke-linejoin:miter;stroke-miterlimit:4;stroke-opacity:1;stroke-dasharray:none;marker-start:url(#Arrow2LstartK);marker-mid:none"
       d="m 207.5,252.36218 -25,-50"
       id="path8868"
       inkscape:path-effect="#path-effect8872"
       inkscape:original-d="m 207.5,252.36218 c 0,-2.5 -25,-50 -25,-50"
       inkscape:connector-curvature="0"
       sodipodi:nodetypes="cc" />
    <path
       inkscape:connector-curvature="0"
       inkscape:original-d="m 170,302.36218 0,-125"
       inkscape:path-effect="#path-effect8876"
       id="path8874"
       d="m 170,302.36218 0,-125"
       style="fill:none;stroke:#000000;stroke-width:1;stroke-linecap:butt;stroke-linejoin:miter;stroke-miterlimit:4;stroke-opacity:1;stroke-dasharray:6, 6;stroke-dashoffset:0" />
    <path
       style="fill:none;stroke:#ff0000;stroke-width:2;stroke-linecap:butt;stroke-linejoin:miter;stroke-miterlimit:4;stroke-opacity:1;stroke-dasharray:none"
       d="m 210,267.36218 c -1.90785,3.72696 -4.45632,7.12492 -7.5,10 -7.29141,6.88752 -17.48759,10.59522 -27.5,10"
       id="path8902"
       inkscape:path-effect="#path-effect8904"
       inkscape:original-d="m 210,267.36218 c -25,25 -3.23599,9.77128 -7.5,10 -49.92823,2.67805 -27.5,10 -27.5,10"
       inkscape:connector-curvature="0"
       sodipodi:nodetypes="csc" />
    <g
       style="fill:#0000ff;fill-opacity:0.76572074"
       id="g10248"
       transform="matrix(2.5,0,0,2.5,-321.63514,-38.541635)"
       ns0:preamble=""
       ns0:text="$\\mathbf{E}^{\\hbox{\\scriptsize{trans}}}$">
      <defs
         id="defs10250">
        <g
           id="g10252">
          <symbol
             style="overflow:visible"
             id="textext-38ee88e9-0"
             overflow="visible">
            <path
               inkscape:connector-curvature="0"
               id="path10255"
               d="m 7.203125,-2.734375 -0.46875,0 c -0.21875,1.375 -0.5,2.265625 -2.34375,2.265625 l -1.515625,0 0,-2.8125 0.546875,0 c 0.96875,0 1.0625,0.4375 1.0625,1.171875 l 0.46875,0 0,-2.8125 -0.46875,0 c 0,0.75 -0.09375,1.171875 -1.0625,1.171875 l -0.546875,0 0,-2.5625 1.515625,0 c 1.609375,0 1.875,0.734375 2.03125,1.9375 l 0.46875,0 -0.3125,-2.40625 -6.1875,0 0,0.46875 1.078125,0 0,5.84375 -1.078125,0 0,0.46875 L 6.75,0 z m 0,0"
               style="stroke:none" />
          </symbol>
          <symbol
             style="overflow:visible"
             id="textext-38ee88e9-1"
             overflow="visible">
            <path
               inkscape:connector-curvature="0"
               id="path10258"
               d="m 1.40625,-2.75 1.078125,0 0,-0.25 -1.078125,0 0,-1.28125 -0.25,0 c 0,0.625 -0.28125,1.3125 -0.953125,1.328125 l 0,0.203125 0.640625,0 0,1.875 c 0,0.78125 0.59375,0.9375 0.984375,0.9375 0.46875,0 0.78125,-0.390625 0.78125,-0.9375 l 0,-0.390625 -0.234375,0 0,0.375 c 0,0.484375 -0.21875,0.734375 -0.5,0.734375 -0.46875,0 -0.46875,-0.578125 -0.46875,-0.703125 z m 0,0"
               style="stroke:none" />
          </symbol>
          <symbol
             style="overflow:visible"
             id="textext-38ee88e9-2"
             overflow="visible">
            <path
               inkscape:connector-curvature="0"
               id="path10261"
               d="m 1.390625,-1.59375 c 0,-0.578125 0.265625,-1.28125 0.9375,-1.28125 -0.0625,0.046875 -0.125,0.140625 -0.125,0.25 0,0.234375 0.1875,0.3125 0.3125,0.3125 0.171875,0 0.328125,-0.109375 0.328125,-0.3125 0,-0.234375 -0.234375,-0.453125 -0.5625,-0.453125 -0.34375,0 -0.734375,0.21875 -0.9375,0.75 l 0,-0.75 -1,0.078125 0,0.25 c 0.46875,0 0.515625,0.046875 0.515625,0.390625 l 0,1.8125 C 0.859375,-0.25 0.796875,-0.25 0.34375,-0.25 l 0,0.25 c 0.03125,0 0.5,-0.03125 0.796875,-0.03125 0.296875,0 0.59375,0.015625 0.90625,0.03125 l 0,-0.25 -0.140625,0 c -0.515625,0 -0.515625,-0.078125 -0.515625,-0.3125 z m 0,0"
               style="stroke:none" />
          </symbol>
          <symbol
             style="overflow:visible"
             id="textext-38ee88e9-3"
             overflow="visible">
            <path
               inkscape:connector-curvature="0"
               id="path10264"
               d="m 3.109375,-1.875 c 0,-0.359375 0,-0.625 -0.328125,-0.890625 C 2.5,-3 2.171875,-3.109375 1.75,-3.109375 c -0.65625,0 -1.125,0.25 -1.125,0.671875 0,0.234375 0.15625,0.34375 0.34375,0.34375 0.1875,0 0.328125,-0.140625 0.328125,-0.328125 0,-0.109375 -0.0625,-0.265625 -0.25,-0.3125 0.25,-0.171875 0.65625,-0.171875 0.6875,-0.171875 0.390625,0 0.828125,0.25 0.828125,0.84375 l 0,0.203125 C 2.171875,-1.84375 1.71875,-1.8125 1.203125,-1.625 c -0.625,0.21875 -0.8125,0.609375 -0.8125,0.921875 0,0.59375 0.71875,0.765625 1.21875,0.765625 0.546875,0 0.875,-0.3125 1.03125,-0.578125 0.015625,0.28125 0.203125,0.546875 0.53125,0.546875 0.015625,0 0.6875,0 0.6875,-0.65625 l 0,-0.390625 -0.234375,0 0,0.375 c 0,0.078125 0,0.40625 -0.265625,0.40625 -0.25,0 -0.25,-0.328125 -0.25,-0.40625 z M 2.5625,-0.984375 c 0,0.671875 -0.59375,0.859375 -0.90625,0.859375 -0.359375,0 -0.6875,-0.234375 -0.6875,-0.578125 0,-0.390625 0.328125,-0.921875 1.59375,-0.96875 z m 0,0"
               style="stroke:none" />
          </symbol>
          <symbol
             style="overflow:visible"
             id="textext-38ee88e9-4"
             overflow="visible">
            <path
               inkscape:connector-curvature="0"
               id="path10267"
               d="m 3.59375,-2.109375 c 0,-0.609375 -0.296875,-0.96875 -1.046875,-0.96875 -0.578125,0 -0.9375,0.3125 -1.140625,0.6875 l 0,-0.6875 L 0.375,-3 l 0,0.25 c 0.46875,0 0.53125,0.046875 0.53125,0.390625 l 0,1.8125 C 0.90625,-0.25 0.828125,-0.25 0.375,-0.25 l 0,0.25 C 0.390625,0 0.875,-0.03125 1.171875,-0.03125 1.421875,-0.03125 1.90625,0 1.96875,0 l 0,-0.25 c -0.453125,0 -0.515625,0 -0.515625,-0.296875 l 0,-1.265625 c 0,-0.71875 0.578125,-1.0625 1.03125,-1.0625 0.484375,0 0.546875,0.375 0.546875,0.734375 l 0,1.59375 C 3.03125,-0.25 2.96875,-0.25 2.515625,-0.25 l 0,0.25 C 2.53125,0 3.015625,-0.03125 3.3125,-0.03125 3.5625,-0.03125 4.046875,0 4.109375,0 l 0,-0.25 c -0.453125,0 -0.515625,0 -0.515625,-0.296875 z m 0,0"
               style="stroke:none" />
          </symbol>
          <symbol
             style="overflow:visible"
             id="textext-38ee88e9-5"
             overflow="visible">
            <path
               inkscape:connector-curvature="0"
               id="path10270"
               d="m 2.640625,-2.921875 c 0,-0.125 0,-0.1875 -0.09375,-0.1875 -0.03125,0 -0.046875,0 -0.140625,0.078125 -0.015625,0.015625 -0.078125,0.078125 -0.125,0.109375 -0.21875,-0.140625 -0.46875,-0.1875 -0.734375,-0.1875 -1,0 -1.234375,0.53125 -1.234375,0.875 0,0.21875 0.09375,0.40625 0.265625,0.546875 0.265625,0.21875 0.53125,0.265625 0.96875,0.34375 0.34375,0.0625 0.90625,0.15625 0.90625,0.625 0,0.265625 -0.1875,0.59375 -0.859375,0.59375 -0.671875,0 -0.90625,-0.4375 -1.03125,-0.90625 -0.03125,-0.09375 -0.03125,-0.125 -0.125,-0.125 -0.125,0 -0.125,0.046875 -0.125,0.1875 l 0,0.859375 C 0.3125,0 0.3125,0.0625 0.40625,0.0625 0.46875,0.0625 0.609375,-0.078125 0.75,-0.234375 1.046875,0.0625 1.421875,0.0625 1.59375,0.0625 c 0.90625,0 1.25,-0.484375 1.25,-0.96875 0,-0.265625 -0.125,-0.484375 -0.3125,-0.640625 -0.265625,-0.25 -0.578125,-0.3125 -0.828125,-0.34375 -0.546875,-0.109375 -1,-0.1875 -1,-0.5625 0,-0.21875 0.1875,-0.484375 0.84375,-0.484375 0.8125,0 0.84375,0.5625 0.859375,0.765625 0,0.078125 0.09375,0.078125 0.109375,0.078125 0.125,0 0.125,-0.046875 0.125,-0.1875 z m 0,0"
               style="stroke:none" />
          </symbol>
        </g>
      </defs>
      <g
         style="fill:#0000ff;fill-opacity:0.76572074"
         id="textext-38ee88e9-6">
        <g
           id="g10273"
           style="fill:#0000ff;fill-opacity:0.76572074">
          <use
             height="1052.3622"
             width="744.09448"
             style="fill:#0000ff;fill-opacity:0.76572074"
             id="use10275"
             y="134.765"
             x="223.43201"
             xlink:href="#textext-38ee88e9-0" />
        </g>
        <g
           id="g10277"
           style="fill:#0000ff;fill-opacity:0.76572074">
          <use
             height="1052.3622"
             width="744.09448"
             style="fill:#0000ff;fill-opacity:0.76572074"
             id="use10279"
             y="131.14999"
             x="230.959"
             xlink:href="#textext-38ee88e9-1" />
          <use
             height="1052.3622"
             width="744.09448"
             style="fill:#0000ff;fill-opacity:0.76572074"
             id="use10281"
             y="131.14999"
             x="234.0721"
             xlink:href="#textext-38ee88e9-2" />
          <use
             height="1052.3622"
             width="744.09448"
             style="fill:#0000ff;fill-opacity:0.76572074"
             id="use10283"
             y="131.14999"
             x="237.18521"
             xlink:href="#textext-38ee88e9-3" />
          <use
             height="1052.3622"
             width="744.09448"
             style="fill:#0000ff;fill-opacity:0.76572074"
             id="use10285"
             y="131.14999"
             x="241.15678"
             xlink:href="#textext-38ee88e9-4" />
          <use
             height="1052.3622"
             width="744.09448"
             style="fill:#0000ff;fill-opacity:0.76572074"
             id="use10287"
             y="131.14999"
             x="245.55725"
             xlink:href="#textext-38ee88e9-5" />
        </g>
      </g>
    </g>
    <g
       id="g17401"
       ns0:preamble=""
       ns0:text="$\\mathbf{E}^{\\hbox{\\scriptsize{refl}}}$"
       transform="matrix(2.5,0,0,2.5,-305.36365,-262.85064)">
      <defs
         id="defs17403">
        <g
           id="g17405">
          <symbol
             id="textext-af9db418-0"
             overflow="visible"
             style="overflow:visible">
            <path
               id="path17408"
               d="m 7.203125,-2.734375 -0.46875,0 c -0.21875,1.375 -0.5,2.265625 -2.34375,2.265625 l -1.515625,0 0,-2.8125 0.546875,0 c 0.96875,0 1.0625,0.4375 1.0625,1.171875 l 0.46875,0 0,-2.8125 -0.46875,0 c 0,0.75 -0.09375,1.171875 -1.0625,1.171875 l -0.546875,0 0,-2.5625 1.515625,0 c 1.609375,0 1.875,0.734375 2.03125,1.9375 l 0.46875,0 -0.3125,-2.40625 -6.1875,0 0,0.46875 1.078125,0 0,5.84375 -1.078125,0 0,0.46875 L 6.75,0 z m 0,0"
               style="stroke:none"
               inkscape:connector-curvature="0" />
          </symbol>
          <symbol
             id="textext-af9db418-1"
             overflow="visible"
             style="overflow:visible">
            <path
               id="path17411"
               d="m 1.390625,-1.59375 c 0,-0.578125 0.265625,-1.28125 0.9375,-1.28125 -0.0625,0.046875 -0.125,0.140625 -0.125,0.25 0,0.234375 0.1875,0.3125 0.3125,0.3125 0.171875,0 0.328125,-0.109375 0.328125,-0.3125 0,-0.234375 -0.234375,-0.453125 -0.5625,-0.453125 -0.34375,0 -0.734375,0.21875 -0.9375,0.75 l 0,-0.75 -1,0.078125 0,0.25 c 0.46875,0 0.515625,0.046875 0.515625,0.390625 l 0,1.8125 C 0.859375,-0.25 0.796875,-0.25 0.34375,-0.25 l 0,0.25 c 0.03125,0 0.5,-0.03125 0.796875,-0.03125 0.296875,0 0.59375,0.015625 0.90625,0.03125 l 0,-0.25 -0.140625,0 c -0.515625,0 -0.515625,-0.078125 -0.515625,-0.3125 z m 0,0"
               style="stroke:none"
               inkscape:connector-curvature="0" />
          </symbol>
          <symbol
             id="textext-af9db418-2"
             overflow="visible"
             style="overflow:visible">
            <path
               id="path17414"
               d="m 3.0625,-1.59375 c 0.15625,0 0.203125,0 0.203125,-0.140625 0,-0.625 -0.34375,-1.375 -1.390625,-1.375 -0.90625,0 -1.609375,0.71875 -1.609375,1.578125 0,0.890625 0.78125,1.59375 1.703125,1.59375 0.9375,0 1.296875,-0.75 1.296875,-0.90625 0,-0.015625 -0.015625,-0.09375 -0.125,-0.09375 -0.09375,0 -0.109375,0.046875 -0.125,0.109375 -0.21875,0.5625 -0.75,0.671875 -1,0.671875 C 1.6875,-0.15625 1.375,-0.296875 1.171875,-0.5625 0.90625,-0.890625 0.90625,-1.3125 0.90625,-1.59375 z M 0.90625,-1.765625 C 0.984375,-2.75 1.609375,-2.90625 1.875,-2.90625 c 0.859375,0 0.890625,0.96875 0.90625,1.140625 z m 0,0"
               style="stroke:none"
               inkscape:connector-curvature="0" />
          </symbol>
          <symbol
             id="textext-af9db418-3"
             overflow="visible"
             style="overflow:visible">
            <path
               id="path17417"
               d="m 3.640625,-4.84375 c -0.0625,0.015625 -0.265625,0.046875 -0.28125,0.046875 -0.015625,0 -0.03125,0 -0.0625,-0.015625 -0.265625,-0.09375 -0.5625,-0.09375 -0.6875,-0.09375 -0.859375,0 -1.75,0.375 -1.75,1.140625 l 0,0.765625 -0.59375,0 0,0.25 0.59375,0 0,2.203125 C 0.859375,-0.25 0.796875,-0.25 0.34375,-0.25 l 0,0.25 c 0.015625,0 0.5,-0.03125 0.78125,-0.03125 0.265625,0 0.515625,0.015625 0.78125,0.03125 l 0,-0.25 c -0.453125,0 -0.515625,0 -0.515625,-0.296875 l 0,-2.203125 1.71875,0 0,2.203125 C 3.109375,-0.25 3.046875,-0.25 2.59375,-0.25 l 0,0.25 c 0.015625,0 0.5,-0.03125 0.78125,-0.03125 0.265625,0 0.515625,0.015625 0.78125,0.03125 l 0,-0.25 c -0.453125,0 -0.515625,0 -0.515625,-0.296875 z M 1.359375,-3 l 0,-0.765625 c 0,-0.609375 0.578125,-0.9375 1.234375,-0.9375 0.1875,0 0.3125,0 0.5,0.046875 C 3,-4.609375 2.953125,-4.5 2.953125,-4.390625 c 0,0.03125 0.015625,0.1875 0.15625,0.265625 l 0,1.125 z m 0,0"
               style="stroke:none"
               inkscape:connector-curvature="0" />
          </symbol>
        </g>
      </defs>
      <g
         id="textext-af9db418-4">
        <g
           id="g17420"
           style="fill:#0000ff;fill-opacity:1">
          <use
             id="use17422"
             y="134.765"
             x="223.43201"
             xlink:href="#textext-af9db418-0"
             width="744.09448"
             height="1052.3622" />
        </g>
        <g
           id="g17424"
           style="fill:#0000ff;fill-opacity:1">
          <use
             id="use17426"
             y="131.14999"
             x="230.959"
             xlink:href="#textext-af9db418-1"
             width="744.09448"
             height="1052.3622" />
          <use
             id="use17428"
             y="131.14999"
             x="234.0721"
             xlink:href="#textext-af9db418-2"
             width="744.09448"
             height="1052.3622" />
          <use
             id="use17430"
             y="131.14999"
             x="237.61409"
             xlink:href="#textext-af9db418-3"
             width="744.09448"
             height="1052.3622" />
        </g>
      </g>
    </g>
    <g
       id="g18224"
       ns0:preamble=""
       ns0:text="$\\theta^\\prime$\n"
       transform="matrix(2.5,0,0,2.5,-363.82812,-22.67688)">
      <defs
         id="defs18226">
        <g
           id="g18228">
          <symbol
             id="textext-269ec9f9-0"
             overflow="visible"
             style="overflow:visible">
            <path
               id="path18231"
               d="m 4.53125,-4.984375 c 0,-0.65625 -0.171875,-2.046875 -1.1875,-2.046875 -1.390625,0 -2.921875,2.8125 -2.921875,5.09375 0,0.9375 0.28125,2.046875 1.1875,2.046875 1.40625,0 2.921875,-2.859375 2.921875,-5.09375 z M 1.46875,-3.625 C 1.640625,-4.25 1.84375,-5.046875 2.25,-5.765625 2.515625,-6.25 2.875,-6.8125 3.328125,-6.8125 c 0.484375,0 0.546875,0.640625 0.546875,1.203125 0,0.5 -0.078125,1 -0.3125,1.984375 z m 2,0.328125 C 3.359375,-2.84375 3.15625,-2 2.765625,-1.28125 c -0.34375,0.6875 -0.71875,1.171875 -1.15625,1.171875 -0.328125,0 -0.53125,-0.296875 -0.53125,-1.21875 0,-0.421875 0.0625,-1 0.3125,-1.96875 z m 0,0"
               style="stroke:none"
               inkscape:connector-curvature="0" />
          </symbol>
          <symbol
             id="textext-269ec9f9-1"
             overflow="visible"
             style="overflow:visible">
            <path
               id="path18234"
               d="m 2.015625,-3.296875 c 0.0625,-0.109375 0.0625,-0.171875 0.0625,-0.21875 0,-0.21875 -0.1875,-0.375 -0.40625,-0.375 -0.265625,0 -0.34375,0.21875 -0.375,0.328125 L 0.375,-0.546875 c -0.015625,0.015625 -0.046875,0.09375 -0.046875,0.109375 0,0.078125 0.21875,0.15625 0.28125,0.15625 0.046875,0 0.046875,-0.015625 0.09375,-0.125 z m 0,0"
               style="stroke:none"
               inkscape:connector-curvature="0" />
          </symbol>
        </g>
      </defs>
      <g
         id="textext-269ec9f9-2">
        <g
           id="g18237"
           style="fill:#ff0000;fill-opacity:1">
          <use
             id="use18239"
             y="134.765"
             x="223.43201"
             xlink:href="#textext-269ec9f9-0"
             width="744.09448"
             height="1052.3622" />
        </g>
        <g
           id="g18241"
           style="fill:#ff0000;fill-opacity:1">
          <use
             id="use18243"
             y="131.14999"
             x="228.386"
             xlink:href="#textext-269ec9f9-1"
             width="744.09448"
             height="1052.3622" />
        </g>
      </g>
    </g>
    <path
       inkscape:connector-curvature="0"
       inkscape:original-d="m -57.5,99.86218 0,-50"
       inkscape:path-effect="#path-effect18750"
       id="path18748"
       d="m -57.5,99.86218 0,-50"
       style="fill:none;stroke:#000000;stroke-width:1.5;stroke-linecap:butt;stroke-linejoin:miter;stroke-miterlimit:4;stroke-opacity:1;stroke-dasharray:none;marker-start:none;marker-end:url(#Arrow2Mend)" />
    <path
       style="fill:none;stroke:#000000;stroke-width:1.5;stroke-linecap:butt;stroke-linejoin:miter;stroke-miterlimit:4;stroke-opacity:1;stroke-dasharray:none;marker-start:none;marker-end:url(#Arrow2Mend)"
       d="m -57.5,99.86218 50,0"
       id="path19136"
       inkscape:path-effect="#path-effect19138"
       inkscape:original-d="m -57.5,99.86218 50,0"
       inkscape:connector-curvature="0" />
    <path
       sodipodi:nodetypes="cc"
       inkscape:connector-curvature="0"
       inkscape:original-d="m -57.5,99.86218 20,-30"
       inkscape:path-effect="#path-effect19142"
       id="path19140"
       d="m -57.5,99.86218 20,-30"
       style="fill:none;stroke:#000000;stroke-width:1.5;stroke-linecap:butt;stroke-linejoin:miter;stroke-miterlimit:4;stroke-opacity:1;stroke-dasharray:none;marker-start:none;marker-end:url(#Arrow2Mend)" />
    <g
       id="g19329"
       transform="matrix(2.5,0,0,2.5,-612.22093,-285.28175)"
       ns0:preamble=""
       ns0:text="$z$">
      <defs
         id="defs19331">
        <g
           id="g19333">
          <symbol
             id="textext-222e8ddc-0"
             overflow="visible"
             style="overflow:visible">
            <path
               id="path19336"
               d="m 1.328125,-0.828125 c 0.53125,-0.578125 0.828125,-0.828125 1.1875,-1.140625 0,0 0.609375,-0.53125 0.96875,-0.890625 C 4.4375,-3.78125 4.65625,-4.265625 4.65625,-4.3125 c 0,-0.09375 -0.09375,-0.09375 -0.109375,-0.09375 -0.078125,0 -0.09375,0.015625 -0.15625,0.109375 -0.296875,0.484375 -0.5,0.640625 -0.734375,0.640625 -0.25,0 -0.359375,-0.15625 -0.515625,-0.328125 -0.1875,-0.21875 -0.359375,-0.421875 -0.6875,-0.421875 -0.75,0 -1.203125,0.921875 -1.203125,1.140625 0,0.046875 0.03125,0.109375 0.109375,0.109375 0.09375,0 0.109375,-0.046875 0.140625,-0.109375 0.1875,-0.46875 0.765625,-0.46875 0.84375,-0.46875 0.203125,0 0.390625,0.0625 0.625,0.140625 0.40625,0.15625 0.515625,0.15625 0.765625,0.15625 -0.359375,0.421875 -1.1875,1.140625 -1.375,1.296875 l -0.90625,0.84375 C 0.78125,-0.625 0.421875,-0.0625 0.421875,0.015625 c 0,0.09375 0.109375,0.09375 0.125,0.09375 0.078125,0 0.09375,-0.015625 0.15625,-0.125 0.234375,-0.359375 0.53125,-0.625 0.859375,-0.625 0.21875,0 0.328125,0.09375 0.578125,0.375 0.15625,0.21875 0.34375,0.375 0.625,0.375 1,0 1.578125,-1.265625 1.578125,-1.53125 0,-0.046875 -0.046875,-0.109375 -0.125,-0.109375 -0.09375,0 -0.109375,0.0625 -0.140625,0.140625 C 3.84375,-0.75 3.203125,-0.5625 2.875,-0.5625 c -0.1875,0 -0.375,-0.0625 -0.578125,-0.125 -0.34375,-0.125 -0.5,-0.171875 -0.703125,-0.171875 -0.015625,0 -0.171875,0 -0.265625,0.03125 z m 0,0"
               style="stroke:none"
               inkscape:connector-curvature="0" />
          </symbol>
        </g>
      </defs>
      <g
         id="textext-222e8ddc-1">
        <g
           id="g19339"
           style="fill:#000000;fill-opacity:1">
          <use
             id="use19341"
             y="134.765"
             x="223.43201"
             xlink:href="#textext-222e8ddc-0"
             width="744.09448"
             height="1052.3622" />
        </g>
      </g>
    </g>
    <g
       ns0:text="$x$"
       ns0:preamble=""
       transform="matrix(2.5,0,0,2.5,-562.22093,-235.28175)"
       id="g19671">
      <defs
         id="defs19673">
        <g
           id="g19675">
          <symbol
             overflow="visible"
             id="textext-856d2dce-0"
             style="overflow:visible">
            <path
               style="stroke:none"
               d="M 3.328125,-3.015625 C 3.390625,-3.265625 3.625,-4.1875 4.3125,-4.1875 c 0.046875,0 0.296875,0 0.5,0.125 C 4.53125,-4 4.34375,-3.765625 4.34375,-3.515625 c 0,0.15625 0.109375,0.34375 0.375,0.34375 0.21875,0 0.53125,-0.171875 0.53125,-0.578125 0,-0.515625 -0.578125,-0.65625 -0.921875,-0.65625 -0.578125,0 -0.921875,0.53125 -1.046875,0.75 -0.25,-0.65625 -0.78125,-0.75 -1.078125,-0.75 -1.03125,0 -1.609375,1.28125 -1.609375,1.53125 0,0.109375 0.109375,0.109375 0.125,0.109375 0.078125,0 0.109375,-0.03125 0.125,-0.109375 0.34375,-1.0625 1,-1.3125 1.34375,-1.3125 0.1875,0 0.53125,0.09375 0.53125,0.671875 0,0.3125 -0.171875,0.96875 -0.53125,2.375 -0.15625,0.609375 -0.515625,1.03125 -0.953125,1.03125 -0.0625,0 -0.28125,0 -0.5,-0.125 0.25,-0.0625 0.46875,-0.265625 0.46875,-0.546875 0,-0.265625 -0.21875,-0.34375 -0.359375,-0.34375 -0.3125,0 -0.546875,0.25 -0.546875,0.578125 0,0.453125 0.484375,0.65625 0.921875,0.65625 0.671875,0 1.03125,-0.703125 1.046875,-0.75 0.125,0.359375 0.484375,0.75 1.078125,0.75 1.03125,0 1.59375,-1.28125 1.59375,-1.53125 0,-0.109375 -0.078125,-0.109375 -0.109375,-0.109375 -0.09375,0 -0.109375,0.046875 -0.140625,0.109375 -0.328125,1.078125 -1,1.3125 -1.3125,1.3125 -0.390625,0 -0.546875,-0.3125 -0.546875,-0.65625 0,-0.21875 0.046875,-0.4375 0.15625,-0.875 z m 0,0"
               id="path19678"
               inkscape:connector-curvature="0" />
          </symbol>
        </g>
      </defs>
      <g
         id="textext-856d2dce-1">
        <g
           style="fill:#000000;fill-opacity:1"
           id="g19681">
          <use
             xlink:href="#textext-856d2dce-0"
             x="223.43201"
             y="134.765"
             id="use19683"
             width="744.09448"
             height="1052.3622" />
        </g>
      </g>
    </g>
    <g
       id="g20029"
       transform="matrix(2.5,0,0,2.5,-592.22093,-267.78175)"
       ns0:preamble=""
       ns0:text="$y$">
      <defs
         id="defs20031">
        <g
           id="g20033">
          <symbol
             id="textext-129d527c-0"
             overflow="visible"
             style="overflow:visible">
            <path
               id="path20036"
               d="m 4.84375,-3.796875 c 0.046875,-0.140625 0.046875,-0.15625 0.046875,-0.234375 0,-0.171875 -0.140625,-0.265625 -0.296875,-0.265625 -0.09375,0 -0.25,0.0625 -0.34375,0.203125 -0.015625,0.0625 -0.109375,0.359375 -0.140625,0.546875 -0.078125,0.25 -0.140625,0.53125 -0.203125,0.796875 l -0.453125,1.796875 c -0.03125,0.140625 -0.46875,0.84375 -1.125,0.84375 -0.5,0 -0.609375,-0.4375 -0.609375,-0.8125 C 1.71875,-1.375 1.890625,-2 2.21875,-2.875 2.375,-3.28125 2.421875,-3.390625 2.421875,-3.59375 c 0,-0.4375 -0.3125,-0.8125 -0.8125,-0.8125 -0.953125,0 -1.3125,1.453125 -1.3125,1.53125 0,0.109375 0.09375,0.109375 0.109375,0.109375 0.109375,0 0.109375,-0.03125 0.15625,-0.1875 0.28125,-0.9375 0.671875,-1.234375 1.015625,-1.234375 0.078125,0 0.25,0 0.25,0.3125 0,0.25 -0.109375,0.515625 -0.171875,0.703125 -0.40625,1.0625 -0.578125,1.625 -0.578125,2.09375 0,0.890625 0.625,1.1875 1.21875,1.1875 0.390625,0 0.71875,-0.171875 1,-0.453125 -0.125,0.515625 -0.25,1.015625 -0.640625,1.546875 -0.265625,0.328125 -0.640625,0.625 -1.09375,0.625 -0.140625,0 -0.59375,-0.03125 -0.765625,-0.421875 0.15625,0 0.296875,0 0.421875,-0.125 C 1.328125,1.203125 1.421875,1.0625 1.421875,0.875 1.421875,0.5625 1.15625,0.53125 1.0625,0.53125 0.828125,0.53125 0.5,0.6875 0.5,1.171875 c 0,0.5 0.4375,0.875 1.0625,0.875 1.015625,0 2.046875,-0.90625 2.328125,-2.03125 z m 0,0"
               style="stroke:none"
               inkscape:connector-curvature="0" />
          </symbol>
        </g>
      </defs>
      <g
         id="textext-129d527c-1">
        <g
           id="g20039"
           style="fill:#000000;fill-opacity:1">
          <use
             id="use20041"
             y="134.765"
             x="223.43201"
             xlink:href="#textext-129d527c-0"
             width="744.09448"
             height="1052.3622" />
        </g>
      </g>
    </g>
    <g
       ns0:text="\\fbox{$\\epsilon_0,\\mu_0$}"
       ns0:preamble=""
       transform="matrix(2.5,0,0,2.5,-557.22093,-187.78175)"
       id="g20463">
      <defs
         id="defs20465">
        <g
           id="g20467">
          <symbol
             style="overflow:visible"
             overflow="visible"
             id="textext-6477241a-0">
            <path
               inkscape:connector-curvature="0"
               style="stroke:none"
               d="m 2.96875,-2.25 c 0.15625,0 0.34375,0 0.34375,-0.171875 0,-0.140625 -0.125,-0.140625 -0.296875,-0.140625 l -1.609375,0 c 0.234375,-0.84375 0.796875,-1.421875 1.703125,-1.421875 l 0.3125,0 c 0.171875,0 0.328125,0 0.328125,-0.171875 0,-0.140625 -0.125,-0.140625 -0.296875,-0.140625 l -0.359375,0 c -1.296875,0 -2.625,1 -2.625,2.515625 0,1.109375 0.75,1.890625 1.796875,1.890625 0.65625,0 1.296875,-0.40625 1.296875,-0.515625 0,-0.015625 0,-0.125 -0.09375,-0.125 -0.015625,0 -0.046875,0 -0.125,0.046875 -0.3125,0.203125 -0.6875,0.375 -1.046875,0.375 -0.578125,0 -1.078125,-0.421875 -1.078125,-1.296875 0,-0.34375 0.078125,-0.734375 0.109375,-0.84375 z m 0,0"
               id="path20470" />
          </symbol>
          <symbol
             style="overflow:visible"
             overflow="visible"
             id="textext-6477241a-1">
            <path
               inkscape:connector-curvature="0"
               style="stroke:none"
               d="m 2.03125,-0.015625 c 0,-0.65625 -0.25,-1.046875 -0.640625,-1.046875 -0.328125,0 -0.53125,0.25 -0.53125,0.53125 C 0.859375,-0.265625 1.0625,0 1.390625,0 1.5,0 1.640625,-0.046875 1.734375,-0.125 1.765625,-0.15625 1.78125,-0.15625 1.78125,-0.15625 c 0.015625,0 0.015625,0 0.015625,0.140625 0,0.75 -0.34375,1.34375 -0.671875,1.671875 -0.109375,0.109375 -0.109375,0.125 -0.109375,0.15625 0,0.078125 0.046875,0.109375 0.09375,0.109375 0.109375,0 0.921875,-0.765625 0.921875,-1.9375 z m 0,0"
               id="path20473" />
          </symbol>
          <symbol
             style="overflow:visible"
             overflow="visible"
             id="textext-6477241a-2">
            <path
               inkscape:connector-curvature="0"
               style="stroke:none"
               d="m 2.296875,-3.5 c 0.0625,-0.203125 0.15625,-0.59375 0.15625,-0.640625 0,-0.171875 -0.125,-0.265625 -0.296875,-0.265625 -0.015625,0 -0.296875,0.015625 -0.390625,0.359375 l -1.4375,5.765625 c -0.03125,0.125 -0.03125,0.140625 -0.03125,0.171875 0,0.140625 0.109375,0.265625 0.28125,0.265625 0.203125,0 0.328125,-0.1875 0.34375,-0.21875 C 0.96875,1.859375 1.09375,1.328125 1.46875,-0.203125 1.796875,0.0625 2.25,0.109375 2.4375,0.109375 c 0.703125,0 1.09375,-0.453125 1.328125,-0.734375 0.09375,0.453125 0.46875,0.734375 0.90625,0.734375 0.34375,0 0.578125,-0.234375 0.734375,-0.546875 0.171875,-0.359375 0.296875,-0.96875 0.296875,-0.984375 0,-0.109375 -0.09375,-0.109375 -0.125,-0.109375 -0.09375,0 -0.109375,0.046875 -0.140625,0.1875 -0.15625,0.640625 -0.34375,1.234375 -0.75,1.234375 -0.265625,0 -0.296875,-0.265625 -0.296875,-0.453125 0,-0.21875 0.109375,-0.6875 0.1875,-1.046875 L 4.859375,-2.6875 C 4.890625,-2.828125 5,-3.203125 5.03125,-3.359375 5.078125,-3.59375 5.1875,-3.96875 5.1875,-4.03125 c 0,-0.171875 -0.140625,-0.265625 -0.296875,-0.265625 -0.046875,0 -0.3125,0.015625 -0.390625,0.34375 l -0.46875,1.875 c -0.109375,0.5 -0.21875,0.90625 -0.25,1.015625 -0.015625,0.046875 -0.484375,0.953125 -1.296875,0.953125 -0.5,0 -0.734375,-0.328125 -0.734375,-0.875 0,-0.28125 0.0625,-0.5625 0.140625,-0.84375 z m 0,0"
               id="path20476" />
          </symbol>
          <symbol
             style="overflow:visible"
             overflow="visible"
             id="textext-6477241a-3">
            <path
               inkscape:connector-curvature="0"
               style="stroke:none"
               d="M 3.59375,-2.21875 C 3.59375,-2.984375 3.5,-3.546875 3.1875,-4.03125 2.96875,-4.34375 2.53125,-4.625 1.984375,-4.625 c -1.625,0 -1.625,1.90625 -1.625,2.40625 0,0.5 0,2.359375 1.625,2.359375 1.609375,0 1.609375,-1.859375 1.609375,-2.359375 z M 1.984375,-0.0625 c -0.328125,0 -0.75,-0.1875 -0.890625,-0.75 C 1,-1.21875 1,-1.796875 1,-2.3125 1,-2.828125 1,-3.359375 1.09375,-3.734375 1.25,-4.28125 1.6875,-4.4375 1.984375,-4.4375 c 0.375,0 0.734375,0.234375 0.859375,0.640625 0.109375,0.375 0.125,0.875 0.125,1.484375 0,0.515625 0,1.03125 -0.09375,1.46875 -0.140625,0.640625 -0.609375,0.78125 -0.890625,0.78125 z m 0,0"
               id="path20479" />
          </symbol>
        </g>
      </defs>
      <g
         id="textext-6477241a-4">
        <path
           inkscape:connector-curvature="0"
           style="fill:none;stroke:#000000;stroke-width:0.398;stroke-linecap:butt;stroke-linejoin:miter;stroke-miterlimit:10;stroke-opacity:1"
           d="m 0.00159375,0.00184375 30.18750025,0"
           transform="matrix(1,0,0,-1,223.432,127.287)"
           id="path20482" />
        <path
           inkscape:connector-curvature="0"
           style="fill:none;stroke:#000000;stroke-width:0.398;stroke-linecap:butt;stroke-linejoin:miter;stroke-miterlimit:10;stroke-opacity:1"
           d="m 0.0018125,-4.0625e-4 0,12.20312525"
           transform="matrix(1,0,0,-1,223.631,139.691)"
           id="path20484" />
        <g
           style="fill:#000000;fill-opacity:1"
           id="g20486">
          <use
             height="1052.3622"
             width="744.09448"
             xlink:href="#textext-6477241a-0"
             x="226.819"
             y="134.765"
             id="use20488" />
        </g>
        <g
           style="fill:#000000;fill-opacity:1"
           id="g20490">
          <use
             height="1052.3622"
             width="744.09448"
             xlink:href="#textext-6477241a-3"
             x="230.86301"
             y="136.259"
             id="use20492" />
        </g>
        <g
           style="fill:#000000;fill-opacity:1"
           id="g20494">
          <use
             height="1052.3622"
             width="744.09448"
             xlink:href="#textext-6477241a-1"
             x="235.33299"
             y="134.765"
             id="use20496" />
        </g>
        <g
           style="fill:#000000;fill-opacity:1"
           id="g20498">
          <use
             height="1052.3622"
             width="744.09448"
             xlink:href="#textext-6477241a-2"
             x="239.76436"
             y="134.765"
             id="use20500" />
        </g>
        <g
           style="fill:#000000;fill-opacity:1"
           id="g20502">
          <use
             height="1052.3622"
             width="744.09448"
             xlink:href="#textext-6477241a-3"
             x="245.763"
             y="136.259"
             id="use20504" />
        </g>
        <path
           inkscape:connector-curvature="0"
           style="fill:none;stroke:#000000;stroke-width:0.398;stroke-linecap:butt;stroke-linejoin:miter;stroke-miterlimit:10;stroke-opacity:1"
           d="m 8.75e-4,-4.0625e-4 0,12.20312525"
           transform="matrix(1,0,0,-1,253.421,139.691)"
           id="path20506" />
        <path
           inkscape:connector-curvature="0"
           style="fill:none;stroke:#000000;stroke-width:0.398;stroke-linecap:butt;stroke-linejoin:miter;stroke-miterlimit:10;stroke-opacity:1"
           d="m 0.00159375,-6.25e-4 30.18750025,0"
           transform="matrix(1,0,0,-1,223.432,139.89)"
           id="path20508" />
      </g>
    </g>
    <g
       id="g20948"
       ns0:preamble=""
       ns0:text="$\\mathbf{k}$"
       transform="matrix(2.5,0,0,2.5,-454.7788,-177.49096)">
      <defs
         id="defs20950">
        <g
           id="g20952">
          <symbol
             id="textext-5825f38e-0"
             overflow="visible"
             style="overflow:visible">
            <path
               id="path20955"
               d="m 2.140625,-2.359375 0,-4.5625 -1.765625,0.078125 0,0.46875 c 0.609375,0 0.6875,0 0.6875,0.390625 l 0,5.515625 -0.6875,0 0,0.46875 c 0.359375,-0.015625 0.828125,-0.03125 1.1875,-0.03125 0.375,0 0.84375,0.015625 1.203125,0.03125 l 0,-0.46875 -0.6875,0 0,-1.265625 C 2.375,-1.96875 2.453125,-2.03125 2.65625,-2.15625 l 1,1.25 c 0.09375,0.125 0.25,0.3125 0.25,0.34375 0,0.09375 -0.171875,0.09375 -0.3125,0.09375 l 0,0.46875 c 0.296875,-0.015625 1.171875,-0.03125 1.21875,-0.03125 0.359375,0 0.703125,0.015625 1.046875,0.03125 l 0,-0.46875 -0.171875,0 c -0.4375,0 -0.46875,-0.046875 -0.59375,-0.203125 L 3.40625,-2.765625 4.703125,-3.78125 C 4.84375,-3.890625 4.9375,-3.953125 5.609375,-3.953125 l 0,-0.46875 c -0.28125,0.03125 -0.53125,0.03125 -0.78125,0.03125 -0.265625,0 -0.921875,-0.03125 -1.15625,-0.03125 l 0,0.46875 c 0.234375,0 0.265625,0.03125 0.34375,0.109375 z m 0,0"
               style="stroke:none"
               inkscape:connector-curvature="0" />
          </symbol>
        </g>
      </defs>
      <g
         id="textext-5825f38e-1">
        <g
           id="g20958"
           style="fill:#0000ff;fill-opacity:1">
          <use
             id="use20960"
             y="134.765"
             x="223.43201"
             xlink:href="#textext-5825f38e-0"
             width="459.45325"
             height="276.39392" />
        </g>
      </g>
    </g>
    <g
       ns0:text="$\\overline{\\mathbf{k}}$"
       ns0:preamble=""
       transform="matrix(2.5,0,0,2.5,-329.71435,-176.62377)"
       id="g21414">
      <defs
         id="defs21416">
        <g
           id="g21418">
          <symbol
             style="overflow:visible"
             overflow="visible"
             id="textext-60e4d268-0">
            <path
               inkscape:connector-curvature="0"
               style="stroke:none"
               d="m 2.140625,-2.359375 0,-4.5625 -1.765625,0.078125 0,0.46875 c 0.609375,0 0.6875,0 0.6875,0.390625 l 0,5.515625 -0.6875,0 0,0.46875 c 0.359375,-0.015625 0.828125,-0.03125 1.1875,-0.03125 0.375,0 0.84375,0.015625 1.203125,0.03125 l 0,-0.46875 -0.6875,0 0,-1.265625 C 2.375,-1.96875 2.453125,-2.03125 2.65625,-2.15625 l 1,1.25 c 0.09375,0.125 0.25,0.3125 0.25,0.34375 0,0.09375 -0.171875,0.09375 -0.3125,0.09375 l 0,0.46875 c 0.296875,-0.015625 1.171875,-0.03125 1.21875,-0.03125 0.359375,0 0.703125,0.015625 1.046875,0.03125 l 0,-0.46875 -0.171875,0 c -0.4375,0 -0.46875,-0.046875 -0.59375,-0.203125 L 3.40625,-2.765625 4.703125,-3.78125 C 4.84375,-3.890625 4.9375,-3.953125 5.609375,-3.953125 l 0,-0.46875 c -0.28125,0.03125 -0.53125,0.03125 -0.78125,0.03125 -0.265625,0 -0.921875,-0.03125 -1.15625,-0.03125 l 0,0.46875 c 0.234375,0 0.265625,0.03125 0.34375,0.109375 z m 0,0"
               id="path21421" />
          </symbol>
        </g>
      </defs>
      <g
         id="textext-60e4d268-1">
        <path
           inkscape:connector-curvature="0"
           style="fill:none;stroke:#0000ff;stroke-width:0.398;stroke-linecap:butt;stroke-linejoin:miter;stroke-miterlimit:10;stroke-opacity:1"
           d="m 0.00159375,-0.001125 6.04687525,0"
           transform="matrix(1,0,0,-1,223.432,126.452)"
           id="path21424" />
        <g
           style="fill:#0000ff;fill-opacity:1"
           id="g21426">
          <use
             height="276.39392"
             width="459.45325"
             xlink:href="#textext-60e4d268-0"
             x="223.43201"
             y="134.765"
             id="use21428" />
        </g>
      </g>
    </g>
    <g
       transform="matrix(2.5,0,0,2.5,-342.77099,-93.22533)"
       ns0:text="$\\mathbf{k}^\\prime$"
       ns0:preamble=""
       id="g25517">
      <defs
         id="defs25519">
        <g
           id="g25521">
          <symbol
             style="overflow:visible"
             overflow="visible"
             id="textext-f0f9bd41-0">
            <path
               inkscape:connector-curvature="0"
               style="stroke:none"
               d="m 2.140625,-2.359375 0,-4.5625 -1.765625,0.078125 0,0.46875 c 0.609375,0 0.6875,0 0.6875,0.390625 l 0,5.515625 -0.6875,0 0,0.46875 c 0.359375,-0.015625 0.828125,-0.03125 1.1875,-0.03125 0.375,0 0.84375,0.015625 1.203125,0.03125 l 0,-0.46875 -0.6875,0 0,-1.265625 C 2.375,-1.96875 2.453125,-2.03125 2.65625,-2.15625 l 1,1.25 c 0.09375,0.125 0.25,0.3125 0.25,0.34375 0,0.09375 -0.171875,0.09375 -0.3125,0.09375 l 0,0.46875 c 0.296875,-0.015625 1.171875,-0.03125 1.21875,-0.03125 0.359375,0 0.703125,0.015625 1.046875,0.03125 l 0,-0.46875 -0.171875,0 c -0.4375,0 -0.46875,-0.046875 -0.59375,-0.203125 L 3.40625,-2.765625 4.703125,-3.78125 C 4.84375,-3.890625 4.9375,-3.953125 5.609375,-3.953125 l 0,-0.46875 c -0.28125,0.03125 -0.53125,0.03125 -0.78125,0.03125 -0.265625,0 -0.921875,-0.03125 -1.15625,-0.03125 l 0,0.46875 c 0.234375,0 0.265625,0.03125 0.34375,0.109375 z m 0,0"
               id="path25524" />
          </symbol>
          <symbol
             style="overflow:visible"
             overflow="visible"
             id="textext-f0f9bd41-1">
            <path
               inkscape:connector-curvature="0"
               style="stroke:none"
               d="m 2.015625,-3.296875 c 0.0625,-0.109375 0.0625,-0.171875 0.0625,-0.21875 0,-0.21875 -0.1875,-0.375 -0.40625,-0.375 -0.265625,0 -0.34375,0.21875 -0.375,0.328125 L 0.375,-0.546875 c -0.015625,0.015625 -0.046875,0.09375 -0.046875,0.109375 0,0.078125 0.21875,0.15625 0.28125,0.15625 0.046875,0 0.046875,-0.015625 0.09375,-0.125 z m 0,0"
               id="path25527" />
          </symbol>
        </g>
      </defs>
      <g
         id="textext-f0f9bd41-2">
        <g
           style="fill:#0000ff;fill-opacity:1"
           id="g25530">
          <use
             height="276.39392"
             width="459.45325"
             xlink:href="#textext-f0f9bd41-0"
             x="223.43201"
             y="134.765"
             id="use25532" />
        </g>
        <g
           style="fill:#0000ff;fill-opacity:1"
           id="g25534">
          <use
             height="276.39392"
             width="459.45325"
             xlink:href="#textext-f0f9bd41-1"
             x="229.479"
             y="131.14999"
             id="use25536" />
        </g>
      </g>
    </g>
  </g>
</svg>
