<?xml version="1.0" encoding="UTF-8" standalone="no"?>
<!-- Created with Inkscape (http://www.inkscape.org/) -->

<svg
   xmlns:ns0="http://www.iki.fi/pav/software/textext/"
   xmlns:dc="http://purl.org/dc/elements/1.1/"
   xmlns:cc="http://creativecommons.org/ns#"
   xmlns:rdf="http://www.w3.org/1999/02/22-rdf-syntax-ns#"
   xmlns:svg="http://www.w3.org/2000/svg"
   xmlns="http://www.w3.org/2000/svg"
   xmlns:xlink="http://www.w3.org/1999/xlink"
   xmlns:sodipodi="http://sodipodi.sourceforge.net/DTD/sodipodi-0.dtd"
   xmlns:inkscape="http://www.inkscape.org/namespaces/inkscape"
   width="670.58606"
   height="302.8111"
   id="svg2"
   version="1.1"
   inkscape:version="0.48.3.1 r9886"
   sodipodi:docname="NearFieldUVWSystem.svg">
  <sodipodi:namedview
     id="base"
     pagecolor="#ffffff"
     bordercolor="#666666"
     borderopacity="1.0"
     inkscape:pageopacity="0.0"
     inkscape:pageshadow="2"
     inkscape:zoom="0.70710678"
     inkscape:cx="396.80207"
     inkscape:cy="128.38874"
     inkscape:document-units="px"
     inkscape:current-layer="layer1"
     showgrid="true"
     gridtolerance="10"
     inkscape:window-width="1607"
     inkscape:window-height="974"
     inkscape:window-x="118"
     inkscape:window-y="69"
     inkscape:window-maximized="0"
     showguides="true"
     inkscape:guide-bbox="true"
     fit-margin-top="0"
     fit-margin-left="0"
     fit-margin-right="0"
     fit-margin-bottom="0">
    <inkscape:grid
       originy="-664.54063px"
       originx="-7.0699927px"
       type="xygrid"
       id="grid2985"
       empspacing="5"
       visible="true"
       enabled="true"
       snapvisiblegridlinesonly="true"
       spacingx="5px"
       spacingy="5px" />
  </sodipodi:namedview>
  <defs
     id="defs4">
    <marker
       style="overflow:visible"
       id="Arrow1Lstart"
       refX="0"
       refY="0"
       orient="auto"
       inkscape:stockid="Arrow1Lstart">
      <path
         inkscape:connector-curvature="0"
         transform="matrix(0.8,0,0,0.8,10,0)"
         style="fill-rule:evenodd;stroke:#000000;stroke-width:1pt"
         d="M 0,0 5,-5 -12.5,0 5,5 0,0 z"
         id="path4265" />
    </marker>
    <marker
       style="overflow:visible"
       id="Arrow1Lend"
       refX="0"
       refY="0"
       orient="auto"
       inkscape:stockid="Arrow1Lend">
      <path
         inkscape:connector-curvature="0"
         transform="matrix(-0.8,0,0,-0.8,-10,0)"
         style="fill-rule:evenodd;stroke:#000000;stroke-width:1pt"
         d="M 0,0 5,-5 -12.5,0 5,5 0,0 z"
         id="path4268" />
    </marker>
    <marker
       inkscape:stockid="Arrow2Lend"
       orient="auto"
       refY="0"
       refX="0"
       id="Arrow2Lend"
       style="overflow:visible">
      <path
         inkscape:connector-curvature="0"
         id="path4286"
         style="fill-rule:evenodd;stroke-width:0.625;stroke-linejoin:round"
         d="M 8.7185878,4.0337352 -2.2072895,0.01601326 8.7185884,-4.0017078 c -1.7454984,2.3720609 -1.7354408,5.6174519 -6e-7,8.035443 z"
         transform="matrix(-1.1,0,0,-1.1,-1.1,0)" />
    </marker>
    <marker
       inkscape:stockid="Arrow2Lendb"
       orient="auto"
       refY="0"
       refX="0"
       id="Arrow2Lendb"
       style="overflow:visible">
      <path
         inkscape:connector-curvature="0"
         id="path8618"
         style="fill:#0000ff;fill-rule:evenodd;stroke:#0000ff;stroke-width:0.625;stroke-linejoin:round"
         d="M 8.7185878,4.0337352 -2.2072895,0.01601326 8.7185884,-4.0017078 c -1.7454984,2.3720609 -1.7354408,5.6174519 -6e-7,8.035443 z"
         transform="matrix(-1.1,0,0,-1.1,-1.1,0)" />
    </marker>
  </defs>
  <metadata
     id="metadata7">
    <rdf:RDF>
      <cc:Work
         rdf:about="">
        <dc:format>image/svg+xml</dc:format>
        <dc:type
           rdf:resource="http://purl.org/dc/dcmitype/StillImage" />
        <dc:title></dc:title>
      </cc:Work>
    </rdf:RDF>
  </metadata>
  <g
     inkscape:label="Layer 1"
     inkscape:groupmode="layer"
     id="layer1"
     transform="translate(-7.0699927,-85.010465)">
    <path
       style="fill:#0000ff;fill-opacity:1;stroke:#0000ff;stroke-width:2;stroke-linecap:butt;stroke-linejoin:miter;stroke-miterlimit:4;stroke-opacity:1;stroke-dasharray:none"
       d="m 250,278.79075 c 275,0 275,0 275,0"
       id="path2999"
       inkscape:connector-curvature="0" />
    <path
       style="fill:none;stroke:#0000ff;stroke-width:2;stroke-linecap:butt;stroke-linejoin:miter;stroke-miterlimit:4;stroke-opacity:1;stroke-dasharray:none"
       d="M 250,278.79075 425,128.79076 525,278.79075"
       id="path3780"
       inkscape:connector-curvature="0" />
    <path
       sodipodi:type="arc"
       style="fill:#2b0000;fill-opacity:1;stroke:#000000;stroke-width:1;stroke-linecap:square;stroke-miterlimit:4;stroke-opacity:1;stroke-dasharray:2, 1;stroke-dashoffset:0"
       id="path3004"
       sodipodi:cx="200"
       sodipodi:cy="90"
       sodipodi:rx="8.5714293"
       sodipodi:ry="8.5714293"
       d="m 208.57143,90 c 0,4.73387 -3.83756,8.571429 -8.57143,8.571429 -4.73387,0 -8.57143,-3.837559 -8.57143,-8.571429 0,-4.73387 3.83756,-8.571429 8.57143,-8.571429 4.73387,0 8.57143,3.837559 8.57143,8.571429 z"
       transform="translate(-50,263.79075)" />
    <path
       transform="translate(325,188.79075)"
       d="m 208.57143,90 c 0,4.73387 -3.83756,8.571429 -8.57143,8.571429 -4.73387,0 -8.57143,-3.837559 -8.57143,-8.571429 0,-4.73387 3.83756,-8.571429 8.57143,-8.571429 4.73387,0 8.57143,3.837559 8.57143,8.571429 z"
       sodipodi:ry="8.5714293"
       sodipodi:rx="8.5714293"
       sodipodi:cy="90"
       sodipodi:cx="200"
       id="path3774"
       style="fill:#ff0000;fill-opacity:1;stroke:#ff0000;stroke-width:1;stroke-linecap:square;stroke-miterlimit:4;stroke-opacity:1;stroke-dasharray:2, 1;stroke-dashoffset:0"
       sodipodi:type="arc" />
    <path
       sodipodi:type="arc"
       style="fill:#ff0000;fill-opacity:1;stroke:#ff0000;stroke-width:1;stroke-linecap:square;stroke-miterlimit:4;stroke-opacity:1;stroke-dasharray:2, 1;stroke-dashoffset:0"
       id="path3776"
       sodipodi:cx="200"
       sodipodi:cy="90"
       sodipodi:rx="8.5714293"
       sodipodi:ry="8.5714293"
       d="m 208.57143,90 c 0,4.73387 -3.83756,8.571429 -8.57143,8.571429 -4.73387,0 -8.57143,-3.837559 -8.57143,-8.571429 0,-4.73387 3.83756,-8.571429 8.57143,-8.571429 4.73387,0 8.57143,3.837559 8.57143,8.571429 z"
       transform="translate(225,38.790754)" />
    <g
       transform="matrix(3,0,0,3,-439.27494,-76.767318)"
       ns0:text="$\\mathbf{\\overline{V}}_1$"
       ns0:preamble=""
       id="g3796">
      <defs
         id="defs3798">
        <g
           id="g3800">
          <symbol
             style="overflow:visible"
             overflow="visible"
             id="textext-f6649812-0">
            <path
               inkscape:connector-curvature="0"
               style="stroke:none"
               d="M 7.375,-6.15625 C 7.4375,-6.28125 7.484375,-6.375 8.203125,-6.375 l 0.1875,0 0,-0.46875 c -0.375,0.015625 -0.859375,0.03125 -1.125,0.03125 -0.390625,0 -0.921875,0 -1.296875,-0.03125 l 0,0.46875 c 0.078125,0 0.875,0 0.875,0.125 0,0.046875 -0.03125,0.09375 -0.046875,0.125 l -2.015625,4.53125 -2.125,-4.78125 0.9375,0 0,-0.46875 c -0.375,0.03125 -1.328125,0.03125 -1.765625,0.03125 -0.375,0 -1.21875,0 -1.5625,-0.03125 l 0,0.46875 0.90625,0 2.75,6.203125 c 0.078125,0.171875 0.125,0.25 0.40625,0.25 0.15625,0 0.28125,0 0.390625,-0.234375 z m 0,0"
               id="path3803" />
          </symbol>
          <symbol
             style="overflow:visible"
             overflow="visible"
             id="textext-f6649812-1">
            <path
               inkscape:connector-curvature="0"
               style="stroke:none"
               d="m 2.328125,-4.4375 c 0,-0.1875 0,-0.1875 -0.203125,-0.1875 -0.453125,0.4375 -1.078125,0.4375 -1.359375,0.4375 l 0,0.25 c 0.15625,0 0.625,0 1,-0.1875 l 0,3.546875 c 0,0.234375 0,0.328125 -0.6875,0.328125 l -0.265625,0 0,0.25 c 0.125,0 0.984375,-0.03125 1.234375,-0.03125 0.21875,0 1.09375,0.03125 1.25,0.03125 l 0,-0.25 -0.265625,0 c -0.703125,0 -0.703125,-0.09375 -0.703125,-0.328125 z m 0,0"
               id="path3806" />
          </symbol>
        </g>
      </defs>
      <g
         id="textext-f6649812-2">
        <path
           inkscape:connector-curvature="0"
           style="fill:none;stroke:#000000;stroke-width:1;stroke-linecap:butt;stroke-linejoin:miter;stroke-miterlimit:10;stroke-opacity:1"
           d="m 0.068,0.034 9,0"
           transform="matrix(1,0,0,-1,223.432,126.534)"
           id="path3809" />
        <g
           style="fill:#000000;fill-opacity:1"
           id="g3811">
          <use
             height="990"
             width="765"
             xlink:href="#textext-f6649812-0"
             x="223.43201"
             y="134.765"
             id="use3813" />
        </g>
        <g
           style="fill:#000000;fill-opacity:1"
           id="g3815">
          <use
             height="990"
             width="765"
             xlink:href="#textext-f6649812-1"
             x="232.25301"
             y="136.259"
             id="use3817" />
        </g>
      </g>
    </g>
    <g
       id="g3893"
       transform="matrix(3,0,0,3,-159.38432,-81.767318)"
       ns0:preamble=""
       ns0:text="$\\mathbf{\\overline{V}}_2$">
      <defs
         id="defs3895">
        <g
           id="g3897">
          <symbol
             style="overflow:visible"
             id="textext-9fbc083f-0"
             overflow="visible">
            <path
               inkscape:connector-curvature="0"
               id="path3900"
               d="M 7.375,-6.15625 C 7.4375,-6.28125 7.484375,-6.375 8.203125,-6.375 l 0.1875,0 0,-0.46875 c -0.375,0.015625 -0.859375,0.03125 -1.125,0.03125 -0.390625,0 -0.921875,0 -1.296875,-0.03125 l 0,0.46875 c 0.078125,0 0.875,0 0.875,0.125 0,0.046875 -0.03125,0.09375 -0.046875,0.125 l -2.015625,4.53125 -2.125,-4.78125 0.9375,0 0,-0.46875 c -0.375,0.03125 -1.328125,0.03125 -1.765625,0.03125 -0.375,0 -1.21875,0 -1.5625,-0.03125 l 0,0.46875 0.90625,0 2.75,6.203125 c 0.078125,0.171875 0.125,0.25 0.40625,0.25 0.15625,0 0.28125,0 0.390625,-0.234375 z m 0,0"
               style="stroke:none" />
          </symbol>
          <symbol
             style="overflow:visible"
             id="textext-9fbc083f-1"
             overflow="visible">
            <path
               inkscape:connector-curvature="0"
               id="path3903"
               d="m 3.515625,-1.265625 -0.234375,0 c -0.015625,0.15625 -0.09375,0.5625 -0.1875,0.625 -0.046875,0.046875 -0.578125,0.046875 -0.6875,0.046875 l -1.28125,0 c 0.734375,-0.640625 0.984375,-0.84375 1.390625,-1.171875 0.515625,-0.40625 1,-0.84375 1,-1.5 0,-0.84375 -0.734375,-1.359375 -1.625,-1.359375 -0.859375,0 -1.453125,0.609375 -1.453125,1.25 0,0.34375 0.296875,0.390625 0.375,0.390625 0.15625,0 0.359375,-0.125 0.359375,-0.375 0,-0.125 -0.046875,-0.375 -0.40625,-0.375 C 0.984375,-4.21875 1.453125,-4.375 1.78125,-4.375 c 0.703125,0 1.0625,0.546875 1.0625,1.109375 0,0.609375 -0.4375,1.078125 -0.65625,1.328125 L 0.515625,-0.265625 C 0.4375,-0.203125 0.4375,-0.1875 0.4375,0 l 2.875,0 z m 0,0"
               style="stroke:none" />
          </symbol>
        </g>
      </defs>
      <g
         id="textext-9fbc083f-2">
        <path
           inkscape:connector-curvature="0"
           id="path3906"
           transform="matrix(1,0,0,-1,223.432,126.534)"
           d="m 0.068,0.034 9,0"
           style="fill:none;stroke:#000000;stroke-width:1;stroke-linecap:butt;stroke-linejoin:miter;stroke-miterlimit:10;stroke-opacity:1" />
        <g
           id="g3908"
           style="fill:#000000;fill-opacity:1">
          <use
             height="990"
             width="765"
             id="use3910"
             y="134.765"
             x="223.43201"
             xlink:href="#textext-9fbc083f-0" />
        </g>
        <g
           id="g3912"
           style="fill:#000000;fill-opacity:1">
          <use
             height="990"
             width="765"
             id="use3914"
             y="136.259"
             x="232.25301"
             xlink:href="#textext-9fbc083f-1" />
        </g>
      </g>
    </g>
    <g
       ns0:text="$\\mathbf{\\overline{V}}_3$"
       ns0:preamble=""
       transform="matrix(3,0,0,3,-259.41557,-291.83763)"
       id="g4016">
      <defs
         id="defs4018">
        <g
           id="g4020">
          <symbol
             style="overflow:visible"
             overflow="visible"
             id="textext-05446a28-0">
            <path
               inkscape:connector-curvature="0"
               style="stroke:none"
               d="M 7.375,-6.15625 C 7.4375,-6.28125 7.484375,-6.375 8.203125,-6.375 l 0.1875,0 0,-0.46875 c -0.375,0.015625 -0.859375,0.03125 -1.125,0.03125 -0.390625,0 -0.921875,0 -1.296875,-0.03125 l 0,0.46875 c 0.078125,0 0.875,0 0.875,0.125 0,0.046875 -0.03125,0.09375 -0.046875,0.125 l -2.015625,4.53125 -2.125,-4.78125 0.9375,0 0,-0.46875 c -0.375,0.03125 -1.328125,0.03125 -1.765625,0.03125 -0.375,0 -1.21875,0 -1.5625,-0.03125 l 0,0.46875 0.90625,0 2.75,6.203125 c 0.078125,0.171875 0.125,0.25 0.40625,0.25 0.15625,0 0.28125,0 0.390625,-0.234375 z m 0,0"
               id="path4023" />
          </symbol>
          <symbol
             style="overflow:visible"
             overflow="visible"
             id="textext-05446a28-1">
            <path
               inkscape:connector-curvature="0"
               style="stroke:none"
               d="m 1.90625,-2.328125 c 0.546875,0 0.9375,0.375 0.9375,1.125 0,0.859375 -0.515625,1.125 -0.90625,1.125 -0.28125,0 -0.90625,-0.078125 -1.1875,-0.5 0.328125,0 0.40625,-0.234375 0.40625,-0.390625 0,-0.21875 -0.171875,-0.375 -0.390625,-0.375 -0.1875,0 -0.390625,0.125 -0.390625,0.40625 0,0.65625 0.71875,1.078125 1.5625,1.078125 0.96875,0 1.640625,-0.65625 1.640625,-1.34375 0,-0.546875 -0.4375,-1.09375 -1.203125,-1.25 0.71875,-0.265625 0.984375,-0.78125 0.984375,-1.21875 0,-0.546875 -0.625,-0.953125 -1.40625,-0.953125 -0.765625,0 -1.359375,0.375 -1.359375,0.9375 0,0.234375 0.15625,0.359375 0.359375,0.359375 0.21875,0 0.359375,-0.15625 0.359375,-0.34375 0,-0.203125 -0.140625,-0.359375 -0.359375,-0.375 0.25,-0.296875 0.71875,-0.375 0.984375,-0.375 0.3125,0 0.75,0.15625 0.75,0.75 0,0.296875 -0.09375,0.625 -0.28125,0.828125 -0.21875,0.265625 -0.421875,0.28125 -0.765625,0.3125 -0.171875,0.015625 -0.1875,0.015625 -0.21875,0.015625 -0.015625,0 -0.078125,0.015625 -0.078125,0.09375 0,0.09375 0.0625,0.09375 0.1875,0.09375 z m 0,0"
               id="path4026" />
          </symbol>
        </g>
      </defs>
      <g
         id="textext-05446a28-2">
        <path
           inkscape:connector-curvature="0"
           style="fill:none;stroke:#000000;stroke-width:1;stroke-linecap:butt;stroke-linejoin:miter;stroke-miterlimit:10;stroke-opacity:1"
           d="m 0.068,0.034 9,0"
           transform="matrix(1,0,0,-1,223.432,126.534)"
           id="path4029" />
        <g
           style="fill:#000000;fill-opacity:1"
           id="g4031">
          <use
             height="990"
             width="765"
             xlink:href="#textext-05446a28-0"
             x="223.43201"
             y="134.765"
             id="use4033" />
        </g>
        <g
           style="fill:#000000;fill-opacity:1"
           id="g4035">
          <use
             height="990"
             width="765"
             xlink:href="#textext-05446a28-1"
             x="232.25301"
             y="136.259"
             id="use4037" />
        </g>
      </g>
    </g>
    <g
       id="g4164"
       transform="matrix(3,0,0,3,-560.17132,-17.129695)"
       ns0:preamble=""
       ns0:text="$\\mathbf{\\overline{x}}=0$">
      <defs
         id="defs4166">
        <g
           id="g4168">
          <symbol
             id="textext-35f3e3b7-0"
             overflow="visible"
             style="overflow:visible">
            <path
               id="path4171"
               d="M 3.453125,-2.453125 4.609375,-3.75 C 4.75,-3.890625 4.8125,-3.953125 5.625,-3.953125 l 0,-0.46875 c -0.34375,0.015625 -0.859375,0.03125 -0.90625,0.03125 -0.25,0 -0.75,-0.03125 -1.03125,-0.03125 l 0,0.46875 c 0.140625,0 0.265625,0.015625 0.375,0.078125 -0.03125,0.0625 -0.03125,0.09375 -0.078125,0.125 l -0.828125,0.9375 -0.984375,-1.140625 0.40625,0 0,-0.46875 c -0.265625,0 -0.890625,0.03125 -1.21875,0.03125 -0.3125,0 -0.765625,-0.03125 -1.09375,-0.03125 l 0,0.46875 0.71875,0 1.546875,1.828125 -1.3125,1.46875 c -0.15625,0.1875 -0.515625,0.1875 -1,0.1875 l 0,0.46875 c 0.34375,-0.015625 0.875,-0.03125 0.921875,-0.03125 0.25,0 0.828125,0.015625 1.015625,0.03125 l 0,-0.46875 c -0.171875,0 -0.359375,-0.046875 -0.359375,-0.109375 0,-0.015625 0,-0.015625 0.0625,-0.09375 l 0.96875,-1.09375 1.09375,1.296875 -0.390625,0 0,0.46875 c 0.265625,-0.015625 0.875,-0.03125 1.203125,-0.03125 0.3125,0 0.765625,0.015625 1.09375,0.03125 l 0,-0.46875 -0.703125,0 z m 0,0"
               style="stroke:none"
               inkscape:connector-curvature="0" />
          </symbol>
          <symbol
             id="textext-35f3e3b7-1"
             overflow="visible"
             style="overflow:visible">
            <path
               id="path4174"
               d="m 6.84375,-3.265625 c 0.15625,0 0.34375,0 0.34375,-0.1875 C 7.1875,-3.65625 7,-3.65625 6.859375,-3.65625 l -5.96875,0 c -0.140625,0 -0.328125,0 -0.328125,0.203125 0,0.1875 0.1875,0.1875 0.328125,0.1875 z m 0.015625,1.9375 c 0.140625,0 0.328125,0 0.328125,-0.203125 0,-0.1875 -0.1875,-0.1875 -0.34375,-0.1875 l -5.953125,0 c -0.140625,0 -0.328125,0 -0.328125,0.1875 0,0.203125 0.1875,0.203125 0.328125,0.203125 z m 0,0"
               style="stroke:none"
               inkscape:connector-curvature="0" />
          </symbol>
          <symbol
             id="textext-35f3e3b7-2"
             overflow="visible"
             style="overflow:visible">
            <path
               id="path4177"
               d="m 4.578125,-3.1875 c 0,-0.796875 -0.046875,-1.59375 -0.390625,-2.328125 -0.453125,-0.96875 -1.28125,-1.125 -1.6875,-1.125 -0.609375,0 -1.328125,0.265625 -1.75,1.1875 -0.3125,0.6875 -0.359375,1.46875 -0.359375,2.265625 0,0.75 0.03125,1.640625 0.453125,2.40625 0.421875,0.796875 1.15625,1 1.640625,1 0.53125,0 1.296875,-0.203125 1.734375,-1.15625 0.3125,-0.6875 0.359375,-1.46875 0.359375,-2.25 z M 2.484375,0 C 2.09375,0 1.5,-0.25 1.328125,-1.203125 1.21875,-1.796875 1.21875,-2.71875 1.21875,-3.3125 c 0,-0.640625 0,-1.296875 0.078125,-1.828125 0.1875,-1.1875 0.9375,-1.28125 1.1875,-1.28125 0.328125,0 0.984375,0.1875 1.171875,1.171875 0.109375,0.5625 0.109375,1.3125 0.109375,1.9375 0,0.75 0,1.421875 -0.109375,2.0625 C 3.5,-0.296875 2.9375,0 2.484375,0 z m 0,0"
               style="stroke:none"
               inkscape:connector-curvature="0" />
          </symbol>
        </g>
      </defs>
      <g
         id="textext-35f3e3b7-3">
        <path
           id="path4180"
           transform="matrix(1,0,0,-1,223.432,128.942)"
           d="m 0.068,0.442 6,0"
           style="fill:none;stroke:#000000;stroke-width:1;stroke-linecap:butt;stroke-linejoin:miter;stroke-miterlimit:10;stroke-opacity:1"
           inkscape:connector-curvature="0" />
        <g
           id="g4182"
           style="fill:#000000;fill-opacity:1">
          <use
             id="use4184"
             y="134.765"
             x="223.43201"
             xlink:href="#textext-35f3e3b7-0"
             width="765"
             height="990" />
        </g>
        <g
           id="g4186"
           style="fill:#000000;fill-opacity:1">
          <use
             id="use4188"
             y="134.765"
             x="232.246"
             xlink:href="#textext-35f3e3b7-1"
             width="765"
             height="990" />
        </g>
        <g
           id="g4190"
           style="fill:#000000;fill-opacity:1">
          <use
             id="use4192"
             y="134.765"
             x="242.76451"
             xlink:href="#textext-35f3e3b7-2"
             width="765"
             height="990" />
        </g>
      </g>
    </g>
    <path
       style="fill:none;stroke:#000000;stroke-width:2;stroke-linecap:butt;stroke-linejoin:miter;stroke-miterlimit:4;stroke-opacity:1;stroke-dasharray:none;marker-end:url(#Arrow2Lend)"
       d="m 150,290 c 525,0 525,0 525,0"
       id="path4259"
       inkscape:connector-curvature="0"
       transform="translate(0,62.362183)" />
    <path
       style="fill:none;stroke:#000000;stroke-width:2;stroke-linecap:butt;stroke-linejoin:miter;stroke-miterlimit:4;stroke-opacity:1;stroke-dasharray:none;marker-end:url(#Arrow2Lend)"
       d="M 150,290 C 150,25.304319 150,25.304319 150,25.304319"
       id="path4707"
       inkscape:connector-curvature="0"
       transform="translate(0,62.362183)" />
    <path
       sodipodi:type="arc"
       style="fill:#ff0000;fill-opacity:1;stroke:#ff0000;stroke-width:1;stroke-linecap:square;stroke-miterlimit:4;stroke-opacity:1;stroke-dasharray:2, 1;stroke-dashoffset:0"
       id="path4891"
       sodipodi:cx="200"
       sodipodi:cy="90"
       sodipodi:rx="8.5714293"
       sodipodi:ry="8.5714293"
       d="m 208.57143,90 c 0,4.73387 -3.83756,8.571429 -8.57143,8.571429 -4.73387,0 -8.57143,-3.837559 -8.57143,-8.571429 0,-4.73387 3.83756,-8.571429 8.57143,-8.571429 4.73387,0 8.57143,3.837559 8.57143,8.571429 z"
       transform="translate(50,188.79075)" />
    <g
       transform="matrix(3,0,0,3,-33.970261,-20.160632)"
       ns0:text="$\\mathbf{\\hat u}$"
       ns0:preamble=""
       id="g4965">
      <defs
         id="defs4967">
        <g
           id="g4969">
          <symbol
             style="overflow:visible"
             overflow="visible"
             id="textext-8e15e363-0">
            <path
               inkscape:connector-curvature="0"
               style="stroke:none"
               d="m 2.859375,-6.921875 -1.5625,1.265625 0.28125,0.375 1.28125,-0.8125 1.28125,0.8125 0.28125,-0.375 z m 0,0"
               id="path4972" />
          </symbol>
          <symbol
             style="overflow:visible"
             overflow="visible"
             id="textext-8e15e363-1">
            <path
               inkscape:connector-curvature="0"
               style="stroke:none"
               d="m 4.359375,-0.71875 0,0.78125 L 6.125,0 l 0,-0.46875 c -0.609375,0 -0.6875,0 -0.6875,-0.390625 l 0,-3.625 -1.8125,0.078125 0,0.46875 c 0.609375,0 0.6875,0 0.6875,0.390625 l 0,1.90625 c 0,0.8125 -0.515625,1.34375 -1.234375,1.34375 -0.78125,0 -0.8125,-0.25 -0.8125,-0.796875 l 0,-3.390625 -1.8125,0.078125 0,0.46875 c 0.609375,0 0.6875,0 0.6875,0.390625 l 0,2.328125 c 0,1.0625 0.796875,1.28125 1.796875,1.28125 0.25,0 0.96875,0 1.421875,-0.78125 z m 0,0"
               id="path4975" />
          </symbol>
        </g>
      </defs>
      <g
         id="textext-8e15e363-2">
        <g
           style="fill:#000000;fill-opacity:1"
           id="g4978">
          <use
             height="990"
             width="765"
             xlink:href="#textext-8e15e363-0"
             x="223.75"
             y="134.765"
             id="use4980" />
        </g>
        <g
           style="fill:#000000;fill-opacity:1"
           id="g4982">
          <use
             height="990"
             width="765"
             xlink:href="#textext-8e15e363-1"
             x="223.4312"
             y="134.765"
             id="use4984" />
        </g>
      </g>
    </g>
    <path
       style="fill:none;stroke:#000000;stroke-width:2;stroke-linecap:butt;stroke-linejoin:miter;stroke-miterlimit:4;stroke-opacity:1;stroke-dasharray:none;marker-end:url(#Arrow2Lend)"
       d="M 150,290 C 25,165 25,165 25,165"
       id="path5291"
       inkscape:connector-curvature="0"
       transform="translate(0,62.362183)" />
    <g
       ns0:text="$\\mathbf{\\hat w}$"
       ns0:preamble=""
       transform="matrix(3,0,0,3,-663.97026,-135.16063)"
       id="g5582">
      <defs
         id="defs5584">
        <g
           id="g5586">
          <symbol
             style="overflow:visible"
             overflow="visible"
             id="textext-ec358780-0">
            <path
               inkscape:connector-curvature="0"
               style="stroke:none"
               d="m 2.859375,-6.921875 -1.5625,1.265625 0.28125,0.375 1.28125,-0.8125 1.28125,0.8125 0.28125,-0.375 z m 0,0"
               id="path5589" />
          </symbol>
          <symbol
             style="overflow:visible"
             overflow="visible"
             id="textext-ec358780-1">
            <path
               inkscape:connector-curvature="0"
               style="stroke:none"
               d="m 7.34375,-3.75 c 0.046875,-0.125 0.09375,-0.203125 0.6875,-0.203125 l 0,-0.46875 C 7.796875,-4.40625 7.5,-4.390625 7.25,-4.390625 c -0.265625,0 -0.734375,-0.03125 -0.953125,-0.03125 l 0,0.46875 c 0.09375,0 0.578125,0 0.578125,0.109375 0,0.03125 -0.03125,0.09375 -0.03125,0.125 l -1.046875,2.546875 -1.140625,-2.78125 0.5625,0 0,-0.46875 c -0.328125,0 -0.84375,0.03125 -1.140625,0.03125 -0.421875,0 -0.84375,-0.03125 -1,-0.03125 l 0,0.46875 0.59375,0 c 0.203125,0.5 0.203125,0.515625 0.203125,0.53125 0,0.03125 -0.03125,0.09375 -0.03125,0.125 L 3.046875,-1.390625 2,-3.953125 l 0.5625,0 0,-0.46875 c -0.40625,0.015625 -0.8125,0.03125 -1.234375,0.03125 -0.296875,0 -0.734375,-0.03125 -1.078125,-0.03125 l 0,0.46875 0.59375,0 1.515625,3.71875 C 2.4375,-0.0625 2.46875,0.046875 2.71875,0.046875 c 0.25,0 0.296875,-0.109375 0.359375,-0.28125 L 4.140625,-2.8125 5.1875,-0.234375 c 0.078125,0.171875 0.109375,0.28125 0.359375,0.28125 0.25,0 0.296875,-0.109375 0.359375,-0.28125 z m 0,0"
               id="path5592" />
          </symbol>
        </g>
      </defs>
      <g
         id="textext-ec358780-2">
        <g
           style="fill:#000000;fill-opacity:1"
           id="g5595">
          <use
             height="990"
             width="765"
             xlink:href="#textext-ec358780-0"
             x="224.785"
             y="134.765"
             id="use5597" />
        </g>
        <g
           style="fill:#000000;fill-opacity:1"
           id="g5599">
          <use
             height="990"
             width="765"
             xlink:href="#textext-ec358780-1"
             x="223.43008"
             y="134.765"
             id="use5601" />
        </g>
      </g>
    </g>
    <g
       ns0:text="$\\mathbf{\\overline{x}}=0$"
       ns0:preamble=""
       transform="matrix(3,0,0,3,-560.17132,-17.129695)"
       id="g5698">
      <defs
         id="defs5700">
        <g
           id="g5702">
          <symbol
             style="overflow:visible"
             overflow="visible"
             id="symbol5704">
            <path
               inkscape:connector-curvature="0"
               style="stroke:none"
               d="M 3.453125,-2.453125 4.609375,-3.75 C 4.75,-3.890625 4.8125,-3.953125 5.625,-3.953125 l 0,-0.46875 c -0.34375,0.015625 -0.859375,0.03125 -0.90625,0.03125 -0.25,0 -0.75,-0.03125 -1.03125,-0.03125 l 0,0.46875 c 0.140625,0 0.265625,0.015625 0.375,0.078125 -0.03125,0.0625 -0.03125,0.09375 -0.078125,0.125 l -0.828125,0.9375 -0.984375,-1.140625 0.40625,0 0,-0.46875 c -0.265625,0 -0.890625,0.03125 -1.21875,0.03125 -0.3125,0 -0.765625,-0.03125 -1.09375,-0.03125 l 0,0.46875 0.71875,0 1.546875,1.828125 -1.3125,1.46875 c -0.15625,0.1875 -0.515625,0.1875 -1,0.1875 l 0,0.46875 c 0.34375,-0.015625 0.875,-0.03125 0.921875,-0.03125 0.25,0 0.828125,0.015625 1.015625,0.03125 l 0,-0.46875 c -0.171875,0 -0.359375,-0.046875 -0.359375,-0.109375 0,-0.015625 0,-0.015625 0.0625,-0.09375 l 0.96875,-1.09375 1.09375,1.296875 -0.390625,0 0,0.46875 c 0.265625,-0.015625 0.875,-0.03125 1.203125,-0.03125 0.3125,0 0.765625,0.015625 1.09375,0.03125 l 0,-0.46875 -0.703125,0 z m 0,0"
               id="path5706" />
          </symbol>
          <symbol
             style="overflow:visible"
             overflow="visible"
             id="symbol5708">
            <path
               inkscape:connector-curvature="0"
               style="stroke:none"
               d="m 6.84375,-3.265625 c 0.15625,0 0.34375,0 0.34375,-0.1875 C 7.1875,-3.65625 7,-3.65625 6.859375,-3.65625 l -5.96875,0 c -0.140625,0 -0.328125,0 -0.328125,0.203125 0,0.1875 0.1875,0.1875 0.328125,0.1875 z m 0.015625,1.9375 c 0.140625,0 0.328125,0 0.328125,-0.203125 0,-0.1875 -0.1875,-0.1875 -0.34375,-0.1875 l -5.953125,0 c -0.140625,0 -0.328125,0 -0.328125,0.1875 0,0.203125 0.1875,0.203125 0.328125,0.203125 z m 0,0"
               id="path5710" />
          </symbol>
          <symbol
             style="overflow:visible"
             overflow="visible"
             id="symbol5712">
            <path
               inkscape:connector-curvature="0"
               style="stroke:none"
               d="m 4.578125,-3.1875 c 0,-0.796875 -0.046875,-1.59375 -0.390625,-2.328125 -0.453125,-0.96875 -1.28125,-1.125 -1.6875,-1.125 -0.609375,0 -1.328125,0.265625 -1.75,1.1875 -0.3125,0.6875 -0.359375,1.46875 -0.359375,2.265625 0,0.75 0.03125,1.640625 0.453125,2.40625 0.421875,0.796875 1.15625,1 1.640625,1 0.53125,0 1.296875,-0.203125 1.734375,-1.15625 0.3125,-0.6875 0.359375,-1.46875 0.359375,-2.25 z M 2.484375,0 C 2.09375,0 1.5,-0.25 1.328125,-1.203125 1.21875,-1.796875 1.21875,-2.71875 1.21875,-3.3125 c 0,-0.640625 0,-1.296875 0.078125,-1.828125 0.1875,-1.1875 0.9375,-1.28125 1.1875,-1.28125 0.328125,0 0.984375,0.1875 1.171875,1.171875 0.109375,0.5625 0.109375,1.3125 0.109375,1.9375 0,0.75 0,1.421875 -0.109375,2.0625 C 3.5,-0.296875 2.9375,0 2.484375,0 z m 0,0"
               id="path5714" />
          </symbol>
        </g>
      </defs>
      <g
         id="g5716">
        <path
           inkscape:connector-curvature="0"
           style="fill:none;stroke:#000000;stroke-width:1;stroke-linecap:butt;stroke-linejoin:miter;stroke-miterlimit:10;stroke-opacity:1"
           d="m 0.068,0.442 6,0"
           transform="matrix(1,0,0,-1,223.432,128.942)"
           id="path5718" />
        <g
           style="fill:#000000;fill-opacity:1"
           id="g5720">
          <use
             height="990"
             width="765"
             xlink:href="#textext-35f3e3b7-0"
             x="223.43201"
             y="134.765"
             id="use5722" />
        </g>
        <g
           style="fill:#000000;fill-opacity:1"
           id="g5724">
          <use
             height="990"
             width="765"
             xlink:href="#textext-35f3e3b7-1"
             x="232.246"
             y="134.765"
             id="use5726" />
        </g>
        <g
           style="fill:#000000;fill-opacity:1"
           id="g5728">
          <use
             height="990"
             width="765"
             xlink:href="#textext-35f3e3b7-2"
             x="242.76451"
             y="134.765"
             id="use5730" />
        </g>
      </g>
    </g>
    <path
       transform="translate(-120,193.79075)"
       d="m 208.57143,90 c 0,4.73387 -3.83756,8.571429 -8.57143,8.571429 -4.73387,0 -8.57143,-3.837559 -8.57143,-8.571429 0,-4.73387 3.83756,-8.571429 8.57143,-8.571429 4.73387,0 8.57143,3.837559 8.57143,8.571429 z"
       sodipodi:ry="8.5714293"
       sodipodi:rx="8.5714293"
       sodipodi:cy="90"
       sodipodi:cx="200"
       id="path5732"
       style="fill:#2b0000;fill-opacity:1;stroke:#000000;stroke-width:1;stroke-linecap:square;stroke-miterlimit:4;stroke-opacity:1;stroke-dasharray:2, 1;stroke-dashoffset:0"
       sodipodi:type="arc" />
    <path
       sodipodi:nodetypes="cc"
       inkscape:connector-curvature="0"
       id="path5734"
       d="m 85,302.36218 50,50"
       style="fill:none;stroke:#000000;stroke-width:1px;stroke-linecap:butt;stroke-linejoin:miter;stroke-opacity:1;marker-start:url(#Arrow1Lstart);marker-end:url(#Arrow2Lend)" />
    <g
       id="g6412"
       ns0:preamble=""
       ns0:text="$w_0$"
       transform="matrix(2,0,0,2,-364.5625,67.143433)">
      <defs
         id="defs6414">
        <g
           id="g6416">
          <symbol
             id="textext-27b23ecb-0"
             overflow="visible"
             style="overflow:visible">
            <path
               id="path6419"
               d="M 4.609375,-3.375 C 4.65625,-3.59375 4.75,-3.96875 4.75,-4.03125 c 0,-0.171875 -0.140625,-0.265625 -0.28125,-0.265625 -0.125,0 -0.296875,0.078125 -0.375,0.28125 -0.03125,0.0625 -0.5,1.96875 -0.5625,2.234375 C 3.453125,-1.484375 3.4375,-1.3125 3.4375,-1.125 c 0,0.109375 0,0.125 0.015625,0.171875 -0.234375,0.53125 -0.53125,0.84375 -0.921875,0.84375 -0.796875,0 -0.796875,-0.734375 -0.796875,-0.90625 0,-0.3125 0.046875,-0.703125 0.515625,-1.9375 0.109375,-0.296875 0.171875,-0.4375 0.171875,-0.640625 0,-0.4375 -0.328125,-0.8125 -0.8125,-0.8125 -0.953125,0 -1.3125,1.453125 -1.3125,1.53125 0,0.109375 0.09375,0.109375 0.109375,0.109375 0.109375,0 0.109375,-0.03125 0.15625,-0.1875 C 0.84375,-3.875 1.21875,-4.1875 1.578125,-4.1875 c 0.09375,0 0.25,0.015625 0.25,0.328125 0,0.25 -0.109375,0.53125 -0.1875,0.703125 -0.4375,1.171875 -0.546875,1.625 -0.546875,2.015625 0,0.90625 0.65625,1.25 1.40625,1.25 0.171875,0 0.640625,0 1.03125,-0.703125 0.265625,0.640625 0.953125,0.703125 1.25,0.703125 0.75,0 1.1875,-0.625 1.453125,-1.21875 0.328125,-0.78125 0.65625,-2.125 0.65625,-2.59375 0,-0.546875 -0.265625,-0.703125 -0.4375,-0.703125 -0.25,0 -0.5,0.265625 -0.5,0.484375 0,0.125 0.0625,0.1875 0.140625,0.265625 0.109375,0.109375 0.359375,0.359375 0.359375,0.84375 0,0.34375 -0.28125,1.3125 -0.546875,1.828125 -0.25,0.53125 -0.609375,0.875 -1.09375,0.875 -0.46875,0 -0.734375,-0.296875 -0.734375,-0.875 0,-0.265625 0.0625,-0.578125 0.109375,-0.71875 z m 0,0"
               style="stroke:none"
               inkscape:connector-curvature="0" />
          </symbol>
          <symbol
             id="textext-27b23ecb-1"
             overflow="visible"
             style="overflow:visible">
            <path
               id="path6422"
               d="M 3.59375,-2.21875 C 3.59375,-2.984375 3.5,-3.546875 3.1875,-4.03125 2.96875,-4.34375 2.53125,-4.625 1.984375,-4.625 c -1.625,0 -1.625,1.90625 -1.625,2.40625 0,0.5 0,2.359375 1.625,2.359375 1.609375,0 1.609375,-1.859375 1.609375,-2.359375 z M 1.984375,-0.0625 c -0.328125,0 -0.75,-0.1875 -0.890625,-0.75 C 1,-1.21875 1,-1.796875 1,-2.3125 1,-2.828125 1,-3.359375 1.09375,-3.734375 1.25,-4.28125 1.6875,-4.4375 1.984375,-4.4375 c 0.375,0 0.734375,0.234375 0.859375,0.640625 0.109375,0.375 0.125,0.875 0.125,1.484375 0,0.515625 0,1.03125 -0.09375,1.46875 -0.140625,0.640625 -0.609375,0.78125 -0.890625,0.78125 z m 0,0"
               style="stroke:none"
               inkscape:connector-curvature="0" />
          </symbol>
        </g>
      </defs>
      <g
         id="textext-27b23ecb-2">
        <g
           id="g6425"
           style="fill:#000000;fill-opacity:1">
          <use
             id="use6427"
             y="134.765"
             x="223.43201"
             xlink:href="#textext-27b23ecb-0"
             width="765"
             height="990" />
        </g>
        <g
           id="g6429"
           style="fill:#000000;fill-opacity:1">
          <use
             id="use6431"
             y="136.259"
             x="230.565"
             xlink:href="#textext-27b23ecb-1"
             width="765"
             height="990" />
        </g>
      </g>
    </g>
    <g
       ns0:text="$\\mathbf{x}$"
       ns0:preamble=""
       transform="matrix(3,0,0,3,-590.17132,-137.1297)"
       id="g6729">
      <defs
         id="defs6731">
        <g
           id="g6733">
          <symbol
             style="overflow:visible"
             overflow="visible"
             id="textext-162e1708-0">
            <path
               inkscape:connector-curvature="0"
               style="stroke:none"
               d="M 3.453125,-2.453125 4.609375,-3.75 C 4.75,-3.890625 4.8125,-3.953125 5.625,-3.953125 l 0,-0.46875 c -0.34375,0.015625 -0.859375,0.03125 -0.90625,0.03125 -0.25,0 -0.75,-0.03125 -1.03125,-0.03125 l 0,0.46875 c 0.140625,0 0.265625,0.015625 0.375,0.078125 -0.03125,0.0625 -0.03125,0.09375 -0.078125,0.125 l -0.828125,0.9375 -0.984375,-1.140625 0.40625,0 0,-0.46875 c -0.265625,0 -0.890625,0.03125 -1.21875,0.03125 -0.3125,0 -0.765625,-0.03125 -1.09375,-0.03125 l 0,0.46875 0.71875,0 1.546875,1.828125 -1.3125,1.46875 c -0.15625,0.1875 -0.515625,0.1875 -1,0.1875 l 0,0.46875 c 0.34375,-0.015625 0.875,-0.03125 0.921875,-0.03125 0.25,0 0.828125,0.015625 1.015625,0.03125 l 0,-0.46875 c -0.171875,0 -0.359375,-0.046875 -0.359375,-0.109375 0,-0.015625 0,-0.015625 0.0625,-0.09375 l 0.96875,-1.09375 1.09375,1.296875 -0.390625,0 0,0.46875 c 0.265625,-0.015625 0.875,-0.03125 1.203125,-0.03125 0.3125,0 0.765625,0.015625 1.09375,0.03125 l 0,-0.46875 -0.703125,0 z m 0,0"
               id="path6736" />
          </symbol>
        </g>
      </defs>
      <g
         id="textext-162e1708-1">
        <g
           style="fill:#000000;fill-opacity:1"
           id="g6739">
          <use
             height="990"
             width="765"
             xlink:href="#textext-162e1708-0"
             x="223.43201"
             y="134.765"
             id="use6741" />
        </g>
      </g>
    </g>
    <path
       inkscape:connector-curvature="0"
       id="path6881"
       d="m 385,277.36218 c 0,50 0,50 0,50"
       style="fill:none;stroke:#000000;stroke-width:1px;stroke-linecap:butt;stroke-linejoin:miter;stroke-opacity:1;marker-end:url(#Arrow2Lend)" />
    <path
       style="fill:none;stroke:#000000;stroke-width:1px;stroke-linecap:butt;stroke-linejoin:miter;stroke-opacity:1;marker-end:url(#Arrow2Lend)"
       d="m 477.05965,205.75906 c 35.35534,-35.35534 35.35534,-35.35534 35.35534,-35.35534"
       id="path7693"
       inkscape:connector-curvature="0" />
    <path
       inkscape:connector-curvature="0"
       id="path8161"
       d="M 340.78194,202.36218 C 305.4266,167.00684 305.4266,167.00684 305.4266,167.00684"
       style="fill:none;stroke:#000000;stroke-width:1px;stroke-linecap:butt;stroke-linejoin:miter;stroke-opacity:1;marker-end:url(#Arrow2Lend)" />
    <path
       style="fill:none;stroke:#0000ff;stroke-width:1px;stroke-linecap:butt;stroke-linejoin:miter;stroke-opacity:1;marker-end:url(#Arrow2Lendb)"
       d="m 364.60361,277.7938 c 50,0 50,0 50,0"
       id="path8605"
       inkscape:connector-curvature="0" />
    <path
       sodipodi:nodetypes="cc"
       inkscape:connector-curvature="0"
       id="path10537"
       d="M 485,217.36218 464.60361,187.7938"
       style="fill:none;stroke:#0000ff;stroke-width:1px;stroke-linecap:butt;stroke-linejoin:miter;stroke-opacity:1;marker-end:url(#Arrow2Lendb)" />
    <path
       style="fill:none;stroke:#0000ff;stroke-width:1px;stroke-linecap:butt;stroke-linejoin:miter;stroke-opacity:1;marker-end:url(#Arrow2Lendb)"
       d="m 350,192.36218 -30,25"
       id="path11085"
       inkscape:connector-curvature="0"
       sodipodi:nodetypes="cc" />
    <g
       id="g11858"
       transform="matrix(3,0,0,3,-563.97026,-285.16063)"
       ns0:preamble=""
       ns0:text="$\\mathbf{\\hat v}$">
      <defs
         id="defs11860">
        <g
           id="g11862">
          <symbol
             id="textext-b207ebab-0"
             overflow="visible">
            <path
               id="path11865"
               d="M 2.859375 -6.921875 L 1.296875 -5.65625 L 1.578125 -5.28125 L 2.859375 -6.09375 L 4.140625 -5.28125 L 4.421875 -5.65625 Z M 2.859375 -6.921875 "
               style="stroke:none;" />
          </symbol>
          <symbol
             id="textext-b207ebab-1"
             overflow="visible">
            <path
               id="path11868"
               d="M 5.046875 -3.75 C 5.109375 -3.890625 5.140625 -3.953125 5.78125 -3.953125 L 5.78125 -4.421875 C 5.53125 -4.40625 5.25 -4.390625 5 -4.390625 C 4.75 -4.390625 4.296875 -4.421875 4.09375 -4.421875 L 4.09375 -3.953125 C 4.28125 -3.953125 4.5625 -3.921875 4.5625 -3.84375 C 4.5625 -3.84375 4.5625 -3.8125 4.515625 -3.734375 L 3.359375 -1.234375 L 2.09375 -3.953125 L 2.625 -3.953125 L 2.625 -4.421875 C 2.296875 -4.40625 1.40625 -4.390625 1.390625 -4.390625 C 1.109375 -4.390625 0.671875 -4.421875 0.265625 -4.421875 L 0.265625 -3.953125 L 0.890625 -3.953125 L 2.640625 -0.203125 C 2.765625 0.046875 2.890625 0.046875 3.015625 0.046875 C 3.1875 0.046875 3.296875 0.015625 3.390625 -0.203125 Z M 5.046875 -3.75 "
               style="stroke:none;" />
          </symbol>
        </g>
      </defs>
      <g
         id="textext-b207ebab-2">
        <g
           id="g11871"
           style="fill:rgb(0%,0%,0%);fill-opacity:1;">
          <use
             id="use11873"
             y="134.765"
             x="223.671"
             xlink:href="#textext-b207ebab-0" />
        </g>
        <g
           id="g11875"
           style="fill:rgb(0%,0%,0%);fill-opacity:1;">
          <use
             id="use11877"
             y="134.765"
             x="223.431898"
             xlink:href="#textext-b207ebab-1" />
        </g>
      </g>
    </g>
  </g>
  <g
     transform="matrix(-2.1213203,-2.1213203,2.1213203,-2.1213203,708.5391,915.64897)"
     ns0:text="$\\mathbf{\\hat m}_1$"
     ns0:preamble=""
     id="g7695">
    <defs
       id="defs7697">
      <g
         id="g7699">
        <symbol
           style="overflow:visible"
           overflow="visible"
           id="symbol7701">
          <path
             inkscape:connector-curvature="0"
             style="stroke:none"
             d="m 2.859375,-6.921875 -1.5625,1.265625 0.28125,0.375 1.28125,-0.8125 1.28125,0.8125 0.28125,-0.375 z m 0,0"
             id="path7703" />
        </symbol>
        <symbol
           style="overflow:visible"
           overflow="visible"
           id="symbol7705">
          <path
             inkscape:connector-curvature="0"
             style="stroke:none"
             d="m 1.140625,-3.546875 0,3.078125 -0.6875,0 0,0.46875 c 0.28125,-0.015625 0.875,-0.03125 1.25,-0.03125 0.390625,0 0.984375,0.015625 1.25,0.03125 l 0,-0.46875 -0.6875,0 0,-2.078125 c 0,-1.09375 0.875,-1.578125 1.5,-1.578125 0.328125,0 0.546875,0.203125 0.546875,0.96875 l 0,2.6875 -0.6875,0 0,0.46875 c 0.28125,-0.015625 0.875,-0.03125 1.265625,-0.03125 0.390625,0 0.96875,0.015625 1.25,0.03125 l 0,-0.46875 -0.6875,0 0,-2.078125 C 5.453125,-3.640625 6.3125,-4.125 6.9375,-4.125 7.28125,-4.125 7.5,-3.921875 7.5,-3.15625 l 0,2.6875 -0.6875,0 0,0.46875 c 0.28125,-0.015625 0.875,-0.03125 1.25,-0.03125 0.390625,0 0.984375,0.015625 1.265625,0.03125 l 0,-0.46875 -0.6875,0 0,-2.578125 c 0,-1.03125 -0.515625,-1.4375 -1.546875,-1.4375 -0.90625,0 -1.421875,0.5 -1.6875,0.953125 -0.1875,-0.921875 -1.109375,-0.953125 -1.484375,-0.953125 -0.875,0 -1.4375,0.453125 -1.765625,1.078125 l 0,-1.078125 -1.703125,0.078125 0,0.46875 c 0.609375,0 0.6875,0 0.6875,0.390625 z m 0,0"
             id="path7707" />
        </symbol>
        <symbol
           style="overflow:visible"
           overflow="visible"
           id="symbol7709">
          <path
             inkscape:connector-curvature="0"
             style="stroke:none"
             d="m 2.328125,-4.4375 c 0,-0.1875 0,-0.1875 -0.203125,-0.1875 -0.453125,0.4375 -1.078125,0.4375 -1.359375,0.4375 l 0,0.25 c 0.15625,0 0.625,0 1,-0.1875 l 0,3.546875 c 0,0.234375 0,0.328125 -0.6875,0.328125 l -0.265625,0 0,0.25 c 0.125,0 0.984375,-0.03125 1.234375,-0.03125 0.21875,0 1.09375,0.03125 1.25,0.03125 l 0,-0.25 -0.265625,0 c -0.703125,0 -0.703125,-0.09375 -0.703125,-0.328125 z m 0,0"
             id="path7711" />
        </symbol>
      </g>
    </defs>
  </g>
  <g
     ns0:text="$\\mathbf{\\hat m}_2$"
     ns0:preamble=""
     transform="matrix(3,0,0,3,-170.04803,-281.17957)"
     id="g7952">
    <defs
       id="defs7954">
      <g
         id="g7956">
        <symbol
           style="overflow:visible"
           overflow="visible"
           id="textext-516a4a5f-0">
          <path
             inkscape:connector-curvature="0"
             style="stroke:none"
             d="m 2.859375,-6.921875 -1.5625,1.265625 0.28125,0.375 1.28125,-0.8125 1.28125,0.8125 0.28125,-0.375 z m 0,0"
             id="path7959" />
        </symbol>
        <symbol
           style="overflow:visible"
           overflow="visible"
           id="textext-516a4a5f-1">
          <path
             inkscape:connector-curvature="0"
             style="stroke:none"
             d="m 1.140625,-3.546875 0,3.078125 -0.6875,0 0,0.46875 c 0.28125,-0.015625 0.875,-0.03125 1.25,-0.03125 0.390625,0 0.984375,0.015625 1.25,0.03125 l 0,-0.46875 -0.6875,0 0,-2.078125 c 0,-1.09375 0.875,-1.578125 1.5,-1.578125 0.328125,0 0.546875,0.203125 0.546875,0.96875 l 0,2.6875 -0.6875,0 0,0.46875 c 0.28125,-0.015625 0.875,-0.03125 1.265625,-0.03125 0.390625,0 0.96875,0.015625 1.25,0.03125 l 0,-0.46875 -0.6875,0 0,-2.078125 C 5.453125,-3.640625 6.3125,-4.125 6.9375,-4.125 7.28125,-4.125 7.5,-3.921875 7.5,-3.15625 l 0,2.6875 -0.6875,0 0,0.46875 c 0.28125,-0.015625 0.875,-0.03125 1.25,-0.03125 0.390625,0 0.984375,0.015625 1.265625,0.03125 l 0,-0.46875 -0.6875,0 0,-2.578125 c 0,-1.03125 -0.515625,-1.4375 -1.546875,-1.4375 -0.90625,0 -1.421875,0.5 -1.6875,0.953125 -0.1875,-0.921875 -1.109375,-0.953125 -1.484375,-0.953125 -0.875,0 -1.4375,0.453125 -1.765625,1.078125 l 0,-1.078125 -1.703125,0.078125 0,0.46875 c 0.609375,0 0.6875,0 0.6875,0.390625 z m 0,0"
             id="path7962" />
        </symbol>
        <symbol
           style="overflow:visible"
           overflow="visible"
           id="textext-516a4a5f-2">
          <path
             inkscape:connector-curvature="0"
             style="stroke:none"
             d="m 3.515625,-1.265625 -0.234375,0 c -0.015625,0.15625 -0.09375,0.5625 -0.1875,0.625 -0.046875,0.046875 -0.578125,0.046875 -0.6875,0.046875 l -1.28125,0 c 0.734375,-0.640625 0.984375,-0.84375 1.390625,-1.171875 0.515625,-0.40625 1,-0.84375 1,-1.5 0,-0.84375 -0.734375,-1.359375 -1.625,-1.359375 -0.859375,0 -1.453125,0.609375 -1.453125,1.25 0,0.34375 0.296875,0.390625 0.375,0.390625 0.15625,0 0.359375,-0.125 0.359375,-0.375 0,-0.125 -0.046875,-0.375 -0.40625,-0.375 C 0.984375,-4.21875 1.453125,-4.375 1.78125,-4.375 c 0.703125,0 1.0625,0.546875 1.0625,1.109375 0,0.609375 -0.4375,1.078125 -0.65625,1.328125 L 0.515625,-0.265625 C 0.4375,-0.203125 0.4375,-0.1875 0.4375,0 l 2.875,0 z m 0,0"
             id="path7965" />
        </symbol>
      </g>
    </defs>
    <g
       id="textext-516a4a5f-3">
      <g
         style="fill:#000000;fill-opacity:1"
         id="g7968">
        <use
           height="990"
           width="765"
           xlink:href="#textext-516a4a5f-0"
           x="225.342"
           y="134.765"
           id="use7970" />
      </g>
      <g
         style="fill:#000000;fill-opacity:1"
         id="g7972">
        <use
           height="990"
           width="765"
           xlink:href="#textext-516a4a5f-1"
           x="223.42918"
           y="134.765"
           id="use7974" />
      </g>
      <g
         style="fill:#000000;fill-opacity:1"
         id="g7976">
        <use
           height="990"
           width="765"
           xlink:href="#textext-516a4a5f-2"
           x="232.98"
           y="136.259"
           id="use7978" />
      </g>
    </g>
  </g>
  <g
     id="g8379"
     transform="matrix(3,0,0,3,-365.49245,-328.41707)"
     ns0:preamble=""
     ns0:text="$\\mathbf{\\hat m}_3$">
    <defs
       id="defs8381">
      <g
         id="g8383">
        <symbol
           style="overflow:visible"
           id="textext-455e3255-0"
           overflow="visible">
          <path
             inkscape:connector-curvature="0"
             id="path8386"
             d="m 2.859375,-6.921875 -1.5625,1.265625 0.28125,0.375 1.28125,-0.8125 1.28125,0.8125 0.28125,-0.375 z m 0,0"
             style="stroke:none" />
        </symbol>
        <symbol
           style="overflow:visible"
           id="textext-455e3255-1"
           overflow="visible">
          <path
             inkscape:connector-curvature="0"
             id="path8389"
             d="m 1.140625,-3.546875 0,3.078125 -0.6875,0 0,0.46875 c 0.28125,-0.015625 0.875,-0.03125 1.25,-0.03125 0.390625,0 0.984375,0.015625 1.25,0.03125 l 0,-0.46875 -0.6875,0 0,-2.078125 c 0,-1.09375 0.875,-1.578125 1.5,-1.578125 0.328125,0 0.546875,0.203125 0.546875,0.96875 l 0,2.6875 -0.6875,0 0,0.46875 c 0.28125,-0.015625 0.875,-0.03125 1.265625,-0.03125 0.390625,0 0.96875,0.015625 1.25,0.03125 l 0,-0.46875 -0.6875,0 0,-2.078125 C 5.453125,-3.640625 6.3125,-4.125 6.9375,-4.125 7.28125,-4.125 7.5,-3.921875 7.5,-3.15625 l 0,2.6875 -0.6875,0 0,0.46875 c 0.28125,-0.015625 0.875,-0.03125 1.25,-0.03125 0.390625,0 0.984375,0.015625 1.265625,0.03125 l 0,-0.46875 -0.6875,0 0,-2.578125 c 0,-1.03125 -0.515625,-1.4375 -1.546875,-1.4375 -0.90625,0 -1.421875,0.5 -1.6875,0.953125 -0.1875,-0.921875 -1.109375,-0.953125 -1.484375,-0.953125 -0.875,0 -1.4375,0.453125 -1.765625,1.078125 l 0,-1.078125 -1.703125,0.078125 0,0.46875 c 0.609375,0 0.6875,0 0.6875,0.390625 z m 0,0"
             style="stroke:none" />
        </symbol>
        <symbol
           style="overflow:visible"
           id="textext-455e3255-2"
           overflow="visible">
          <path
             inkscape:connector-curvature="0"
             id="path8392"
             d="m 1.90625,-2.328125 c 0.546875,0 0.9375,0.375 0.9375,1.125 0,0.859375 -0.515625,1.125 -0.90625,1.125 -0.28125,0 -0.90625,-0.078125 -1.1875,-0.5 0.328125,0 0.40625,-0.234375 0.40625,-0.390625 0,-0.21875 -0.171875,-0.375 -0.390625,-0.375 -0.1875,0 -0.390625,0.125 -0.390625,0.40625 0,0.65625 0.71875,1.078125 1.5625,1.078125 0.96875,0 1.640625,-0.65625 1.640625,-1.34375 0,-0.546875 -0.4375,-1.09375 -1.203125,-1.25 0.71875,-0.265625 0.984375,-0.78125 0.984375,-1.21875 0,-0.546875 -0.625,-0.953125 -1.40625,-0.953125 -0.765625,0 -1.359375,0.375 -1.359375,0.9375 0,0.234375 0.15625,0.359375 0.359375,0.359375 0.21875,0 0.359375,-0.15625 0.359375,-0.34375 0,-0.203125 -0.140625,-0.359375 -0.359375,-0.375 0.25,-0.296875 0.71875,-0.375 0.984375,-0.375 0.3125,0 0.75,0.15625 0.75,0.75 0,0.296875 -0.09375,0.625 -0.28125,0.828125 -0.21875,0.265625 -0.421875,0.28125 -0.765625,0.3125 -0.171875,0.015625 -0.1875,0.015625 -0.21875,0.015625 -0.015625,0 -0.078125,0.015625 -0.078125,0.09375 0,0.09375 0.0625,0.09375 0.1875,0.09375 z m 0,0"
             style="stroke:none" />
        </symbol>
      </g>
    </defs>
    <g
       id="textext-455e3255-3">
      <g
         id="g8395"
         style="fill:#000000;fill-opacity:1">
        <use
           height="990"
           width="765"
           id="use8397"
           y="134.765"
           x="225.342"
           xlink:href="#textext-455e3255-0" />
      </g>
      <g
         id="g8399"
         style="fill:#000000;fill-opacity:1">
        <use
           height="990"
           width="765"
           id="use8401"
           y="134.765"
           x="223.42918"
           xlink:href="#textext-455e3255-1" />
      </g>
      <g
         id="g8403"
         style="fill:#000000;fill-opacity:1">
        <use
           height="990"
           width="765"
           id="use8405"
           y="136.259"
           x="232.98"
           xlink:href="#textext-455e3255-2" />
      </g>
    </g>
  </g>
  <g
     transform="matrix(3,0,0,3,-279.64958,-163.69934)"
     ns0:text="$\\mathbf{\\hat m}_1$"
     ns0:preamble=""
     id="g9524">
    <defs
       id="defs9526">
      <g
         id="g9528">
        <symbol
           style="overflow:visible"
           overflow="visible"
           id="symbol9530">
          <path
             inkscape:connector-curvature="0"
             style="stroke:none"
             d="m 2.859375,-6.921875 -1.5625,1.265625 0.28125,0.375 1.28125,-0.8125 1.28125,0.8125 0.28125,-0.375 z m 0,0"
             id="path9532" />
        </symbol>
        <symbol
           style="overflow:visible"
           overflow="visible"
           id="symbol9534">
          <path
             inkscape:connector-curvature="0"
             style="stroke:none"
             d="m 1.140625,-3.546875 0,3.078125 -0.6875,0 0,0.46875 c 0.28125,-0.015625 0.875,-0.03125 1.25,-0.03125 0.390625,0 0.984375,0.015625 1.25,0.03125 l 0,-0.46875 -0.6875,0 0,-2.078125 c 0,-1.09375 0.875,-1.578125 1.5,-1.578125 0.328125,0 0.546875,0.203125 0.546875,0.96875 l 0,2.6875 -0.6875,0 0,0.46875 c 0.28125,-0.015625 0.875,-0.03125 1.265625,-0.03125 0.390625,0 0.96875,0.015625 1.25,0.03125 l 0,-0.46875 -0.6875,0 0,-2.078125 C 5.453125,-3.640625 6.3125,-4.125 6.9375,-4.125 7.28125,-4.125 7.5,-3.921875 7.5,-3.15625 l 0,2.6875 -0.6875,0 0,0.46875 c 0.28125,-0.015625 0.875,-0.03125 1.25,-0.03125 0.390625,0 0.984375,0.015625 1.265625,0.03125 l 0,-0.46875 -0.6875,0 0,-2.578125 c 0,-1.03125 -0.515625,-1.4375 -1.546875,-1.4375 -0.90625,0 -1.421875,0.5 -1.6875,0.953125 -0.1875,-0.921875 -1.109375,-0.953125 -1.484375,-0.953125 -0.875,0 -1.4375,0.453125 -1.765625,1.078125 l 0,-1.078125 -1.703125,0.078125 0,0.46875 c 0.609375,0 0.6875,0 0.6875,0.390625 z m 0,0"
             id="path9536" />
        </symbol>
        <symbol
           style="overflow:visible"
           overflow="visible"
           id="symbol9538">
          <path
             inkscape:connector-curvature="0"
             style="stroke:none"
             d="m 2.328125,-4.4375 c 0,-0.1875 0,-0.1875 -0.203125,-0.1875 -0.453125,0.4375 -1.078125,0.4375 -1.359375,0.4375 l 0,0.25 c 0.15625,0 0.625,0 1,-0.1875 l 0,3.546875 c 0,0.234375 0,0.328125 -0.6875,0.328125 l -0.265625,0 0,0.25 c 0.125,0 0.984375,-0.03125 1.234375,-0.03125 0.21875,0 1.09375,0.03125 1.25,0.03125 l 0,-0.25 -0.265625,0 c -0.703125,0 -0.703125,-0.09375 -0.703125,-0.328125 z m 0,0"
             id="path9540" />
        </symbol>
      </g>
    </defs>
    <g
       id="g9542">
      <g
         style="fill:#000000;fill-opacity:1"
         id="g9544">
        <use
           height="990"
           width="765"
           xlink:href="#textext-d3a5145e-0"
           x="225.342"
           y="134.765"
           id="use9546" />
      </g>
      <g
         style="fill:#000000;fill-opacity:1"
         id="g9548">
        <use
           height="990"
           width="765"
           xlink:href="#textext-d3a5145e-1"
           x="223.42918"
           y="134.765"
           id="use9550" />
      </g>
      <g
         style="fill:#000000;fill-opacity:1"
         id="g9552">
        <use
           height="990"
           width="765"
           xlink:href="#textext-d3a5145e-2"
           x="232.98"
           y="136.259"
           id="use9554" />
      </g>
    </g>
  </g>
  <g
     id="g9759"
     transform="matrix(3,0,0,3,-279.64958,-223.69934)"
     ns0:preamble=""
     ns0:text="$\\hat{\\ell}_1$">
    <defs
       id="defs9761">
      <g
         id="g9763">
        <symbol
           style="overflow:visible"
           id="textext-30275140-0"
           overflow="visible">
          <path
             inkscape:connector-curvature="0"
             id="path9766"
             d="M 2.5,-6.921875 1.15625,-5.5625 1.328125,-5.390625 2.5,-6.40625 3.640625,-5.390625 3.8125,-5.5625 z m 0,0"
             style="stroke:none" />
        </symbol>
        <symbol
           style="overflow:visible"
           id="textext-30275140-1"
           overflow="visible">
          <path
             inkscape:connector-curvature="0"
             id="path9769"
             d="m 0.15625,-0.984375 c -0.015625,0.03125 -0.046875,0.0625 -0.046875,0.09375 0,0.046875 0.0625,0.140625 0.125,0.140625 C 0.28125,-0.75 0.3125,-0.78125 0.59375,-1.0625 0.671875,-1.140625 0.875,-1.328125 0.953125,-1.40625 1.046875,-0.625 1.328125,0.125 2.0625,0.125 c 0.40625,0 0.75,-0.234375 0.953125,-0.390625 C 3.15625,-0.359375 3.625,-0.75 3.625,-0.84375 c 0,-0.03125 -0.03125,-0.125 -0.109375,-0.125 -0.03125,0 -0.046875,0.015625 -0.140625,0.09375 -0.640625,0.625 -1,0.78125 -1.296875,0.78125 -0.4375,0 -0.609375,-0.53125 -0.609375,-1.296875 0,-0.0625 0.03125,-0.515625 0.0625,-0.578125 C 1.546875,-2 1.546875,-2.015625 1.75,-2.21875 2.546875,-3.015625 3.96875,-4.703125 3.96875,-6.25 c 0,-0.171875 0,-0.78125 -0.59375,-0.78125 -0.828125,0 -1.5625,1.640625 -1.65625,1.875 -0.484375,1.09375 -0.796875,2.25 -0.796875,3.4375 z M 1.578125,-2.375 C 1.59375,-2.5 2.03125,-4.703125 2.59375,-5.875 c 0.265625,-0.53125 0.484375,-0.9375 0.796875,-0.9375 0.34375,0 0.34375,0.359375 0.34375,0.515625 0,1.671875 -1.6875,3.421875 -2.15625,3.921875 z m 0,0"
             style="stroke:none" />
        </symbol>
        <symbol
           style="overflow:visible"
           id="textext-30275140-2"
           overflow="visible">
          <path
             inkscape:connector-curvature="0"
             id="path9772"
             d="m 2.328125,-4.4375 c 0,-0.1875 0,-0.1875 -0.203125,-0.1875 -0.453125,0.4375 -1.078125,0.4375 -1.359375,0.4375 l 0,0.25 c 0.15625,0 0.625,0 1,-0.1875 l 0,3.546875 c 0,0.234375 0,0.328125 -0.6875,0.328125 l -0.265625,0 0,0.25 c 0.125,0 0.984375,-0.03125 1.234375,-0.03125 0.21875,0 1.09375,0.03125 1.25,0.03125 l 0,-0.25 -0.265625,0 c -0.703125,0 -0.703125,-0.09375 -0.703125,-0.328125 z m 0,0"
             style="stroke:none" />
        </symbol>
      </g>
    </defs>
    <g
       id="textext-30275140-3">
      <g
         id="g9775"
         style="fill:#000000;fill-opacity:1">
        <use
           height="990"
           width="765"
           id="use9777"
           y="132.136"
           x="224.12399"
           xlink:href="#textext-30275140-0" />
      </g>
      <g
         id="g9779"
         style="fill:#000000;fill-opacity:1">
        <use
           height="990"
           width="765"
           id="use9781"
           y="134.765"
           x="223.43201"
           xlink:href="#textext-30275140-1" />
      </g>
      <g
         id="g9783"
         style="fill:#000000;fill-opacity:1">
        <use
           height="990"
           width="765"
           id="use9785"
           y="136.259"
           x="227.58299"
           xlink:href="#textext-30275140-2" />
      </g>
    </g>
  </g>
  <g
     ns0:text="$\\mathbf{\\hat m}_1$"
     ns0:preamble=""
     transform="matrix(3,0,0,3,-285.04803,-161.17957)"
     id="g10274">
    <defs
       id="defs10276">
      <g
         id="g10278">
        <symbol
           style="overflow:visible"
           overflow="visible"
           id="textext-3839fc24-0">
          <path
             inkscape:connector-curvature="0"
             style="stroke:none"
             d="m 2.859375,-6.921875 -1.5625,1.265625 0.28125,0.375 1.28125,-0.8125 1.28125,0.8125 0.28125,-0.375 z m 0,0"
             id="path10281" />
        </symbol>
        <symbol
           style="overflow:visible"
           overflow="visible"
           id="textext-3839fc24-1">
          <path
             inkscape:connector-curvature="0"
             style="stroke:none"
             d="m 1.140625,-3.546875 0,3.078125 -0.6875,0 0,0.46875 c 0.28125,-0.015625 0.875,-0.03125 1.25,-0.03125 0.390625,0 0.984375,0.015625 1.25,0.03125 l 0,-0.46875 -0.6875,0 0,-2.078125 c 0,-1.09375 0.875,-1.578125 1.5,-1.578125 0.328125,0 0.546875,0.203125 0.546875,0.96875 l 0,2.6875 -0.6875,0 0,0.46875 c 0.28125,-0.015625 0.875,-0.03125 1.265625,-0.03125 0.390625,0 0.96875,0.015625 1.25,0.03125 l 0,-0.46875 -0.6875,0 0,-2.078125 C 5.453125,-3.640625 6.3125,-4.125 6.9375,-4.125 7.28125,-4.125 7.5,-3.921875 7.5,-3.15625 l 0,2.6875 -0.6875,0 0,0.46875 c 0.28125,-0.015625 0.875,-0.03125 1.25,-0.03125 0.390625,0 0.984375,0.015625 1.265625,0.03125 l 0,-0.46875 -0.6875,0 0,-2.578125 c 0,-1.03125 -0.515625,-1.4375 -1.546875,-1.4375 -0.90625,0 -1.421875,0.5 -1.6875,0.953125 -0.1875,-0.921875 -1.109375,-0.953125 -1.484375,-0.953125 -0.875,0 -1.4375,0.453125 -1.765625,1.078125 l 0,-1.078125 -1.703125,0.078125 0,0.46875 c 0.609375,0 0.6875,0 0.6875,0.390625 z m 0,0"
             id="path10284" />
        </symbol>
        <symbol
           style="overflow:visible"
           overflow="visible"
           id="textext-3839fc24-2">
          <path
             inkscape:connector-curvature="0"
             style="stroke:none"
             d="m 2.328125,-4.4375 c 0,-0.1875 0,-0.1875 -0.203125,-0.1875 -0.453125,0.4375 -1.078125,0.4375 -1.359375,0.4375 l 0,0.25 c 0.15625,0 0.625,0 1,-0.1875 l 0,3.546875 c 0,0.234375 0,0.328125 -0.6875,0.328125 l -0.265625,0 0,0.25 c 0.125,0 0.984375,-0.03125 1.234375,-0.03125 0.21875,0 1.09375,0.03125 1.25,0.03125 l 0,-0.25 -0.265625,0 c -0.703125,0 -0.703125,-0.09375 -0.703125,-0.328125 z m 0,0"
             id="path10287" />
        </symbol>
      </g>
    </defs>
    <g
       id="textext-3839fc24-3">
      <g
         style="fill:#000000;fill-opacity:1"
         id="g10290">
        <use
           height="990"
           width="765"
           xlink:href="#textext-3839fc24-0"
           x="225.342"
           y="134.765"
           id="use10292" />
      </g>
      <g
         style="fill:#000000;fill-opacity:1"
         id="g10294">
        <use
           height="990"
           width="765"
           xlink:href="#textext-3839fc24-1"
           x="223.42918"
           y="134.765"
           id="use10296" />
      </g>
      <g
         style="fill:#000000;fill-opacity:1"
         id="g10298">
        <use
           height="990"
           width="765"
           xlink:href="#textext-3839fc24-2"
           x="232.98"
           y="136.259"
           id="use10300" />
      </g>
    </g>
  </g>
  <g
     id="g10807"
     transform="matrix(3,0,0,3,-234.64958,-273.69934)"
     ns0:preamble=""
     ns0:text="$\\hat{\\ell}_2$">
    <defs
       id="defs10809">
      <g
         id="g10811">
        <symbol
           style="overflow:visible"
           id="textext-4ff99abe-0"
           overflow="visible">
          <path
             inkscape:connector-curvature="0"
             id="path10814"
             d="M 2.5,-6.921875 1.15625,-5.5625 1.328125,-5.390625 2.5,-6.40625 3.640625,-5.390625 3.8125,-5.5625 z m 0,0"
             style="stroke:none" />
        </symbol>
        <symbol
           style="overflow:visible"
           id="textext-4ff99abe-1"
           overflow="visible">
          <path
             inkscape:connector-curvature="0"
             id="path10817"
             d="m 0.15625,-0.984375 c -0.015625,0.03125 -0.046875,0.0625 -0.046875,0.09375 0,0.046875 0.0625,0.140625 0.125,0.140625 C 0.28125,-0.75 0.3125,-0.78125 0.59375,-1.0625 0.671875,-1.140625 0.875,-1.328125 0.953125,-1.40625 1.046875,-0.625 1.328125,0.125 2.0625,0.125 c 0.40625,0 0.75,-0.234375 0.953125,-0.390625 C 3.15625,-0.359375 3.625,-0.75 3.625,-0.84375 c 0,-0.03125 -0.03125,-0.125 -0.109375,-0.125 -0.03125,0 -0.046875,0.015625 -0.140625,0.09375 -0.640625,0.625 -1,0.78125 -1.296875,0.78125 -0.4375,0 -0.609375,-0.53125 -0.609375,-1.296875 0,-0.0625 0.03125,-0.515625 0.0625,-0.578125 C 1.546875,-2 1.546875,-2.015625 1.75,-2.21875 2.546875,-3.015625 3.96875,-4.703125 3.96875,-6.25 c 0,-0.171875 0,-0.78125 -0.59375,-0.78125 -0.828125,0 -1.5625,1.640625 -1.65625,1.875 -0.484375,1.09375 -0.796875,2.25 -0.796875,3.4375 z M 1.578125,-2.375 C 1.59375,-2.5 2.03125,-4.703125 2.59375,-5.875 c 0.265625,-0.53125 0.484375,-0.9375 0.796875,-0.9375 0.34375,0 0.34375,0.359375 0.34375,0.515625 0,1.671875 -1.6875,3.421875 -2.15625,3.921875 z m 0,0"
             style="stroke:none" />
        </symbol>
        <symbol
           style="overflow:visible"
           id="textext-4ff99abe-2"
           overflow="visible">
          <path
             inkscape:connector-curvature="0"
             id="path10820"
             d="m 3.515625,-1.265625 -0.234375,0 c -0.015625,0.15625 -0.09375,0.5625 -0.1875,0.625 -0.046875,0.046875 -0.578125,0.046875 -0.6875,0.046875 l -1.28125,0 c 0.734375,-0.640625 0.984375,-0.84375 1.390625,-1.171875 0.515625,-0.40625 1,-0.84375 1,-1.5 0,-0.84375 -0.734375,-1.359375 -1.625,-1.359375 -0.859375,0 -1.453125,0.609375 -1.453125,1.25 0,0.34375 0.296875,0.390625 0.375,0.390625 0.15625,0 0.359375,-0.125 0.359375,-0.375 0,-0.125 -0.046875,-0.375 -0.40625,-0.375 C 0.984375,-4.21875 1.453125,-4.375 1.78125,-4.375 c 0.703125,0 1.0625,0.546875 1.0625,1.109375 0,0.609375 -0.4375,1.078125 -0.65625,1.328125 L 0.515625,-0.265625 C 0.4375,-0.203125 0.4375,-0.1875 0.4375,0 l 2.875,0 z m 0,0"
             style="stroke:none" />
        </symbol>
      </g>
    </defs>
    <g
       id="textext-4ff99abe-3">
      <g
         id="g10823"
         style="fill:#000000;fill-opacity:1">
        <use
           height="990"
           width="765"
           id="use10825"
           y="132.136"
           x="224.12399"
           xlink:href="#textext-4ff99abe-0" />
      </g>
      <g
         id="g10827"
         style="fill:#000000;fill-opacity:1">
        <use
           height="990"
           width="765"
           id="use10829"
           y="134.765"
           x="223.43201"
           xlink:href="#textext-4ff99abe-1" />
      </g>
      <g
         id="g10831"
         style="fill:#000000;fill-opacity:1">
        <use
           height="990"
           width="765"
           id="use10833"
           y="136.259"
           x="227.58299"
           xlink:href="#textext-4ff99abe-2" />
      </g>
    </g>
  </g>
  <g
     ns0:text="$\\hat{\\ell}_3$"
     ns0:preamble=""
     transform="matrix(3,0,0,3,-334.64958,-263.69934)"
     id="g11372">
    <defs
       id="defs11374">
      <g
         id="g11376">
        <symbol
           style="overflow:visible"
           overflow="visible"
           id="textext-20e40dc2-0">
          <path
             inkscape:connector-curvature="0"
             style="stroke:none"
             d="M 2.5,-6.921875 1.15625,-5.5625 1.328125,-5.390625 2.5,-6.40625 3.640625,-5.390625 3.8125,-5.5625 z m 0,0"
             id="path11379" />
        </symbol>
        <symbol
           style="overflow:visible"
           overflow="visible"
           id="textext-20e40dc2-1">
          <path
             inkscape:connector-curvature="0"
             style="stroke:none"
             d="m 0.15625,-0.984375 c -0.015625,0.03125 -0.046875,0.0625 -0.046875,0.09375 0,0.046875 0.0625,0.140625 0.125,0.140625 C 0.28125,-0.75 0.3125,-0.78125 0.59375,-1.0625 0.671875,-1.140625 0.875,-1.328125 0.953125,-1.40625 1.046875,-0.625 1.328125,0.125 2.0625,0.125 c 0.40625,0 0.75,-0.234375 0.953125,-0.390625 C 3.15625,-0.359375 3.625,-0.75 3.625,-0.84375 c 0,-0.03125 -0.03125,-0.125 -0.109375,-0.125 -0.03125,0 -0.046875,0.015625 -0.140625,0.09375 -0.640625,0.625 -1,0.78125 -1.296875,0.78125 -0.4375,0 -0.609375,-0.53125 -0.609375,-1.296875 0,-0.0625 0.03125,-0.515625 0.0625,-0.578125 C 1.546875,-2 1.546875,-2.015625 1.75,-2.21875 2.546875,-3.015625 3.96875,-4.703125 3.96875,-6.25 c 0,-0.171875 0,-0.78125 -0.59375,-0.78125 -0.828125,0 -1.5625,1.640625 -1.65625,1.875 -0.484375,1.09375 -0.796875,2.25 -0.796875,3.4375 z M 1.578125,-2.375 C 1.59375,-2.5 2.03125,-4.703125 2.59375,-5.875 c 0.265625,-0.53125 0.484375,-0.9375 0.796875,-0.9375 0.34375,0 0.34375,0.359375 0.34375,0.515625 0,1.671875 -1.6875,3.421875 -2.15625,3.921875 z m 0,0"
             id="path11382" />
        </symbol>
        <symbol
           style="overflow:visible"
           overflow="visible"
           id="textext-20e40dc2-2">
          <path
             inkscape:connector-curvature="0"
             style="stroke:none"
             d="m 1.90625,-2.328125 c 0.546875,0 0.9375,0.375 0.9375,1.125 0,0.859375 -0.515625,1.125 -0.90625,1.125 -0.28125,0 -0.90625,-0.078125 -1.1875,-0.5 0.328125,0 0.40625,-0.234375 0.40625,-0.390625 0,-0.21875 -0.171875,-0.375 -0.390625,-0.375 -0.1875,0 -0.390625,0.125 -0.390625,0.40625 0,0.65625 0.71875,1.078125 1.5625,1.078125 0.96875,0 1.640625,-0.65625 1.640625,-1.34375 0,-0.546875 -0.4375,-1.09375 -1.203125,-1.25 0.71875,-0.265625 0.984375,-0.78125 0.984375,-1.21875 0,-0.546875 -0.625,-0.953125 -1.40625,-0.953125 -0.765625,0 -1.359375,0.375 -1.359375,0.9375 0,0.234375 0.15625,0.359375 0.359375,0.359375 0.21875,0 0.359375,-0.15625 0.359375,-0.34375 0,-0.203125 -0.140625,-0.359375 -0.359375,-0.375 0.25,-0.296875 0.71875,-0.375 0.984375,-0.375 0.3125,0 0.75,0.15625 0.75,0.75 0,0.296875 -0.09375,0.625 -0.28125,0.828125 -0.21875,0.265625 -0.421875,0.28125 -0.765625,0.3125 -0.171875,0.015625 -0.1875,0.015625 -0.21875,0.015625 -0.015625,0 -0.078125,0.015625 -0.078125,0.09375 0,0.09375 0.0625,0.09375 0.1875,0.09375 z m 0,0"
             id="path11385" />
        </symbol>
      </g>
    </defs>
    <g
       id="textext-20e40dc2-3">
      <g
         style="fill:#000000;fill-opacity:1"
         id="g11388">
        <use
           height="990"
           width="765"
           xlink:href="#textext-20e40dc2-0"
           x="224.12399"
           y="132.136"
           id="use11390" />
      </g>
      <g
         style="fill:#000000;fill-opacity:1"
         id="g11392">
        <use
           height="990"
           width="765"
           xlink:href="#textext-20e40dc2-1"
           x="223.43201"
           y="134.765"
           id="use11394" />
      </g>
      <g
         style="fill:#000000;fill-opacity:1"
         id="g11396">
        <use
           height="990"
           width="765"
           xlink:href="#textext-20e40dc2-2"
           x="227.58299"
           y="136.259"
           id="use11398" />
      </g>
    </g>
  </g>
</svg>
