<?xml version="1.0" encoding="UTF-8" standalone="no"?>
<!-- Created with Inkscape (http://www.inkscape.org/) -->

<svg
   xmlns:ns0="http://www.iki.fi/pav/software/textext/"
   xmlns:dc="http://purl.org/dc/elements/1.1/"
   xmlns:cc="http://creativecommons.org/ns#"
   xmlns:rdf="http://www.w3.org/1999/02/22-rdf-syntax-ns#"
   xmlns:svg="http://www.w3.org/2000/svg"
   xmlns="http://www.w3.org/2000/svg"
   xmlns:xlink="http://www.w3.org/1999/xlink"
   xmlns:sodipodi="http://sodipodi.sourceforge.net/DTD/sodipodi-0.dtd"
   xmlns:inkscape="http://www.inkscape.org/namespaces/inkscape"
   width="1728.9545"
   height="204.30124"
   id="svg2"
   version="1.1"
   inkscape:version="0.48.1 r9760"
   sodipodi:docname="Equations.svg"
   inkscape:export-filename="/home/homer/public_html/scuff-em/reference/IntegralEquation.png"
   inkscape:export-xdpi="39.836746"
   inkscape:export-ydpi="39.836746">
  <sodipodi:namedview
     id="base"
     pagecolor="#ffffff"
     bordercolor="#666666"
     borderopacity="1.0"
     inkscape:pageopacity="0.0"
     inkscape:pageshadow="2"
     inkscape:zoom="0.35966705"
     inkscape:cx="900.43493"
     inkscape:cy="117.55649"
     inkscape:document-units="px"
     inkscape:current-layer="layer1"
     showgrid="false"
     inkscape:window-width="1358"
     inkscape:window-height="974"
     inkscape:window-x="108"
     inkscape:window-y="140"
     inkscape:window-maximized="0"
     fit-margin-top="50"
     fit-margin-left="0"
     fit-margin-right="0"
     fit-margin-bottom="0" />
  <defs
     id="defs4">
    <defs
       id="defs3620">
      <g
         id="g3622">
        <symbol
           id="textext-cc391392-0"
           overflow="visible"
           style="overflow:visible">
          <path
             id="path3625"
             d="m 6.984375,23.421875 c 0,-0.04687 -0.03125,-0.0625 -0.046875,-0.09375 -0.375,-0.375 -1.03125,-1.03125 -1.703125,-2.109375 C 3.625,18.640625 2.90625,15.40625 2.90625,11.5625 c 0,-2.6875 0.359375,-6.140625 2,-9.109375 C 5.6875,1.03125 6.515625,0.21875 6.953125,-0.21875 c 0.03125,-0.03125 0.03125,-0.046875 0.03125,-0.078125 0,-0.109375 -0.078125,-0.109375 -0.21875,-0.109375 -0.140625,0 -0.15625,0 -0.3125,0.15625 -3.328125,3.046875 -4.375,7.609375 -4.375,11.796875 0,3.921875 0.890625,7.875 3.421875,10.859375 0.203125,0.21875 0.578125,0.625 0.984375,0.984375 0.125,0.125 0.140625,0.125 0.28125,0.125 0.140625,0 0.21875,0 0.21875,-0.09375 z m 0,0"
             style="stroke:none"
             inkscape:connector-curvature="0" />
        </symbol>
        <symbol
           id="textext-cc391392-1"
           overflow="visible"
           style="overflow:visible">
          <path
             id="path3628"
             d="M 5.25,11.5625 C 5.25,7.640625 4.359375,3.703125 1.828125,0.71875 1.625,0.484375 1.25,0.078125 0.84375,-0.28125 c -0.125,-0.125 -0.140625,-0.125 -0.28125,-0.125 -0.125,0 -0.21875,0 -0.21875,0.109375 0,0.03125 0.046875,0.078125 0.0625,0.09375 0.34375,0.359375 1.015625,1.03125 1.6875,2.109375 1.609375,2.5625 2.328125,5.8125 2.328125,9.640625 0,2.6875 -0.359375,6.140625 -2,9.125 -0.78125,1.40625 -1.609375,2.234375 -2.03125,2.65625 -0.015625,0.03125 -0.046875,0.0625 -0.046875,0.09375 0,0.09375 0.09375,0.09375 0.21875,0.09375 0.140625,0 0.15625,0 0.3125,-0.15625 C 4.203125,20.328125 5.25,15.765625 5.25,11.5625 z m 0,0"
             style="stroke:none"
             inkscape:connector-curvature="0" />
        </symbol>
        <symbol
           id="textext-cc391392-2"
           overflow="visible"
           style="overflow:visible">
          <path
             id="path3631"
             d="M 4.828125,-4.203125 7.234375,-6.1875 c 0.21875,-0.1875 0.625,-0.1875 0.9375,-0.1875 l 0.15625,0 0,-0.46875 C 7.9375,-6.8125 7.359375,-6.8125 7.3125,-6.8125 c -0.375,0 -1.09375,0 -1.453125,-0.03125 l 0,0.46875 c 0.125,0 0.328125,0 0.578125,0.0625 0.15625,0.03125 0.046875,0.015625 0.125,0.046875 L 2.875,-3.1875 l 0,-3.1875 1.078125,0 0,-0.46875 c -0.375,0.03125 -1.34375,0.03125 -1.78125,0.03125 -0.421875,0 -1.40625,0 -1.78125,-0.03125 l 0,0.46875 1.078125,0 0,5.90625 -1.078125,0 0,0.46875 c 0.375,-0.03125 1.359375,-0.03125 1.78125,-0.03125 0.4375,0 1.40625,0 1.78125,0.03125 l 0,-0.46875 -1.078125,0 0,-2.09375 1,-0.828125 2.0625,2.703125 C 5.984375,-0.625 5.984375,-0.609375 6.015625,-0.546875 5.828125,-0.46875 5.625,-0.46875 5.28125,-0.46875 l 0,0.46875 c 0.40625,-0.03125 1.3125,-0.03125 1.75,-0.03125 0.40625,0 1.09375,0 1.46875,0.03125 l 0,-0.46875 -0.296875,0 c -0.53125,0 -0.5625,-0.046875 -0.671875,-0.203125 z m 0,0"
             style="stroke:none"
             inkscape:connector-curvature="0" />
        </symbol>
        <symbol
           id="textext-cc391392-3"
           overflow="visible"
           style="overflow:visible">
          <path
             id="path3634"
             d="M 3.453125,-2.453125 4.609375,-3.75 C 4.75,-3.890625 4.8125,-3.953125 5.625,-3.953125 l 0,-0.46875 c -0.34375,0.015625 -0.859375,0.03125 -0.90625,0.03125 -0.25,0 -0.75,-0.03125 -1.03125,-0.03125 l 0,0.46875 c 0.140625,0 0.265625,0.015625 0.375,0.078125 -0.03125,0.0625 -0.03125,0.09375 -0.078125,0.125 l -0.828125,0.9375 -0.984375,-1.140625 0.40625,0 0,-0.46875 c -0.265625,0 -0.890625,0.03125 -1.21875,0.03125 -0.3125,0 -0.765625,-0.03125 -1.09375,-0.03125 l 0,0.46875 0.71875,0 1.546875,1.828125 -1.3125,1.46875 c -0.15625,0.1875 -0.515625,0.1875 -1,0.1875 l 0,0.46875 c 0.34375,-0.015625 0.875,-0.03125 0.921875,-0.03125 0.25,0 0.828125,0.015625 1.015625,0.03125 l 0,-0.46875 c -0.171875,0 -0.359375,-0.046875 -0.359375,-0.109375 0,-0.015625 0,-0.015625 0.0625,-0.09375 l 0.96875,-1.09375 1.09375,1.296875 -0.390625,0 0,0.46875 c 0.265625,-0.015625 0.875,-0.03125 1.203125,-0.03125 0.3125,0 0.765625,0.015625 1.09375,0.03125 l 0,-0.46875 -0.703125,0 z m 0,0"
             style="stroke:none"
             inkscape:connector-curvature="0" />
        </symbol>
        <symbol
           id="textext-cc391392-4"
           overflow="visible"
           style="overflow:visible">
          <path
             id="path3637"
             d="M 3,-6.703125 C 2.890625,-6.828125 2.875,-6.84375 2.671875,-6.84375 l -2.28125,0 0,0.46875 1.078125,0 0,5.625 c 0,0.21875 -0.015625,0.21875 -0.296875,0.25 -0.234375,0.03125 -0.25,0.03125 -0.53125,0.03125 l -0.25,0 0,0.46875 c 0.375,-0.03125 0.9375,-0.03125 1.328125,-0.03125 0.421875,0 0.9375,0 1.359375,0.03125 l 0,-0.46875 -0.25,0 C 2.640625,-0.46875 2.46875,-0.484375 2.296875,-0.5 2,-0.53125 2,-0.53125 2,-0.75 L 2,-5.96875 6.953125,-0.125 C 7.0625,-0.015625 7.0625,0 7.234375,0 7.5,0 7.5,-0.09375 7.5,-0.3125 l 0,-5.765625 C 7.5,-6.296875 7.5,-6.3125 7.78125,-6.34375 8.03125,-6.375 8.046875,-6.375 8.328125,-6.375 l 0.25,0 0,-0.46875 C 8.1875,-6.8125 7.625,-6.8125 7.234375,-6.8125 c -0.421875,0 -0.9375,0 -1.34375,-0.03125 l 0,0.46875 0.25,0 c 0.171875,0 0.34375,0.015625 0.53125,0.03125 0.28125,0.03125 0.296875,0.046875 0.296875,0.265625 l 0,4.03125 z m 0,0"
             style="stroke:none"
             inkscape:connector-curvature="0" />
        </symbol>
        <symbol
           id="textext-cc391392-5"
           overflow="visible"
           style="overflow:visible">
          <path
             id="path3640"
             d="m 3.296875,2.390625 c 0,-0.03125 0,-0.046875 -0.171875,-0.21875 C 1.890625,0.921875 1.5625,-0.96875 1.5625,-2.5 c 0,-1.734375 0.375,-3.46875 1.609375,-4.703125 0.125,-0.125 0.125,-0.140625 0.125,-0.171875 0,-0.078125 -0.03125,-0.109375 -0.09375,-0.109375 -0.109375,0 -1,0.6875 -1.59375,1.953125 -0.5,1.09375 -0.625,2.203125 -0.625,3.03125 0,0.78125 0.109375,1.984375 0.65625,3.125 C 2.25,1.84375 3.09375,2.5 3.203125,2.5 c 0.0625,0 0.09375,-0.03125 0.09375,-0.109375 z m 0,0"
             style="stroke:none"
             inkscape:connector-curvature="0" />
        </symbol>
        <symbol
           id="textext-cc391392-6"
           overflow="visible"
           style="overflow:visible">
          <path
             id="path3643"
             d="m 2.875,-2.5 c 0,-0.765625 -0.109375,-1.96875 -0.65625,-3.109375 -0.59375,-1.21875 -1.453125,-1.875 -1.546875,-1.875 -0.0625,0 -0.109375,0.046875 -0.109375,0.109375 0,0.03125 0,0.046875 0.1875,0.234375 0.984375,0.984375 1.546875,2.5625 1.546875,4.640625 0,1.71875 -0.359375,3.46875 -1.59375,4.71875 C 0.5625,2.34375 0.5625,2.359375 0.5625,2.390625 0.5625,2.453125 0.609375,2.5 0.671875,2.5 0.765625,2.5 1.671875,1.8125 2.25,0.546875 2.765625,-0.546875 2.875,-1.65625 2.875,-2.5 z m 0,0"
             style="stroke:none"
             inkscape:connector-curvature="0" />
        </symbol>
        <symbol
           id="textext-cc391392-7"
           overflow="visible"
           style="overflow:visible">
          <path
             id="path3646"
             d="m 2.015625,-3.296875 c 0.0625,-0.109375 0.0625,-0.171875 0.0625,-0.21875 0,-0.21875 -0.1875,-0.375 -0.40625,-0.375 -0.265625,0 -0.34375,0.21875 -0.375,0.328125 L 0.375,-0.546875 c -0.015625,0.015625 -0.046875,0.09375 -0.046875,0.109375 0,0.078125 0.21875,0.15625 0.28125,0.15625 0.046875,0 0.046875,-0.015625 0.09375,-0.125 z m 0,0"
             style="stroke:none"
             inkscape:connector-curvature="0" />
        </symbol>
      </g>
    </defs>
    <defs
       id="defs4795">
      <g
         id="g4797">
        <symbol
           style="overflow:visible"
           overflow="visible"
           id="textext-08194f46-0">
          <path
             inkscape:connector-curvature="0"
             style="stroke:none"
             d="m 6.984375,23.421875 c 0,-0.04687 -0.03125,-0.0625 -0.046875,-0.09375 -0.375,-0.375 -1.03125,-1.03125 -1.703125,-2.109375 C 3.625,18.640625 2.90625,15.40625 2.90625,11.5625 c 0,-2.6875 0.359375,-6.140625 2,-9.109375 C 5.6875,1.03125 6.515625,0.21875 6.953125,-0.21875 c 0.03125,-0.03125 0.03125,-0.046875 0.03125,-0.078125 0,-0.109375 -0.078125,-0.109375 -0.21875,-0.109375 -0.140625,0 -0.15625,0 -0.3125,0.15625 -3.328125,3.046875 -4.375,7.609375 -4.375,11.796875 0,3.921875 0.890625,7.875 3.421875,10.859375 0.203125,0.21875 0.578125,0.625 0.984375,0.984375 0.125,0.125 0.140625,0.125 0.28125,0.125 0.140625,0 0.21875,0 0.21875,-0.09375 z m 0,0"
             id="path4800" />
        </symbol>
        <symbol
           style="overflow:visible"
           overflow="visible"
           id="textext-08194f46-1">
          <path
             inkscape:connector-curvature="0"
             style="stroke:none"
             d="M 5.25,11.5625 C 5.25,7.640625 4.359375,3.703125 1.828125,0.71875 1.625,0.484375 1.25,0.078125 0.84375,-0.28125 c -0.125,-0.125 -0.140625,-0.125 -0.28125,-0.125 -0.125,0 -0.21875,0 -0.21875,0.109375 0,0.03125 0.046875,0.078125 0.0625,0.09375 0.34375,0.359375 1.015625,1.03125 1.6875,2.109375 1.609375,2.5625 2.328125,5.8125 2.328125,9.640625 0,2.6875 -0.359375,6.140625 -2,9.125 -0.78125,1.40625 -1.609375,2.234375 -2.03125,2.65625 -0.015625,0.03125 -0.046875,0.0625 -0.046875,0.09375 0,0.09375 0.09375,0.09375 0.21875,0.09375 0.140625,0 0.15625,0 0.3125,-0.15625 C 4.203125,20.328125 5.25,15.765625 5.25,11.5625 z m 0,0"
             id="path4803" />
        </symbol>
        <symbol
           style="overflow:visible"
           overflow="visible"
           id="textext-08194f46-2">
          <path
             inkscape:connector-curvature="0"
             style="stroke:none"
             d="m 7.203125,-2.734375 -0.46875,0 c -0.21875,1.375 -0.5,2.265625 -2.34375,2.265625 l -1.515625,0 0,-2.8125 0.546875,0 c 0.96875,0 1.0625,0.4375 1.0625,1.171875 l 0.46875,0 0,-2.8125 -0.46875,0 c 0,0.75 -0.09375,1.171875 -1.0625,1.171875 l -0.546875,0 0,-2.5625 1.515625,0 c 1.609375,0 1.875,0.734375 2.03125,1.9375 l 0.46875,0 -0.3125,-2.40625 -6.1875,0 0,0.46875 1.078125,0 0,5.84375 -1.078125,0 0,0.46875 L 6.75,0 z m 0,0"
             id="path4806" />
        </symbol>
        <symbol
           style="overflow:visible"
           overflow="visible"
           id="textext-08194f46-3">
          <path
             inkscape:connector-curvature="0"
             style="stroke:none"
             d="M 3.453125,-2.453125 4.609375,-3.75 C 4.75,-3.890625 4.8125,-3.953125 5.625,-3.953125 l 0,-0.46875 c -0.34375,0.015625 -0.859375,0.03125 -0.90625,0.03125 -0.25,0 -0.75,-0.03125 -1.03125,-0.03125 l 0,0.46875 c 0.140625,0 0.265625,0.015625 0.375,0.078125 -0.03125,0.0625 -0.03125,0.09375 -0.078125,0.125 l -0.828125,0.9375 -0.984375,-1.140625 0.40625,0 0,-0.46875 c -0.265625,0 -0.890625,0.03125 -1.21875,0.03125 -0.3125,0 -0.765625,-0.03125 -1.09375,-0.03125 l 0,0.46875 0.71875,0 1.546875,1.828125 -1.3125,1.46875 c -0.15625,0.1875 -0.515625,0.1875 -1,0.1875 l 0,0.46875 c 0.34375,-0.015625 0.875,-0.03125 0.921875,-0.03125 0.25,0 0.828125,0.015625 1.015625,0.03125 l 0,-0.46875 c -0.171875,0 -0.359375,-0.046875 -0.359375,-0.109375 0,-0.015625 0,-0.015625 0.0625,-0.09375 l 0.96875,-1.09375 1.09375,1.296875 -0.390625,0 0,0.46875 c 0.265625,-0.015625 0.875,-0.03125 1.203125,-0.03125 0.3125,0 0.765625,0.015625 1.09375,0.03125 l 0,-0.46875 -0.703125,0 z m 0,0"
             id="path4809" />
        </symbol>
        <symbol
           style="overflow:visible"
           overflow="visible"
           id="textext-08194f46-4">
          <path
             inkscape:connector-curvature="0"
             style="stroke:none"
             d="m 7.5,-6.375 1.078125,0 0,-0.46875 C 8.1875,-6.8125 7.21875,-6.8125 6.78125,-6.8125 c -0.421875,0 -1.390625,0 -1.78125,-0.03125 l 0,0.46875 1.078125,0 0,2.59375 -3.203125,0 0,-2.59375 1.078125,0 0,-0.46875 c -0.375,0.03125 -1.34375,0.03125 -1.78125,0.03125 -0.421875,0 -1.40625,0 -1.78125,-0.03125 l 0,0.46875 1.078125,0 0,5.90625 -1.078125,0 0,0.46875 c 0.375,-0.03125 1.359375,-0.03125 1.78125,-0.03125 0.4375,0 1.40625,0 1.78125,0.03125 l 0,-0.46875 -1.078125,0 0,-2.84375 3.203125,0 0,2.84375 L 5,-0.46875 5,0 c 0.390625,-0.03125 1.359375,-0.03125 1.78125,-0.03125 0.4375,0 1.40625,0 1.796875,0.03125 l 0,-0.46875 -1.078125,0 z m 0,0"
             id="path4812" />
        </symbol>
        <symbol
           style="overflow:visible"
           overflow="visible"
           id="textext-08194f46-5">
          <path
             inkscape:connector-curvature="0"
             style="stroke:none"
             d="m 3.296875,2.390625 c 0,-0.03125 0,-0.046875 -0.171875,-0.21875 C 1.890625,0.921875 1.5625,-0.96875 1.5625,-2.5 c 0,-1.734375 0.375,-3.46875 1.609375,-4.703125 0.125,-0.125 0.125,-0.140625 0.125,-0.171875 0,-0.078125 -0.03125,-0.109375 -0.09375,-0.109375 -0.109375,0 -1,0.6875 -1.59375,1.953125 -0.5,1.09375 -0.625,2.203125 -0.625,3.03125 0,0.78125 0.109375,1.984375 0.65625,3.125 C 2.25,1.84375 3.09375,2.5 3.203125,2.5 c 0.0625,0 0.09375,-0.03125 0.09375,-0.109375 z m 0,0"
             id="path4815" />
        </symbol>
        <symbol
           style="overflow:visible"
           overflow="visible"
           id="textext-08194f46-6">
          <path
             inkscape:connector-curvature="0"
             style="stroke:none"
             d="m 2.875,-2.5 c 0,-0.765625 -0.109375,-1.96875 -0.65625,-3.109375 -0.59375,-1.21875 -1.453125,-1.875 -1.546875,-1.875 -0.0625,0 -0.109375,0.046875 -0.109375,0.109375 0,0.03125 0,0.046875 0.1875,0.234375 0.984375,0.984375 1.546875,2.5625 1.546875,4.640625 0,1.71875 -0.359375,3.46875 -1.59375,4.71875 C 0.5625,2.34375 0.5625,2.359375 0.5625,2.390625 0.5625,2.453125 0.609375,2.5 0.671875,2.5 0.765625,2.5 1.671875,1.8125 2.25,0.546875 2.765625,-0.546875 2.875,-1.65625 2.875,-2.5 z m 0,0"
             id="path4818" />
        </symbol>
      </g>
    </defs>
  </defs>
  <metadata
     id="metadata7">
    <rdf:RDF>
      <cc:Work
         rdf:about="">
        <dc:format>image/svg+xml</dc:format>
        <dc:type
           rdf:resource="http://purl.org/dc/dcmitype/StillImage" />
        <dc:title />
      </cc:Work>
    </rdf:RDF>
  </metadata>
  <g
     inkscape:label="Layer 1"
     inkscape:groupmode="layer"
     id="layer1"
     transform="translate(226.51456,-439.43632)">
    <g
       transform="matrix(6,0,0,6,-828.32511,-277.33509)"
       style="fill:#000000;fill-opacity:1"
       id="g3649">
      <use
         height="1052.3622"
         width="744.09448"
         xlink:href="#textext-cc391392-0"
         x="223.43201"
         y="125.201"
         id="use3651" />
    </g>
    <g
       transform="matrix(6,0,0,6,-853.32511,-277.33509)"
       style="fill:#000000;fill-opacity:1"
       id="g3653">
      <use
         height="1052.3622"
         width="744.09448"
         xlink:href="#textext-cc391392-2"
         x="235.74699"
         y="133.17101"
         id="use3655" />
    </g>
    <g
       transform="matrix(6,0,0,6,-853.32511,-277.33509)"
       style="fill:#000000;fill-opacity:1"
       id="g3657">
      <use
         height="1052.3622"
         width="744.09448"
         xlink:href="#textext-cc391392-5"
         x="244.72701"
         y="133.17101"
         id="use3659" />
    </g>
    <g
       transform="matrix(6,0,0,6,-853.32511,-277.33509)"
       style="fill:#000000;fill-opacity:1"
       id="g3661">
      <use
         height="1052.3622"
         width="744.09448"
         xlink:href="#textext-cc391392-3"
         x="248.60201"
         y="133.17101"
         id="use3663" />
    </g>
    <g
       transform="matrix(6,0,0,6,-853.32511,-277.33509)"
       style="fill:#000000;fill-opacity:1"
       id="g3665">
      <use
         height="1052.3622"
         width="744.09448"
         xlink:href="#textext-cc391392-7"
         x="254.64799"
         y="129.556"
         id="use3667" />
    </g>
    <g
       transform="matrix(6,0,0,6,-853.32511,-277.33509)"
       style="fill:#000000;fill-opacity:1"
       id="g3669">
      <use
         height="1052.3622"
         width="744.09448"
         xlink:href="#textext-cc391392-6"
         x="257.44299"
         y="133.17101"
         id="use3671" />
    </g>
    <g
       transform="matrix(6,0,0,6,-853.32511,-277.33509)"
       style="fill:#000000;fill-opacity:1"
       id="g3673">
      <use
         height="1052.3622"
         width="744.09448"
         xlink:href="#textext-cc391392-4"
         x="235.754"
         y="145.12601"
         id="use3675" />
    </g>
    <g
       transform="matrix(6,0,0,6,-853.32511,-277.33509)"
       style="fill:#000000;fill-opacity:1"
       id="g3677">
      <use
         height="1052.3622"
         width="744.09448"
         xlink:href="#textext-cc391392-5"
         x="244.72"
         y="145.12601"
         id="use3679" />
    </g>
    <g
       transform="matrix(6,0,0,6,-853.32511,-277.33509)"
       style="fill:#000000;fill-opacity:1"
       id="g3681">
      <use
         height="1052.3622"
         width="744.09448"
         xlink:href="#textext-cc391392-3"
         x="248.595"
         y="145.12601"
         id="use3683" />
    </g>
    <g
       transform="matrix(6,0,0,6,-853.32511,-277.33509)"
       style="fill:#000000;fill-opacity:1"
       id="g3685">
      <use
         height="1052.3622"
         width="744.09448"
         xlink:href="#textext-cc391392-7"
         x="254.64101"
         y="141.511"
         id="use3687" />
    </g>
    <g
       transform="matrix(6,0,0,6,-853.32511,-277.33509)"
       style="fill:#000000;fill-opacity:1"
       id="g3689">
      <use
         height="1052.3622"
         width="744.09448"
         xlink:href="#textext-cc391392-6"
         x="257.436"
         y="145.12601"
         id="use3691" />
    </g>
    <g
       transform="matrix(6,0,0,6,-876.35911,-281.2671)"
       style="fill:#000000;fill-opacity:1"
       id="g3693">
      <use
         height="1052.3622"
         width="744.09448"
         xlink:href="#textext-cc391392-1"
         x="266.29901"
         y="125.201"
         id="use3695" />
    </g>
    <g
       ns0:text="$d\\mathbf x^\\prime=-$"
       ns0:preamble=""
       transform="matrix(14,0,0,14,-2364.1147,-1307.582)"
       id="g4537">
      <defs
         id="defs4539">
        <g
           id="g4541">
          <symbol
             overflow="visible"
             id="textext-f00701bc-0"
             style="overflow:visible">
            <path
               style="stroke:none"
               d="m 5.140625,-6.8125 c 0,0 0,-0.109375 -0.125,-0.109375 -0.15625,0 -1.09375,0.09375 -1.265625,0.109375 -0.078125,0.015625 -0.140625,0.0625 -0.140625,0.1875 0,0.125 0.09375,0.125 0.234375,0.125 0.484375,0 0.5,0.0625 0.5,0.171875 L 4.3125,-6.125 3.71875,-3.765625 C 3.53125,-4.140625 3.25,-4.40625 2.796875,-4.40625 c -1.15625,0 -2.390625,1.46875 -2.390625,2.921875 0,0.9375 0.546875,1.59375 1.3125,1.59375 0.203125,0 0.703125,-0.046875 1.296875,-0.75 0.078125,0.421875 0.4375,0.75 0.90625,0.75 0.359375,0 0.578125,-0.234375 0.75,-0.546875 0.15625,-0.359375 0.296875,-0.96875 0.296875,-0.984375 0,-0.109375 -0.09375,-0.109375 -0.125,-0.109375 -0.09375,0 -0.109375,0.046875 -0.140625,0.1875 -0.171875,0.640625 -0.34375,1.234375 -0.75,1.234375 -0.28125,0 -0.296875,-0.265625 -0.296875,-0.453125 0,-0.25 0.015625,-0.3125 0.046875,-0.484375 z m -2.0625,5.625 C 3.015625,-1 3.015625,-0.984375 2.875,-0.8125 2.4375,-0.265625 2.03125,-0.109375 1.75,-0.109375 c -0.5,0 -0.640625,-0.546875 -0.640625,-0.9375 0,-0.5 0.3125,-1.71875 0.546875,-2.1875 0.3125,-0.578125 0.75,-0.953125 1.15625,-0.953125 0.640625,0 0.78125,0.8125 0.78125,0.875 0,0.0625 -0.015625,0.125 -0.03125,0.171875 z m 0,0"
               id="path4544"
               inkscape:connector-curvature="0" />
          </symbol>
          <symbol
             overflow="visible"
             id="textext-f00701bc-1"
             style="overflow:visible">
            <path
               style="stroke:none"
               d="M 3.453125,-2.453125 4.609375,-3.75 C 4.75,-3.890625 4.8125,-3.953125 5.625,-3.953125 l 0,-0.46875 c -0.34375,0.015625 -0.859375,0.03125 -0.90625,0.03125 -0.25,0 -0.75,-0.03125 -1.03125,-0.03125 l 0,0.46875 c 0.140625,0 0.265625,0.015625 0.375,0.078125 -0.03125,0.0625 -0.03125,0.09375 -0.078125,0.125 l -0.828125,0.9375 -0.984375,-1.140625 0.40625,0 0,-0.46875 c -0.265625,0 -0.890625,0.03125 -1.21875,0.03125 -0.3125,0 -0.765625,-0.03125 -1.09375,-0.03125 l 0,0.46875 0.71875,0 1.546875,1.828125 -1.3125,1.46875 c -0.15625,0.1875 -0.515625,0.1875 -1,0.1875 l 0,0.46875 c 0.34375,-0.015625 0.875,-0.03125 0.921875,-0.03125 0.25,0 0.828125,0.015625 1.015625,0.03125 l 0,-0.46875 c -0.171875,0 -0.359375,-0.046875 -0.359375,-0.109375 0,-0.015625 0,-0.015625 0.0625,-0.09375 l 0.96875,-1.09375 1.09375,1.296875 -0.390625,0 0,0.46875 c 0.265625,-0.015625 0.875,-0.03125 1.203125,-0.03125 0.3125,0 0.765625,0.015625 1.09375,0.03125 l 0,-0.46875 -0.703125,0 z m 0,0"
               id="path4547"
               inkscape:connector-curvature="0" />
          </symbol>
          <symbol
             overflow="visible"
             id="textext-f00701bc-2"
             style="overflow:visible">
            <path
               style="stroke:none"
               d="m 2.015625,-3.296875 c 0.0625,-0.109375 0.0625,-0.171875 0.0625,-0.21875 0,-0.21875 -0.1875,-0.375 -0.40625,-0.375 -0.265625,0 -0.34375,0.21875 -0.375,0.328125 L 0.375,-0.546875 c -0.015625,0.015625 -0.046875,0.09375 -0.046875,0.109375 0,0.078125 0.21875,0.15625 0.28125,0.15625 0.046875,0 0.046875,-0.015625 0.09375,-0.125 z m 0,0"
               id="path4550"
               inkscape:connector-curvature="0" />
          </symbol>
          <symbol
             overflow="visible"
             id="textext-f00701bc-3"
             style="overflow:visible">
            <path
               style="stroke:none"
               d="m 6.84375,-3.265625 c 0.15625,0 0.34375,0 0.34375,-0.1875 C 7.1875,-3.65625 7,-3.65625 6.859375,-3.65625 l -5.96875,0 c -0.140625,0 -0.328125,0 -0.328125,0.203125 0,0.1875 0.1875,0.1875 0.328125,0.1875 z m 0.015625,1.9375 c 0.140625,0 0.328125,0 0.328125,-0.203125 0,-0.1875 -0.1875,-0.1875 -0.34375,-0.1875 l -5.953125,0 c -0.140625,0 -0.328125,0 -0.328125,0.1875 0,0.203125 0.1875,0.203125 0.328125,0.203125 z m 0,0"
               id="path4553"
               inkscape:connector-curvature="0" />
          </symbol>
          <symbol
             overflow="visible"
             id="textext-f00701bc-4"
             style="overflow:visible">
            <path
               style="stroke:none"
               d="m 6.5625,-2.296875 c 0.171875,0 0.359375,0 0.359375,-0.203125 0,-0.1875 -0.1875,-0.1875 -0.359375,-0.1875 l -5.390625,0 c -0.171875,0 -0.34375,0 -0.34375,0.1875 0,0.203125 0.171875,0.203125 0.34375,0.203125 z m 0,0"
               id="path4556"
               inkscape:connector-curvature="0" />
          </symbol>
        </g>
      </defs>
      <g
         id="textext-f00701bc-5">
        <g
           style="fill:#000000;fill-opacity:1"
           id="g4559">
          <use
             xlink:href="#textext-f00701bc-0"
             x="223.43201"
             y="134.765"
             id="use4561"
             width="744.09448"
             height="1052.3622" />
        </g>
        <g
           style="fill:#000000;fill-opacity:1"
           id="g4563">
          <use
             xlink:href="#textext-f00701bc-1"
             x="228.618"
             y="134.765"
             id="use4565"
             width="744.09448"
             height="1052.3622" />
        </g>
        <g
           style="fill:#000000;fill-opacity:1"
           id="g4567">
          <use
             xlink:href="#textext-f00701bc-2"
             x="234.664"
             y="131.14999"
             id="use4569"
             width="744.09448"
             height="1052.3622" />
        </g>
        <g
           style="fill:#000000;fill-opacity:1"
           id="g4571">
          <use
             xlink:href="#textext-f00701bc-3"
             x="240.22701"
             y="134.765"
             id="use4573"
             width="744.09448"
             height="1052.3622" />
        </g>
        <g
           style="fill:#000000;fill-opacity:1"
           id="g4575">
          <use
             xlink:href="#textext-f00701bc-4"
             x="250.743"
             y="134.765"
             id="use4577"
             width="744.09448"
             height="1052.3622" />
        </g>
      </g>
    </g>
    <g
       id="g4821"
       style="fill:#000000;fill-opacity:1"
       transform="matrix(6,0,0,6,-97.5,-277.5)">
      <use
         id="use4823"
         y="125.201"
         x="223.43201"
         xlink:href="#textext-08194f46-0"
         width="744.09448"
         height="1052.3622" />
    </g>
    <g
       id="g4825"
       style="fill:#000000;fill-opacity:1"
       transform="matrix(6,0,0,6,-127.5,-277.5)">
      <use
         id="use4827"
         y="133.17101"
         x="236.467"
         xlink:href="#textext-08194f46-2"
         width="744.09448"
         height="1052.3622" />
    </g>
    <g
       id="g4829"
       style="fill:#000000;fill-opacity:1"
       transform="matrix(6,0,0,6,-77.5,-277.5)">
      <use
         id="use4831"
         y="133.17101"
         x="243.994"
         xlink:href="#textext-08194f46-5"
         width="744.09448"
         height="1052.3622" />
    </g>
    <g
       id="g4833"
       style="fill:#000000;fill-opacity:1"
       transform="matrix(6,0,0,6,-77.5,-277.5)">
      <use
         id="use4835"
         y="133.17101"
         x="247.868"
         xlink:href="#textext-08194f46-3"
         width="744.09448"
         height="1052.3622" />
    </g>
    <g
       id="g4837"
       style="fill:#000000;fill-opacity:1"
       transform="matrix(6,0,0,6,-77.5,-277.5)">
      <use
         id="use4839"
         y="133.17101"
         x="253.91499"
         xlink:href="#textext-08194f46-6"
         width="744.09448"
         height="1052.3622" />
    </g>
    <g
       id="g4841"
       style="fill:#000000;fill-opacity:1"
       transform="matrix(6,0,0,6,-127.5,-277.5)">
      <use
         id="use4843"
         y="145.12601"
         x="235.74699"
         xlink:href="#textext-08194f46-4"
         width="744.09448"
         height="1052.3622" />
    </g>
    <g
       id="g4845"
       style="fill:#000000;fill-opacity:1"
       transform="matrix(6,0,0,6,-77.5,-277.5)">
      <use
         id="use4847"
         y="145.12601"
         x="244.713"
         xlink:href="#textext-08194f46-5"
         width="744.09448"
         height="1052.3622" />
    </g>
    <g
       id="g4849"
       style="fill:#000000;fill-opacity:1"
       transform="matrix(6,0,0,6,-77.5,-277.5)">
      <use
         id="use4851"
         y="145.12601"
         x="248.588"
         xlink:href="#textext-08194f46-3"
         width="744.09448"
         height="1052.3622" />
    </g>
    <g
       id="g4853"
       style="fill:#000000;fill-opacity:1"
       transform="matrix(6,0,0,6,-77.5,-277.5)">
      <use
         id="use4855"
         y="145.12601"
         x="254.63499"
         xlink:href="#textext-08194f46-6"
         width="744.09448"
         height="1052.3622" />
    </g>
    <g
       id="g4857"
       style="fill:#000000;fill-opacity:1"
       transform="matrix(6,0,0,6,-110,-277.5)">
      <use
         id="use4859"
         y="125.201"
         x="263.48999"
         xlink:href="#textext-08194f46-1"
         width="744.09448"
         height="1052.3622" />
    </g>
    <g
       transform="matrix(4,0,0,4,443.51667,-47.936174)"
       ns0:text="inc"
       ns0:preamble=""
       id="g5225">
      <defs
         id="defs5227">
        <g
           id="g5229">
          <symbol
             style="overflow:visible"
             overflow="visible"
             id="textext-12162827-0">
            <path
               inkscape:connector-curvature="0"
               style="stroke:none"
               d="M 1.765625,-4.40625 0.375,-4.296875 l 0,0.3125 c 0.640625,0 0.734375,0.0625 0.734375,0.546875 l 0,2.6875 c 0,0.4375 -0.109375,0.4375 -0.78125,0.4375 l 0,0.3125 C 0.640625,-0.015625 1.1875,-0.03125 1.421875,-0.03125 1.78125,-0.03125 2.125,-0.015625 2.46875,0 l 0,-0.3125 c -0.671875,0 -0.703125,-0.046875 -0.703125,-0.4375 z m 0.03125,-1.734375 c 0,-0.3125 -0.234375,-0.53125 -0.515625,-0.53125 -0.3125,0 -0.53125,0.265625 -0.53125,0.53125 0,0.265625 0.21875,0.53125 0.53125,0.53125 0.28125,0 0.515625,-0.21875 0.515625,-0.53125 z m 0,0"
               id="path5232" />
          </symbol>
          <symbol
             style="overflow:visible"
             overflow="visible"
             id="textext-12162827-1">
            <path
               inkscape:connector-curvature="0"
               style="stroke:none"
               d="m 1.09375,-3.421875 0,2.671875 c 0,0.4375 -0.109375,0.4375 -0.78125,0.4375 l 0,0.3125 c 0.359375,-0.015625 0.859375,-0.03125 1.140625,-0.03125 0.25,0 0.765625,0.015625 1.109375,0.03125 l 0,-0.3125 c -0.671875,0 -0.78125,0 -0.78125,-0.4375 l 0,-1.84375 C 1.78125,-3.625 2.5,-4.1875 3.125,-4.1875 c 0.640625,0 0.75,0.53125 0.75,1.109375 l 0,2.328125 c 0,0.4375 -0.109375,0.4375 -0.78125,0.4375 l 0,0.3125 c 0.34375,-0.015625 0.859375,-0.03125 1.125,-0.03125 0.25,0 0.78125,0.015625 1.109375,0.03125 l 0,-0.3125 c -0.515625,0 -0.765625,0 -0.765625,-0.296875 l 0,-1.90625 c 0,-0.859375 0,-1.15625 -0.3125,-1.515625 -0.140625,-0.171875 -0.46875,-0.375 -1.046875,-0.375 C 2.46875,-4.40625 2,-3.984375 1.71875,-3.359375 l 0,-1.046875 -1.40625,0.109375 0,0.3125 c 0.703125,0 0.78125,0.0625 0.78125,0.5625 z m 0,0"
               id="path5235" />
          </symbol>
          <symbol
             style="overflow:visible"
             overflow="visible"
             id="textext-12162827-2">
            <path
               inkscape:connector-curvature="0"
               style="stroke:none"
               d="m 1.171875,-2.171875 c 0,-1.625 0.8125,-2.046875 1.34375,-2.046875 0.09375,0 0.71875,0.015625 1.0625,0.375 -0.40625,0.03125 -0.46875,0.328125 -0.46875,0.453125 0,0.265625 0.1875,0.453125 0.453125,0.453125 0.265625,0 0.46875,-0.15625 0.46875,-0.46875 0,-0.671875 -0.765625,-1.0625 -1.53125,-1.0625 -1.25,0 -2.15625,1.078125 -2.15625,2.3125 0,1.28125 0.984375,2.265625 2.140625,2.265625 1.328125,0 1.65625,-1.203125 1.65625,-1.296875 0,-0.09375 -0.109375,-0.09375 -0.140625,-0.09375 -0.078125,0 -0.109375,0.03125 -0.125,0.09375 -0.28125,0.921875 -0.9375,1.046875 -1.296875,1.046875 -0.53125,0 -1.40625,-0.421875 -1.40625,-2.03125 z m 0,0"
               id="path5238" />
          </symbol>
        </g>
      </defs>
      <g
         id="textext-12162827-3">
        <g
           style="fill:#000000;fill-opacity:1"
           id="g5241">
          <use
             height="151.23619"
             width="1531.4545"
             xlink:href="#textext-12162827-0"
             x="223.43201"
             y="134.765"
             id="use5243" />
          <use
             height="151.23619"
             width="1531.4545"
             xlink:href="#textext-12162827-1"
             x="226.19962"
             y="134.765"
             id="use5245" />
          <use
             height="151.23619"
             width="1531.4545"
             xlink:href="#textext-12162827-2"
             x="231.73483"
             y="134.765"
             id="use5247" />
        </g>
      </g>
    </g>
    <g
       id="g5405"
       ns0:preamble=""
       ns0:text="inc"
       transform="matrix(4,0,0,4,443.51667,19.563826)">
      <defs
         id="defs5407">
        <g
           id="g5409">
          <symbol
             id="symbol5411"
             overflow="visible"
             style="overflow:visible">
            <path
               id="path5413"
               d="M 1.765625,-4.40625 0.375,-4.296875 l 0,0.3125 c 0.640625,0 0.734375,0.0625 0.734375,0.546875 l 0,2.6875 c 0,0.4375 -0.109375,0.4375 -0.78125,0.4375 l 0,0.3125 C 0.640625,-0.015625 1.1875,-0.03125 1.421875,-0.03125 1.78125,-0.03125 2.125,-0.015625 2.46875,0 l 0,-0.3125 c -0.671875,0 -0.703125,-0.046875 -0.703125,-0.4375 z m 0.03125,-1.734375 c 0,-0.3125 -0.234375,-0.53125 -0.515625,-0.53125 -0.3125,0 -0.53125,0.265625 -0.53125,0.53125 0,0.265625 0.21875,0.53125 0.53125,0.53125 0.28125,0 0.515625,-0.21875 0.515625,-0.53125 z m 0,0"
               style="stroke:none"
               inkscape:connector-curvature="0" />
          </symbol>
          <symbol
             id="symbol5415"
             overflow="visible"
             style="overflow:visible">
            <path
               id="path5417"
               d="m 1.09375,-3.421875 0,2.671875 c 0,0.4375 -0.109375,0.4375 -0.78125,0.4375 l 0,0.3125 c 0.359375,-0.015625 0.859375,-0.03125 1.140625,-0.03125 0.25,0 0.765625,0.015625 1.109375,0.03125 l 0,-0.3125 c -0.671875,0 -0.78125,0 -0.78125,-0.4375 l 0,-1.84375 C 1.78125,-3.625 2.5,-4.1875 3.125,-4.1875 c 0.640625,0 0.75,0.53125 0.75,1.109375 l 0,2.328125 c 0,0.4375 -0.109375,0.4375 -0.78125,0.4375 l 0,0.3125 c 0.34375,-0.015625 0.859375,-0.03125 1.125,-0.03125 0.25,0 0.78125,0.015625 1.109375,0.03125 l 0,-0.3125 c -0.515625,0 -0.765625,0 -0.765625,-0.296875 l 0,-1.90625 c 0,-0.859375 0,-1.15625 -0.3125,-1.515625 -0.140625,-0.171875 -0.46875,-0.375 -1.046875,-0.375 C 2.46875,-4.40625 2,-3.984375 1.71875,-3.359375 l 0,-1.046875 -1.40625,0.109375 0,0.3125 c 0.703125,0 0.78125,0.0625 0.78125,0.5625 z m 0,0"
               style="stroke:none"
               inkscape:connector-curvature="0" />
          </symbol>
          <symbol
             id="symbol5419"
             overflow="visible"
             style="overflow:visible">
            <path
               id="path5421"
               d="m 1.171875,-2.171875 c 0,-1.625 0.8125,-2.046875 1.34375,-2.046875 0.09375,0 0.71875,0.015625 1.0625,0.375 -0.40625,0.03125 -0.46875,0.328125 -0.46875,0.453125 0,0.265625 0.1875,0.453125 0.453125,0.453125 0.265625,0 0.46875,-0.15625 0.46875,-0.46875 0,-0.671875 -0.765625,-1.0625 -1.53125,-1.0625 -1.25,0 -2.15625,1.078125 -2.15625,2.3125 0,1.28125 0.984375,2.265625 2.140625,2.265625 1.328125,0 1.65625,-1.203125 1.65625,-1.296875 0,-0.09375 -0.109375,-0.09375 -0.140625,-0.09375 -0.078125,0 -0.109375,0.03125 -0.125,0.09375 -0.28125,0.921875 -0.9375,1.046875 -1.296875,1.046875 -0.53125,0 -1.40625,-0.421875 -1.40625,-2.03125 z m 0,0"
               style="stroke:none"
               inkscape:connector-curvature="0" />
          </symbol>
        </g>
      </defs>
      <g
         id="g5423">
        <g
           id="g5425"
           style="fill:#000000;fill-opacity:1">
          <use
             id="use5427"
             y="134.765"
             x="223.43201"
             xlink:href="#textext-12162827-0"
             width="1531.4545"
             height="151.23619" />
          <use
             id="use5429"
             y="134.765"
             x="226.19962"
             xlink:href="#textext-12162827-1"
             width="1531.4545"
             height="151.23619" />
          <use
             id="use5431"
             y="134.765"
             x="231.73483"
             xlink:href="#textext-12162827-2"
             width="1531.4545"
             height="151.23619" />
        </g>
      </g>
    </g>
    <g
       ns0:text="$\\oint\\Gamma(\\mathbf x, \\mathbf x^\\prime) \\cdot $"
       ns0:preamble=""
       transform="matrix(13.5,0,0,13.5,-3102.9404,-916.7936)"
       id="g5433">
      <defs
         id="defs5435">
        <g
           id="g5437">
          <symbol
             style="overflow:visible"
             overflow="visible"
             id="symbol5439">
            <path
               inkscape:connector-curvature="0"
               style="stroke:none"
               d="M 3.578125,7.390625 C 4.671875,7.234375 5.25,6.359375 5.25,5.546875 5.25,4.8125 4.796875,4.046875 3.953125,3.765625 4.015625,2.71875 4.0625,2.359375 4.0625,2.15625 c 0.109375,-1.09375 0.25,-1.9375 0.921875,-1.9375 0.09375,0 0.40625,0.015625 0.625,0.203125 C 5.328125,0.46875 5.25,0.703125 5.25,0.84375 5.25,1.125 5.46875,1.25 5.65625,1.25 5.859375,1.25 6.078125,1.125 6.078125,0.828125 6.078125,0.34375 5.578125,0 4.96875,0 4.171875,0 3.796875,0.671875 3.59375,1.25 3.46875,1.640625 3.40625,1.953125 3.1875,3.671875 2.109375,3.84375 1.53125,4.71875 1.53125,5.53125 c 0,0.734375 0.4375,1.5 1.296875,1.78125 C 2.75,8.328125 2.71875,8.65625 2.703125,8.859375 c -0.09375,1.078125 -0.28125,2 -1.046875,2 -0.125,0 -0.4375,-0.03125 -0.640625,-0.21875 0.296875,-0.03125 0.375,-0.265625 0.375,-0.40625 0,-0.28125 -0.21875,-0.421875 -0.40625,-0.421875 -0.203125,0 -0.421875,0.140625 -0.421875,0.4375 0,0.46875 0.5,0.828125 1.09375,0.828125 C 2.4375,11.078125 2.875,10.484375 3.125,9.875 3.34375,9.3125 3.421875,8.75 3.578125,7.390625 z m -0.734375,-0.5 C 2.375,6.703125 1.921875,6.21875 1.921875,5.53125 c 0,-0.671875 0.5,-1.296875 1.203125,-1.4375 z M 3.921875,4.171875 C 4.4375,4.390625 4.84375,4.90625 4.84375,5.53125 c 0,0.71875 -0.515625,1.3125 -1.203125,1.453125 z m 0,0"
               id="path5441" />
          </symbol>
          <symbol
             style="overflow:visible"
             overflow="visible"
             id="symbol5443">
            <path
               inkscape:connector-curvature="0"
               style="stroke:none"
               d="m 5.515625,-6.78125 -5.1875,0 0,0.3125 0.234375,0 c 0.765625,0 0.796875,0.109375 0.796875,0.46875 l 0,5.21875 c 0,0.359375 -0.03125,0.46875 -0.796875,0.46875 l -0.234375,0 0,0.3125 c 0.34375,-0.03125 1.125,-0.03125 1.515625,-0.03125 0.40625,0 1.3125,0 1.671875,0.03125 l 0,-0.3125 -0.328125,0 C 2.25,-0.3125 2.25,-0.4375 2.25,-0.78125 l 0,-5.296875 c 0,-0.328125 0.015625,-0.390625 0.484375,-0.390625 l 1.03125,0 c 1.421875,0 1.625,0.59375 1.78125,1.9375 l 0.25,0 z m 0,0"
               id="path5445" />
          </symbol>
          <symbol
             style="overflow:visible"
             overflow="visible"
             id="symbol5447">
            <path
               inkscape:connector-curvature="0"
               style="stroke:none"
               d="m 3.296875,2.390625 c 0,-0.03125 0,-0.046875 -0.171875,-0.21875 C 1.890625,0.921875 1.5625,-0.96875 1.5625,-2.5 c 0,-1.734375 0.375,-3.46875 1.609375,-4.703125 0.125,-0.125 0.125,-0.140625 0.125,-0.171875 0,-0.078125 -0.03125,-0.109375 -0.09375,-0.109375 -0.109375,0 -1,0.6875 -1.59375,1.953125 -0.5,1.09375 -0.625,2.203125 -0.625,3.03125 0,0.78125 0.109375,1.984375 0.65625,3.125 C 2.25,1.84375 3.09375,2.5 3.203125,2.5 c 0.0625,0 0.09375,-0.03125 0.09375,-0.109375 z m 0,0"
               id="path5449" />
          </symbol>
          <symbol
             style="overflow:visible"
             overflow="visible"
             id="symbol5451">
            <path
               inkscape:connector-curvature="0"
               style="stroke:none"
               d="m 2.875,-2.5 c 0,-0.765625 -0.109375,-1.96875 -0.65625,-3.109375 -0.59375,-1.21875 -1.453125,-1.875 -1.546875,-1.875 -0.0625,0 -0.109375,0.046875 -0.109375,0.109375 0,0.03125 0,0.046875 0.1875,0.234375 0.984375,0.984375 1.546875,2.5625 1.546875,4.640625 0,1.71875 -0.359375,3.46875 -1.59375,4.71875 C 0.5625,2.34375 0.5625,2.359375 0.5625,2.390625 0.5625,2.453125 0.609375,2.5 0.671875,2.5 0.765625,2.5 1.671875,1.8125 2.25,0.546875 2.765625,-0.546875 2.875,-1.65625 2.875,-2.5 z m 0,0"
               id="path5453" />
          </symbol>
          <symbol
             style="overflow:visible"
             overflow="visible"
             id="symbol5455">
            <path
               inkscape:connector-curvature="0"
               style="stroke:none"
               d="M 3.453125,-2.453125 4.609375,-3.75 C 4.75,-3.890625 4.8125,-3.953125 5.625,-3.953125 l 0,-0.46875 c -0.34375,0.015625 -0.859375,0.03125 -0.90625,0.03125 -0.25,0 -0.75,-0.03125 -1.03125,-0.03125 l 0,0.46875 c 0.140625,0 0.265625,0.015625 0.375,0.078125 -0.03125,0.0625 -0.03125,0.09375 -0.078125,0.125 l -0.828125,0.9375 -0.984375,-1.140625 0.40625,0 0,-0.46875 c -0.265625,0 -0.890625,0.03125 -1.21875,0.03125 -0.3125,0 -0.765625,-0.03125 -1.09375,-0.03125 l 0,0.46875 0.71875,0 1.546875,1.828125 -1.3125,1.46875 c -0.15625,0.1875 -0.515625,0.1875 -1,0.1875 l 0,0.46875 c 0.34375,-0.015625 0.875,-0.03125 0.921875,-0.03125 0.25,0 0.828125,0.015625 1.015625,0.03125 l 0,-0.46875 c -0.171875,0 -0.359375,-0.046875 -0.359375,-0.109375 0,-0.015625 0,-0.015625 0.0625,-0.09375 l 0.96875,-1.09375 1.09375,1.296875 -0.390625,0 0,0.46875 c 0.265625,-0.015625 0.875,-0.03125 1.203125,-0.03125 0.3125,0 0.765625,0.015625 1.09375,0.03125 l 0,-0.46875 -0.703125,0 z m 0,0"
               id="path5457" />
          </symbol>
          <symbol
             style="overflow:visible"
             overflow="visible"
             id="symbol5459">
            <path
               inkscape:connector-curvature="0"
               style="stroke:none"
               d="m 2.03125,-0.015625 c 0,-0.65625 -0.25,-1.046875 -0.640625,-1.046875 -0.328125,0 -0.53125,0.25 -0.53125,0.53125 C 0.859375,-0.265625 1.0625,0 1.390625,0 1.5,0 1.640625,-0.046875 1.734375,-0.125 1.765625,-0.15625 1.78125,-0.15625 1.78125,-0.15625 c 0.015625,0 0.015625,0 0.015625,0.140625 0,0.75 -0.34375,1.34375 -0.671875,1.671875 -0.109375,0.109375 -0.109375,0.125 -0.109375,0.15625 0,0.078125 0.046875,0.109375 0.09375,0.109375 0.109375,0 0.921875,-0.765625 0.921875,-1.9375 z m 0,0"
               id="path5461" />
          </symbol>
          <symbol
             style="overflow:visible"
             overflow="visible"
             id="symbol5463">
            <path
               inkscape:connector-curvature="0"
               style="stroke:none"
               d="m 2.015625,-3.296875 c 0.0625,-0.109375 0.0625,-0.171875 0.0625,-0.21875 0,-0.21875 -0.1875,-0.375 -0.40625,-0.375 -0.265625,0 -0.34375,0.21875 -0.375,0.328125 L 0.375,-0.546875 c -0.015625,0.015625 -0.046875,0.09375 -0.046875,0.109375 0,0.078125 0.21875,0.15625 0.28125,0.15625 0.046875,0 0.046875,-0.015625 0.09375,-0.125 z m 0,0"
               id="path5465" />
          </symbol>
          <symbol
             style="overflow:visible"
             overflow="visible"
             id="symbol5467">
            <path
               inkscape:connector-curvature="0"
               style="stroke:none"
               d="m 1.90625,-2.5 c 0,-0.28125 -0.234375,-0.515625 -0.515625,-0.515625 -0.296875,0 -0.53125,0.234375 -0.53125,0.515625 0,0.296875 0.234375,0.53125 0.53125,0.53125 0.28125,0 0.515625,-0.234375 0.515625,-0.53125 z m 0,0"
               id="path5469" />
          </symbol>
        </g>
      </defs>
      <g
         id="g5471">
        <g
           style="fill:#000000;fill-opacity:1"
           id="g5473">
          <use
             height="1052.3622"
             width="744.09448"
             xlink:href="#textext-cc256392-0"
             x="223.43201"
             y="126.739"
             id="use5475" />
        </g>
        <g
           style="fill:#000000;fill-opacity:1"
           id="g5477">
          <use
             height="1052.3622"
             width="744.09448"
             xlink:href="#textext-cc256392-1"
             x="231.73399"
             y="134.765"
             id="use5479" />
          <use
             height="1052.3622"
             width="744.09448"
             xlink:href="#textext-cc256392-2"
             x="237.96063"
             y="134.765"
             id="use5481" />
        </g>
        <g
           style="fill:#000000;fill-opacity:1"
           id="g5483">
          <use
             height="1052.3622"
             width="744.09448"
             xlink:href="#textext-cc256392-4"
             x="241.83501"
             y="134.765"
             id="use5485" />
        </g>
        <g
           style="fill:#000000;fill-opacity:1"
           id="g5487">
          <use
             height="1052.3622"
             width="744.09448"
             xlink:href="#textext-cc256392-5"
             x="247.882"
             y="134.765"
             id="use5489" />
        </g>
        <g
           style="fill:#000000;fill-opacity:1"
           id="g5491">
          <use
             height="1052.3622"
             width="744.09448"
             xlink:href="#textext-cc256392-4"
             x="252.31"
             y="134.765"
             id="use5493" />
        </g>
        <g
           style="fill:#000000;fill-opacity:1"
           id="g5495">
          <use
             height="1052.3622"
             width="744.09448"
             xlink:href="#textext-cc256392-6"
             x="258.35699"
             y="131.149"
             id="use5497" />
        </g>
        <g
           style="fill:#000000;fill-opacity:1"
           id="g5499">
          <use
             height="1052.3622"
             width="744.09448"
             xlink:href="#textext-cc256392-3"
             x="261.15201"
             y="134.765"
             id="use5501" />
        </g>
        <g
           style="fill:#000000;fill-opacity:1"
           id="g5503">
          <use
             height="1052.3622"
             width="744.09448"
             xlink:href="#textext-cc256392-7"
             x="265.026"
             y="134.765"
             id="use5505" />
        </g>
      </g>
    </g>
    <g
       id="g5967"
       transform="matrix(13.5,0,0,13.5,-3250.4404,-1241.7936)"
       ns0:preamble=""
       ns0:text="$\\oint\\Gamma(\\omega; \\mathbf x, \\mathbf x^\\prime) \\cdot $">
      <defs
         id="defs5969">
        <g
           id="g5971">
          <symbol
             id="textext-81d60986-0"
             overflow="visible"
             style="overflow:visible">
            <path
               id="path5974"
               d="M 3.578125,7.390625 C 4.671875,7.234375 5.25,6.359375 5.25,5.546875 5.25,4.8125 4.796875,4.046875 3.953125,3.765625 4.015625,2.71875 4.0625,2.359375 4.0625,2.15625 c 0.109375,-1.09375 0.25,-1.9375 0.921875,-1.9375 0.09375,0 0.40625,0.015625 0.625,0.203125 C 5.328125,0.46875 5.25,0.703125 5.25,0.84375 5.25,1.125 5.46875,1.25 5.65625,1.25 5.859375,1.25 6.078125,1.125 6.078125,0.828125 6.078125,0.34375 5.578125,0 4.96875,0 4.171875,0 3.796875,0.671875 3.59375,1.25 3.46875,1.640625 3.40625,1.953125 3.1875,3.671875 2.109375,3.84375 1.53125,4.71875 1.53125,5.53125 c 0,0.734375 0.4375,1.5 1.296875,1.78125 C 2.75,8.328125 2.71875,8.65625 2.703125,8.859375 c -0.09375,1.078125 -0.28125,2 -1.046875,2 -0.125,0 -0.4375,-0.03125 -0.640625,-0.21875 0.296875,-0.03125 0.375,-0.265625 0.375,-0.40625 0,-0.28125 -0.21875,-0.421875 -0.40625,-0.421875 -0.203125,0 -0.421875,0.140625 -0.421875,0.4375 0,0.46875 0.5,0.828125 1.09375,0.828125 C 2.4375,11.078125 2.875,10.484375 3.125,9.875 3.34375,9.3125 3.421875,8.75 3.578125,7.390625 z m -0.734375,-0.5 C 2.375,6.703125 1.921875,6.21875 1.921875,5.53125 c 0,-0.671875 0.5,-1.296875 1.203125,-1.4375 z M 3.921875,4.171875 C 4.4375,4.390625 4.84375,4.90625 4.84375,5.53125 c 0,0.71875 -0.515625,1.3125 -1.203125,1.453125 z m 0,0"
               style="stroke:none"
               inkscape:connector-curvature="0" />
          </symbol>
          <symbol
             id="textext-81d60986-1"
             overflow="visible"
             style="overflow:visible">
            <path
               id="path5977"
               d="m 5.515625,-6.78125 -5.1875,0 0,0.3125 0.234375,0 c 0.765625,0 0.796875,0.109375 0.796875,0.46875 l 0,5.21875 c 0,0.359375 -0.03125,0.46875 -0.796875,0.46875 l -0.234375,0 0,0.3125 c 0.34375,-0.03125 1.125,-0.03125 1.515625,-0.03125 0.40625,0 1.3125,0 1.671875,0.03125 l 0,-0.3125 -0.328125,0 C 2.25,-0.3125 2.25,-0.4375 2.25,-0.78125 l 0,-5.296875 c 0,-0.328125 0.015625,-0.390625 0.484375,-0.390625 l 1.03125,0 c 1.421875,0 1.625,0.59375 1.78125,1.9375 l 0.25,0 z m 0,0"
               style="stroke:none"
               inkscape:connector-curvature="0" />
          </symbol>
          <symbol
             id="textext-81d60986-2"
             overflow="visible"
             style="overflow:visible">
            <path
               id="path5980"
               d="m 3.296875,2.390625 c 0,-0.03125 0,-0.046875 -0.171875,-0.21875 C 1.890625,0.921875 1.5625,-0.96875 1.5625,-2.5 c 0,-1.734375 0.375,-3.46875 1.609375,-4.703125 0.125,-0.125 0.125,-0.140625 0.125,-0.171875 0,-0.078125 -0.03125,-0.109375 -0.09375,-0.109375 -0.109375,0 -1,0.6875 -1.59375,1.953125 -0.5,1.09375 -0.625,2.203125 -0.625,3.03125 0,0.78125 0.109375,1.984375 0.65625,3.125 C 2.25,1.84375 3.09375,2.5 3.203125,2.5 c 0.0625,0 0.09375,-0.03125 0.09375,-0.109375 z m 0,0"
               style="stroke:none"
               inkscape:connector-curvature="0" />
          </symbol>
          <symbol
             id="textext-81d60986-3"
             overflow="visible"
             style="overflow:visible">
            <path
               id="path5983"
               d="m 1.90625,-3.765625 c 0,-0.296875 -0.234375,-0.53125 -0.515625,-0.53125 -0.296875,0 -0.53125,0.234375 -0.53125,0.53125 0,0.28125 0.234375,0.53125 0.53125,0.53125 0.28125,0 0.515625,-0.25 0.515625,-0.53125 z m -0.1875,3.65625 c 0,0.28125 0,1.0625 -0.625,1.796875 -0.078125,0.078125 -0.078125,0.09375 -0.078125,0.125 0,0.078125 0.046875,0.109375 0.09375,0.109375 0.109375,0 0.828125,-0.796875 0.828125,-1.953125 0,-0.28125 -0.015625,-1.03125 -0.546875,-1.03125 -0.359375,0 -0.53125,0.28125 -0.53125,0.53125 C 0.859375,-0.265625 1.03125,0 1.390625,0 1.4375,0 1.453125,0 1.46875,-0.015625 c 0.0625,0 0.171875,-0.03125 0.25,-0.09375 z m 0,0"
               style="stroke:none"
               inkscape:connector-curvature="0" />
          </symbol>
          <symbol
             id="textext-81d60986-4"
             overflow="visible"
             style="overflow:visible">
            <path
               id="path5986"
               d="m 2.875,-2.5 c 0,-0.765625 -0.109375,-1.96875 -0.65625,-3.109375 -0.59375,-1.21875 -1.453125,-1.875 -1.546875,-1.875 -0.0625,0 -0.109375,0.046875 -0.109375,0.109375 0,0.03125 0,0.046875 0.1875,0.234375 0.984375,0.984375 1.546875,2.5625 1.546875,4.640625 0,1.71875 -0.359375,3.46875 -1.59375,4.71875 C 0.5625,2.34375 0.5625,2.359375 0.5625,2.390625 0.5625,2.453125 0.609375,2.5 0.671875,2.5 0.765625,2.5 1.671875,1.8125 2.25,0.546875 2.765625,-0.546875 2.875,-1.65625 2.875,-2.5 z m 0,0"
               style="stroke:none"
               inkscape:connector-curvature="0" />
          </symbol>
          <symbol
             id="textext-81d60986-5"
             overflow="visible"
             style="overflow:visible">
            <path
               id="path5989"
               d="m 6.03125,-3.703125 c 0,-0.453125 -0.171875,-0.703125 -0.40625,-0.703125 -0.25,0 -0.515625,0.234375 -0.515625,0.46875 0,0.09375 0.046875,0.203125 0.140625,0.296875 0.171875,0.15625 0.359375,0.421875 0.359375,0.84375 0,0.390625 -0.203125,0.96875 -0.5,1.421875 C 4.8125,-0.953125 4.4375,-0.609375 3.96875,-0.609375 3.40625,-0.609375 3.09375,-0.96875 3,-1.5 c 0.109375,-0.265625 0.34375,-0.90625 0.34375,-1.1875 0,-0.109375 -0.046875,-0.21875 -0.1875,-0.21875 -0.078125,0 -0.1875,0.03125 -0.265625,0.171875 C 2.78125,-2.53125 2.65625,-1.890625 2.65625,-1.53125 2.328125,-1.0625 1.9375,-0.609375 1.3125,-0.609375 c -0.671875,0 -0.875,-0.59375 -0.875,-1.140625 0,-1.25 1.015625,-2.296875 1.015625,-2.421875 0,-0.109375 -0.078125,-0.1875 -0.1875,-0.1875 -0.125,0 -0.203125,0.125 -0.265625,0.21875 -0.5,0.734375 -0.875,1.921875 -0.875,2.828125 0,0.6875 0.21875,1.421875 1.046875,1.421875 0.703125,0 1.171875,-0.5 1.53125,-1.046875 0.09375,0.578125 0.484375,1.046875 1.09375,1.046875 0.78125,0 1.25,-0.609375 1.609375,-1.359375 0.25,-0.484375 0.625,-1.84375 0.625,-2.453125 z m 0,0"
               style="stroke:none"
               inkscape:connector-curvature="0" />
          </symbol>
          <symbol
             id="textext-81d60986-6"
             overflow="visible"
             style="overflow:visible">
            <path
               id="path5992"
               d="m 2.03125,-0.015625 c 0,-0.65625 -0.25,-1.046875 -0.640625,-1.046875 -0.328125,0 -0.53125,0.25 -0.53125,0.53125 C 0.859375,-0.265625 1.0625,0 1.390625,0 1.5,0 1.640625,-0.046875 1.734375,-0.125 1.765625,-0.15625 1.78125,-0.15625 1.78125,-0.15625 c 0.015625,0 0.015625,0 0.015625,0.140625 0,0.75 -0.34375,1.34375 -0.671875,1.671875 -0.109375,0.109375 -0.109375,0.125 -0.109375,0.15625 0,0.078125 0.046875,0.109375 0.09375,0.109375 0.109375,0 0.921875,-0.765625 0.921875,-1.9375 z m 0,0"
               style="stroke:none"
               inkscape:connector-curvature="0" />
          </symbol>
          <symbol
             id="textext-81d60986-7"
             overflow="visible"
             style="overflow:visible">
            <path
               id="path5995"
               d="M 3.453125,-2.453125 4.609375,-3.75 C 4.75,-3.890625 4.8125,-3.953125 5.625,-3.953125 l 0,-0.46875 c -0.34375,0.015625 -0.859375,0.03125 -0.90625,0.03125 -0.25,0 -0.75,-0.03125 -1.03125,-0.03125 l 0,0.46875 c 0.140625,0 0.265625,0.015625 0.375,0.078125 -0.03125,0.0625 -0.03125,0.09375 -0.078125,0.125 l -0.828125,0.9375 -0.984375,-1.140625 0.40625,0 0,-0.46875 c -0.265625,0 -0.890625,0.03125 -1.21875,0.03125 -0.3125,0 -0.765625,-0.03125 -1.09375,-0.03125 l 0,0.46875 0.71875,0 1.546875,1.828125 -1.3125,1.46875 c -0.15625,0.1875 -0.515625,0.1875 -1,0.1875 l 0,0.46875 c 0.34375,-0.015625 0.875,-0.03125 0.921875,-0.03125 0.25,0 0.828125,0.015625 1.015625,0.03125 l 0,-0.46875 c -0.171875,0 -0.359375,-0.046875 -0.359375,-0.109375 0,-0.015625 0,-0.015625 0.0625,-0.09375 l 0.96875,-1.09375 1.09375,1.296875 -0.390625,0 0,0.46875 c 0.265625,-0.015625 0.875,-0.03125 1.203125,-0.03125 0.3125,0 0.765625,0.015625 1.09375,0.03125 l 0,-0.46875 -0.703125,0 z m 0,0"
               style="stroke:none"
               inkscape:connector-curvature="0" />
          </symbol>
          <symbol
             id="textext-81d60986-8"
             overflow="visible"
             style="overflow:visible">
            <path
               id="path5998"
               d="m 2.015625,-3.296875 c 0.0625,-0.109375 0.0625,-0.171875 0.0625,-0.21875 0,-0.21875 -0.1875,-0.375 -0.40625,-0.375 -0.265625,0 -0.34375,0.21875 -0.375,0.328125 L 0.375,-0.546875 c -0.015625,0.015625 -0.046875,0.09375 -0.046875,0.109375 0,0.078125 0.21875,0.15625 0.28125,0.15625 0.046875,0 0.046875,-0.015625 0.09375,-0.125 z m 0,0"
               style="stroke:none"
               inkscape:connector-curvature="0" />
          </symbol>
          <symbol
             id="textext-81d60986-9"
             overflow="visible"
             style="overflow:visible">
            <path
               id="path6001"
               d="m 1.90625,-2.5 c 0,-0.28125 -0.234375,-0.515625 -0.515625,-0.515625 -0.296875,0 -0.53125,0.234375 -0.53125,0.515625 0,0.296875 0.234375,0.53125 0.53125,0.53125 0.28125,0 0.515625,-0.234375 0.515625,-0.53125 z m 0,0"
               style="stroke:none"
               inkscape:connector-curvature="0" />
          </symbol>
        </g>
      </defs>
      <g
         id="textext-81d60986-10">
        <g
           id="g6004"
           style="fill:#000000;fill-opacity:1">
          <use
             id="use6006"
             y="126.739"
             x="223.43201"
             xlink:href="#textext-81d60986-0"
             width="1581.4545"
             height="204.30124" />
        </g>
        <g
           id="g6008"
           style="fill:#000000;fill-opacity:1">
          <use
             id="use6010"
             y="134.765"
             x="231.73399"
             xlink:href="#textext-81d60986-1"
             width="1581.4545"
             height="204.30124" />
          <use
             id="use6012"
             y="134.765"
             x="237.96063"
             xlink:href="#textext-81d60986-2"
             width="1581.4545"
             height="204.30124" />
        </g>
        <g
           id="g6014"
           style="fill:#000000;fill-opacity:1">
          <use
             id="use6016"
             y="134.765"
             x="241.83501"
             xlink:href="#textext-81d60986-5"
             width="1581.4545"
             height="204.30124" />
        </g>
        <g
           id="g6018"
           style="fill:#000000;fill-opacity:1">
          <use
             id="use6020"
             y="134.765"
             x="248.394"
             xlink:href="#textext-81d60986-3"
             width="1581.4545"
             height="204.30124" />
        </g>
        <g
           id="g6022"
           style="fill:#000000;fill-opacity:1">
          <use
             id="use6024"
             y="134.765"
             x="252.82201"
             xlink:href="#textext-81d60986-7"
             width="1581.4545"
             height="204.30124" />
        </g>
        <g
           id="g6026"
           style="fill:#000000;fill-opacity:1">
          <use
             id="use6028"
             y="134.765"
             x="258.86899"
             xlink:href="#textext-81d60986-6"
             width="1581.4545"
             height="204.30124" />
        </g>
        <g
           id="g6030"
           style="fill:#000000;fill-opacity:1">
          <use
             id="use6032"
             y="134.765"
             x="263.29599"
             xlink:href="#textext-81d60986-7"
             width="1581.4545"
             height="204.30124" />
        </g>
        <g
           id="g6034"
           style="fill:#000000;fill-opacity:1">
          <use
             id="use6036"
             y="131.149"
             x="269.34299"
             xlink:href="#textext-81d60986-8"
             width="1581.4545"
             height="204.30124" />
        </g>
        <g
           id="g6038"
           style="fill:#000000;fill-opacity:1">
          <use
             id="use6040"
             y="134.765"
             x="272.138"
             xlink:href="#textext-81d60986-4"
             width="1581.4545"
             height="204.30124" />
        </g>
        <g
           id="g6042"
           style="fill:#000000;fill-opacity:1">
          <use
             id="use6044"
             y="134.765"
             x="276.013"
             xlink:href="#textext-81d60986-9"
             width="1581.4545"
             height="204.30124" />
        </g>
      </g>
    </g>
  </g>
</svg>
