<?xml version="1.0" encoding="UTF-8" standalone="no"?>
<!-- Created with Inkscape (http://www.inkscape.org/) -->

<svg
   xmlns:ns0="http://www.iki.fi/pav/software/textext/"
   xmlns:dc="http://purl.org/dc/elements/1.1/"
   xmlns:cc="http://creativecommons.org/ns#"
   xmlns:rdf="http://www.w3.org/1999/02/22-rdf-syntax-ns#"
   xmlns:svg="http://www.w3.org/2000/svg"
   xmlns="http://www.w3.org/2000/svg"
   xmlns:xlink="http://www.w3.org/1999/xlink"
   xmlns:sodipodi="http://sodipodi.sourceforge.net/DTD/sodipodi-0.dtd"
   xmlns:inkscape="http://www.inkscape.org/namespaces/inkscape"
   width="191.97391"
   height="191.23297"
   id="svg2"
   version="1.1"
   inkscape:version="0.48.3.1 r9886"
   sodipodi:docname="PanelDiagram.svg"
   inkscape:export-filename="/home/homer/public_html/research/codes/scuff-EM/reference/CubeExample/PanelDiagram.png"
   inkscape:export-xdpi="180.47"
   inkscape:export-ydpi="180.47">
  <sodipodi:namedview
     id="base"
     pagecolor="#ffffff"
     bordercolor="#666666"
     borderopacity="1.0"
     inkscape:pageopacity="0.0"
     inkscape:pageshadow="2"
     inkscape:zoom="2.8"
     inkscape:cx="95.330545"
     inkscape:cy="72.641153"
     inkscape:document-units="px"
     inkscape:current-layer="layer1"
     showgrid="true"
     gridtolerance="10"
     inkscape:window-width="1501"
     inkscape:window-height="975"
     inkscape:window-x="139"
     inkscape:window-y="38"
     inkscape:window-maximized="0"
     fit-margin-top="0"
     fit-margin-left="0"
     fit-margin-right="0"
     fit-margin-bottom="0"
     showguides="true"
     inkscape:guide-bbox="true">
    <inkscape:grid
       originy="-895.29226px"
       originx="-293.55131px"
       type="xygrid"
       id="grid2985"
       empspacing="5"
       visible="true"
       enabled="true"
       snapvisiblegridlinesonly="false"
       spacingx="5px"
       spacingy="5px" />
  </sodipodi:namedview>
  <defs
     id="defs4">
    <marker
       inkscape:stockid="Arrow2Send"
       orient="auto"
       refY="0.0"
       refX="0.0"
       id="Arrow2Send"
       style="overflow:visible;">
      <path
         id="path4516"
         style="fill-rule:evenodd;stroke-width:0.62500000;stroke-linejoin:round;"
         d="M 8.7185878,4.0337352 L -2.2072895,0.016013256 L 8.7185884,-4.0017078 C 6.9730900,-1.6296469 6.9831476,1.6157441 8.7185878,4.0337352 z "
         transform="scale(0.3) rotate(180) translate(-2.3,0)" />
    </marker>
    <marker
       style="overflow:visible"
       id="Arrow2Lend"
       refX="0"
       refY="0"
       orient="auto"
       inkscape:stockid="Arrow2Lend">
      <path
         transform="matrix(-1.1,0,0,-1.1,-1.1,0)"
         d="M 8.7185878,4.0337352 -2.2072895,0.01601326 8.7185884,-4.0017078 c -1.7454984,2.3720609 -1.7354408,5.6174519 -6e-7,8.035443 z"
         style="fill-rule:evenodd;stroke-width:0.625;stroke-linejoin:round"
         id="path4504"
         inkscape:connector-curvature="0" />
    </marker>
    <marker
       style="overflow:visible"
       id="Arrow2Mend"
       refX="0"
       refY="0"
       orient="auto"
       inkscape:stockid="Arrow2Mend">
      <path
         transform="scale(-0.6,-0.6)"
         d="M 8.7185878,4.0337352 -2.2072895,0.01601326 8.7185884,-4.0017078 c -1.7454984,2.3720609 -1.7354408,5.6174519 -6e-7,8.035443 z"
         style="fill-rule:evenodd;stroke-width:0.625;stroke-linejoin:round"
         id="path4510"
         inkscape:connector-curvature="0" />
    </marker>
    <marker
       style="overflow:visible"
       id="Arrow2Mstart"
       refX="0"
       refY="0"
       orient="auto"
       inkscape:stockid="Arrow2Mstart">
      <path
         transform="scale(0.6,0.6)"
         d="M 8.7185878,4.0337352 -2.2072895,0.01601326 8.7185884,-4.0017078 c -1.7454984,2.3720609 -1.7354408,5.6174519 -6e-7,8.035443 z"
         style="fill-rule:evenodd;stroke-width:0.625;stroke-linejoin:round"
         id="path4507"
         inkscape:connector-curvature="0" />
    </marker>
    <marker
       style="overflow:visible"
       id="Arrow1Lend"
       refX="0"
       refY="0"
       orient="auto"
       inkscape:stockid="Arrow1Lend">
      <path
         inkscape:connector-curvature="0"
         transform="matrix(-0.8,0,0,-0.8,-10,0)"
         style="fill-rule:evenodd;stroke:#000000;stroke-width:1pt"
         d="M 0,0 5,-5 -12.5,0 5,5 0,0 z"
         id="path3906" />
    </marker>
    <marker
       style="overflow:visible"
       id="Arrow1Mend"
       refX="0"
       refY="0"
       orient="auto"
       inkscape:stockid="Arrow1Mend">
      <path
         inkscape:connector-curvature="0"
         transform="matrix(-0.4,0,0,-0.4,-4,0)"
         style="fill-rule:evenodd;stroke:#000000;stroke-width:1pt"
         d="M 0,0 5,-5 -12.5,0 5,5 0,0 z"
         id="path3912" />
    </marker>
    <defs
       id="defs3541">
      <g
         id="g3543">
        <symbol
           style="overflow:visible"
           id="textext-780b9eb8-0"
           overflow="visible">
          <path
             inkscape:connector-curvature="0"
             id="path3546"
             d="m 0.15625,-0.984375 c -0.015625,0.03125 -0.046875,0.0625 -0.046875,0.09375 0,0.046875 0.0625,0.140625 0.125,0.140625 C 0.28125,-0.75 0.3125,-0.78125 0.59375,-1.0625 0.671875,-1.140625 0.875,-1.328125 0.953125,-1.40625 1.046875,-0.625 1.328125,0.125 2.0625,0.125 c 0.40625,0 0.75,-0.234375 0.953125,-0.390625 C 3.15625,-0.359375 3.625,-0.75 3.625,-0.84375 c 0,-0.03125 -0.03125,-0.125 -0.109375,-0.125 -0.03125,0 -0.046875,0.015625 -0.140625,0.09375 -0.640625,0.625 -1,0.78125 -1.296875,0.78125 -0.4375,0 -0.609375,-0.53125 -0.609375,-1.296875 0,-0.0625 0.03125,-0.515625 0.0625,-0.578125 C 1.546875,-2 1.546875,-2.015625 1.75,-2.21875 2.546875,-3.015625 3.96875,-4.703125 3.96875,-6.25 c 0,-0.171875 0,-0.78125 -0.59375,-0.78125 -0.828125,0 -1.5625,1.640625 -1.65625,1.875 -0.484375,1.09375 -0.796875,2.25 -0.796875,3.4375 z M 1.578125,-2.375 C 1.59375,-2.5 2.03125,-4.703125 2.59375,-5.875 c 0.265625,-0.53125 0.484375,-0.9375 0.796875,-0.9375 0.34375,0 0.34375,0.359375 0.34375,0.515625 0,1.671875 -1.6875,3.421875 -2.15625,3.921875 z m 0,0"
             style="stroke:none" />
        </symbol>
      </g>
    </defs>
  </defs>
  <metadata
     id="metadata7">
    <rdf:RDF>
      <cc:Work
         rdf:about="">
        <dc:format>image/svg+xml</dc:format>
        <dc:type
           rdf:resource="http://purl.org/dc/dcmitype/StillImage" />
        <dc:title></dc:title>
      </cc:Work>
    </rdf:RDF>
  </metadata>
  <g
     transform="translate(-293.55131,34.163046)"
     inkscape:label="Layer 1"
     inkscape:groupmode="layer"
     id="layer1">
    <path
       style="fill:none;stroke:#000000;stroke-width:1.05045152px;stroke-linecap:butt;stroke-linejoin:miter;stroke-opacity:1;marker-end:url(#Arrow1Lend)"
       d="m 324,126.36218 0,-160"
       id="path4529"
       inkscape:connector-curvature="0"
       sodipodi:nodetypes="cc" />
    <path
       sodipodi:nodetypes="cc"
       inkscape:connector-curvature="0"
       id="path3897"
       d="m 325,127.36218 160,0"
       style="fill:none;stroke:#000000;stroke-width:1.05045152px;stroke-linecap:butt;stroke-linejoin:miter;stroke-opacity:1;marker-end:url(#Arrow1Lend)" />
    <path
       inkscape:connector-curvature="0"
       id="path3791"
       d="m 324.5,27.862181 0,99.999999 100,-99.999999 z"
       style="fill:#c8c8c8;fill-opacity:1;stroke:#0000ff;stroke-width:4px;stroke-linecap:butt;stroke-linejoin:miter;stroke-opacity:1" />
    <path
       style="fill:#c8c8c8;fill-opacity:1;stroke:#0000ff;stroke-width:4px;stroke-linecap:butt;stroke-linejoin:miter;stroke-opacity:1"
       d="m 424.5,127.86218 -100,0 100,-99.999999 z"
       id="path3789"
       inkscape:connector-curvature="0" />
    <path
       transform="matrix(3.2680232,0,0,3.2680232,-801.00872,-124.95923)"
       d="m 377.07005,77.362183 c 0,1.143257 -0.92679,2.07005 -2.07005,2.07005 -1.14326,0 -2.07005,-0.926793 -2.07005,-2.07005 0,-1.143258 0.92679,-2.070051 2.07005,-2.070051 1.14326,0 2.07005,0.926793 2.07005,2.070051 z"
       sodipodi:ry="2.0700505"
       sodipodi:rx="2.0700505"
       sodipodi:cy="77.362183"
       sodipodi:cx="375"
       id="path3779"
       style="fill:#ff0000;fill-opacity:1;stroke:none"
       sodipodi:type="arc" />
    <path
       transform="matrix(3.2680232,0,0,3.2680232,-901.00872,-224.95923)"
       d="m 377.07005,77.362183 c 0,1.143257 -0.92679,2.07005 -2.07005,2.07005 -1.14326,0 -2.07005,-0.926793 -2.07005,-2.07005 0,-1.143258 0.92679,-2.070051 2.07005,-2.070051 1.14326,0 2.07005,0.926793 2.07005,2.070051 z"
       sodipodi:ry="2.0700505"
       sodipodi:rx="2.0700505"
       sodipodi:cy="77.362183"
       sodipodi:cx="375"
       id="path3781"
       style="fill:#ff0000;fill-opacity:1;stroke:none"
       sodipodi:type="arc" />
    <path
       sodipodi:type="arc"
       style="fill:#ff0000;fill-opacity:1;stroke:none"
       id="path3783"
       sodipodi:cx="375"
       sodipodi:cy="77.362183"
       sodipodi:rx="2.0700505"
       sodipodi:ry="2.0700505"
       d="m 377.07005,77.362183 c 0,1.143257 -0.92679,2.07005 -2.07005,2.07005 -1.14326,0 -2.07005,-0.926793 -2.07005,-2.07005 0,-1.143258 0.92679,-2.070051 2.07005,-2.070051 1.14326,0 2.07005,0.926793 2.07005,2.070051 z"
       transform="matrix(3.2680232,0,0,3.2680232,-801.00872,-224.95923)" />
    <path
       sodipodi:type="arc"
       style="fill:#ff0000;fill-opacity:1;stroke:none"
       id="path2999"
       sodipodi:cx="375"
       sodipodi:cy="77.362183"
       sodipodi:rx="2.0700505"
       sodipodi:ry="2.0700505"
       d="m 377.07005,77.362183 c 0,1.143257 -0.92679,2.07005 -2.07005,2.07005 -1.14326,0 -2.07005,-0.926793 -2.07005,-2.07005 0,-1.143258 0.92679,-2.070051 2.07005,-2.070051 1.14326,0 2.07005,0.926793 2.07005,2.070051 z"
       transform="matrix(3.2680232,0,0,3.2680232,-901.00872,-124.95923)" />
    <g
       transform="matrix(2,0,0,2,-78.830444,-123.35875)"
       ns0:text="$L$"
       ns0:preamble=""
       id="g3833">
      <defs
         id="defs3835">
        <g
           id="g3837">
          <symbol
             style="overflow:visible"
             overflow="visible"
             id="textext-0a75d87c-0">
            <path
               inkscape:connector-curvature="0"
               style="stroke:none"
               d=""
               id="path3840" />
          </symbol>
          <symbol
             style="overflow:visible"
             overflow="visible"
             id="textext-0a75d87c-1">
            <path
               inkscape:connector-curvature="0"
               style="stroke:none"
               d="M 3.734375,-6.03125 C 3.8125,-6.390625 3.84375,-6.5 4.78125,-6.5 c 0.296875,0 0.375,0 0.375,-0.1875 0,-0.125 -0.109375,-0.125 -0.15625,-0.125 -0.328125,0 -1.140625,0.03125 -1.46875,0.03125 -0.296875,0 -1.03125,-0.03125 -1.328125,-0.03125 -0.0625,0 -0.1875,0 -0.1875,0.203125 0,0.109375 0.09375,0.109375 0.28125,0.109375 0.015625,0 0.203125,0 0.375,0.015625 0.171875,0.03125 0.265625,0.03125 0.265625,0.171875 0,0.03125 0,0.0625 -0.03125,0.1875 L 1.5625,-0.78125 c -0.09375,0.390625 -0.109375,0.46875 -0.90625,0.46875 -0.171875,0 -0.265625,0 -0.265625,0.203125 C 0.390625,0 0.484375,0 0.65625,0 l 4.625,0 C 5.515625,0 5.515625,0 5.578125,-0.171875 L 6.375,-2.328125 c 0.03125,-0.109375 0.03125,-0.125 0.03125,-0.140625 0,-0.03125 -0.03125,-0.109375 -0.109375,-0.109375 -0.09375,0 -0.109375,0.0625 -0.171875,0.21875 -0.34375,0.90625 -0.78125,2.046875 -2.5,2.046875 l -0.9375,0 c -0.140625,0 -0.171875,0 -0.21875,0 -0.109375,-0.015625 -0.140625,-0.03125 -0.140625,-0.109375 0,-0.03125 0,-0.046875 0.046875,-0.21875 z"
               id="path3843" />
          </symbol>
        </g>
      </defs>
      <g
         id="textext-0a75d87c-2">
        <g
           style="fill:#000000;fill-opacity:1"
           id="g3846">
          <use
             height="1052.3622"
             width="744.09448"
             xlink:href="#textext-0a75d87c-1"
             x="223.43201"
             y="134.765"
             id="use3848" />
        </g>
      </g>
    </g>
    <g
       id="g3871"
       ns0:preamble=""
       ns0:text="$L$"
       transform="matrix(2,0,0,2,-143.83044,-184.35875)">
      <defs
         id="defs3873">
        <g
           id="g3875">
          <symbol
             id="symbol3877"
             overflow="visible"
             style="overflow:visible">
            <path
               id="path3879"
               d=""
               style="stroke:none"
               inkscape:connector-curvature="0" />
          </symbol>
          <symbol
             id="symbol3881"
             overflow="visible"
             style="overflow:visible">
            <path
               id="path3883"
               d="M 3.734375,-6.03125 C 3.8125,-6.390625 3.84375,-6.5 4.78125,-6.5 c 0.296875,0 0.375,0 0.375,-0.1875 0,-0.125 -0.109375,-0.125 -0.15625,-0.125 -0.328125,0 -1.140625,0.03125 -1.46875,0.03125 -0.296875,0 -1.03125,-0.03125 -1.328125,-0.03125 -0.0625,0 -0.1875,0 -0.1875,0.203125 0,0.109375 0.09375,0.109375 0.28125,0.109375 0.015625,0 0.203125,0 0.375,0.015625 0.171875,0.03125 0.265625,0.03125 0.265625,0.171875 0,0.03125 0,0.0625 -0.03125,0.1875 L 1.5625,-0.78125 c -0.09375,0.390625 -0.109375,0.46875 -0.90625,0.46875 -0.171875,0 -0.265625,0 -0.265625,0.203125 C 0.390625,0 0.484375,0 0.65625,0 l 4.625,0 C 5.515625,0 5.515625,0 5.578125,-0.171875 L 6.375,-2.328125 c 0.03125,-0.109375 0.03125,-0.125 0.03125,-0.140625 0,-0.03125 -0.03125,-0.109375 -0.109375,-0.109375 -0.09375,0 -0.109375,0.0625 -0.171875,0.21875 -0.34375,0.90625 -0.78125,2.046875 -2.5,2.046875 l -0.9375,0 c -0.140625,0 -0.171875,0 -0.21875,0 -0.109375,-0.015625 -0.140625,-0.03125 -0.140625,-0.109375 0,-0.03125 0,-0.046875 0.046875,-0.21875 z"
               style="stroke:none"
               inkscape:connector-curvature="0" />
          </symbol>
        </g>
      </defs>
      <g
         id="g3885">
        <g
           id="g3887"
           style="fill:#000000;fill-opacity:1">
          <use
             id="use3889"
             y="134.765"
             x="223.43201"
             xlink:href="#textext-0a75d87c-1"
             width="744.09448"
             height="1052.3622" />
        </g>
      </g>
    </g>
    <g
       id="g4569"
       ns0:preamble=""
       ns0:text="$x$"
       transform="matrix(2,0,0,2,13.25,-125.41907)">
      <defs
         id="defs4571">
        <g
           id="g4573">
          <symbol
             id="textext-a9a45495-0"
             overflow="visible"
             style="overflow:visible">
            <path
               id="path4576"
               d=""
               style="stroke:none"
               inkscape:connector-curvature="0" />
          </symbol>
          <symbol
             id="textext-a9a45495-1"
             overflow="visible"
             style="overflow:visible">
            <path
               id="path4579"
               d="M 3.328125,-3.015625 C 3.390625,-3.265625 3.625,-4.1875 4.3125,-4.1875 c 0.046875,0 0.296875,0 0.5,0.125 C 4.53125,-4 4.34375,-3.765625 4.34375,-3.515625 c 0,0.15625 0.109375,0.34375 0.375,0.34375 0.21875,0 0.53125,-0.171875 0.53125,-0.578125 0,-0.515625 -0.578125,-0.65625 -0.921875,-0.65625 -0.578125,0 -0.921875,0.53125 -1.046875,0.75 -0.25,-0.65625 -0.78125,-0.75 -1.078125,-0.75 -1.03125,0 -1.609375,1.28125 -1.609375,1.53125 0,0.109375 0.109375,0.109375 0.125,0.109375 0.078125,0 0.109375,-0.03125 0.125,-0.109375 0.34375,-1.0625 1,-1.3125 1.34375,-1.3125 0.1875,0 0.53125,0.09375 0.53125,0.671875 0,0.3125 -0.171875,0.96875 -0.53125,2.375 -0.15625,0.609375 -0.515625,1.03125 -0.953125,1.03125 -0.0625,0 -0.28125,0 -0.5,-0.125 0.25,-0.0625 0.46875,-0.265625 0.46875,-0.546875 0,-0.265625 -0.21875,-0.34375 -0.359375,-0.34375 -0.3125,0 -0.546875,0.25 -0.546875,0.578125 0,0.453125 0.484375,0.65625 0.921875,0.65625 0.671875,0 1.03125,-0.703125 1.046875,-0.75 0.125,0.359375 0.484375,0.75 1.078125,0.75 1.03125,0 1.59375,-1.28125 1.59375,-1.53125 0,-0.109375 -0.078125,-0.109375 -0.109375,-0.109375 -0.09375,0 -0.109375,0.046875 -0.140625,0.109375 -0.328125,1.078125 -1,1.3125 -1.3125,1.3125 -0.390625,0 -0.546875,-0.3125 -0.546875,-0.65625 0,-0.21875 0.046875,-0.4375 0.15625,-0.875 z"
               style="stroke:none"
               inkscape:connector-curvature="0" />
          </symbol>
        </g>
      </defs>
      <g
         id="textext-a9a45495-2">
        <g
           id="g4582"
           style="fill:#000000;fill-opacity:1">
          <use
             id="use4584"
             y="134.765"
             x="223.43201"
             xlink:href="#textext-a9a45495-1"
             width="744.09448"
             height="1052.3622" />
        </g>
      </g>
    </g>
    <g
       ns0:text="$y$"
       ns0:preamble=""
       transform="matrix(2,0,0,2,-138.75,-277.41907)"
       id="g4700">
      <defs
         id="defs4702">
        <g
           id="g4704">
          <symbol
             style="overflow:visible"
             overflow="visible"
             id="textext-129d527c-0">
            <path
               inkscape:connector-curvature="0"
               style="stroke:none"
               d=""
               id="path4707" />
          </symbol>
          <symbol
             style="overflow:visible"
             overflow="visible"
             id="textext-129d527c-1">
            <path
               inkscape:connector-curvature="0"
               style="stroke:none"
               d="m 4.84375,-3.796875 c 0.046875,-0.140625 0.046875,-0.15625 0.046875,-0.234375 0,-0.171875 -0.140625,-0.265625 -0.296875,-0.265625 -0.09375,0 -0.25,0.0625 -0.34375,0.203125 -0.015625,0.0625 -0.109375,0.359375 -0.140625,0.546875 -0.078125,0.25 -0.140625,0.53125 -0.203125,0.796875 l -0.453125,1.796875 c -0.03125,0.140625 -0.46875,0.84375 -1.125,0.84375 -0.5,0 -0.609375,-0.4375 -0.609375,-0.8125 C 1.71875,-1.375 1.890625,-2 2.21875,-2.875 2.375,-3.28125 2.421875,-3.390625 2.421875,-3.59375 c 0,-0.4375 -0.3125,-0.8125 -0.8125,-0.8125 -0.953125,0 -1.3125,1.453125 -1.3125,1.53125 0,0.109375 0.09375,0.109375 0.109375,0.109375 0.109375,0 0.109375,-0.03125 0.15625,-0.1875 0.28125,-0.9375 0.671875,-1.234375 1.015625,-1.234375 0.078125,0 0.25,0 0.25,0.3125 0,0.25 -0.109375,0.515625 -0.171875,0.703125 -0.40625,1.0625 -0.578125,1.625 -0.578125,2.09375 0,0.890625 0.625,1.1875 1.21875,1.1875 0.390625,0 0.71875,-0.171875 1,-0.453125 -0.125,0.515625 -0.25,1.015625 -0.640625,1.546875 -0.265625,0.328125 -0.640625,0.625 -1.09375,0.625 -0.140625,0 -0.59375,-0.03125 -0.765625,-0.421875 0.15625,0 0.296875,0 0.421875,-0.125 C 1.328125,1.203125 1.421875,1.0625 1.421875,0.875 1.421875,0.5625 1.15625,0.53125 1.0625,0.53125 0.828125,0.53125 0.5,0.6875 0.5,1.171875 c 0,0.5 0.4375,0.875 1.0625,0.875 1.015625,0 2.046875,-0.90625 2.328125,-2.03125 z"
               id="path4710" />
          </symbol>
        </g>
      </defs>
      <g
         id="textext-129d527c-2">
        <g
           style="fill:#000000;fill-opacity:1"
           id="g4713">
          <use
             height="1052.3622"
             width="744.09448"
             xlink:href="#textext-129d527c-1"
             x="223.43201"
             y="134.765"
             id="use4715" />
        </g>
      </g>
    </g>
    <g
       id="g3093"
       ns0:preamble=""
       ns0:text="$\\mathcal{P}_0$"
       transform="matrix(2,0,0,2,-73.619305,-156.67517)">
      <defs
         id="defs3095">
        <g
           id="g3097">
          <symbol
             id="textext-d5d1919e-0"
             overflow="visible"
             style="overflow:visible">
            <path
               id="path3100"
               d="m 3.46875,-6.8125 c -1.40625,0 -2.46875,0.6875 -2.875,1.15625 -0.359375,0.390625 -0.390625,0.6875 -0.390625,0.703125 0,0.0625 0.046875,0.078125 0.109375,0.078125 0.15625,0 0.390625,-0.140625 0.46875,-0.1875 0.203125,-0.140625 0.234375,-0.203125 0.296875,-0.390625 0.140625,-0.40625 0.421875,-0.75 1.671875,-0.8125 -0.171875,2.25 -0.78125,4.4375 -1.609375,6.515625 -0.0625,0.15625 -0.0625,0.171875 -0.0625,0.171875 0,0.03125 0.03125,0.078125 0.09375,0.078125 0.15625,0 0.640625,-0.21875 0.75,-0.484375 0.515625,-1.21875 1.34375,-3.5 1.640625,-6.28125 l 0.515625,0 c 1.21875,0 2.375,0.46875 2.375,1.46875 0,0.75 -0.71875,2.140625 -2.640625,2.203125 -0.21875,0.015625 -0.328125,0.015625 -0.609375,0.1875 -0.171875,0.125 -0.25,0.234375 -0.25,0.296875 0,0.0625 0.0625,0.0625 0.1875,0.0625 1.8125,0 4.171875,-1.53125 4.171875,-3.171875 0,-1.140625 -1.34375,-1.59375 -2.5,-1.59375 z m 0,0"
               style="stroke:none"
               inkscape:connector-curvature="0" />
          </symbol>
          <symbol
             id="textext-d5d1919e-1"
             overflow="visible"
             style="overflow:visible">
            <path
               id="path3103"
               d="M 3.59375,-2.21875 C 3.59375,-2.984375 3.5,-3.546875 3.1875,-4.03125 2.96875,-4.34375 2.53125,-4.625 1.984375,-4.625 c -1.625,0 -1.625,1.90625 -1.625,2.40625 0,0.5 0,2.359375 1.625,2.359375 1.609375,0 1.609375,-1.859375 1.609375,-2.359375 z M 1.984375,-0.0625 c -0.328125,0 -0.75,-0.1875 -0.890625,-0.75 C 1,-1.21875 1,-1.796875 1,-2.3125 1,-2.828125 1,-3.359375 1.09375,-3.734375 1.25,-4.28125 1.6875,-4.4375 1.984375,-4.4375 c 0.375,0 0.734375,0.234375 0.859375,0.640625 0.109375,0.375 0.125,0.875 0.125,1.484375 0,0.515625 0,1.03125 -0.09375,1.46875 -0.140625,0.640625 -0.609375,0.78125 -0.890625,0.78125 z m 0,0"
               style="stroke:none"
               inkscape:connector-curvature="0" />
          </symbol>
        </g>
      </defs>
      <g
         id="textext-d5d1919e-2">
        <g
           id="g3106"
           style="fill:#000000;fill-opacity:1">
          <use
             id="use3108"
             y="134.765"
             x="223.43201"
             xlink:href="#textext-d5d1919e-0"
             width="183.10225"
             height="183.72614" />
        </g>
        <g
           id="g3110"
           style="fill:#000000;fill-opacity:1">
          <use
             id="use3112"
             y="136.259"
             x="230.362"
             xlink:href="#textext-d5d1919e-1"
             width="183.10225"
             height="183.72614" />
        </g>
      </g>
    </g>
    <g
       ns0:text="$\\mathcal{P}_1$"
       ns0:preamble=""
       transform="matrix(2,0,0,2,-89.6193,-216.67517)"
       id="g3276">
      <defs
         id="defs3278">
        <g
           id="g3280">
          <symbol
             style="overflow:visible"
             overflow="visible"
             id="textext-a9abd260-0">
            <path
               inkscape:connector-curvature="0"
               style="stroke:none"
               d="m 3.46875,-6.8125 c -1.40625,0 -2.46875,0.6875 -2.875,1.15625 -0.359375,0.390625 -0.390625,0.6875 -0.390625,0.703125 0,0.0625 0.046875,0.078125 0.109375,0.078125 0.15625,0 0.390625,-0.140625 0.46875,-0.1875 0.203125,-0.140625 0.234375,-0.203125 0.296875,-0.390625 0.140625,-0.40625 0.421875,-0.75 1.671875,-0.8125 -0.171875,2.25 -0.78125,4.4375 -1.609375,6.515625 -0.0625,0.15625 -0.0625,0.171875 -0.0625,0.171875 0,0.03125 0.03125,0.078125 0.09375,0.078125 0.15625,0 0.640625,-0.21875 0.75,-0.484375 0.515625,-1.21875 1.34375,-3.5 1.640625,-6.28125 l 0.515625,0 c 1.21875,0 2.375,0.46875 2.375,1.46875 0,0.75 -0.71875,2.140625 -2.640625,2.203125 -0.21875,0.015625 -0.328125,0.015625 -0.609375,0.1875 -0.171875,0.125 -0.25,0.234375 -0.25,0.296875 0,0.0625 0.0625,0.0625 0.1875,0.0625 1.8125,0 4.171875,-1.53125 4.171875,-3.171875 0,-1.140625 -1.34375,-1.59375 -2.5,-1.59375 z m 0,0"
               id="path3283" />
          </symbol>
          <symbol
             style="overflow:visible"
             overflow="visible"
             id="textext-a9abd260-1">
            <path
               inkscape:connector-curvature="0"
               style="stroke:none"
               d="m 2.328125,-4.4375 c 0,-0.1875 0,-0.1875 -0.203125,-0.1875 -0.453125,0.4375 -1.078125,0.4375 -1.359375,0.4375 l 0,0.25 c 0.15625,0 0.625,0 1,-0.1875 l 0,3.546875 c 0,0.234375 0,0.328125 -0.6875,0.328125 l -0.265625,0 0,0.25 c 0.125,0 0.984375,-0.03125 1.234375,-0.03125 0.21875,0 1.09375,0.03125 1.25,0.03125 l 0,-0.25 -0.265625,0 c -0.703125,0 -0.703125,-0.09375 -0.703125,-0.328125 z m 0,0"
               id="path3286" />
          </symbol>
        </g>
      </defs>
      <g
         id="textext-a9abd260-2">
        <g
           style="fill:#000000;fill-opacity:1"
           id="g3289">
          <use
             height="183.72614"
             width="183.10225"
             xlink:href="#textext-a9abd260-0"
             x="223.43201"
             y="134.765"
             id="use3291" />
        </g>
        <g
           style="fill:#000000;fill-opacity:1"
           id="g3293">
          <use
             height="183.72614"
             width="183.10225"
             xlink:href="#textext-a9abd260-1"
             x="230.362"
             y="136.259"
             id="use3295" />
        </g>
      </g>
    </g>
    <g
       id="g3767"
       transform="matrix(2,0,0,2,-28.59395,-116.33508)"
       ns0:preamble=""
       ns0:text="$\\mathbf{Q}^+$">
      <defs
         id="defs3769">
        <g
           id="g3771">
          <symbol
             id="symbol3773"
             overflow="visible"
             style="overflow:visible">
            <path
               id="path3775"
               d="m 5.90625,-0.171875 c 1.625,-0.640625 2.0625,-2.125 2.0625,-3.203125 0,-2.15625 -1.453125,-3.578125 -3.65625,-3.578125 -2.28125,0 -3.671875,1.484375 -3.671875,3.578125 0,2.03125 1.359375,3.484375 3.671875,3.484375 0.21875,0 0.546875,-0.015625 0.9375,-0.09375 0.28125,1.125 0.484375,1.921875 1.40625,1.921875 1.015625,0 1.375,-1.1875 1.375,-1.859375 0,-0.078125 0,-0.25 -0.1875,-0.25 -0.140625,0 -0.171875,0.125 -0.171875,0.1875 -0.0625,0.390625 -0.6875,0.390625 -0.859375,0.390625 -0.21875,0 -0.515625,0 -0.90625,-0.578125 z m -2.546875,-0.34375 c -1.21875,-0.578125 -1.25,-2.09375 -1.25,-2.875 0,-0.390625 0,-1.34375 0.359375,-2.046875 0.515625,-0.96875 1.375,-1.109375 1.828125,-1.109375 0.53125,0 1.3125,0.203125 1.796875,1.046875 0.375,0.671875 0.40625,1.515625 0.40625,2.109375 0,0.5625 0,2.046875 -0.953125,2.703125 -0.21875,-0.328125 -0.578125,-0.859375 -1.25,-0.859375 -0.515625,0 -0.96875,0.34375 -0.96875,0.8125 0,0.0625 0.015625,0.171875 0.03125,0.21875 z m 1.765625,0.0625 c -0.25,0.109375 -0.546875,0.15625 -0.8125,0.15625 -0.546875,0 -0.625,-0.3125 -0.625,-0.4375 C 3.6875,-1 3.984375,-1.1875 4.3125,-1.1875 c 0.265625,0 0.609375,0.109375 0.8125,0.734375 z m 0,0"
               style="stroke:none"
               inkscape:connector-curvature="0" />
          </symbol>
          <symbol
             id="symbol3777"
             overflow="visible"
             style="overflow:visible">
            <path
               id="path3780"
               d="m 3.21875,-1.578125 2.140625,0 c 0.09375,0 0.25,0 0.25,-0.15625 0,-0.1875 -0.15625,-0.1875 -0.25,-0.1875 l -2.140625,0 0,-2.140625 c 0,-0.078125 0,-0.25 -0.15625,-0.25 -0.171875,0 -0.171875,0.15625 -0.171875,0.25 l 0,2.140625 -2.140625,0 c -0.09375,0 -0.265625,0 -0.265625,0.171875 0,0.171875 0.15625,0.171875 0.265625,0.171875 l 2.140625,0 0,2.140625 c 0,0.09375 0,0.265625 0.15625,0.265625 0.171875,0 0.171875,-0.171875 0.171875,-0.265625 z m 0,0"
               style="stroke:none"
               inkscape:connector-curvature="0" />
          </symbol>
        </g>
      </defs>
      <g
         id="g3782">
        <g
           id="g3784"
           style="fill:#000000;fill-opacity:1">
          <use
             id="use3786"
             y="134.765"
             x="223.43201"
             xlink:href="#textext-c078fd46-0"
             width="183.10225"
             height="183.72614" />
        </g>
        <g
           id="g3788"
           style="fill:#000000;fill-opacity:1">
          <use
             id="use3790"
             y="131.149"
             x="232.039"
             xlink:href="#textext-c078fd46-1"
             width="183.10225"
             height="183.72614" />
        </g>
      </g>
    </g>
    <g
       id="g3886"
       transform="matrix(2,0,0,2,-154.59395,-244.33508)"
       ns0:preamble=""
       ns0:text="$\\mathbf{Q}^-$">
      <defs
         id="defs3888">
        <g
           id="g3890">
          <symbol
             style="overflow:visible"
             id="textext-b7a3e151-0"
             overflow="visible">
            <path
               inkscape:connector-curvature="0"
               id="path3893"
               d="m 5.90625,-0.171875 c 1.625,-0.640625 2.0625,-2.125 2.0625,-3.203125 0,-2.15625 -1.453125,-3.578125 -3.65625,-3.578125 -2.28125,0 -3.671875,1.484375 -3.671875,3.578125 0,2.03125 1.359375,3.484375 3.671875,3.484375 0.21875,0 0.546875,-0.015625 0.9375,-0.09375 0.28125,1.125 0.484375,1.921875 1.40625,1.921875 1.015625,0 1.375,-1.1875 1.375,-1.859375 0,-0.078125 0,-0.25 -0.1875,-0.25 -0.140625,0 -0.171875,0.125 -0.171875,0.1875 -0.0625,0.390625 -0.6875,0.390625 -0.859375,0.390625 -0.21875,0 -0.515625,0 -0.90625,-0.578125 z m -2.546875,-0.34375 c -1.21875,-0.578125 -1.25,-2.09375 -1.25,-2.875 0,-0.390625 0,-1.34375 0.359375,-2.046875 0.515625,-0.96875 1.375,-1.109375 1.828125,-1.109375 0.53125,0 1.3125,0.203125 1.796875,1.046875 0.375,0.671875 0.40625,1.515625 0.40625,2.109375 0,0.5625 0,2.046875 -0.953125,2.703125 -0.21875,-0.328125 -0.578125,-0.859375 -1.25,-0.859375 -0.515625,0 -0.96875,0.34375 -0.96875,0.8125 0,0.0625 0.015625,0.171875 0.03125,0.21875 z m 1.765625,0.0625 c -0.25,0.109375 -0.546875,0.15625 -0.8125,0.15625 -0.546875,0 -0.625,-0.3125 -0.625,-0.4375 C 3.6875,-1 3.984375,-1.1875 4.3125,-1.1875 c 0.265625,0 0.609375,0.109375 0.8125,0.734375 z m 0,0"
               style="stroke:none" />
          </symbol>
          <symbol
             style="overflow:visible"
             id="textext-b7a3e151-1"
             overflow="visible">
            <path
               inkscape:connector-curvature="0"
               id="path3896"
               d="m 5.1875,-1.578125 c 0.109375,0 0.28125,0 0.28125,-0.15625 0,-0.1875 -0.171875,-0.1875 -0.28125,-0.1875 l -4.15625,0 c -0.109375,0 -0.28125,0 -0.28125,0.171875 0,0.171875 0.15625,0.171875 0.28125,0.171875 z m 0,0"
               style="stroke:none" />
          </symbol>
        </g>
      </defs>
      <g
         id="textext-b7a3e151-2">
        <g
           id="g3899"
           style="fill:#000000;fill-opacity:1">
          <use
             height="183.72614"
             width="183.10225"
             id="use3901"
             y="134.765"
             x="223.43201"
             xlink:href="#textext-b7a3e151-0" />
        </g>
        <g
           id="g3903"
           style="fill:#000000;fill-opacity:1">
          <use
             height="183.72614"
             width="183.10225"
             id="use3905"
             y="131.149"
             x="232.039"
             xlink:href="#textext-b7a3e151-1" />
        </g>
      </g>
    </g>
    <g
       ns0:text="$\\mathbf{Q}^+$"
       ns0:preamble=""
       transform="matrix(2,0,0,2,-28.59395,-116.33508)"
       id="g4141">
      <defs
         id="defs4143">
        <g
           id="g4145">
          <symbol
             style="overflow:visible"
             overflow="visible"
             id="textext-c078fd46-0">
            <path
               inkscape:connector-curvature="0"
               style="stroke:none"
               d="m 5.90625,-0.171875 c 1.625,-0.640625 2.0625,-2.125 2.0625,-3.203125 0,-2.15625 -1.453125,-3.578125 -3.65625,-3.578125 -2.28125,0 -3.671875,1.484375 -3.671875,3.578125 0,2.03125 1.359375,3.484375 3.671875,3.484375 0.21875,0 0.546875,-0.015625 0.9375,-0.09375 0.28125,1.125 0.484375,1.921875 1.40625,1.921875 1.015625,0 1.375,-1.1875 1.375,-1.859375 0,-0.078125 0,-0.25 -0.1875,-0.25 -0.140625,0 -0.171875,0.125 -0.171875,0.1875 -0.0625,0.390625 -0.6875,0.390625 -0.859375,0.390625 -0.21875,0 -0.515625,0 -0.90625,-0.578125 z m -2.546875,-0.34375 c -1.21875,-0.578125 -1.25,-2.09375 -1.25,-2.875 0,-0.390625 0,-1.34375 0.359375,-2.046875 0.515625,-0.96875 1.375,-1.109375 1.828125,-1.109375 0.53125,0 1.3125,0.203125 1.796875,1.046875 0.375,0.671875 0.40625,1.515625 0.40625,2.109375 0,0.5625 0,2.046875 -0.953125,2.703125 -0.21875,-0.328125 -0.578125,-0.859375 -1.25,-0.859375 -0.515625,0 -0.96875,0.34375 -0.96875,0.8125 0,0.0625 0.015625,0.171875 0.03125,0.21875 z m 1.765625,0.0625 c -0.25,0.109375 -0.546875,0.15625 -0.8125,0.15625 -0.546875,0 -0.625,-0.3125 -0.625,-0.4375 C 3.6875,-1 3.984375,-1.1875 4.3125,-1.1875 c 0.265625,0 0.609375,0.109375 0.8125,0.734375 z m 0,0"
               id="path4148" />
          </symbol>
          <symbol
             style="overflow:visible"
             overflow="visible"
             id="textext-c078fd46-1">
            <path
               inkscape:connector-curvature="0"
               style="stroke:none"
               d="m 3.21875,-1.578125 2.140625,0 c 0.09375,0 0.25,0 0.25,-0.15625 0,-0.1875 -0.15625,-0.1875 -0.25,-0.1875 l -2.140625,0 0,-2.140625 c 0,-0.078125 0,-0.25 -0.15625,-0.25 -0.171875,0 -0.171875,0.15625 -0.171875,0.25 l 0,2.140625 -2.140625,0 c -0.09375,0 -0.265625,0 -0.265625,0.171875 0,0.171875 0.15625,0.171875 0.265625,0.171875 l 2.140625,0 0,2.140625 c 0,0.09375 0,0.265625 0.15625,0.265625 0.171875,0 0.171875,-0.171875 0.171875,-0.265625 z m 0,0"
               id="path4151" />
          </symbol>
        </g>
      </defs>
      <g
         id="textext-c078fd46-2">
        <g
           style="fill:#000000;fill-opacity:1"
           id="g4154">
          <use
             height="183.72614"
             width="183.10225"
             xlink:href="#textext-c078fd46-0"
             x="223.43201"
             y="134.765"
             id="use4156" />
        </g>
        <g
           style="fill:#000000;fill-opacity:1"
           id="g4158">
          <use
             height="183.72614"
             width="183.10225"
             xlink:href="#textext-c078fd46-1"
             x="232.039"
             y="131.149"
             id="use4160" />
        </g>
      </g>
    </g>
    <g
       ns0:text="$\\mathbf{Q}^-$"
       ns0:preamble=""
       transform="matrix(2,0,0,2,-154.59395,-244.33508)"
       id="g3095">
      <defs
         id="defs3097">
        <g
           id="g3099">
          <symbol
             overflow="visible"
             id="symbol3101"
             style="overflow:visible">
            <path
               style="stroke:none"
               d="m 5.90625,-0.171875 c 1.625,-0.640625 2.0625,-2.125 2.0625,-3.203125 0,-2.15625 -1.453125,-3.578125 -3.65625,-3.578125 -2.28125,0 -3.671875,1.484375 -3.671875,3.578125 0,2.03125 1.359375,3.484375 3.671875,3.484375 0.21875,0 0.546875,-0.015625 0.9375,-0.09375 0.28125,1.125 0.484375,1.921875 1.40625,1.921875 1.015625,0 1.375,-1.1875 1.375,-1.859375 0,-0.078125 0,-0.25 -0.1875,-0.25 -0.140625,0 -0.171875,0.125 -0.171875,0.1875 -0.0625,0.390625 -0.6875,0.390625 -0.859375,0.390625 -0.21875,0 -0.515625,0 -0.90625,-0.578125 z m -2.546875,-0.34375 c -1.21875,-0.578125 -1.25,-2.09375 -1.25,-2.875 0,-0.390625 0,-1.34375 0.359375,-2.046875 0.515625,-0.96875 1.375,-1.109375 1.828125,-1.109375 0.53125,0 1.3125,0.203125 1.796875,1.046875 0.375,0.671875 0.40625,1.515625 0.40625,2.109375 0,0.5625 0,2.046875 -0.953125,2.703125 -0.21875,-0.328125 -0.578125,-0.859375 -1.25,-0.859375 -0.515625,0 -0.96875,0.34375 -0.96875,0.8125 0,0.0625 0.015625,0.171875 0.03125,0.21875 z m 1.765625,0.0625 c -0.25,0.109375 -0.546875,0.15625 -0.8125,0.15625 -0.546875,0 -0.625,-0.3125 -0.625,-0.4375 C 3.6875,-1 3.984375,-1.1875 4.3125,-1.1875 c 0.265625,0 0.609375,0.109375 0.8125,0.734375 z m 0,0"
               id="path3104"
               inkscape:connector-curvature="0" />
          </symbol>
          <symbol
             overflow="visible"
             id="symbol3106"
             style="overflow:visible">
            <path
               style="stroke:none"
               d="m 5.1875,-1.578125 c 0.109375,0 0.28125,0 0.28125,-0.15625 0,-0.1875 -0.171875,-0.1875 -0.28125,-0.1875 l -4.15625,0 c -0.109375,0 -0.28125,0 -0.28125,0.171875 0,0.171875 0.15625,0.171875 0.28125,0.171875 z m 0,0"
               id="path3108"
               inkscape:connector-curvature="0" />
          </symbol>
        </g>
      </defs>
      <g
         id="g3111">
        <g
           style="fill:#000000;fill-opacity:1"
           id="g3113">
          <use
             xlink:href="#textext-b7a3e151-0"
             x="223.43201"
             y="134.765"
             id="use3115"
             width="183.10225"
             height="183.72614" />
        </g>
        <g
           style="fill:#000000;fill-opacity:1"
           id="g3117">
          <use
             xlink:href="#textext-b7a3e151-1"
             x="232.039"
             y="131.149"
             id="use3119"
             width="183.10225"
             height="183.72614" />
        </g>
      </g>
    </g>
    <g
       id="g3251"
       ns0:preamble=""
       ns0:text="$O$"
       transform="matrix(2,0,0,2,-144.42857,-122.14286)">
      <defs
         id="defs3253">
        <g
           id="g3255">
          <symbol
             id="textext-e14d8e65-0"
             overflow="visible"
             style="overflow:visible">
            <path
               id="path3258"
               d="m 7.375,-4.34375 c 0,-1.609375 -1.0625,-2.6875 -2.546875,-2.6875 -2.140625,0 -4.34375,2.265625 -4.34375,4.59375 0,1.65625 1.125,2.65625 2.5625,2.65625 2.109375,0 4.328125,-2.1875 4.328125,-4.5625 z m -4.28125,4.296875 c -0.984375,0 -1.671875,-0.796875 -1.671875,-2.109375 0,-0.453125 0.140625,-1.90625 0.90625,-3.0625 0.6875,-1.046875 1.65625,-1.5625 2.453125,-1.5625 0.8125,0 1.703125,0.5625 1.703125,2.046875 0,0.71875 -0.265625,2.265625 -1.25,3.5 C 4.75,-0.625 3.9375,-0.046875 3.09375,-0.046875 z m 0,0"
               style="stroke:none"
               inkscape:connector-curvature="0" />
          </symbol>
        </g>
      </defs>
      <g
         id="textext-e14d8e65-1">
        <g
           id="g3261"
           style="fill:#000000;fill-opacity:1">
          <use
             id="use3263"
             y="134.765"
             x="223.43201"
             xlink:href="#textext-e14d8e65-0"
             width="191.97391"
             height="191.23297" />
        </g>
      </g>
    </g>
    <g
       id="textext-780b9eb8-1"
       transform="matrix(2,0,0,2,-98.85714,-178)">
      <g
         id="g3549"
         style="fill:#000000;fill-opacity:1">
        <use
           id="use3551"
           y="134.765"
           x="223.43201"
           xlink:href="#textext-780b9eb8-0"
           width="191.97391"
           height="191.23297" />
      </g>
    </g>
    <path
       style="fill:none;stroke:#000000;stroke-width:2;stroke-linecap:butt;stroke-linejoin:miter;stroke-opacity:1;marker-start:none;marker-end:url(#Arrow2Mend);stroke-miterlimit:4;stroke-dasharray:none"
       d="m 387,89.362174 -25,-25"
       id="path3697"
       inkscape:connector-curvature="0"
       sodipodi:nodetypes="cc" />
    <g
       id="g5650"
       ns0:preamble=""
       ns0:text="$\\mathbf{b}_0$"
       transform="matrix(2,0,0,2,-57.857143,-183.78571)">
      <defs
         id="defs5652">
        <g
           id="g5654">
          <symbol
             id="textext-46908b9c-0"
             overflow="visible"
             style="overflow:visible">
            <path
               id="path5657"
               d="m 2.140625,-4 0,-2.921875 -1.765625,0.078125 0,0.46875 c 0.609375,0 0.6875,0 0.6875,0.390625 L 1.0625,0 1.53125,0 2.015625,-0.5625 c 0.078125,0.078125 0.5625,0.625 1.453125,0.625 1.484375,0 2.515625,-0.90625 2.515625,-2.28125 0,-1.328125 -0.9375,-2.265625 -2.390625,-2.265625 C 2.875,-4.484375 2.375,-4.203125 2.140625,-4 z m 0.046875,3.015625 0,-2.5 C 2.46875,-3.84375 2.9375,-4.125 3.484375,-4.125 c 1.21875,0 1.21875,1.203125 1.21875,1.90625 0,0.46875 0,1.015625 -0.25,1.40625 -0.296875,0.40625 -0.75,0.515625 -1.078125,0.515625 -0.6875,0 -1.078125,-0.546875 -1.1875,-0.6875 z m 0,0"
               style="stroke:none"
               inkscape:connector-curvature="0" />
          </symbol>
          <symbol
             id="textext-46908b9c-1"
             overflow="visible"
             style="overflow:visible">
            <path
               id="path5660"
               d="M 3.59375,-2.21875 C 3.59375,-2.984375 3.5,-3.546875 3.1875,-4.03125 2.96875,-4.34375 2.53125,-4.625 1.984375,-4.625 c -1.625,0 -1.625,1.90625 -1.625,2.40625 0,0.5 0,2.359375 1.625,2.359375 1.609375,0 1.609375,-1.859375 1.609375,-2.359375 z M 1.984375,-0.0625 c -0.328125,0 -0.75,-0.1875 -0.890625,-0.75 C 1,-1.21875 1,-1.796875 1,-2.3125 1,-2.828125 1,-3.359375 1.09375,-3.734375 1.25,-4.28125 1.6875,-4.4375 1.984375,-4.4375 c 0.375,0 0.734375,0.234375 0.859375,0.640625 0.109375,0.375 0.125,0.875 0.125,1.484375 0,0.515625 0,1.03125 -0.09375,1.46875 -0.140625,0.640625 -0.609375,0.78125 -0.890625,0.78125 z m 0,0"
               style="stroke:none"
               inkscape:connector-curvature="0" />
          </symbol>
        </g>
      </defs>
      <g
         id="textext-46908b9c-2">
        <g
           id="g5663"
           style="fill:#000000;fill-opacity:1">
          <use
             id="use5665"
             y="134.765"
             x="223.43201"
             xlink:href="#textext-46908b9c-0"
             width="191.97391"
             height="191.23297" />
        </g>
        <g
           id="g5667"
           style="fill:#000000;fill-opacity:1">
          <use
             id="use5669"
             y="136.259"
             x="229.797"
             xlink:href="#textext-46908b9c-1"
             width="191.97391"
             height="191.23297" />
        </g>
      </g>
    </g>
  </g>
</svg>
