<?xml version="1.0" encoding="UTF-8" standalone="no"?>
<!-- Created with Inkscape (http://www.inkscape.org/) -->

<svg
   xmlns:ns0="http://www.iki.fi/pav/software/textext/"
   xmlns:dc="http://purl.org/dc/elements/1.1/"
   xmlns:cc="http://creativecommons.org/ns#"
   xmlns:rdf="http://www.w3.org/1999/02/22-rdf-syntax-ns#"
   xmlns:svg="http://www.w3.org/2000/svg"
   xmlns="http://www.w3.org/2000/svg"
   xmlns:xlink="http://www.w3.org/1999/xlink"
   xmlns:sodipodi="http://sodipodi.sourceforge.net/DTD/sodipodi-0.dtd"
   xmlns:inkscape="http://www.inkscape.org/namespaces/inkscape"
   width="352.75064mm"
   height="233.36874mm"
   viewBox="0 0 1249.9039 826.89714"
   id="svg2"
   version="1.1"
   inkscape:version="0.91 r"
   sodipodi:docname="CoatedSphere.svg">
  <sodipodi:namedview
     id="base"
     pagecolor="#ffffff"
     bordercolor="#666666"
     borderopacity="1.0"
     inkscape:pageopacity="0.0"
     inkscape:pageshadow="2"
     inkscape:zoom="0.90079145"
     inkscape:cx="389.61468"
     inkscape:cy="479.94728"
     inkscape:document-units="px"
     inkscape:current-layer="layer1"
     showgrid="true"
     inkscape:window-width="3200"
     inkscape:window-height="1714"
     inkscape:window-x="0"
     inkscape:window-y="0"
     inkscape:window-maximized="1"
     fit-margin-top="0"
     fit-margin-left="0"
     fit-margin-right="0"
     fit-margin-bottom="0"
     inkscape:snap-global="true">
    <inkscape:grid
       type="xygrid"
       id="grid4136"
       spacingx="10"
       spacingy="10"
       originx="776.81602"
       originy="-163.06039" />
  </sodipodi:namedview>
  <defs
     id="defs4">
    <marker
       inkscape:isstock="true"
       style="overflow:visible"
       id="marker8016"
       refX="0"
       refY="0"
       orient="auto"
       inkscape:stockid="Arrow2Lend">
      <path
         transform="matrix(-1.1,0,0,-1.1,-1.1,0)"
         d="M 8.7185878,4.0337352 -2.2072895,0.01601326 8.7185884,-4.0017078 c -1.7454984,2.3720609 -1.7354408,5.6174519 -6e-7,8.035443 z"
         style="fill:#000000;fill-opacity:1;fill-rule:evenodd;stroke:#000000;stroke-width:0.625;stroke-linejoin:round;stroke-opacity:1"
         id="path8018"
         inkscape:connector-curvature="0" />
    </marker>
    <marker
       inkscape:stockid="Arrow2Lstart"
       orient="auto"
       refY="0"
       refX="0"
       id="marker8006"
       style="overflow:visible"
       inkscape:isstock="true">
      <path
         inkscape:connector-curvature="0"
         id="path8008"
         style="fill:#000000;fill-opacity:1;fill-rule:evenodd;stroke:#000000;stroke-width:0.625;stroke-linejoin:round;stroke-opacity:1"
         d="M 8.7185878,4.0337352 -2.2072895,0.01601326 8.7185884,-4.0017078 c -1.7454984,2.3720609 -1.7354408,5.6174519 -6e-7,8.035443 z"
         transform="matrix(1.1,0,0,1.1,1.1,0)" />
    </marker>
    <marker
       inkscape:stockid="Arrow2Lstart"
       orient="auto"
       refY="0"
       refX="0"
       id="marker7966"
       style="overflow:visible"
       inkscape:isstock="true">
      <path
         id="path7968"
         style="fill:#000000;fill-opacity:1;fill-rule:evenodd;stroke:#000000;stroke-width:0.625;stroke-linejoin:round;stroke-opacity:1"
         d="M 8.7185878,4.0337352 -2.2072895,0.01601326 8.7185884,-4.0017078 c -1.7454984,2.3720609 -1.7354408,5.6174519 -6e-7,8.035443 z"
         transform="matrix(1.1,0,0,1.1,1.1,0)"
         inkscape:connector-curvature="0" />
    </marker>
    <marker
       inkscape:collect="always"
       inkscape:isstock="true"
       style="overflow:visible"
       id="marker4378"
       refX="0"
       refY="0"
       orient="auto"
       inkscape:stockid="Arrow2Lstart">
      <path
         transform="matrix(1.1,0,0,1.1,1.1,0)"
         d="M 8.7185878,4.0337352 -2.2072895,0.01601326 8.7185884,-4.0017078 c -1.7454984,2.3720609 -1.7354408,5.6174519 -6e-7,8.035443 z"
         style="fill:#000000;fill-opacity:1;fill-rule:evenodd;stroke:#000000;stroke-width:0.625;stroke-linejoin:round;stroke-opacity:1"
         id="path4380"
         inkscape:connector-curvature="0" />
    </marker>
    <marker
       inkscape:collect="always"
       inkscape:isstock="true"
       style="overflow:visible"
       id="marker14119"
       refX="0"
       refY="0"
       orient="auto"
       inkscape:stockid="Arrow2Lstart">
      <path
         inkscape:connector-curvature="0"
         transform="matrix(1.1,0,0,1.1,1.1,0)"
         d="M 8.7185878,4.0337352 -2.2072895,0.01601326 8.7185884,-4.0017078 c -1.7454984,2.3720609 -1.7354408,5.6174519 -6e-7,8.035443 z"
         style="fill:#000000;fill-opacity:1;fill-rule:evenodd;stroke:#000000;stroke-width:0.625;stroke-linejoin:round;stroke-opacity:1"
         id="path14121" />
    </marker>
    <marker
       inkscape:isstock="true"
       style="overflow:visible"
       id="marker13509"
       refX="0"
       refY="0"
       orient="auto"
       inkscape:stockid="Arrow2Lstart">
      <path
         inkscape:connector-curvature="0"
         transform="matrix(1.1,0,0,1.1,1.1,0)"
         d="M 8.7185878,4.0337352 -2.2072895,0.01601326 8.7185884,-4.0017078 c -1.7454984,2.3720609 -1.7354408,5.6174519 -6e-7,8.035443 z"
         style="fill:#000000;fill-opacity:1;fill-rule:evenodd;stroke:#000000;stroke-width:0.625;stroke-linejoin:round;stroke-opacity:1"
         id="path13511" />
    </marker>
    <marker
       inkscape:collect="always"
       inkscape:stockid="Arrow2Lend"
       orient="auto"
       refY="0"
       refX="0"
       id="marker75506"
       style="overflow:visible"
       inkscape:isstock="true">
      <path
         inkscape:connector-curvature="0"
         id="path75508"
         style="fill:#000000;fill-opacity:1;fill-rule:evenodd;stroke:#000000;stroke-width:0.625;stroke-linejoin:round;stroke-opacity:1"
         d="M 8.7185878,4.0337352 -2.2072895,0.01601326 8.7185884,-4.0017078 c -1.7454984,2.3720609 -1.7354408,5.6174519 -6e-7,8.035443 z"
         transform="matrix(-1.1,0,0,-1.1,-1.1,0)" />
    </marker>
    <marker
       inkscape:collect="always"
       inkscape:stockid="Arrow2Lstart"
       orient="auto"
       refY="0"
       refX="0"
       id="marker75496"
       style="overflow:visible"
       inkscape:isstock="true">
      <path
         inkscape:connector-curvature="0"
         id="path75498"
         style="fill:#000000;fill-opacity:1;fill-rule:evenodd;stroke:#000000;stroke-width:0.625;stroke-linejoin:round;stroke-opacity:1"
         d="M 8.7185878,4.0337352 -2.2072895,0.01601326 8.7185884,-4.0017078 c -1.7454984,2.3720609 -1.7354408,5.6174519 -6e-7,8.035443 z"
         transform="matrix(1.1,0,0,1.1,1.1,0)" />
    </marker>
    <marker
       inkscape:isstock="true"
       style="overflow:visible"
       id="marker72477"
       refX="0"
       refY="0"
       orient="auto"
       inkscape:stockid="Arrow1Lend">
      <path
         inkscape:connector-curvature="0"
         transform="matrix(-0.8,0,0,-0.8,-10,0)"
         style="fill:#000000;fill-opacity:1;fill-rule:evenodd;stroke:#000000;stroke-width:1pt;stroke-opacity:1"
         d="M 0,0 5,-5 -12.5,0 5,5 0,0 Z"
         id="path72479" />
    </marker>
    <marker
       inkscape:stockid="Arrow1Lend"
       orient="auto"
       refY="0"
       refX="0"
       id="marker21849"
       style="overflow:visible"
       inkscape:isstock="true">
      <path
         id="path21851"
         d="M 0,0 5,-5 -12.5,0 5,5 0,0 Z"
         style="fill:#000000;fill-opacity:1;fill-rule:evenodd;stroke:#000000;stroke-width:1pt;stroke-opacity:1"
         transform="matrix(-0.8,0,0,-0.8,-10,0)"
         inkscape:connector-curvature="0" />
    </marker>
    <marker
       inkscape:isstock="true"
       style="overflow:visible"
       id="marker7902"
       refX="0"
       refY="0"
       orient="auto"
       inkscape:stockid="Arrow1Lend">
      <path
         transform="matrix(-0.8,0,0,-0.8,-10,0)"
         style="fill:#000000;fill-opacity:1;fill-rule:evenodd;stroke:#000000;stroke-width:1pt;stroke-opacity:1"
         d="M 0,0 5,-5 -12.5,0 5,5 0,0 Z"
         id="path7904"
         inkscape:connector-curvature="0" />
    </marker>
    <marker
       inkscape:stockid="Arrow1Lend"
       orient="auto"
       refY="0"
       refX="0"
       id="marker5896"
       style="overflow:visible"
       inkscape:isstock="true">
      <path
         id="path5898"
         d="M 0,0 5,-5 -12.5,0 5,5 0,0 Z"
         style="fill:#000000;fill-opacity:1;fill-rule:evenodd;stroke:#000000;stroke-width:1pt;stroke-opacity:1"
         transform="matrix(-0.8,0,0,-0.8,-10,0)"
         inkscape:connector-curvature="0" />
    </marker>
    <marker
       inkscape:stockid="Arrow1Lend"
       orient="auto"
       refY="0"
       refX="0"
       id="marker5362"
       style="overflow:visible"
       inkscape:isstock="true">
      <path
         id="path5364"
         d="M 0,0 5,-5 -12.5,0 5,5 0,0 Z"
         style="fill:#000000;fill-opacity:1;fill-rule:evenodd;stroke:#000000;stroke-width:1pt;stroke-opacity:1"
         transform="matrix(-0.8,0,0,-0.8,-10,0)"
         inkscape:connector-curvature="0" />
    </marker>
    <marker
       inkscape:isstock="true"
       style="overflow:visible"
       id="marker4954"
       refX="0"
       refY="0"
       orient="auto"
       inkscape:stockid="Arrow1Lend">
      <path
         transform="matrix(-0.8,0,0,-0.8,-10,0)"
         style="fill:#000000;fill-opacity:1;fill-rule:evenodd;stroke:#000000;stroke-width:1pt;stroke-opacity:1"
         d="M 0,0 5,-5 -12.5,0 5,5 0,0 Z"
         id="path4956"
         inkscape:connector-curvature="0" />
    </marker>
  </defs>
  <metadata
     id="metadata7">
    <rdf:RDF>
      <cc:Work
         rdf:about="">
        <dc:format>image/svg+xml</dc:format>
        <dc:type
           rdf:resource="http://purl.org/dc/dcmitype/StillImage" />
        <dc:title></dc:title>
      </cc:Work>
    </rdf:RDF>
  </metadata>
  <g
     inkscape:label="Layer 1"
     inkscape:groupmode="layer"
     id="layer1"
     transform="translate(776.81596,-62.404682)">
    <g
       id="g72405"
       transform="matrix(3.1201608,0,0,3.1201607,-793.95166,-161.79854)"
       ns0:preamble="/home/homer/misc/HRCommands.tex"
       ns0:text="$z=T\\subt{C}$">
      <defs
         id="defs72407">
        <g
           id="g72409">
          <symbol
             id="symbol72411"
             overflow="visible"
             style="overflow:visible">
            <path
               id="path72413"
               d=""
               style="stroke:none"
               inkscape:connector-curvature="0" />
          </symbol>
          <symbol
             id="symbol72415"
             overflow="visible"
             style="overflow:visible">
            <path
               id="path72417"
               d="m 1.328125,-0.828125 c 0.53125,-0.578125 0.828125,-0.828125 1.1875,-1.140625 0,0 0.609375,-0.53125 0.96875,-0.890625 C 4.4375,-3.78125 4.65625,-4.265625 4.65625,-4.3125 c 0,-0.09375 -0.09375,-0.09375 -0.109375,-0.09375 -0.078125,0 -0.09375,0.015625 -0.15625,0.109375 -0.296875,0.484375 -0.5,0.640625 -0.734375,0.640625 -0.25,0 -0.359375,-0.15625 -0.515625,-0.328125 -0.1875,-0.21875 -0.359375,-0.421875 -0.6875,-0.421875 -0.75,0 -1.203125,0.921875 -1.203125,1.140625 0,0.046875 0.03125,0.109375 0.109375,0.109375 0.09375,0 0.109375,-0.046875 0.140625,-0.109375 0.1875,-0.46875 0.765625,-0.46875 0.84375,-0.46875 0.203125,0 0.390625,0.0625 0.625,0.140625 0.40625,0.15625 0.515625,0.15625 0.765625,0.15625 -0.359375,0.421875 -1.1875,1.140625 -1.375,1.296875 l -0.90625,0.84375 C 0.78125,-0.625 0.421875,-0.0625 0.421875,0.015625 c 0,0.09375 0.109375,0.09375 0.125,0.09375 0.078125,0 0.09375,-0.015625 0.15625,-0.125 0.234375,-0.359375 0.53125,-0.625 0.859375,-0.625 0.21875,0 0.328125,0.09375 0.578125,0.375 0.15625,0.21875 0.34375,0.375 0.625,0.375 1,0 1.578125,-1.265625 1.578125,-1.53125 0,-0.046875 -0.046875,-0.109375 -0.125,-0.109375 -0.09375,0 -0.109375,0.0625 -0.140625,0.140625 C 3.84375,-0.75 3.203125,-0.5625 2.875,-0.5625 c -0.1875,0 -0.375,-0.0625 -0.578125,-0.125 -0.34375,-0.125 -0.5,-0.171875 -0.703125,-0.171875 -0.015625,0 -0.171875,0 -0.265625,0.03125 z m 0,0"
               style="stroke:none"
               inkscape:connector-curvature="0" />
          </symbol>
          <symbol
             id="symbol72419"
             overflow="visible"
             style="overflow:visible">
            <path
               id="path72421"
               d="m 4.25,-6.046875 c 0.078125,-0.28125 0.109375,-0.34375 0.234375,-0.375 0.09375,-0.015625 0.421875,-0.015625 0.625,-0.015625 1.015625,0 1.453125,0.03125 1.453125,0.8125 0,0.15625 -0.03125,0.546875 -0.078125,0.796875 0,0.046875 -0.03125,0.15625 -0.03125,0.1875 0,0.0625 0.03125,0.140625 0.125,0.140625 0.109375,0 0.125,-0.078125 0.15625,-0.234375 L 7,-6.46875 C 7.015625,-6.515625 7.015625,-6.609375 7.015625,-6.640625 7.015625,-6.75 6.921875,-6.75 6.75,-6.75 l -5.53125,0 c -0.234375,0 -0.25,0.015625 -0.328125,0.203125 l -0.59375,1.75 c 0,0.015625 -0.0625,0.15625 -0.0625,0.1875 0,0.046875 0.0625,0.109375 0.125,0.109375 0.09375,0 0.109375,-0.0625 0.171875,-0.21875 C 1.0625,-6.265625 1.328125,-6.4375 2.796875,-6.4375 l 0.390625,0 c 0.28125,0 0.28125,0.03125 0.28125,0.125 0,0.046875 -0.03125,0.171875 -0.046875,0.203125 L 2.09375,-0.78125 C 2,-0.421875 1.96875,-0.3125 0.90625,-0.3125 c -0.359375,0 -0.421875,0 -0.421875,0.1875 C 0.484375,0 0.59375,0 0.65625,0 c 0.265625,0 0.546875,-0.015625 0.8125,-0.015625 0.28125,0 0.578125,-0.015625 0.859375,-0.015625 0.28125,0 0.546875,0.015625 0.828125,0.015625 C 3.4375,-0.015625 3.734375,0 4.015625,0 c 0.09375,0 0.21875,0 0.21875,-0.203125 0,-0.109375 -0.078125,-0.109375 -0.34375,-0.109375 -0.234375,0 -0.375,0 -0.625,-0.015625 -0.296875,-0.03125 -0.375,-0.0625 -0.375,-0.21875 0,-0.015625 0,-0.0625 0.046875,-0.203125 z m 0,0"
               style="stroke:none"
               inkscape:connector-curvature="0" />
          </symbol>
          <symbol
             id="symbol72423"
             overflow="visible"
             style="overflow:visible">
            <path
               id="path72425"
               d=""
               style="stroke:none"
               inkscape:connector-curvature="0" />
          </symbol>
          <symbol
             id="symbol72427"
             overflow="visible"
             style="overflow:visible">
            <path
               id="path72429"
               d="m 6.84375,-3.265625 c 0.15625,0 0.34375,0 0.34375,-0.1875 C 7.1875,-3.65625 7,-3.65625 6.859375,-3.65625 l -5.96875,0 c -0.140625,0 -0.328125,0 -0.328125,0.203125 0,0.1875 0.1875,0.1875 0.328125,0.1875 z m 0.015625,1.9375 c 0.140625,0 0.328125,0 0.328125,-0.203125 0,-0.1875 -0.1875,-0.1875 -0.34375,-0.1875 l -5.953125,0 c -0.140625,0 -0.328125,0 -0.328125,0.1875 0,0.203125 0.1875,0.203125 0.328125,0.203125 z m 0,0"
               style="stroke:none"
               inkscape:connector-curvature="0" />
          </symbol>
          <symbol
             id="symbol72431"
             overflow="visible"
             style="overflow:visible">
            <path
               id="path72433"
               d=""
               style="stroke:none"
               inkscape:connector-curvature="0" />
          </symbol>
          <symbol
             id="symbol72435"
             overflow="visible"
             style="overflow:visible">
            <path
               id="path72437"
               d="m 4.28125,-3.375 c 0,-0.078125 0,-0.140625 -0.078125,-0.140625 -0.046875,0 -0.0625,0.015625 -0.09375,0.0625 l -0.296875,0.375 c -0.296875,-0.25 -0.6875,-0.4375 -1.171875,-0.4375 -1.203125,0 -2.15625,0.828125 -2.15625,1.8125 0,0.984375 0.953125,1.8125 2.15625,1.8125 0.96875,0 1.640625,-0.609375 1.640625,-1.28125 0,-0.078125 -0.015625,-0.09375 -0.09375,-0.09375 -0.0625,0 -0.109375,0 -0.109375,0.078125 C 4.03125,-0.421875 3.3125,-0.109375 2.734375,-0.109375 2.03125,-0.109375 1.0625,-0.5 1.0625,-1.703125 c 0,-1.1875 0.9375,-1.59375 1.65625,-1.59375 0.453125,0 1.1875,0.234375 1.34375,1.171875 0.015625,0.0625 0.078125,0.0625 0.109375,0.0625 0.109375,0 0.109375,-0.046875 0.109375,-0.140625 z m 0,0"
               style="stroke:none"
               inkscape:connector-curvature="0" />
          </symbol>
        </g>
      </defs>
      <g
         id="g72439">
        <g
           id="g72441"
           style="fill:#000000;fill-opacity:1">
          <use
             id="use72443"
             y="134.765"
             x="223.43201"
             xlink:href="#textext-a56202db-1"
             width="100%"
             height="100%" />
        </g>
        <g
           id="g72445"
           style="fill:#000000;fill-opacity:1">
          <use
             id="use72447"
             y="134.765"
             x="231.271"
             xlink:href="#textext-a56202db-4"
             width="100%"
             height="100%" />
        </g>
        <g
           id="g72449"
           style="fill:#000000;fill-opacity:1">
          <use
             id="use72451"
             y="134.765"
             x="241.787"
             xlink:href="#textext-a56202db-2"
             width="100%"
             height="100%" />
        </g>
        <g
           id="g72453"
           style="fill:#000000;fill-opacity:1">
          <use
             id="use72455"
             y="136.259"
             x="247.60899"
             xlink:href="#textext-a56202db-6"
             width="100%"
             height="100%" />
        </g>
      </g>
    </g>
    <ellipse
       cy="452.36221"
       cx="-450"
       id="path5262"
       style="opacity:1;fill:#00ffff;fill-opacity:1;stroke:#000000;stroke-width:0.83584309;stroke-miterlimit:4;stroke-dasharray:none;stroke-dashoffset:0;stroke-opacity:1"
       rx="326.39804"
       ry="325.56009" />
    <circle
       style="opacity:1;fill:#dcdcdc;fill-opacity:1;stroke:#000000;stroke-width:0.53351194;stroke-miterlimit:4;stroke-dasharray:none;stroke-dashoffset:0;stroke-opacity:1"
       id="circle5264"
       cx="-450"
       cy="452.36221"
       r="208.06966" />
    <g
       id="g53985"
       transform="matrix(6.0803108,0,0,6.0803108,-1883.011,-611.77484)"
       ns0:preamble="/home/homer/misc/HRCommands.tex"
       ns0:text="$\\epsilon\\subt{C}, \\mu\\subt{C}$">
      <defs
         id="defs53987">
        <g
           id="g53989">
          <symbol
             id="textext-f95562b3-0"
             overflow="visible"
             style="overflow:visible">
            <path
               id="path53992"
               d=""
               style="stroke:none"
               inkscape:connector-curvature="0" />
          </symbol>
          <symbol
             id="textext-f95562b3-1"
             overflow="visible"
             style="overflow:visible">
            <path
               id="path53995"
               d="m 2.96875,-2.25 c 0.15625,0 0.34375,0 0.34375,-0.171875 0,-0.140625 -0.125,-0.140625 -0.296875,-0.140625 l -1.609375,0 c 0.234375,-0.84375 0.796875,-1.421875 1.703125,-1.421875 l 0.3125,0 c 0.171875,0 0.328125,0 0.328125,-0.171875 0,-0.140625 -0.125,-0.140625 -0.296875,-0.140625 l -0.359375,0 c -1.296875,0 -2.625,1 -2.625,2.515625 0,1.109375 0.75,1.890625 1.796875,1.890625 0.65625,0 1.296875,-0.40625 1.296875,-0.515625 0,-0.015625 0,-0.125 -0.09375,-0.125 -0.015625,0 -0.046875,0 -0.125,0.046875 -0.3125,0.203125 -0.6875,0.375 -1.046875,0.375 -0.578125,0 -1.078125,-0.421875 -1.078125,-1.296875 0,-0.34375 0.078125,-0.734375 0.109375,-0.84375 z m 0,0"
               style="stroke:none"
               inkscape:connector-curvature="0" />
          </symbol>
          <symbol
             id="textext-f95562b3-2"
             overflow="visible"
             style="overflow:visible">
            <path
               id="path53998"
               d="m 2.03125,-0.015625 c 0,-0.65625 -0.25,-1.046875 -0.640625,-1.046875 -0.328125,0 -0.53125,0.25 -0.53125,0.53125 C 0.859375,-0.265625 1.0625,0 1.390625,0 1.5,0 1.640625,-0.046875 1.734375,-0.125 1.765625,-0.15625 1.78125,-0.15625 1.78125,-0.15625 c 0.015625,0 0.015625,0 0.015625,0.140625 0,0.75 -0.34375,1.34375 -0.671875,1.671875 -0.109375,0.109375 -0.109375,0.125 -0.109375,0.15625 0,0.078125 0.046875,0.109375 0.09375,0.109375 0.109375,0 0.921875,-0.765625 0.921875,-1.9375 z m 0,0"
               style="stroke:none"
               inkscape:connector-curvature="0" />
          </symbol>
          <symbol
             id="textext-f95562b3-3"
             overflow="visible"
             style="overflow:visible">
            <path
               id="path54001"
               d="m 2.296875,-3.5 c 0.0625,-0.203125 0.15625,-0.59375 0.15625,-0.640625 0,-0.171875 -0.125,-0.265625 -0.296875,-0.265625 -0.015625,0 -0.296875,0.015625 -0.390625,0.359375 l -1.4375,5.765625 c -0.03125,0.125 -0.03125,0.140625 -0.03125,0.171875 0,0.140625 0.109375,0.265625 0.28125,0.265625 0.203125,0 0.328125,-0.1875 0.34375,-0.21875 C 0.96875,1.859375 1.09375,1.328125 1.46875,-0.203125 1.796875,0.0625 2.25,0.109375 2.4375,0.109375 c 0.703125,0 1.09375,-0.453125 1.328125,-0.734375 0.09375,0.453125 0.46875,0.734375 0.90625,0.734375 0.34375,0 0.578125,-0.234375 0.734375,-0.546875 0.171875,-0.359375 0.296875,-0.96875 0.296875,-0.984375 0,-0.109375 -0.09375,-0.109375 -0.125,-0.109375 -0.09375,0 -0.109375,0.046875 -0.140625,0.1875 -0.15625,0.640625 -0.34375,1.234375 -0.75,1.234375 -0.265625,0 -0.296875,-0.265625 -0.296875,-0.453125 0,-0.21875 0.109375,-0.6875 0.1875,-1.046875 L 4.859375,-2.6875 C 4.890625,-2.828125 5,-3.203125 5.03125,-3.359375 5.078125,-3.59375 5.1875,-3.96875 5.1875,-4.03125 c 0,-0.171875 -0.140625,-0.265625 -0.296875,-0.265625 -0.046875,0 -0.3125,0.015625 -0.390625,0.34375 l -0.46875,1.875 c -0.109375,0.5 -0.21875,0.90625 -0.25,1.015625 -0.015625,0.046875 -0.484375,0.953125 -1.296875,0.953125 -0.5,0 -0.734375,-0.328125 -0.734375,-0.875 0,-0.28125 0.0625,-0.5625 0.140625,-0.84375 z m 0,0"
               style="stroke:none"
               inkscape:connector-curvature="0" />
          </symbol>
          <symbol
             id="textext-f95562b3-4"
             overflow="visible"
             style="overflow:visible">
            <path
               id="path54004"
               d=""
               style="stroke:none"
               inkscape:connector-curvature="0" />
          </symbol>
          <symbol
             id="textext-f95562b3-5"
             overflow="visible"
             style="overflow:visible">
            <path
               id="path54007"
               d="m 4.28125,-3.375 c 0,-0.078125 0,-0.140625 -0.078125,-0.140625 -0.046875,0 -0.0625,0.015625 -0.09375,0.0625 l -0.296875,0.375 c -0.296875,-0.25 -0.6875,-0.4375 -1.171875,-0.4375 -1.203125,0 -2.15625,0.828125 -2.15625,1.8125 0,0.984375 0.953125,1.8125 2.15625,1.8125 0.96875,0 1.640625,-0.609375 1.640625,-1.28125 0,-0.078125 -0.015625,-0.09375 -0.09375,-0.09375 -0.0625,0 -0.109375,0 -0.109375,0.078125 C 4.03125,-0.421875 3.3125,-0.109375 2.734375,-0.109375 2.03125,-0.109375 1.0625,-0.5 1.0625,-1.703125 c 0,-1.1875 0.9375,-1.59375 1.65625,-1.59375 0.453125,0 1.1875,0.234375 1.34375,1.171875 0.015625,0.0625 0.078125,0.0625 0.109375,0.0625 0.109375,0 0.109375,-0.046875 0.109375,-0.140625 z m 0,0"
               style="stroke:none"
               inkscape:connector-curvature="0" />
          </symbol>
        </g>
      </defs>
      <g
         id="textext-f95562b3-6">
        <g
           id="g54010"
           style="fill:#000000;fill-opacity:1">
          <use
             id="use54012"
             y="134.765"
             x="223.43201"
             xlink:href="#textext-f95562b3-1"
             width="100%"
             height="100%" />
        </g>
        <g
           id="g54014"
           style="fill:#000000;fill-opacity:1">
          <use
             id="use54016"
             y="136.259"
             x="227.476"
             xlink:href="#textext-f95562b3-5"
             width="100%"
             height="100%" />
        </g>
        <g
           id="g54018"
           style="fill:#000000;fill-opacity:1">
          <use
             id="use54020"
             y="134.765"
             x="232.748"
             xlink:href="#textext-f95562b3-2"
             width="100%"
             height="100%" />
        </g>
        <g
           id="g54022"
           style="fill:#000000;fill-opacity:1">
          <use
             id="use54024"
             y="134.765"
             x="237.17937"
             xlink:href="#textext-f95562b3-3"
             width="100%"
             height="100%" />
        </g>
        <g
           id="g54026"
           style="fill:#000000;fill-opacity:1">
          <use
             id="use54028"
             y="136.259"
             x="243.179"
             xlink:href="#textext-f95562b3-5"
             width="100%"
             height="100%" />
        </g>
      </g>
    </g>
    <path
       style="fill:none;fill-rule:evenodd;stroke:#000000;stroke-width:2;stroke-linecap:butt;stroke-linejoin:miter;stroke-miterlimit:4;stroke-dasharray:none;stroke-opacity:1;marker-start:url(#marker75496)"
       d="M -399.72275,651.21302 -455,438.48568 l 0,7.51256"
       id="path75462"
       inkscape:connector-curvature="0"
       sodipodi:nodetypes="ccc" />
    <path
       sodipodi:nodetypes="ccc"
       inkscape:connector-curvature="0"
       id="path14117"
       d="M -657.84254,700.03114 -455,438.48568 l 0,7.51256"
       style="fill:none;fill-rule:evenodd;stroke:#000000;stroke-width:2;stroke-linecap:butt;stroke-linejoin:miter;stroke-miterlimit:4;stroke-dasharray:none;stroke-opacity:1;marker-start:url(#marker14119)" />
    <g
       ns0:text="$R\\subt{C}$"
       ns0:preamble="/home/homer/misc/HRCommands.tex"
       transform="matrix(5.5275552,0,0,5.527555,-1936.8899,-89.82917)"
       id="g15570">
      <defs
         id="defs15572">
        <g
           id="g15574">
          <symbol
             style="overflow:visible"
             overflow="visible"
             id="textext-d072640a-0">
            <path
               inkscape:connector-curvature="0"
               style="stroke:none"
               d=""
               id="path15577" />
          </symbol>
          <symbol
             style="overflow:visible"
             overflow="visible"
             id="textext-d072640a-1">
            <path
               inkscape:connector-curvature="0"
               style="stroke:none"
               d="m 3.734375,-6.125 c 0.0625,-0.234375 0.09375,-0.328125 0.28125,-0.359375 C 4.109375,-6.5 4.421875,-6.5 4.625,-6.5 c 0.703125,0 1.8125,0 1.8125,0.984375 0,0.34375 -0.15625,1.03125 -0.546875,1.421875 -0.265625,0.25 -0.78125,0.578125 -1.6875,0.578125 l -1.109375,0 z m 1.4375,2.734375 c 1.015625,-0.21875 2.1875,-0.921875 2.1875,-1.921875 0,-0.859375 -0.890625,-1.5 -2.203125,-1.5 l -2.828125,0 c -0.203125,0 -0.296875,0 -0.296875,0.203125 C 2.03125,-6.5 2.125,-6.5 2.3125,-6.5 c 0.015625,0 0.203125,0 0.375,0.015625 0.1875,0.03125 0.265625,0.03125 0.265625,0.171875 0,0.03125 0,0.0625 -0.03125,0.1875 l -1.34375,5.34375 C 1.484375,-0.390625 1.46875,-0.3125 0.671875,-0.3125 0.5,-0.3125 0.40625,-0.3125 0.40625,-0.109375 0.40625,0 0.53125,0 0.546875,0 c 0.28125,0 0.984375,-0.03125 1.25,-0.03125 0.28125,0 1,0.03125 1.28125,0.03125 0.078125,0 0.1875,0 0.1875,-0.203125 0,-0.109375 -0.078125,-0.109375 -0.28125,-0.109375 -0.359375,0 -0.640625,0 -0.640625,-0.171875 0,-0.0625 0.015625,-0.109375 0.03125,-0.171875 l 0.65625,-2.640625 1.1875,0 c 0.90625,0 1.078125,0.5625 1.078125,0.90625 0,0.140625 -0.078125,0.453125 -0.140625,0.6875 C 5.09375,-1.421875 5,-1.0625 5,-0.859375 5,0.21875 6.203125,0.21875 6.328125,0.21875 c 0.84375,0 1.203125,-1 1.203125,-1.140625 0,-0.125 -0.109375,-0.125 -0.125,-0.125 -0.09375,0 -0.109375,0.0625 -0.125,0.140625 C 7.03125,-0.171875 6.59375,0 6.375,0 6.046875,0 5.96875,-0.21875 5.96875,-0.609375 c 0,-0.3125 0.0625,-0.8125 0.109375,-1.140625 0.015625,-0.140625 0.03125,-0.328125 0.03125,-0.46875 0,-0.765625 -0.671875,-1.078125 -0.9375,-1.171875 z m 0,0"
               id="path15580" />
          </symbol>
          <symbol
             style="overflow:visible"
             overflow="visible"
             id="textext-d072640a-2">
            <path
               inkscape:connector-curvature="0"
               style="stroke:none"
               d=""
               id="path15583" />
          </symbol>
          <symbol
             style="overflow:visible"
             overflow="visible"
             id="textext-d072640a-3">
            <path
               inkscape:connector-curvature="0"
               style="stroke:none"
               d="m 4.28125,-3.375 c 0,-0.078125 0,-0.140625 -0.078125,-0.140625 -0.046875,0 -0.0625,0.015625 -0.09375,0.0625 l -0.296875,0.375 c -0.296875,-0.25 -0.6875,-0.4375 -1.171875,-0.4375 -1.203125,0 -2.15625,0.828125 -2.15625,1.8125 0,0.984375 0.953125,1.8125 2.15625,1.8125 0.96875,0 1.640625,-0.609375 1.640625,-1.28125 0,-0.078125 -0.015625,-0.09375 -0.09375,-0.09375 -0.0625,0 -0.109375,0 -0.109375,0.078125 C 4.03125,-0.421875 3.3125,-0.109375 2.734375,-0.109375 2.03125,-0.109375 1.0625,-0.5 1.0625,-1.703125 c 0,-1.1875 0.9375,-1.59375 1.65625,-1.59375 0.453125,0 1.1875,0.234375 1.34375,1.171875 0.015625,0.0625 0.078125,0.0625 0.109375,0.0625 0.109375,0 0.109375,-0.046875 0.109375,-0.140625 z m 0,0"
               id="path15586" />
          </symbol>
        </g>
      </defs>
      <g
         id="textext-d072640a-4">
        <g
           style="fill:#000000;fill-opacity:1"
           id="g15589">
          <use
             height="100%"
             width="100%"
             xlink:href="#textext-d072640a-1"
             x="223.43201"
             y="134.765"
             id="use15591" />
        </g>
        <g
           style="fill:#000000;fill-opacity:1"
           id="g15593">
          <use
             height="100%"
             width="100%"
             xlink:href="#textext-d072640a-3"
             x="230.99699"
             y="136.259"
             id="use15595" />
        </g>
      </g>
    </g>
    <path
       sodipodi:nodetypes="cc"
       inkscape:connector-curvature="0"
       id="path4376"
       d="m -450.67935,773.165 1.12601,-107.19445"
       style="fill:none;fill-rule:evenodd;stroke:#000000;stroke-width:2;stroke-linecap:butt;stroke-linejoin:miter;stroke-miterlimit:4;stroke-dasharray:none;stroke-opacity:1;marker-start:url(#marker4378);marker-end:url(#marker75506)" />
    <g
       id="g6309"
       transform="matrix(5.5275552,0,0,5.527555,-1671.8899,-4.82917)"
       ns0:preamble="/home/homer/misc/HRCommands.tex"
       ns0:text="$T\\subt{C}$">
      <defs
         id="defs6311">
        <g
           id="g6313">
          <symbol
             id="textext-f3ae0c2f-0"
             overflow="visible"
             style="overflow:visible">
            <path
               id="path6316"
               d=""
               style="stroke:none"
               inkscape:connector-curvature="0" />
          </symbol>
          <symbol
             id="textext-f3ae0c2f-1"
             overflow="visible"
             style="overflow:visible">
            <path
               id="path6319"
               d="m 4.25,-6.046875 c 0.078125,-0.28125 0.109375,-0.34375 0.234375,-0.375 0.09375,-0.015625 0.421875,-0.015625 0.625,-0.015625 1.015625,0 1.453125,0.03125 1.453125,0.8125 0,0.15625 -0.03125,0.546875 -0.078125,0.796875 0,0.046875 -0.03125,0.15625 -0.03125,0.1875 0,0.0625 0.03125,0.140625 0.125,0.140625 0.109375,0 0.125,-0.078125 0.15625,-0.234375 L 7,-6.46875 C 7.015625,-6.515625 7.015625,-6.609375 7.015625,-6.640625 7.015625,-6.75 6.921875,-6.75 6.75,-6.75 l -5.53125,0 c -0.234375,0 -0.25,0.015625 -0.328125,0.203125 l -0.59375,1.75 c 0,0.015625 -0.0625,0.15625 -0.0625,0.1875 0,0.046875 0.0625,0.109375 0.125,0.109375 0.09375,0 0.109375,-0.0625 0.171875,-0.21875 C 1.0625,-6.265625 1.328125,-6.4375 2.796875,-6.4375 l 0.390625,0 c 0.28125,0 0.28125,0.03125 0.28125,0.125 0,0.046875 -0.03125,0.171875 -0.046875,0.203125 L 2.09375,-0.78125 C 2,-0.421875 1.96875,-0.3125 0.90625,-0.3125 c -0.359375,0 -0.421875,0 -0.421875,0.1875 C 0.484375,0 0.59375,0 0.65625,0 c 0.265625,0 0.546875,-0.015625 0.8125,-0.015625 0.28125,0 0.578125,-0.015625 0.859375,-0.015625 0.28125,0 0.546875,0.015625 0.828125,0.015625 C 3.4375,-0.015625 3.734375,0 4.015625,0 c 0.09375,0 0.21875,0 0.21875,-0.203125 0,-0.109375 -0.078125,-0.109375 -0.34375,-0.109375 -0.234375,0 -0.375,0 -0.625,-0.015625 -0.296875,-0.03125 -0.375,-0.0625 -0.375,-0.21875 0,-0.015625 0,-0.0625 0.046875,-0.203125 z m 0,0"
               style="stroke:none"
               inkscape:connector-curvature="0" />
          </symbol>
          <symbol
             id="textext-f3ae0c2f-2"
             overflow="visible"
             style="overflow:visible">
            <path
               id="path6322"
               d=""
               style="stroke:none"
               inkscape:connector-curvature="0" />
          </symbol>
          <symbol
             id="textext-f3ae0c2f-3"
             overflow="visible"
             style="overflow:visible">
            <path
               id="path6325"
               d="m 4.28125,-3.375 c 0,-0.078125 0,-0.140625 -0.078125,-0.140625 -0.046875,0 -0.0625,0.015625 -0.09375,0.0625 l -0.296875,0.375 c -0.296875,-0.25 -0.6875,-0.4375 -1.171875,-0.4375 -1.203125,0 -2.15625,0.828125 -2.15625,1.8125 0,0.984375 0.953125,1.8125 2.15625,1.8125 0.96875,0 1.640625,-0.609375 1.640625,-1.28125 0,-0.078125 -0.015625,-0.09375 -0.09375,-0.09375 -0.0625,0 -0.109375,0 -0.109375,0.078125 C 4.03125,-0.421875 3.3125,-0.109375 2.734375,-0.109375 2.03125,-0.109375 1.0625,-0.5 1.0625,-1.703125 c 0,-1.1875 0.9375,-1.59375 1.65625,-1.59375 0.453125,0 1.1875,0.234375 1.34375,1.171875 0.015625,0.0625 0.078125,0.0625 0.109375,0.0625 0.109375,0 0.109375,-0.046875 0.109375,-0.140625 z m 0,0"
               style="stroke:none"
               inkscape:connector-curvature="0" />
          </symbol>
        </g>
      </defs>
      <g
         id="textext-f3ae0c2f-4">
        <g
           id="g6328"
           style="fill:#000000;fill-opacity:1">
          <use
             id="use6330"
             y="134.765"
             x="223.43201"
             xlink:href="#textext-f3ae0c2f-1"
             width="100%"
             height="100%" />
        </g>
        <g
           id="g6332"
           style="fill:#000000;fill-opacity:1">
          <use
             id="use6334"
             y="136.259"
             x="229.254"
             xlink:href="#textext-f3ae0c2f-3"
             width="100%"
             height="100%" />
        </g>
      </g>
    </g>
    <g
       ns0:text="$\\epsilon\\subt{D}, \\mu\\subt{D}$"
       ns0:preamble="/home/homer/misc/HRCommands.tex"
       transform="matrix(6.0803108,0,0,6.0803108,-1883.011,-456.77484)"
       id="g6693">
      <defs
         id="defs6695">
        <g
           id="g6697">
          <symbol
             overflow="visible"
             id="textext-a1c01db4-0"
             style="overflow:visible">
            <path
               style="stroke:none"
               d=""
               id="path6700"
               inkscape:connector-curvature="0" />
          </symbol>
          <symbol
             overflow="visible"
             id="textext-a1c01db4-1"
             style="overflow:visible">
            <path
               style="stroke:none"
               d="m 2.96875,-2.25 c 0.15625,0 0.34375,0 0.34375,-0.171875 0,-0.140625 -0.125,-0.140625 -0.296875,-0.140625 l -1.609375,0 c 0.234375,-0.84375 0.796875,-1.421875 1.703125,-1.421875 l 0.3125,0 c 0.171875,0 0.328125,0 0.328125,-0.171875 0,-0.140625 -0.125,-0.140625 -0.296875,-0.140625 l -0.359375,0 c -1.296875,0 -2.625,1 -2.625,2.515625 0,1.109375 0.75,1.890625 1.796875,1.890625 0.65625,0 1.296875,-0.40625 1.296875,-0.515625 0,-0.015625 0,-0.125 -0.09375,-0.125 -0.015625,0 -0.046875,0 -0.125,0.046875 -0.3125,0.203125 -0.6875,0.375 -1.046875,0.375 -0.578125,0 -1.078125,-0.421875 -1.078125,-1.296875 0,-0.34375 0.078125,-0.734375 0.109375,-0.84375 z m 0,0"
               id="path6703"
               inkscape:connector-curvature="0" />
          </symbol>
          <symbol
             overflow="visible"
             id="textext-a1c01db4-2"
             style="overflow:visible">
            <path
               style="stroke:none"
               d="m 2.03125,-0.015625 c 0,-0.65625 -0.25,-1.046875 -0.640625,-1.046875 -0.328125,0 -0.53125,0.25 -0.53125,0.53125 C 0.859375,-0.265625 1.0625,0 1.390625,0 1.5,0 1.640625,-0.046875 1.734375,-0.125 1.765625,-0.15625 1.78125,-0.15625 1.78125,-0.15625 c 0.015625,0 0.015625,0 0.015625,0.140625 0,0.75 -0.34375,1.34375 -0.671875,1.671875 -0.109375,0.109375 -0.109375,0.125 -0.109375,0.15625 0,0.078125 0.046875,0.109375 0.09375,0.109375 0.109375,0 0.921875,-0.765625 0.921875,-1.9375 z m 0,0"
               id="path6706"
               inkscape:connector-curvature="0" />
          </symbol>
          <symbol
             overflow="visible"
             id="textext-a1c01db4-3"
             style="overflow:visible">
            <path
               style="stroke:none"
               d="m 2.296875,-3.5 c 0.0625,-0.203125 0.15625,-0.59375 0.15625,-0.640625 0,-0.171875 -0.125,-0.265625 -0.296875,-0.265625 -0.015625,0 -0.296875,0.015625 -0.390625,0.359375 l -1.4375,5.765625 c -0.03125,0.125 -0.03125,0.140625 -0.03125,0.171875 0,0.140625 0.109375,0.265625 0.28125,0.265625 0.203125,0 0.328125,-0.1875 0.34375,-0.21875 C 0.96875,1.859375 1.09375,1.328125 1.46875,-0.203125 1.796875,0.0625 2.25,0.109375 2.4375,0.109375 c 0.703125,0 1.09375,-0.453125 1.328125,-0.734375 0.09375,0.453125 0.46875,0.734375 0.90625,0.734375 0.34375,0 0.578125,-0.234375 0.734375,-0.546875 0.171875,-0.359375 0.296875,-0.96875 0.296875,-0.984375 0,-0.109375 -0.09375,-0.109375 -0.125,-0.109375 -0.09375,0 -0.109375,0.046875 -0.140625,0.1875 -0.15625,0.640625 -0.34375,1.234375 -0.75,1.234375 -0.265625,0 -0.296875,-0.265625 -0.296875,-0.453125 0,-0.21875 0.109375,-0.6875 0.1875,-1.046875 L 4.859375,-2.6875 C 4.890625,-2.828125 5,-3.203125 5.03125,-3.359375 5.078125,-3.59375 5.1875,-3.96875 5.1875,-4.03125 c 0,-0.171875 -0.140625,-0.265625 -0.296875,-0.265625 -0.046875,0 -0.3125,0.015625 -0.390625,0.34375 l -0.46875,1.875 c -0.109375,0.5 -0.21875,0.90625 -0.25,1.015625 -0.015625,0.046875 -0.484375,0.953125 -1.296875,0.953125 -0.5,0 -0.734375,-0.328125 -0.734375,-0.875 0,-0.28125 0.0625,-0.5625 0.140625,-0.84375 z m 0,0"
               id="path6709"
               inkscape:connector-curvature="0" />
          </symbol>
          <symbol
             overflow="visible"
             id="textext-a1c01db4-4"
             style="overflow:visible">
            <path
               style="stroke:none"
               d=""
               id="path6712"
               inkscape:connector-curvature="0" />
          </symbol>
          <symbol
             overflow="visible"
             id="textext-a1c01db4-5"
             style="overflow:visible">
            <path
               style="stroke:none"
               d="m 0.984375,-0.4375 c 0,0.125 0,0.1875 -0.1875,0.203125 C 0.6875,-0.21875 0.53125,-0.21875 0.421875,-0.21875 l 0,0.21875 2.1875,0 c 1.0625,0 1.90625,-0.75 1.90625,-1.671875 0,-0.9375 -0.828125,-1.734375 -1.90625,-1.734375 l -2.1875,0 0,0.21875 c 0.125,0 0.265625,0 0.375,0.015625 0.1875,0.015625 0.1875,0.078125 0.1875,0.203125 z m 0.75,0.21875 c -0.25,0 -0.25,-0.03125 -0.25,-0.203125 l 0,-2.5625 c 0,-0.171875 0,-0.203125 0.25,-0.203125 l 0.734375,0 c 0.59375,0 0.953125,0.25 1.078125,0.375 0.1875,0.1875 0.40625,0.484375 0.40625,1.140625 0,0.4375 -0.09375,0.796875 -0.390625,1.078125 -0.15625,0.15625 -0.515625,0.375 -1.09375,0.375 z m 0,0"
               id="path6715"
               inkscape:connector-curvature="0" />
          </symbol>
        </g>
      </defs>
      <g
         id="textext-a1c01db4-6">
        <g
           style="fill:#000000;fill-opacity:1"
           id="g6718">
          <use
             xlink:href="#textext-a1c01db4-1"
             x="223.43201"
             y="134.765"
             id="use6720"
             width="100%"
             height="100%" />
        </g>
        <g
           style="fill:#000000;fill-opacity:1"
           id="g6722">
          <use
             xlink:href="#textext-a1c01db4-5"
             x="227.476"
             y="136.259"
             id="use6724"
             width="100%"
             height="100%" />
        </g>
        <g
           style="fill:#000000;fill-opacity:1"
           id="g6726">
          <use
             xlink:href="#textext-a1c01db4-2"
             x="232.976"
             y="134.765"
             id="use6728"
             width="100%"
             height="100%" />
        </g>
        <g
           style="fill:#000000;fill-opacity:1"
           id="g6730">
          <use
             xlink:href="#textext-a1c01db4-3"
             x="237.40736"
             y="134.765"
             id="use6732"
             width="100%"
             height="100%" />
        </g>
        <g
           style="fill:#000000;fill-opacity:1"
           id="g6734">
          <use
             xlink:href="#textext-a1c01db4-5"
             x="243.407"
             y="136.259"
             id="use6736"
             width="100%"
             height="100%" />
        </g>
      </g>
    </g>
    <g
       id="g7100"
       transform="matrix(5.5275552,0,0,5.527555,-1656.8899,-194.82917)"
       ns0:preamble="/home/homer/misc/HRCommands.tex"
       ns0:text="$R\\subt{D}$">
      <defs
         id="defs7102">
        <g
           id="g7104">
          <symbol
             id="textext-806a6b09-0"
             overflow="visible"
             style="overflow:visible">
            <path
               id="path7107"
               d=""
               style="stroke:none"
               inkscape:connector-curvature="0" />
          </symbol>
          <symbol
             id="textext-806a6b09-1"
             overflow="visible"
             style="overflow:visible">
            <path
               id="path7110"
               d="m 3.734375,-6.125 c 0.0625,-0.234375 0.09375,-0.328125 0.28125,-0.359375 C 4.109375,-6.5 4.421875,-6.5 4.625,-6.5 c 0.703125,0 1.8125,0 1.8125,0.984375 0,0.34375 -0.15625,1.03125 -0.546875,1.421875 -0.265625,0.25 -0.78125,0.578125 -1.6875,0.578125 l -1.109375,0 z m 1.4375,2.734375 c 1.015625,-0.21875 2.1875,-0.921875 2.1875,-1.921875 0,-0.859375 -0.890625,-1.5 -2.203125,-1.5 l -2.828125,0 c -0.203125,0 -0.296875,0 -0.296875,0.203125 C 2.03125,-6.5 2.125,-6.5 2.3125,-6.5 c 0.015625,0 0.203125,0 0.375,0.015625 0.1875,0.03125 0.265625,0.03125 0.265625,0.171875 0,0.03125 0,0.0625 -0.03125,0.1875 l -1.34375,5.34375 C 1.484375,-0.390625 1.46875,-0.3125 0.671875,-0.3125 0.5,-0.3125 0.40625,-0.3125 0.40625,-0.109375 0.40625,0 0.53125,0 0.546875,0 c 0.28125,0 0.984375,-0.03125 1.25,-0.03125 0.28125,0 1,0.03125 1.28125,0.03125 0.078125,0 0.1875,0 0.1875,-0.203125 0,-0.109375 -0.078125,-0.109375 -0.28125,-0.109375 -0.359375,0 -0.640625,0 -0.640625,-0.171875 0,-0.0625 0.015625,-0.109375 0.03125,-0.171875 l 0.65625,-2.640625 1.1875,0 c 0.90625,0 1.078125,0.5625 1.078125,0.90625 0,0.140625 -0.078125,0.453125 -0.140625,0.6875 C 5.09375,-1.421875 5,-1.0625 5,-0.859375 5,0.21875 6.203125,0.21875 6.328125,0.21875 c 0.84375,0 1.203125,-1 1.203125,-1.140625 0,-0.125 -0.109375,-0.125 -0.125,-0.125 -0.09375,0 -0.109375,0.0625 -0.125,0.140625 C 7.03125,-0.171875 6.59375,0 6.375,0 6.046875,0 5.96875,-0.21875 5.96875,-0.609375 c 0,-0.3125 0.0625,-0.8125 0.109375,-1.140625 0.015625,-0.140625 0.03125,-0.328125 0.03125,-0.46875 0,-0.765625 -0.671875,-1.078125 -0.9375,-1.171875 z m 0,0"
               style="stroke:none"
               inkscape:connector-curvature="0" />
          </symbol>
          <symbol
             id="textext-806a6b09-2"
             overflow="visible"
             style="overflow:visible">
            <path
               id="path7113"
               d=""
               style="stroke:none"
               inkscape:connector-curvature="0" />
          </symbol>
          <symbol
             id="textext-806a6b09-3"
             overflow="visible"
             style="overflow:visible">
            <path
               id="path7116"
               d="m 0.984375,-0.4375 c 0,0.125 0,0.1875 -0.1875,0.203125 C 0.6875,-0.21875 0.53125,-0.21875 0.421875,-0.21875 l 0,0.21875 2.1875,0 c 1.0625,0 1.90625,-0.75 1.90625,-1.671875 0,-0.9375 -0.828125,-1.734375 -1.90625,-1.734375 l -2.1875,0 0,0.21875 c 0.125,0 0.265625,0 0.375,0.015625 0.1875,0.015625 0.1875,0.078125 0.1875,0.203125 z m 0.75,0.21875 c -0.25,0 -0.25,-0.03125 -0.25,-0.203125 l 0,-2.5625 c 0,-0.171875 0,-0.203125 0.25,-0.203125 l 0.734375,0 c 0.59375,0 0.953125,0.25 1.078125,0.375 0.1875,0.1875 0.40625,0.484375 0.40625,1.140625 0,0.4375 -0.09375,0.796875 -0.390625,1.078125 -0.15625,0.15625 -0.515625,0.375 -1.09375,0.375 z m 0,0"
               style="stroke:none"
               inkscape:connector-curvature="0" />
          </symbol>
        </g>
      </defs>
      <g
         id="textext-806a6b09-4">
        <g
           id="g7119"
           style="fill:#000000;fill-opacity:1">
          <use
             id="use7121"
             y="134.765"
             x="223.43201"
             xlink:href="#textext-806a6b09-1"
             width="100%"
             height="100%" />
        </g>
        <g
           id="g7123"
           style="fill:#000000;fill-opacity:1">
          <use
             id="use7125"
             y="136.259"
             x="230.99699"
             xlink:href="#textext-806a6b09-3"
             width="100%"
             height="100%" />
        </g>
      </g>
    </g>
    <g
       ns0:text="$\\epsilon\\subt{E}, \\mu\\subt{E}$"
       ns0:preamble="/home/homer/misc/HRCommands.tex"
       transform="matrix(6.0803108,0,0,6.0803108,-1882.2561,-730.21703)"
       id="g7474">
      <defs
         id="defs7476">
        <g
           id="g7478">
          <symbol
             style="overflow:visible"
             overflow="visible"
             id="textext-07e35507-0">
            <path
               inkscape:connector-curvature="0"
               style="stroke:none"
               d=""
               id="path7481" />
          </symbol>
          <symbol
             style="overflow:visible"
             overflow="visible"
             id="textext-07e35507-1">
            <path
               inkscape:connector-curvature="0"
               style="stroke:none"
               d="m 2.96875,-2.25 c 0.15625,0 0.34375,0 0.34375,-0.171875 0,-0.140625 -0.125,-0.140625 -0.296875,-0.140625 l -1.609375,0 c 0.234375,-0.84375 0.796875,-1.421875 1.703125,-1.421875 l 0.3125,0 c 0.171875,0 0.328125,0 0.328125,-0.171875 0,-0.140625 -0.125,-0.140625 -0.296875,-0.140625 l -0.359375,0 c -1.296875,0 -2.625,1 -2.625,2.515625 0,1.109375 0.75,1.890625 1.796875,1.890625 0.65625,0 1.296875,-0.40625 1.296875,-0.515625 0,-0.015625 0,-0.125 -0.09375,-0.125 -0.015625,0 -0.046875,0 -0.125,0.046875 -0.3125,0.203125 -0.6875,0.375 -1.046875,0.375 -0.578125,0 -1.078125,-0.421875 -1.078125,-1.296875 0,-0.34375 0.078125,-0.734375 0.109375,-0.84375 z m 0,0"
               id="path7484" />
          </symbol>
          <symbol
             style="overflow:visible"
             overflow="visible"
             id="textext-07e35507-2">
            <path
               inkscape:connector-curvature="0"
               style="stroke:none"
               d="m 2.03125,-0.015625 c 0,-0.65625 -0.25,-1.046875 -0.640625,-1.046875 -0.328125,0 -0.53125,0.25 -0.53125,0.53125 C 0.859375,-0.265625 1.0625,0 1.390625,0 1.5,0 1.640625,-0.046875 1.734375,-0.125 1.765625,-0.15625 1.78125,-0.15625 1.78125,-0.15625 c 0.015625,0 0.015625,0 0.015625,0.140625 0,0.75 -0.34375,1.34375 -0.671875,1.671875 -0.109375,0.109375 -0.109375,0.125 -0.109375,0.15625 0,0.078125 0.046875,0.109375 0.09375,0.109375 0.109375,0 0.921875,-0.765625 0.921875,-1.9375 z m 0,0"
               id="path7487" />
          </symbol>
          <symbol
             style="overflow:visible"
             overflow="visible"
             id="textext-07e35507-3">
            <path
               inkscape:connector-curvature="0"
               style="stroke:none"
               d="m 2.296875,-3.5 c 0.0625,-0.203125 0.15625,-0.59375 0.15625,-0.640625 0,-0.171875 -0.125,-0.265625 -0.296875,-0.265625 -0.015625,0 -0.296875,0.015625 -0.390625,0.359375 l -1.4375,5.765625 c -0.03125,0.125 -0.03125,0.140625 -0.03125,0.171875 0,0.140625 0.109375,0.265625 0.28125,0.265625 0.203125,0 0.328125,-0.1875 0.34375,-0.21875 C 0.96875,1.859375 1.09375,1.328125 1.46875,-0.203125 1.796875,0.0625 2.25,0.109375 2.4375,0.109375 c 0.703125,0 1.09375,-0.453125 1.328125,-0.734375 0.09375,0.453125 0.46875,0.734375 0.90625,0.734375 0.34375,0 0.578125,-0.234375 0.734375,-0.546875 0.171875,-0.359375 0.296875,-0.96875 0.296875,-0.984375 0,-0.109375 -0.09375,-0.109375 -0.125,-0.109375 -0.09375,0 -0.109375,0.046875 -0.140625,0.1875 -0.15625,0.640625 -0.34375,1.234375 -0.75,1.234375 -0.265625,0 -0.296875,-0.265625 -0.296875,-0.453125 0,-0.21875 0.109375,-0.6875 0.1875,-1.046875 L 4.859375,-2.6875 C 4.890625,-2.828125 5,-3.203125 5.03125,-3.359375 5.078125,-3.59375 5.1875,-3.96875 5.1875,-4.03125 c 0,-0.171875 -0.140625,-0.265625 -0.296875,-0.265625 -0.046875,0 -0.3125,0.015625 -0.390625,0.34375 l -0.46875,1.875 c -0.109375,0.5 -0.21875,0.90625 -0.25,1.015625 -0.015625,0.046875 -0.484375,0.953125 -1.296875,0.953125 -0.5,0 -0.734375,-0.328125 -0.734375,-0.875 0,-0.28125 0.0625,-0.5625 0.140625,-0.84375 z m 0,0"
               id="path7490" />
          </symbol>
          <symbol
             style="overflow:visible"
             overflow="visible"
             id="textext-07e35507-4">
            <path
               inkscape:connector-curvature="0"
               style="stroke:none"
               d=""
               id="path7493" />
          </symbol>
          <symbol
             style="overflow:visible"
             overflow="visible"
             id="textext-07e35507-5">
            <path
               inkscape:connector-curvature="0"
               style="stroke:none"
               d="m 4.171875,-1.34375 -0.21875,0 c -0.140625,0.8125 -0.328125,1.125 -1.28125,1.125 l -0.9375,0 C 1.5,-0.21875 1.5,-0.25 1.5,-0.40625 l 0,-1.234375 0.578125,0 c 0.5,0 0.640625,0.09375 0.640625,0.578125 l 0.203125,0 0,-1.390625 -0.203125,0 c 0,0.484375 -0.140625,0.59375 -0.640625,0.59375 l -0.578125,0 0,-1.109375 c 0,-0.15625 0,-0.203125 0.234375,-0.203125 l 0.890625,0 c 0.828125,0 1.046875,0.203125 1.15625,0.96875 l 0.21875,0 -0.171875,-1.1875 -3.421875,0 0,0.21875 0.15625,0 c 0.40625,0 0.40625,0.0625 0.40625,0.21875 l 0,2.53125 c 0,0.15625 0,0.203125 -0.40625,0.203125 l -0.15625,0 0,0.21875 3.515625,0 z m 0,0"
               id="path7496" />
          </symbol>
        </g>
      </defs>
      <g
         id="textext-07e35507-6">
        <g
           style="fill:#000000;fill-opacity:1"
           id="g7499">
          <use
             height="100%"
             width="100%"
             xlink:href="#textext-07e35507-1"
             x="223.43201"
             y="134.765"
             id="use7501" />
        </g>
        <g
           style="fill:#000000;fill-opacity:1"
           id="g7503">
          <use
             height="100%"
             width="100%"
             xlink:href="#textext-07e35507-5"
             x="227.476"
             y="136.259"
             id="use7505" />
        </g>
        <g
           style="fill:#000000;fill-opacity:1"
           id="g7507">
          <use
             height="100%"
             width="100%"
             xlink:href="#textext-07e35507-2"
             x="232.457"
             y="134.765"
             id="use7509" />
        </g>
        <g
           style="fill:#000000;fill-opacity:1"
           id="g7511">
          <use
             height="100%"
             width="100%"
             xlink:href="#textext-07e35507-3"
             x="236.88837"
             y="134.765"
             id="use7513" />
        </g>
        <g
           style="fill:#000000;fill-opacity:1"
           id="g7515">
          <use
             height="100%"
             width="100%"
             xlink:href="#textext-07e35507-5"
             x="242.888"
             y="136.259"
             id="use7517" />
        </g>
      </g>
    </g>
    <ellipse
       ry="215.92949"
       rx="216.76744"
       style="opacity:1;fill:#00ffff;fill-opacity:1;stroke:#000000;stroke-width:0.55473858;stroke-miterlimit:4;stroke-dasharray:none;stroke-dashoffset:0;stroke-opacity:1"
       id="circle7702"
       cx="255"
       cy="452.36221" />
    <circle
       r="208.06966"
       cy="452.36221"
       cx="255"
       id="circle7704"
       style="opacity:1;fill:#dcdcdc;fill-opacity:1;stroke:#000000;stroke-width:0.53351194;stroke-miterlimit:4;stroke-dasharray:none;stroke-dashoffset:0;stroke-opacity:1" />
    <path
       sodipodi:nodetypes="ccc"
       inkscape:connector-curvature="0"
       id="path7758"
       d="M 305.27725,651.21302 250,438.48568 l 0,7.51256"
       style="fill:none;fill-rule:evenodd;stroke:#000000;stroke-width:2;stroke-linecap:butt;stroke-linejoin:miter;stroke-miterlimit:4;stroke-dasharray:none;stroke-opacity:1;marker-start:url(#marker75496)" />
    <g
       id="g7828"
       transform="matrix(6.0803108,0,0,6.0803108,-1178.011,-456.77484)"
       ns0:preamble="/home/homer/misc/HRCommands.tex"
       ns0:text="$\\epsilon\\subt{D}, \\mu\\subt{D}$">
      <defs
         id="defs7830">
        <g
           id="g7832">
          <symbol
             style="overflow:visible"
             id="symbol7834"
             overflow="visible">
            <path
               inkscape:connector-curvature="0"
               id="path7836"
               d=""
               style="stroke:none" />
          </symbol>
          <symbol
             style="overflow:visible"
             id="symbol7838"
             overflow="visible">
            <path
               inkscape:connector-curvature="0"
               id="path7840"
               d="m 2.96875,-2.25 c 0.15625,0 0.34375,0 0.34375,-0.171875 0,-0.140625 -0.125,-0.140625 -0.296875,-0.140625 l -1.609375,0 c 0.234375,-0.84375 0.796875,-1.421875 1.703125,-1.421875 l 0.3125,0 c 0.171875,0 0.328125,0 0.328125,-0.171875 0,-0.140625 -0.125,-0.140625 -0.296875,-0.140625 l -0.359375,0 c -1.296875,0 -2.625,1 -2.625,2.515625 0,1.109375 0.75,1.890625 1.796875,1.890625 0.65625,0 1.296875,-0.40625 1.296875,-0.515625 0,-0.015625 0,-0.125 -0.09375,-0.125 -0.015625,0 -0.046875,0 -0.125,0.046875 -0.3125,0.203125 -0.6875,0.375 -1.046875,0.375 -0.578125,0 -1.078125,-0.421875 -1.078125,-1.296875 0,-0.34375 0.078125,-0.734375 0.109375,-0.84375 z m 0,0"
               style="stroke:none" />
          </symbol>
          <symbol
             style="overflow:visible"
             id="symbol7842"
             overflow="visible">
            <path
               inkscape:connector-curvature="0"
               id="path7844"
               d="m 2.03125,-0.015625 c 0,-0.65625 -0.25,-1.046875 -0.640625,-1.046875 -0.328125,0 -0.53125,0.25 -0.53125,0.53125 C 0.859375,-0.265625 1.0625,0 1.390625,0 1.5,0 1.640625,-0.046875 1.734375,-0.125 1.765625,-0.15625 1.78125,-0.15625 1.78125,-0.15625 c 0.015625,0 0.015625,0 0.015625,0.140625 0,0.75 -0.34375,1.34375 -0.671875,1.671875 -0.109375,0.109375 -0.109375,0.125 -0.109375,0.15625 0,0.078125 0.046875,0.109375 0.09375,0.109375 0.109375,0 0.921875,-0.765625 0.921875,-1.9375 z m 0,0"
               style="stroke:none" />
          </symbol>
          <symbol
             style="overflow:visible"
             id="symbol7846"
             overflow="visible">
            <path
               inkscape:connector-curvature="0"
               id="path7848"
               d="m 2.296875,-3.5 c 0.0625,-0.203125 0.15625,-0.59375 0.15625,-0.640625 0,-0.171875 -0.125,-0.265625 -0.296875,-0.265625 -0.015625,0 -0.296875,0.015625 -0.390625,0.359375 l -1.4375,5.765625 c -0.03125,0.125 -0.03125,0.140625 -0.03125,0.171875 0,0.140625 0.109375,0.265625 0.28125,0.265625 0.203125,0 0.328125,-0.1875 0.34375,-0.21875 C 0.96875,1.859375 1.09375,1.328125 1.46875,-0.203125 1.796875,0.0625 2.25,0.109375 2.4375,0.109375 c 0.703125,0 1.09375,-0.453125 1.328125,-0.734375 0.09375,0.453125 0.46875,0.734375 0.90625,0.734375 0.34375,0 0.578125,-0.234375 0.734375,-0.546875 0.171875,-0.359375 0.296875,-0.96875 0.296875,-0.984375 0,-0.109375 -0.09375,-0.109375 -0.125,-0.109375 -0.09375,0 -0.109375,0.046875 -0.140625,0.1875 -0.15625,0.640625 -0.34375,1.234375 -0.75,1.234375 -0.265625,0 -0.296875,-0.265625 -0.296875,-0.453125 0,-0.21875 0.109375,-0.6875 0.1875,-1.046875 L 4.859375,-2.6875 C 4.890625,-2.828125 5,-3.203125 5.03125,-3.359375 5.078125,-3.59375 5.1875,-3.96875 5.1875,-4.03125 c 0,-0.171875 -0.140625,-0.265625 -0.296875,-0.265625 -0.046875,0 -0.3125,0.015625 -0.390625,0.34375 l -0.46875,1.875 c -0.109375,0.5 -0.21875,0.90625 -0.25,1.015625 -0.015625,0.046875 -0.484375,0.953125 -1.296875,0.953125 -0.5,0 -0.734375,-0.328125 -0.734375,-0.875 0,-0.28125 0.0625,-0.5625 0.140625,-0.84375 z m 0,0"
               style="stroke:none" />
          </symbol>
          <symbol
             style="overflow:visible"
             id="symbol7850"
             overflow="visible">
            <path
               inkscape:connector-curvature="0"
               id="path7852"
               d=""
               style="stroke:none" />
          </symbol>
          <symbol
             style="overflow:visible"
             id="symbol7854"
             overflow="visible">
            <path
               inkscape:connector-curvature="0"
               id="path7856"
               d="m 0.984375,-0.4375 c 0,0.125 0,0.1875 -0.1875,0.203125 C 0.6875,-0.21875 0.53125,-0.21875 0.421875,-0.21875 l 0,0.21875 2.1875,0 c 1.0625,0 1.90625,-0.75 1.90625,-1.671875 0,-0.9375 -0.828125,-1.734375 -1.90625,-1.734375 l -2.1875,0 0,0.21875 c 0.125,0 0.265625,0 0.375,0.015625 0.1875,0.015625 0.1875,0.078125 0.1875,0.203125 z m 0.75,0.21875 c -0.25,0 -0.25,-0.03125 -0.25,-0.203125 l 0,-2.5625 c 0,-0.171875 0,-0.203125 0.25,-0.203125 l 0.734375,0 c 0.59375,0 0.953125,0.25 1.078125,0.375 0.1875,0.1875 0.40625,0.484375 0.40625,1.140625 0,0.4375 -0.09375,0.796875 -0.390625,1.078125 -0.15625,0.15625 -0.515625,0.375 -1.09375,0.375 z m 0,0"
               style="stroke:none" />
          </symbol>
        </g>
      </defs>
      <g
         id="g7858">
        <g
           id="g7860"
           style="fill:#000000;fill-opacity:1">
          <use
             height="100%"
             width="100%"
             id="use7862"
             y="134.765"
             x="223.43201"
             xlink:href="#textext-a1c01db4-1" />
        </g>
        <g
           id="g7864"
           style="fill:#000000;fill-opacity:1">
          <use
             height="100%"
             width="100%"
             id="use7866"
             y="136.259"
             x="227.476"
             xlink:href="#textext-a1c01db4-5" />
        </g>
        <g
           id="g7868"
           style="fill:#000000;fill-opacity:1">
          <use
             height="100%"
             width="100%"
             id="use7870"
             y="134.765"
             x="232.976"
             xlink:href="#textext-a1c01db4-2" />
        </g>
        <g
           id="g7872"
           style="fill:#000000;fill-opacity:1">
          <use
             height="100%"
             width="100%"
             id="use7874"
             y="134.765"
             x="237.40736"
             xlink:href="#textext-a1c01db4-3" />
        </g>
        <g
           id="g7876"
           style="fill:#000000;fill-opacity:1">
          <use
             height="100%"
             width="100%"
             id="use7878"
             y="136.259"
             x="243.407"
             xlink:href="#textext-a1c01db4-5" />
        </g>
      </g>
    </g>
    <g
       ns0:text="$R\\subt{D}$"
       ns0:preamble="/home/homer/misc/HRCommands.tex"
       transform="matrix(5.5275552,0,0,5.527555,-951.8899,-194.82917)"
       id="g7880">
      <defs
         id="defs7882">
        <g
           id="g7884">
          <symbol
             style="overflow:visible"
             overflow="visible"
             id="symbol7886">
            <path
               inkscape:connector-curvature="0"
               style="stroke:none"
               d=""
               id="path7888" />
          </symbol>
          <symbol
             style="overflow:visible"
             overflow="visible"
             id="symbol7890">
            <path
               inkscape:connector-curvature="0"
               style="stroke:none"
               d="m 3.734375,-6.125 c 0.0625,-0.234375 0.09375,-0.328125 0.28125,-0.359375 C 4.109375,-6.5 4.421875,-6.5 4.625,-6.5 c 0.703125,0 1.8125,0 1.8125,0.984375 0,0.34375 -0.15625,1.03125 -0.546875,1.421875 -0.265625,0.25 -0.78125,0.578125 -1.6875,0.578125 l -1.109375,0 z m 1.4375,2.734375 c 1.015625,-0.21875 2.1875,-0.921875 2.1875,-1.921875 0,-0.859375 -0.890625,-1.5 -2.203125,-1.5 l -2.828125,0 c -0.203125,0 -0.296875,0 -0.296875,0.203125 C 2.03125,-6.5 2.125,-6.5 2.3125,-6.5 c 0.015625,0 0.203125,0 0.375,0.015625 0.1875,0.03125 0.265625,0.03125 0.265625,0.171875 0,0.03125 0,0.0625 -0.03125,0.1875 l -1.34375,5.34375 C 1.484375,-0.390625 1.46875,-0.3125 0.671875,-0.3125 0.5,-0.3125 0.40625,-0.3125 0.40625,-0.109375 0.40625,0 0.53125,0 0.546875,0 c 0.28125,0 0.984375,-0.03125 1.25,-0.03125 0.28125,0 1,0.03125 1.28125,0.03125 0.078125,0 0.1875,0 0.1875,-0.203125 0,-0.109375 -0.078125,-0.109375 -0.28125,-0.109375 -0.359375,0 -0.640625,0 -0.640625,-0.171875 0,-0.0625 0.015625,-0.109375 0.03125,-0.171875 l 0.65625,-2.640625 1.1875,0 c 0.90625,0 1.078125,0.5625 1.078125,0.90625 0,0.140625 -0.078125,0.453125 -0.140625,0.6875 C 5.09375,-1.421875 5,-1.0625 5,-0.859375 5,0.21875 6.203125,0.21875 6.328125,0.21875 c 0.84375,0 1.203125,-1 1.203125,-1.140625 0,-0.125 -0.109375,-0.125 -0.125,-0.125 -0.09375,0 -0.109375,0.0625 -0.125,0.140625 C 7.03125,-0.171875 6.59375,0 6.375,0 6.046875,0 5.96875,-0.21875 5.96875,-0.609375 c 0,-0.3125 0.0625,-0.8125 0.109375,-1.140625 0.015625,-0.140625 0.03125,-0.328125 0.03125,-0.46875 0,-0.765625 -0.671875,-1.078125 -0.9375,-1.171875 z m 0,0"
               id="path7892" />
          </symbol>
          <symbol
             style="overflow:visible"
             overflow="visible"
             id="symbol7894">
            <path
               inkscape:connector-curvature="0"
               style="stroke:none"
               d=""
               id="path7896" />
          </symbol>
          <symbol
             style="overflow:visible"
             overflow="visible"
             id="symbol7898">
            <path
               inkscape:connector-curvature="0"
               style="stroke:none"
               d="m 0.984375,-0.4375 c 0,0.125 0,0.1875 -0.1875,0.203125 C 0.6875,-0.21875 0.53125,-0.21875 0.421875,-0.21875 l 0,0.21875 2.1875,0 c 1.0625,0 1.90625,-0.75 1.90625,-1.671875 0,-0.9375 -0.828125,-1.734375 -1.90625,-1.734375 l -2.1875,0 0,0.21875 c 0.125,0 0.265625,0 0.375,0.015625 0.1875,0.015625 0.1875,0.078125 0.1875,0.203125 z m 0.75,0.21875 c -0.25,0 -0.25,-0.03125 -0.25,-0.203125 l 0,-2.5625 c 0,-0.171875 0,-0.203125 0.25,-0.203125 l 0.734375,0 c 0.59375,0 0.953125,0.25 1.078125,0.375 0.1875,0.1875 0.40625,0.484375 0.40625,1.140625 0,0.4375 -0.09375,0.796875 -0.390625,1.078125 -0.15625,0.15625 -0.515625,0.375 -1.09375,0.375 z m 0,0"
               id="path7900" />
          </symbol>
        </g>
      </defs>
      <g
         id="g7902">
        <g
           style="fill:#000000;fill-opacity:1"
           id="g7904">
          <use
             height="100%"
             width="100%"
             xlink:href="#textext-806a6b09-1"
             x="223.43201"
             y="134.765"
             id="use7906" />
        </g>
        <g
           style="fill:#000000;fill-opacity:1"
           id="g7908">
          <use
             height="100%"
             width="100%"
             xlink:href="#textext-806a6b09-3"
             x="230.99699"
             y="136.259"
             id="use7910" />
        </g>
      </g>
    </g>
    <g
       id="g7912"
       transform="matrix(6.0803108,0,0,6.0803108,-1177.2561,-730.21703)"
       ns0:preamble="/home/homer/misc/HRCommands.tex"
       ns0:text="$\\epsilon\\subt{E}, \\mu\\subt{E}$">
      <defs
         id="defs7914">
        <g
           id="g7916">
          <symbol
             id="symbol7918"
             overflow="visible"
             style="overflow:visible">
            <path
               id="path7920"
               d=""
               style="stroke:none"
               inkscape:connector-curvature="0" />
          </symbol>
          <symbol
             id="symbol7922"
             overflow="visible"
             style="overflow:visible">
            <path
               id="path7924"
               d="m 2.96875,-2.25 c 0.15625,0 0.34375,0 0.34375,-0.171875 0,-0.140625 -0.125,-0.140625 -0.296875,-0.140625 l -1.609375,0 c 0.234375,-0.84375 0.796875,-1.421875 1.703125,-1.421875 l 0.3125,0 c 0.171875,0 0.328125,0 0.328125,-0.171875 0,-0.140625 -0.125,-0.140625 -0.296875,-0.140625 l -0.359375,0 c -1.296875,0 -2.625,1 -2.625,2.515625 0,1.109375 0.75,1.890625 1.796875,1.890625 0.65625,0 1.296875,-0.40625 1.296875,-0.515625 0,-0.015625 0,-0.125 -0.09375,-0.125 -0.015625,0 -0.046875,0 -0.125,0.046875 -0.3125,0.203125 -0.6875,0.375 -1.046875,0.375 -0.578125,0 -1.078125,-0.421875 -1.078125,-1.296875 0,-0.34375 0.078125,-0.734375 0.109375,-0.84375 z m 0,0"
               style="stroke:none"
               inkscape:connector-curvature="0" />
          </symbol>
          <symbol
             id="symbol7926"
             overflow="visible"
             style="overflow:visible">
            <path
               id="path7928"
               d="m 2.03125,-0.015625 c 0,-0.65625 -0.25,-1.046875 -0.640625,-1.046875 -0.328125,0 -0.53125,0.25 -0.53125,0.53125 C 0.859375,-0.265625 1.0625,0 1.390625,0 1.5,0 1.640625,-0.046875 1.734375,-0.125 1.765625,-0.15625 1.78125,-0.15625 1.78125,-0.15625 c 0.015625,0 0.015625,0 0.015625,0.140625 0,0.75 -0.34375,1.34375 -0.671875,1.671875 -0.109375,0.109375 -0.109375,0.125 -0.109375,0.15625 0,0.078125 0.046875,0.109375 0.09375,0.109375 0.109375,0 0.921875,-0.765625 0.921875,-1.9375 z m 0,0"
               style="stroke:none"
               inkscape:connector-curvature="0" />
          </symbol>
          <symbol
             id="symbol7930"
             overflow="visible"
             style="overflow:visible">
            <path
               id="path7932"
               d="m 2.296875,-3.5 c 0.0625,-0.203125 0.15625,-0.59375 0.15625,-0.640625 0,-0.171875 -0.125,-0.265625 -0.296875,-0.265625 -0.015625,0 -0.296875,0.015625 -0.390625,0.359375 l -1.4375,5.765625 c -0.03125,0.125 -0.03125,0.140625 -0.03125,0.171875 0,0.140625 0.109375,0.265625 0.28125,0.265625 0.203125,0 0.328125,-0.1875 0.34375,-0.21875 C 0.96875,1.859375 1.09375,1.328125 1.46875,-0.203125 1.796875,0.0625 2.25,0.109375 2.4375,0.109375 c 0.703125,0 1.09375,-0.453125 1.328125,-0.734375 0.09375,0.453125 0.46875,0.734375 0.90625,0.734375 0.34375,0 0.578125,-0.234375 0.734375,-0.546875 0.171875,-0.359375 0.296875,-0.96875 0.296875,-0.984375 0,-0.109375 -0.09375,-0.109375 -0.125,-0.109375 -0.09375,0 -0.109375,0.046875 -0.140625,0.1875 -0.15625,0.640625 -0.34375,1.234375 -0.75,1.234375 -0.265625,0 -0.296875,-0.265625 -0.296875,-0.453125 0,-0.21875 0.109375,-0.6875 0.1875,-1.046875 L 4.859375,-2.6875 C 4.890625,-2.828125 5,-3.203125 5.03125,-3.359375 5.078125,-3.59375 5.1875,-3.96875 5.1875,-4.03125 c 0,-0.171875 -0.140625,-0.265625 -0.296875,-0.265625 -0.046875,0 -0.3125,0.015625 -0.390625,0.34375 l -0.46875,1.875 c -0.109375,0.5 -0.21875,0.90625 -0.25,1.015625 -0.015625,0.046875 -0.484375,0.953125 -1.296875,0.953125 -0.5,0 -0.734375,-0.328125 -0.734375,-0.875 0,-0.28125 0.0625,-0.5625 0.140625,-0.84375 z m 0,0"
               style="stroke:none"
               inkscape:connector-curvature="0" />
          </symbol>
          <symbol
             id="symbol7934"
             overflow="visible"
             style="overflow:visible">
            <path
               id="path7936"
               d=""
               style="stroke:none"
               inkscape:connector-curvature="0" />
          </symbol>
          <symbol
             id="symbol7938"
             overflow="visible"
             style="overflow:visible">
            <path
               id="path7940"
               d="m 4.171875,-1.34375 -0.21875,0 c -0.140625,0.8125 -0.328125,1.125 -1.28125,1.125 l -0.9375,0 C 1.5,-0.21875 1.5,-0.25 1.5,-0.40625 l 0,-1.234375 0.578125,0 c 0.5,0 0.640625,0.09375 0.640625,0.578125 l 0.203125,0 0,-1.390625 -0.203125,0 c 0,0.484375 -0.140625,0.59375 -0.640625,0.59375 l -0.578125,0 0,-1.109375 c 0,-0.15625 0,-0.203125 0.234375,-0.203125 l 0.890625,0 c 0.828125,0 1.046875,0.203125 1.15625,0.96875 l 0.21875,0 -0.171875,-1.1875 -3.421875,0 0,0.21875 0.15625,0 c 0.40625,0 0.40625,0.0625 0.40625,0.21875 l 0,2.53125 c 0,0.15625 0,0.203125 -0.40625,0.203125 l -0.15625,0 0,0.21875 3.515625,0 z m 0,0"
               style="stroke:none"
               inkscape:connector-curvature="0" />
          </symbol>
        </g>
      </defs>
      <g
         id="g7942">
        <g
           id="g7944"
           style="fill:#000000;fill-opacity:1">
          <use
             id="use7946"
             y="134.765"
             x="223.43201"
             xlink:href="#textext-07e35507-1"
             width="100%"
             height="100%" />
        </g>
        <g
           id="g7948"
           style="fill:#000000;fill-opacity:1">
          <use
             id="use7950"
             y="136.259"
             x="227.476"
             xlink:href="#textext-07e35507-5"
             width="100%"
             height="100%" />
        </g>
        <g
           id="g7952"
           style="fill:#000000;fill-opacity:1">
          <use
             id="use7954"
             y="134.765"
             x="232.457"
             xlink:href="#textext-07e35507-2"
             width="100%"
             height="100%" />
        </g>
        <g
           id="g7956"
           style="fill:#000000;fill-opacity:1">
          <use
             id="use7958"
             y="134.765"
             x="236.88837"
             xlink:href="#textext-07e35507-3"
             width="100%"
             height="100%" />
        </g>
        <g
           id="g7960"
           style="fill:#000000;fill-opacity:1">
          <use
             id="use7962"
             y="136.259"
             x="242.888"
             xlink:href="#textext-07e35507-5"
             width="100%"
             height="100%" />
        </g>
      </g>
    </g>
    <g
       id="g8356"
       transform="matrix(5.5275552,0,0,5.527555,-811.37778,-68.793541)"
       ns0:preamble="/home/homer/misc/HRCommands.tex"
       ns0:text="$\\sigma\\subt{S}$">
      <defs
         id="defs8358">
        <g
           id="g8360">
          <symbol
             id="textext-04463b50-0"
             overflow="visible"
             style="overflow:visible">
            <path
               id="path8363"
               d=""
               style="stroke:none"
               inkscape:connector-curvature="0" />
          </symbol>
          <symbol
             id="textext-04463b50-1"
             overflow="visible"
             style="overflow:visible">
            <path
               id="path8366"
               d="m 5.15625,-3.71875 c 0.140625,0 0.5,0 0.5,-0.34375 0,-0.234375 -0.21875,-0.234375 -0.390625,-0.234375 l -2.28125,0 c -1.5,0 -2.609375,1.640625 -2.609375,2.828125 0,0.875 0.59375,1.578125 1.5,1.578125 1.171875,0 2.5,-1.203125 2.5,-2.734375 0,-0.171875 0,-0.65625 -0.3125,-1.09375 z M 1.890625,-0.109375 C 1.390625,-0.109375 1,-0.46875 1,-1.1875 c 0,-0.296875 0.109375,-1.109375 0.46875,-1.703125 0.421875,-0.6875 1.015625,-0.828125 1.359375,-0.828125 0.828125,0 0.90625,0.65625 0.90625,0.96875 0,0.46875 -0.203125,1.28125 -0.53125,1.796875 -0.390625,0.578125 -0.9375,0.84375 -1.3125,0.84375 z m 0,0"
               style="stroke:none"
               inkscape:connector-curvature="0" />
          </symbol>
          <symbol
             id="textext-04463b50-2"
             overflow="visible"
             style="overflow:visible">
            <path
               id="path8369"
               d=""
               style="stroke:none"
               inkscape:connector-curvature="0" />
          </symbol>
          <symbol
             id="textext-04463b50-3"
             overflow="visible"
             style="overflow:visible">
            <path
               id="path8372"
               d="m 3.078125,-3.375 c 0,-0.078125 0,-0.140625 -0.078125,-0.140625 -0.03125,0 -0.0625,0 -0.109375,0.0625 l -0.1875,0.296875 c -0.234375,-0.21875 -0.546875,-0.359375 -1,-0.359375 -0.71875,0 -1.21875,0.4375 -1.21875,0.9375 0,0.28125 0.15625,0.5 0.296875,0.625 0.265625,0.21875 0.515625,0.265625 0.734375,0.3125 0.09375,0.015625 0.75,0.15625 0.796875,0.15625 0.328125,0.078125 0.640625,0.328125 0.640625,0.671875 0,0.34375 -0.359375,0.703125 -0.9375,0.703125 -0.21875,0 -0.640625,-0.03125 -0.953125,-0.234375 -0.234375,-0.15625 -0.359375,-0.375 -0.375,-0.671875 0,-0.078125 0,-0.109375 -0.09375,-0.109375 -0.109375,0 -0.109375,0.03125 -0.109375,0.140625 l 0,0.953125 c 0,0.09375 0,0.140625 0.078125,0.140625 0.046875,0 0.0625,-0.015625 0.09375,-0.0625 0.015625,-0.03125 0.1875,-0.265625 0.1875,-0.28125 0.375,0.28125 0.84375,0.34375 1.171875,0.34375 0.75,0 1.234375,-0.5 1.234375,-1.015625 C 3.25,-1.28125 3.015625,-1.5 2.9375,-1.578125 2.703125,-1.8125 2.421875,-1.859375 2.015625,-1.9375 1.734375,-2 1.453125,-2.046875 1.40625,-2.0625 1.203125,-2.109375 0.78125,-2.28125 0.78125,-2.671875 0.78125,-3 1.15625,-3.3125 1.703125,-3.3125 c 0.890625,0 1.109375,0.59375 1.15625,0.953125 0.015625,0.078125 0.03125,0.09375 0.109375,0.09375 0.109375,0 0.109375,-0.046875 0.109375,-0.140625 z m 0,0"
               style="stroke:none"
               inkscape:connector-curvature="0" />
          </symbol>
        </g>
      </defs>
      <g
         id="textext-04463b50-4">
        <g
           id="g8375"
           style="fill:#000000;fill-opacity:1">
          <use
             id="use8377"
             y="134.765"
             x="223.43201"
             xlink:href="#textext-04463b50-1"
             width="100%"
             height="100%" />
        </g>
        <g
           id="g8379"
           style="fill:#000000;fill-opacity:1">
          <use
             id="use8381"
             y="136.259"
             x="229.125"
             xlink:href="#textext-04463b50-3"
             width="100%"
             height="100%" />
        </g>
      </g>
    </g>
    <path
       style="fill:none;fill-rule:evenodd;stroke:#000000;stroke-width:1px;stroke-linecap:butt;stroke-linejoin:miter;stroke-opacity:1"
       d="m 376.86882,628.68036 c 40,30 40,30 40,30"
       id="path8659"
       inkscape:connector-curvature="0" />
    <g
       ns0:text="\\textbf{(a)}"
       ns0:preamble="/home/homer/misc/HRCommands.tex"
       transform="matrix(6.0803108,0,0,6.0803108,-1852.2561,54.78297)"
       id="g10390">
      <defs
         id="defs10392">
        <g
           id="g10394">
          <symbol
             style="overflow:visible"
             overflow="visible"
             id="textext-cbe14fb5-0">
            <path
               inkscape:connector-curvature="0"
               style="stroke:none"
               d=""
               id="path10397" />
          </symbol>
          <symbol
             style="overflow:visible"
             overflow="visible"
             id="textext-cbe14fb5-1">
            <path
               inkscape:connector-curvature="0"
               style="stroke:none"
               d="M 3.78125,2.25 C 3.484375,1.96875 2.84375,1.359375 2.421875,0.09375 2.15625,-0.703125 2.046875,-1.609375 2.046875,-2.5 c 0,-1.953125 0.5,-3.515625 1.609375,-4.625 0.140625,-0.15625 0.15625,-0.15625 0.15625,-0.21875 0,-0.109375 -0.109375,-0.140625 -0.1875,-0.140625 -0.171875,0 -0.578125,0.375 -0.765625,0.546875 -1.546875,1.546875 -1.78125,3.375 -1.78125,4.4375 0,1.25 0.328125,2.34375 0.796875,3.171875 0.65625,1.140625 1.5625,1.8125 1.75,1.8125 0.078125,0 0.1875,-0.03125 0.1875,-0.140625 C 3.8125,2.296875 3.78125,2.25 3.78125,2.25 Z m 0,0"
               id="path10400" />
          </symbol>
          <symbol
             style="overflow:visible"
             overflow="visible"
             id="textext-cbe14fb5-2">
            <path
               inkscape:connector-curvature="0"
               style="stroke:none"
               d="m 3.734375,-0.765625 c 0,0.3125 0,0.765625 1.03125,0.765625 L 5.25,0 C 5.4375,0 5.5625,0 5.5625,-0.234375 5.5625,-0.46875 5.4375,-0.46875 5.296875,-0.46875 4.6875,-0.484375 4.6875,-0.609375 4.6875,-0.84375 l 0,-2.140625 c 0,-0.890625 -0.703125,-1.53125 -2.1875,-1.53125 -0.5625,0 -1.78125,0.046875 -1.78125,0.921875 0,0.4375 0.34375,0.625 0.609375,0.625 0.3125,0 0.640625,-0.21875 0.640625,-0.625 0,-0.296875 -0.1875,-0.46875 -0.21875,-0.5 0.28125,-0.046875 0.59375,-0.0625 0.71875,-0.0625 0.734375,0 1.09375,0.421875 1.09375,1.171875 l 0,0.34375 c -0.71875,0.03125 -3.25,0.125 -3.25,1.5625 0,0.953125 1.25,1.140625 1.9375,1.140625 0.796875,0 1.265625,-0.40625 1.484375,-0.828125 z m -0.171875,-1.5625 0,0.9375 c 0,0.96875 -0.921875,1.09375 -1.171875,1.09375 -0.5,0 -0.90625,-0.34375 -0.90625,-0.796875 0,-1.0625 1.578125,-1.203125 2.078125,-1.234375 z m 0,0"
               id="path10403" />
          </symbol>
          <symbol
             style="overflow:visible"
             overflow="visible"
             id="textext-cbe14fb5-3">
            <path
               inkscape:connector-curvature="0"
               style="stroke:none"
               d="M 3.375,-2.5 C 3.375,-3.734375 3.046875,-4.828125 2.578125,-5.65625 1.90625,-6.8125 1,-7.484375 0.8125,-7.484375 c -0.078125,0 -0.171875,0.03125 -0.171875,0.140625 0,0.0625 0,0.078125 0.171875,0.234375 1.25,1.28125 1.59375,3.046875 1.59375,4.609375 0,1.96875 -0.515625,3.53125 -1.609375,4.640625 -0.15625,0.140625 -0.15625,0.15625 -0.15625,0.203125 0,0.109375 0.09375,0.140625 0.171875,0.140625 0.171875,0 0.59375,-0.375 0.765625,-0.546875 C 3.140625,0.40625 3.375,-1.4375 3.375,-2.5 Z m 0,0"
               id="path10406" />
          </symbol>
        </g>
      </defs>
      <g
         id="textext-cbe14fb5-4">
        <g
           style="fill:#000000;fill-opacity:1"
           id="g10409">
          <use
             height="100%"
             width="100%"
             xlink:href="#textext-cbe14fb5-1"
             x="223.43201"
             y="134.765"
             id="use10411" />
          <use
             height="100%"
             width="100%"
             xlink:href="#textext-cbe14fb5-2"
             x="227.88727"
             y="134.765"
             id="use10413" />
          <use
             height="100%"
             width="100%"
             xlink:href="#textext-cbe14fb5-3"
             x="233.45638"
             y="134.765"
             id="use10415" />
        </g>
      </g>
    </g>
    <g
       id="g11037"
       transform="matrix(6.0803108,0,0,6.0803108,-1152.2561,54.78297)"
       ns0:preamble="/home/homer/misc/HRCommands.tex"
       ns0:text="\\textbf{(b)}">
      <defs
         id="defs11039">
        <g
           id="g11041">
          <symbol
             id="textext-bc6e0dfb-0"
             overflow="visible"
             style="overflow:visible">
            <path
               id="path11044"
               d=""
               style="stroke:none"
               inkscape:connector-curvature="0" />
          </symbol>
          <symbol
             id="textext-bc6e0dfb-1"
             overflow="visible"
             style="overflow:visible">
            <path
               id="path11047"
               d="M 3.78125,2.25 C 3.484375,1.96875 2.84375,1.359375 2.421875,0.09375 2.15625,-0.703125 2.046875,-1.609375 2.046875,-2.5 c 0,-1.953125 0.5,-3.515625 1.609375,-4.625 0.140625,-0.15625 0.15625,-0.15625 0.15625,-0.21875 0,-0.109375 -0.109375,-0.140625 -0.1875,-0.140625 -0.171875,0 -0.578125,0.375 -0.765625,0.546875 -1.546875,1.546875 -1.78125,3.375 -1.78125,4.4375 0,1.25 0.328125,2.34375 0.796875,3.171875 0.65625,1.140625 1.5625,1.8125 1.75,1.8125 0.078125,0 0.1875,-0.03125 0.1875,-0.140625 C 3.8125,2.296875 3.78125,2.25 3.78125,2.25 Z m 0,0"
               style="stroke:none"
               inkscape:connector-curvature="0" />
          </symbol>
          <symbol
             id="textext-bc6e0dfb-2"
             overflow="visible"
             style="overflow:visible">
            <path
               id="path11050"
               d="m 2.140625,-4 0,-2.921875 -1.765625,0.078125 0,0.46875 c 0.609375,0 0.6875,0 0.6875,0.390625 L 1.0625,0 1.53125,0 2.015625,-0.5625 c 0.078125,0.078125 0.5625,0.625 1.453125,0.625 1.484375,0 2.515625,-0.90625 2.515625,-2.28125 0,-1.328125 -0.9375,-2.265625 -2.390625,-2.265625 C 2.875,-4.484375 2.375,-4.203125 2.140625,-4 Z m 0.046875,3.015625 0,-2.5 C 2.46875,-3.84375 2.9375,-4.125 3.484375,-4.125 c 1.21875,0 1.21875,1.203125 1.21875,1.90625 0,0.46875 0,1.015625 -0.25,1.40625 -0.296875,0.40625 -0.75,0.515625 -1.078125,0.515625 -0.6875,0 -1.078125,-0.546875 -1.1875,-0.6875 z m 0,0"
               style="stroke:none"
               inkscape:connector-curvature="0" />
          </symbol>
          <symbol
             id="textext-bc6e0dfb-3"
             overflow="visible"
             style="overflow:visible">
            <path
               id="path11053"
               d="M 3.375,-2.5 C 3.375,-3.734375 3.046875,-4.828125 2.578125,-5.65625 1.90625,-6.8125 1,-7.484375 0.8125,-7.484375 c -0.078125,0 -0.171875,0.03125 -0.171875,0.140625 0,0.0625 0,0.078125 0.171875,0.234375 1.25,1.28125 1.59375,3.046875 1.59375,4.609375 0,1.96875 -0.515625,3.53125 -1.609375,4.640625 -0.15625,0.140625 -0.15625,0.15625 -0.15625,0.203125 0,0.109375 0.09375,0.140625 0.171875,0.140625 0.171875,0 0.59375,-0.375 0.765625,-0.546875 C 3.140625,0.40625 3.375,-1.4375 3.375,-2.5 Z m 0,0"
               style="stroke:none"
               inkscape:connector-curvature="0" />
          </symbol>
        </g>
      </defs>
      <g
         id="textext-bc6e0dfb-4">
        <g
           id="g11056"
           style="fill:#000000;fill-opacity:1">
          <use
             id="use11058"
             y="134.765"
             x="223.43201"
             xlink:href="#textext-bc6e0dfb-1"
             width="100%"
             height="100%" />
          <use
             id="use11060"
             y="134.765"
             x="227.88727"
             xlink:href="#textext-bc6e0dfb-2"
             width="100%"
             height="100%" />
          <use
             id="use11062"
             y="134.765"
             x="234.25238"
             xlink:href="#textext-bc6e0dfb-3"
             width="100%"
             height="100%" />
        </g>
      </g>
    </g>
  </g>
</svg>
