<?xml version="1.0" encoding="UTF-8" standalone="no"?>
<!-- Created with Inkscape (http://www.inkscape.org/) -->

<svg
   xmlns:ns0="http://www.iki.fi/pav/software/textext/"
   xmlns:dc="http://purl.org/dc/elements/1.1/"
   xmlns:cc="http://creativecommons.org/ns#"
   xmlns:rdf="http://www.w3.org/1999/02/22-rdf-syntax-ns#"
   xmlns:svg="http://www.w3.org/2000/svg"
   xmlns="http://www.w3.org/2000/svg"
   xmlns:xlink="http://www.w3.org/1999/xlink"
   xmlns:sodipodi="http://sodipodi.sourceforge.net/DTD/sodipodi-0.dtd"
   xmlns:inkscape="http://www.inkscape.org/namespaces/inkscape"
   width="118.57265mm"
   height="141.55843mm"
   viewBox="0 0 420.13931 501.58498"
   id="svg2"
   version="1.1"
   inkscape:version="0.91 r"
   sodipodi:docname="IBCSphere.svg">
  <sodipodi:namedview
     id="base"
     pagecolor="#ffffff"
     bordercolor="#666666"
     borderopacity="1.0"
     inkscape:pageopacity="0.0"
     inkscape:pageshadow="2"
     inkscape:zoom="1.0924247"
     inkscape:cx="852.53714"
     inkscape:cy="178.02605"
     inkscape:document-units="px"
     inkscape:current-layer="layer1"
     showgrid="true"
     inkscape:window-width="3200"
     inkscape:window-height="1714"
     inkscape:window-x="0"
     inkscape:window-y="0"
     inkscape:window-maximized="1"
     fit-margin-top="0"
     fit-margin-left="0"
     fit-margin-right="0"
     fit-margin-bottom="0">
    <inkscape:grid
       originy="-389.93035"
       originx="660.06965"
       spacingy="10"
       spacingx="10"
       id="grid4136"
       type="xygrid" />
  </sodipodi:namedview>
  <defs
     id="defs4">
    <marker
       inkscape:stockid="Arrow2Lstart"
       orient="auto"
       refY="0"
       refX="0"
       id="marker14119"
       style="overflow:visible"
       inkscape:isstock="true">
      <path
         id="path14121"
         style="fill:#000000;fill-opacity:1;fill-rule:evenodd;stroke:#000000;stroke-width:0.625;stroke-linejoin:round;stroke-opacity:1"
         d="M 8.7185878,4.0337352 -2.2072895,0.01601326 8.7185884,-4.0017078 c -1.7454984,2.3720609 -1.7354408,5.6174519 -6e-7,8.035443 z"
         transform="matrix(1.1,0,0,1.1,1.1,0)"
         inkscape:connector-curvature="0" />
    </marker>
    <marker
       inkscape:stockid="Arrow2Lstart"
       orient="auto"
       refY="0"
       refX="0"
       id="marker13509"
       style="overflow:visible"
       inkscape:isstock="true">
      <path
         id="path13511"
         style="fill:#000000;fill-opacity:1;fill-rule:evenodd;stroke:#000000;stroke-width:0.625;stroke-linejoin:round;stroke-opacity:1"
         d="M 8.7185878,4.0337352 -2.2072895,0.01601326 8.7185884,-4.0017078 c -1.7454984,2.3720609 -1.7354408,5.6174519 -6e-7,8.035443 z"
         transform="matrix(1.1,0,0,1.1,1.1,0)"
         inkscape:connector-curvature="0" />
    </marker>
    <marker
       inkscape:isstock="true"
       style="overflow:visible"
       id="marker75506"
       refX="0"
       refY="0"
       orient="auto"
       inkscape:stockid="Arrow2Lend">
      <path
         transform="matrix(-1.1,0,0,-1.1,-1.1,0)"
         d="M 8.7185878,4.0337352 -2.2072895,0.01601326 8.7185884,-4.0017078 c -1.7454984,2.3720609 -1.7354408,5.6174519 -6e-7,8.035443 z"
         style="fill:#000000;fill-opacity:1;fill-rule:evenodd;stroke:#000000;stroke-width:0.625;stroke-linejoin:round;stroke-opacity:1"
         id="path75508"
         inkscape:connector-curvature="0" />
    </marker>
    <marker
       inkscape:collect="always"
       inkscape:isstock="true"
       style="overflow:visible"
       id="marker75496"
       refX="0"
       refY="0"
       orient="auto"
       inkscape:stockid="Arrow2Lstart">
      <path
         transform="matrix(1.1,0,0,1.1,1.1,0)"
         d="M 8.7185878,4.0337352 -2.2072895,0.01601326 8.7185884,-4.0017078 c -1.7454984,2.3720609 -1.7354408,5.6174519 -6e-7,8.035443 z"
         style="fill:#000000;fill-opacity:1;fill-rule:evenodd;stroke:#000000;stroke-width:0.625;stroke-linejoin:round;stroke-opacity:1"
         id="path75498"
         inkscape:connector-curvature="0" />
    </marker>
    <marker
       inkscape:stockid="Arrow1Lend"
       orient="auto"
       refY="0"
       refX="0"
       id="marker72477"
       style="overflow:visible"
       inkscape:isstock="true">
      <path
         id="path72479"
         d="M 0,0 5,-5 -12.5,0 5,5 0,0 Z"
         style="fill:#000000;fill-opacity:1;fill-rule:evenodd;stroke:#000000;stroke-width:1pt;stroke-opacity:1"
         transform="matrix(-0.8,0,0,-0.8,-10,0)"
         inkscape:connector-curvature="0" />
    </marker>
    <marker
       inkscape:isstock="true"
       style="overflow:visible"
       id="marker21849"
       refX="0"
       refY="0"
       orient="auto"
       inkscape:stockid="Arrow1Lend">
      <path
         inkscape:connector-curvature="0"
         transform="matrix(-0.8,0,0,-0.8,-10,0)"
         style="fill:#000000;fill-opacity:1;fill-rule:evenodd;stroke:#000000;stroke-width:1pt;stroke-opacity:1"
         d="M 0,0 5,-5 -12.5,0 5,5 0,0 Z"
         id="path21851" />
    </marker>
    <marker
       inkscape:stockid="Arrow1Lend"
       orient="auto"
       refY="0"
       refX="0"
       id="marker7902"
       style="overflow:visible"
       inkscape:isstock="true">
      <path
         inkscape:connector-curvature="0"
         id="path7904"
         d="M 0,0 5,-5 -12.5,0 5,5 0,0 Z"
         style="fill:#000000;fill-opacity:1;fill-rule:evenodd;stroke:#000000;stroke-width:1pt;stroke-opacity:1"
         transform="matrix(-0.8,0,0,-0.8,-10,0)" />
    </marker>
    <marker
       inkscape:isstock="true"
       style="overflow:visible"
       id="marker5896"
       refX="0"
       refY="0"
       orient="auto"
       inkscape:stockid="Arrow1Lend">
      <path
         inkscape:connector-curvature="0"
         transform="matrix(-0.8,0,0,-0.8,-10,0)"
         style="fill:#000000;fill-opacity:1;fill-rule:evenodd;stroke:#000000;stroke-width:1pt;stroke-opacity:1"
         d="M 0,0 5,-5 -12.5,0 5,5 0,0 Z"
         id="path5898" />
    </marker>
    <marker
       inkscape:isstock="true"
       style="overflow:visible"
       id="marker5362"
       refX="0"
       refY="0"
       orient="auto"
       inkscape:stockid="Arrow1Lend">
      <path
         inkscape:connector-curvature="0"
         transform="matrix(-0.8,0,0,-0.8,-10,0)"
         style="fill:#000000;fill-opacity:1;fill-rule:evenodd;stroke:#000000;stroke-width:1pt;stroke-opacity:1"
         d="M 0,0 5,-5 -12.5,0 5,5 0,0 Z"
         id="path5364" />
    </marker>
    <marker
       inkscape:stockid="Arrow1Lend"
       orient="auto"
       refY="0"
       refX="0"
       id="marker4954"
       style="overflow:visible"
       inkscape:isstock="true">
      <path
         inkscape:connector-curvature="0"
         id="path4956"
         d="M 0,0 5,-5 -12.5,0 5,5 0,0 Z"
         style="fill:#000000;fill-opacity:1;fill-rule:evenodd;stroke:#000000;stroke-width:1pt;stroke-opacity:1"
         transform="matrix(-0.8,0,0,-0.8,-10,0)" />
    </marker>
  </defs>
  <metadata
     id="metadata7">
    <rdf:RDF>
      <cc:Work
         rdf:about="">
        <dc:format>image/svg+xml</dc:format>
        <dc:type
           rdf:resource="http://purl.org/dc/dcmitype/StillImage" />
        <dc:title></dc:title>
      </cc:Work>
    </rdf:RDF>
  </metadata>
  <g
     transform="translate(660.06966,-160.84688)"
     id="layer1"
     inkscape:groupmode="layer"
     inkscape:label="Layer 1">
    <g
       ns0:text="$z=T\\subt{C}$"
       ns0:preamble="/home/homer/misc/HRCommands.tex"
       transform="matrix(3.1201608,0,0,3.1201607,-793.95166,-161.79854)"
       id="g72405">
      <defs
         id="defs72407">
        <g
           id="g72409">
          <symbol
             style="overflow:visible"
             overflow="visible"
             id="symbol72411">
            <path
               inkscape:connector-curvature="0"
               style="stroke:none"
               d=""
               id="path72413" />
          </symbol>
          <symbol
             style="overflow:visible"
             overflow="visible"
             id="symbol72415">
            <path
               inkscape:connector-curvature="0"
               style="stroke:none"
               d="m 1.328125,-0.828125 c 0.53125,-0.578125 0.828125,-0.828125 1.1875,-1.140625 0,0 0.609375,-0.53125 0.96875,-0.890625 C 4.4375,-3.78125 4.65625,-4.265625 4.65625,-4.3125 c 0,-0.09375 -0.09375,-0.09375 -0.109375,-0.09375 -0.078125,0 -0.09375,0.015625 -0.15625,0.109375 -0.296875,0.484375 -0.5,0.640625 -0.734375,0.640625 -0.25,0 -0.359375,-0.15625 -0.515625,-0.328125 -0.1875,-0.21875 -0.359375,-0.421875 -0.6875,-0.421875 -0.75,0 -1.203125,0.921875 -1.203125,1.140625 0,0.046875 0.03125,0.109375 0.109375,0.109375 0.09375,0 0.109375,-0.046875 0.140625,-0.109375 0.1875,-0.46875 0.765625,-0.46875 0.84375,-0.46875 0.203125,0 0.390625,0.0625 0.625,0.140625 0.40625,0.15625 0.515625,0.15625 0.765625,0.15625 -0.359375,0.421875 -1.1875,1.140625 -1.375,1.296875 l -0.90625,0.84375 C 0.78125,-0.625 0.421875,-0.0625 0.421875,0.015625 c 0,0.09375 0.109375,0.09375 0.125,0.09375 0.078125,0 0.09375,-0.015625 0.15625,-0.125 0.234375,-0.359375 0.53125,-0.625 0.859375,-0.625 0.21875,0 0.328125,0.09375 0.578125,0.375 0.15625,0.21875 0.34375,0.375 0.625,0.375 1,0 1.578125,-1.265625 1.578125,-1.53125 0,-0.046875 -0.046875,-0.109375 -0.125,-0.109375 -0.09375,0 -0.109375,0.0625 -0.140625,0.140625 C 3.84375,-0.75 3.203125,-0.5625 2.875,-0.5625 c -0.1875,0 -0.375,-0.0625 -0.578125,-0.125 -0.34375,-0.125 -0.5,-0.171875 -0.703125,-0.171875 -0.015625,0 -0.171875,0 -0.265625,0.03125 z m 0,0"
               id="path72417" />
          </symbol>
          <symbol
             style="overflow:visible"
             overflow="visible"
             id="symbol72419">
            <path
               inkscape:connector-curvature="0"
               style="stroke:none"
               d="m 4.25,-6.046875 c 0.078125,-0.28125 0.109375,-0.34375 0.234375,-0.375 0.09375,-0.015625 0.421875,-0.015625 0.625,-0.015625 1.015625,0 1.453125,0.03125 1.453125,0.8125 0,0.15625 -0.03125,0.546875 -0.078125,0.796875 0,0.046875 -0.03125,0.15625 -0.03125,0.1875 0,0.0625 0.03125,0.140625 0.125,0.140625 0.109375,0 0.125,-0.078125 0.15625,-0.234375 L 7,-6.46875 C 7.015625,-6.515625 7.015625,-6.609375 7.015625,-6.640625 7.015625,-6.75 6.921875,-6.75 6.75,-6.75 l -5.53125,0 c -0.234375,0 -0.25,0.015625 -0.328125,0.203125 l -0.59375,1.75 c 0,0.015625 -0.0625,0.15625 -0.0625,0.1875 0,0.046875 0.0625,0.109375 0.125,0.109375 0.09375,0 0.109375,-0.0625 0.171875,-0.21875 C 1.0625,-6.265625 1.328125,-6.4375 2.796875,-6.4375 l 0.390625,0 c 0.28125,0 0.28125,0.03125 0.28125,0.125 0,0.046875 -0.03125,0.171875 -0.046875,0.203125 L 2.09375,-0.78125 C 2,-0.421875 1.96875,-0.3125 0.90625,-0.3125 c -0.359375,0 -0.421875,0 -0.421875,0.1875 C 0.484375,0 0.59375,0 0.65625,0 c 0.265625,0 0.546875,-0.015625 0.8125,-0.015625 0.28125,0 0.578125,-0.015625 0.859375,-0.015625 0.28125,0 0.546875,0.015625 0.828125,0.015625 C 3.4375,-0.015625 3.734375,0 4.015625,0 c 0.09375,0 0.21875,0 0.21875,-0.203125 0,-0.109375 -0.078125,-0.109375 -0.34375,-0.109375 -0.234375,0 -0.375,0 -0.625,-0.015625 -0.296875,-0.03125 -0.375,-0.0625 -0.375,-0.21875 0,-0.015625 0,-0.0625 0.046875,-0.203125 z m 0,0"
               id="path72421" />
          </symbol>
          <symbol
             style="overflow:visible"
             overflow="visible"
             id="symbol72423">
            <path
               inkscape:connector-curvature="0"
               style="stroke:none"
               d=""
               id="path72425" />
          </symbol>
          <symbol
             style="overflow:visible"
             overflow="visible"
             id="symbol72427">
            <path
               inkscape:connector-curvature="0"
               style="stroke:none"
               d="m 6.84375,-3.265625 c 0.15625,0 0.34375,0 0.34375,-0.1875 C 7.1875,-3.65625 7,-3.65625 6.859375,-3.65625 l -5.96875,0 c -0.140625,0 -0.328125,0 -0.328125,0.203125 0,0.1875 0.1875,0.1875 0.328125,0.1875 z m 0.015625,1.9375 c 0.140625,0 0.328125,0 0.328125,-0.203125 0,-0.1875 -0.1875,-0.1875 -0.34375,-0.1875 l -5.953125,0 c -0.140625,0 -0.328125,0 -0.328125,0.1875 0,0.203125 0.1875,0.203125 0.328125,0.203125 z m 0,0"
               id="path72429" />
          </symbol>
          <symbol
             style="overflow:visible"
             overflow="visible"
             id="symbol72431">
            <path
               inkscape:connector-curvature="0"
               style="stroke:none"
               d=""
               id="path72433" />
          </symbol>
          <symbol
             style="overflow:visible"
             overflow="visible"
             id="symbol72435">
            <path
               inkscape:connector-curvature="0"
               style="stroke:none"
               d="m 4.28125,-3.375 c 0,-0.078125 0,-0.140625 -0.078125,-0.140625 -0.046875,0 -0.0625,0.015625 -0.09375,0.0625 l -0.296875,0.375 c -0.296875,-0.25 -0.6875,-0.4375 -1.171875,-0.4375 -1.203125,0 -2.15625,0.828125 -2.15625,1.8125 0,0.984375 0.953125,1.8125 2.15625,1.8125 0.96875,0 1.640625,-0.609375 1.640625,-1.28125 0,-0.078125 -0.015625,-0.09375 -0.09375,-0.09375 -0.0625,0 -0.109375,0 -0.109375,0.078125 C 4.03125,-0.421875 3.3125,-0.109375 2.734375,-0.109375 2.03125,-0.109375 1.0625,-0.5 1.0625,-1.703125 c 0,-1.1875 0.9375,-1.59375 1.65625,-1.59375 0.453125,0 1.1875,0.234375 1.34375,1.171875 0.015625,0.0625 0.078125,0.0625 0.109375,0.0625 0.109375,0 0.109375,-0.046875 0.109375,-0.140625 z m 0,0"
               id="path72437" />
          </symbol>
        </g>
      </defs>
      <g
         id="g72439">
        <g
           style="fill:#000000;fill-opacity:1"
           id="g72441">
          <use
             height="100%"
             width="100%"
             xlink:href="#textext-a56202db-1"
             x="223.43201"
             y="134.765"
             id="use72443" />
        </g>
        <g
           style="fill:#000000;fill-opacity:1"
           id="g72445">
          <use
             height="100%"
             width="100%"
             xlink:href="#textext-a56202db-4"
             x="231.271"
             y="134.765"
             id="use72447" />
        </g>
        <g
           style="fill:#000000;fill-opacity:1"
           id="g72449">
          <use
             height="100%"
             width="100%"
             xlink:href="#textext-a56202db-2"
             x="241.787"
             y="134.765"
             id="use72451" />
        </g>
        <g
           style="fill:#000000;fill-opacity:1"
           id="g72453">
          <use
             height="100%"
             width="100%"
             xlink:href="#textext-a56202db-6"
             x="247.60899"
             y="136.259"
             id="use72455" />
        </g>
      </g>
    </g>
    <circle
       r="208.06966"
       cy="452.36221"
       cx="-450"
       id="circle5264"
       style="opacity:1;fill:#dcdcdc;fill-opacity:1;stroke:#00ffff;stroke-width:4;stroke-miterlimit:4;stroke-dasharray:none;stroke-dashoffset:0;stroke-opacity:1" />
    <g
       ns0:text="$\\epsilon\\subt{A}, \\mu\\subt{A}$"
       ns0:preamble="/home/homer/misc/HRCommands.tex"
       transform="matrix(6.0803108,0,0,6.0803108,-1883.011,-456.77484)"
       id="g6382">
      <defs
         id="defs6384">
        <g
           id="g6386">
          <symbol
             style="overflow:visible"
             overflow="visible"
             id="symbol6388">
            <path
               inkscape:connector-curvature="0"
               style="stroke:none"
               d=""
               id="path6390" />
          </symbol>
          <symbol
             style="overflow:visible"
             overflow="visible"
             id="symbol6392">
            <path
               inkscape:connector-curvature="0"
               style="stroke:none"
               d="m 2.96875,-2.25 c 0.15625,0 0.34375,0 0.34375,-0.171875 0,-0.140625 -0.125,-0.140625 -0.296875,-0.140625 l -1.609375,0 c 0.234375,-0.84375 0.796875,-1.421875 1.703125,-1.421875 l 0.3125,0 c 0.171875,0 0.328125,0 0.328125,-0.171875 0,-0.140625 -0.125,-0.140625 -0.296875,-0.140625 l -0.359375,0 c -1.296875,0 -2.625,1 -2.625,2.515625 0,1.109375 0.75,1.890625 1.796875,1.890625 0.65625,0 1.296875,-0.40625 1.296875,-0.515625 0,-0.015625 0,-0.125 -0.09375,-0.125 -0.015625,0 -0.046875,0 -0.125,0.046875 -0.3125,0.203125 -0.6875,0.375 -1.046875,0.375 -0.578125,0 -1.078125,-0.421875 -1.078125,-1.296875 0,-0.34375 0.078125,-0.734375 0.109375,-0.84375 z m 0,0"
               id="path6394" />
          </symbol>
          <symbol
             style="overflow:visible"
             overflow="visible"
             id="symbol6396">
            <path
               inkscape:connector-curvature="0"
               style="stroke:none"
               d="m 2.03125,-0.015625 c 0,-0.65625 -0.25,-1.046875 -0.640625,-1.046875 -0.328125,0 -0.53125,0.25 -0.53125,0.53125 C 0.859375,-0.265625 1.0625,0 1.390625,0 1.5,0 1.640625,-0.046875 1.734375,-0.125 1.765625,-0.15625 1.78125,-0.15625 1.78125,-0.15625 c 0.015625,0 0.015625,0 0.015625,0.140625 0,0.75 -0.34375,1.34375 -0.671875,1.671875 -0.109375,0.109375 -0.109375,0.125 -0.109375,0.15625 0,0.078125 0.046875,0.109375 0.09375,0.109375 0.109375,0 0.921875,-0.765625 0.921875,-1.9375 z m 0,0"
               id="path6398" />
          </symbol>
          <symbol
             style="overflow:visible"
             overflow="visible"
             id="symbol6400">
            <path
               inkscape:connector-curvature="0"
               style="stroke:none"
               d="m 2.296875,-3.5 c 0.0625,-0.203125 0.15625,-0.59375 0.15625,-0.640625 0,-0.171875 -0.125,-0.265625 -0.296875,-0.265625 -0.015625,0 -0.296875,0.015625 -0.390625,0.359375 l -1.4375,5.765625 c -0.03125,0.125 -0.03125,0.140625 -0.03125,0.171875 0,0.140625 0.109375,0.265625 0.28125,0.265625 0.203125,0 0.328125,-0.1875 0.34375,-0.21875 C 0.96875,1.859375 1.09375,1.328125 1.46875,-0.203125 1.796875,0.0625 2.25,0.109375 2.4375,0.109375 c 0.703125,0 1.09375,-0.453125 1.328125,-0.734375 0.09375,0.453125 0.46875,0.734375 0.90625,0.734375 0.34375,0 0.578125,-0.234375 0.734375,-0.546875 0.171875,-0.359375 0.296875,-0.96875 0.296875,-0.984375 0,-0.109375 -0.09375,-0.109375 -0.125,-0.109375 -0.09375,0 -0.109375,0.046875 -0.140625,0.1875 -0.15625,0.640625 -0.34375,1.234375 -0.75,1.234375 -0.265625,0 -0.296875,-0.265625 -0.296875,-0.453125 0,-0.21875 0.109375,-0.6875 0.1875,-1.046875 L 4.859375,-2.6875 C 4.890625,-2.828125 5,-3.203125 5.03125,-3.359375 5.078125,-3.59375 5.1875,-3.96875 5.1875,-4.03125 c 0,-0.171875 -0.140625,-0.265625 -0.296875,-0.265625 -0.046875,0 -0.3125,0.015625 -0.390625,0.34375 l -0.46875,1.875 c -0.109375,0.5 -0.21875,0.90625 -0.25,1.015625 -0.015625,0.046875 -0.484375,0.953125 -1.296875,0.953125 -0.5,0 -0.734375,-0.328125 -0.734375,-0.875 0,-0.28125 0.0625,-0.5625 0.140625,-0.84375 z m 0,0"
               id="path6402" />
          </symbol>
          <symbol
             style="overflow:visible"
             overflow="visible"
             id="symbol6404">
            <path
               inkscape:connector-curvature="0"
               style="stroke:none"
               d=""
               id="path6406" />
          </symbol>
          <symbol
             style="overflow:visible"
             overflow="visible"
             id="symbol6408">
            <path
               inkscape:connector-curvature="0"
               style="stroke:none"
               d="M 2.609375,-3.4375 C 2.578125,-3.53125 2.5625,-3.5625 2.4375,-3.5625 c -0.078125,0 -0.125,0.015625 -0.171875,0.109375 l -1.28125,2.9375 c -0.109375,0.25 -0.375,0.296875 -0.625,0.296875 l 0,0.21875 C 0.53125,-0.015625 0.75,-0.015625 0.9375,-0.015625 c 0.0625,0 0.40625,0 0.640625,0.015625 l 0,-0.21875 c -0.28125,0 -0.375,-0.125 -0.375,-0.21875 0,-0.03125 0.015625,-0.046875 0.015625,-0.078125 l 0.265625,-0.59375 1.59375,0 0.3125,0.703125 c 0.03125,0.046875 0.03125,0.0625 0.03125,0.0625 0,0.125 -0.28125,0.125 -0.4375,0.125 l 0,0.21875 c 0.203125,0 0.578125,-0.015625 0.8125,-0.015625 0.25,0 0.53125,0 0.734375,0.015625 l 0,-0.21875 -0.125,0 c -0.3125,0 -0.390625,-0.03125 -0.453125,-0.171875 z m -0.328125,0.5 0.703125,1.609375 -1.40625,0 z m 0,0"
               id="path6410" />
          </symbol>
        </g>
      </defs>
      <g
         id="g6412">
        <g
           style="fill:#000000;fill-opacity:1"
           id="g6414">
          <g
             id="use6416"
             transform="translate(223.43201,134.765)">
            <path
               id="path16772"
               d="m 2.96875,-2.25 c 0.15625,0 0.34375,0 0.34375,-0.171875 0,-0.140625 -0.125,-0.140625 -0.296875,-0.140625 l -1.609375,0 c 0.234375,-0.84375 0.796875,-1.421875 1.703125,-1.421875 l 0.3125,0 c 0.171875,0 0.328125,0 0.328125,-0.171875 0,-0.140625 -0.125,-0.140625 -0.296875,-0.140625 l -0.359375,0 c -1.296875,0 -2.625,1 -2.625,2.515625 0,1.109375 0.75,1.890625 1.796875,1.890625 0.65625,0 1.296875,-0.40625 1.296875,-0.515625 0,-0.015625 0,-0.125 -0.09375,-0.125 -0.015625,0 -0.046875,0 -0.125,0.046875 -0.3125,0.203125 -0.6875,0.375 -1.046875,0.375 -0.578125,0 -1.078125,-0.421875 -1.078125,-1.296875 0,-0.34375 0.078125,-0.734375 0.109375,-0.84375 z m 0,0"
               style="stroke:none"
               inkscape:connector-curvature="0" />
          </g>
        </g>
        <g
           style="fill:#000000;fill-opacity:1"
           id="g6418">
          <g
             id="use6420"
             transform="translate(227.476,136.259)">
            <path
               id="path16800"
               d="M 2.609375,-3.4375 C 2.578125,-3.53125 2.5625,-3.5625 2.4375,-3.5625 c -0.078125,0 -0.125,0.015625 -0.171875,0.109375 l -1.28125,2.9375 c -0.109375,0.25 -0.375,0.296875 -0.625,0.296875 l 0,0.21875 C 0.53125,-0.015625 0.75,-0.015625 0.9375,-0.015625 c 0.0625,0 0.40625,0 0.640625,0.015625 l 0,-0.21875 c -0.28125,0 -0.375,-0.125 -0.375,-0.21875 0,-0.03125 0.015625,-0.046875 0.015625,-0.078125 l 0.265625,-0.59375 1.59375,0 0.3125,0.703125 c 0.03125,0.046875 0.03125,0.0625 0.03125,0.0625 0,0.125 -0.28125,0.125 -0.4375,0.125 l 0,0.21875 c 0.203125,0 0.578125,-0.015625 0.8125,-0.015625 0.25,0 0.53125,0 0.734375,0.015625 l 0,-0.21875 -0.125,0 c -0.3125,0 -0.390625,-0.03125 -0.453125,-0.171875 z m -0.328125,0.5 0.703125,1.609375 -1.40625,0 z m 0,0"
               style="stroke:none"
               inkscape:connector-curvature="0" />
          </g>
        </g>
        <g
           style="fill:#000000;fill-opacity:1"
           id="g6422">
          <g
             id="use6424"
             transform="translate(232.85899,134.765)">
            <path
               id="path16780"
               d="m 2.03125,-0.015625 c 0,-0.65625 -0.25,-1.046875 -0.640625,-1.046875 -0.328125,0 -0.53125,0.25 -0.53125,0.53125 C 0.859375,-0.265625 1.0625,0 1.390625,0 1.5,0 1.640625,-0.046875 1.734375,-0.125 1.765625,-0.15625 1.78125,-0.15625 1.78125,-0.15625 c 0.015625,0 0.015625,0 0.015625,0.140625 0,0.75 -0.34375,1.34375 -0.671875,1.671875 -0.109375,0.109375 -0.109375,0.125 -0.109375,0.15625 0,0.078125 0.046875,0.109375 0.09375,0.109375 0.109375,0 0.921875,-0.765625 0.921875,-1.9375 z m 0,0"
               style="stroke:none"
               inkscape:connector-curvature="0" />
          </g>
        </g>
        <g
           style="fill:#000000;fill-opacity:1"
           id="g6426">
          <g
             id="use6428"
             transform="translate(237.29036,134.765)">
            <path
               id="path16788"
               d="m 2.296875,-3.5 c 0.0625,-0.203125 0.15625,-0.59375 0.15625,-0.640625 0,-0.171875 -0.125,-0.265625 -0.296875,-0.265625 -0.015625,0 -0.296875,0.015625 -0.390625,0.359375 l -1.4375,5.765625 c -0.03125,0.125 -0.03125,0.140625 -0.03125,0.171875 0,0.140625 0.109375,0.265625 0.28125,0.265625 0.203125,0 0.328125,-0.1875 0.34375,-0.21875 C 0.96875,1.859375 1.09375,1.328125 1.46875,-0.203125 1.796875,0.0625 2.25,0.109375 2.4375,0.109375 c 0.703125,0 1.09375,-0.453125 1.328125,-0.734375 0.09375,0.453125 0.46875,0.734375 0.90625,0.734375 0.34375,0 0.578125,-0.234375 0.734375,-0.546875 0.171875,-0.359375 0.296875,-0.96875 0.296875,-0.984375 0,-0.109375 -0.09375,-0.109375 -0.125,-0.109375 -0.09375,0 -0.109375,0.046875 -0.140625,0.1875 -0.15625,0.640625 -0.34375,1.234375 -0.75,1.234375 -0.265625,0 -0.296875,-0.265625 -0.296875,-0.453125 0,-0.21875 0.109375,-0.6875 0.1875,-1.046875 L 4.859375,-2.6875 C 4.890625,-2.828125 5,-3.203125 5.03125,-3.359375 5.078125,-3.59375 5.1875,-3.96875 5.1875,-4.03125 c 0,-0.171875 -0.140625,-0.265625 -0.296875,-0.265625 -0.046875,0 -0.3125,0.015625 -0.390625,0.34375 l -0.46875,1.875 c -0.109375,0.5 -0.21875,0.90625 -0.25,1.015625 -0.015625,0.046875 -0.484375,0.953125 -1.296875,0.953125 -0.5,0 -0.734375,-0.328125 -0.734375,-0.875 0,-0.28125 0.0625,-0.5625 0.140625,-0.84375 z m 0,0"
               style="stroke:none"
               inkscape:connector-curvature="0" />
          </g>
        </g>
        <g
           style="fill:#000000;fill-opacity:1"
           id="g6430">
          <g
             id="use6432"
             transform="translate(243.289,136.259)">
            <path
               id="path16804"
               d="M 2.609375,-3.4375 C 2.578125,-3.53125 2.5625,-3.5625 2.4375,-3.5625 c -0.078125,0 -0.125,0.015625 -0.171875,0.109375 l -1.28125,2.9375 c -0.109375,0.25 -0.375,0.296875 -0.625,0.296875 l 0,0.21875 C 0.53125,-0.015625 0.75,-0.015625 0.9375,-0.015625 c 0.0625,0 0.40625,0 0.640625,0.015625 l 0,-0.21875 c -0.28125,0 -0.375,-0.125 -0.375,-0.21875 0,-0.03125 0.015625,-0.046875 0.015625,-0.078125 l 0.265625,-0.59375 1.59375,0 0.3125,0.703125 c 0.03125,0.046875 0.03125,0.0625 0.03125,0.0625 0,0.125 -0.28125,0.125 -0.4375,0.125 l 0,0.21875 c 0.203125,0 0.578125,-0.015625 0.8125,-0.015625 0.25,0 0.53125,0 0.734375,0.015625 l 0,-0.21875 -0.125,0 c -0.3125,0 -0.390625,-0.03125 -0.453125,-0.171875 z m -0.328125,0.5 0.703125,1.609375 -1.40625,0 z m 0,0"
               style="stroke:none"
               inkscape:connector-curvature="0" />
          </g>
        </g>
      </g>
    </g>
    <g
       id="g8596"
       transform="matrix(6.0803108,0,0,6.0803108,-1883.011,-631.77484)"
       ns0:preamble="/home/homer/misc/HRCommands.tex"
       ns0:text="$\\epsilon\\subt{D}, \\mu\\subt{D}$">
      <defs
         id="defs8598">
        <g
           id="g8600">
          <symbol
             id="symbol8602"
             overflow="visible"
             style="overflow:visible">
            <path
               id="path8604"
               d=""
               style="stroke:none"
               inkscape:connector-curvature="0" />
          </symbol>
          <symbol
             id="symbol8606"
             overflow="visible"
             style="overflow:visible">
            <path
               id="path8608"
               d="m 2.96875,-2.25 c 0.15625,0 0.34375,0 0.34375,-0.171875 0,-0.140625 -0.125,-0.140625 -0.296875,-0.140625 l -1.609375,0 c 0.234375,-0.84375 0.796875,-1.421875 1.703125,-1.421875 l 0.3125,0 c 0.171875,0 0.328125,0 0.328125,-0.171875 0,-0.140625 -0.125,-0.140625 -0.296875,-0.140625 l -0.359375,0 c -1.296875,0 -2.625,1 -2.625,2.515625 0,1.109375 0.75,1.890625 1.796875,1.890625 0.65625,0 1.296875,-0.40625 1.296875,-0.515625 0,-0.015625 0,-0.125 -0.09375,-0.125 -0.015625,0 -0.046875,0 -0.125,0.046875 -0.3125,0.203125 -0.6875,0.375 -1.046875,0.375 -0.578125,0 -1.078125,-0.421875 -1.078125,-1.296875 0,-0.34375 0.078125,-0.734375 0.109375,-0.84375 z m 0,0"
               style="stroke:none"
               inkscape:connector-curvature="0" />
          </symbol>
          <symbol
             id="symbol8610"
             overflow="visible"
             style="overflow:visible">
            <path
               id="path8612"
               d="m 2.03125,-0.015625 c 0,-0.65625 -0.25,-1.046875 -0.640625,-1.046875 -0.328125,0 -0.53125,0.25 -0.53125,0.53125 C 0.859375,-0.265625 1.0625,0 1.390625,0 1.5,0 1.640625,-0.046875 1.734375,-0.125 1.765625,-0.15625 1.78125,-0.15625 1.78125,-0.15625 c 0.015625,0 0.015625,0 0.015625,0.140625 0,0.75 -0.34375,1.34375 -0.671875,1.671875 -0.109375,0.109375 -0.109375,0.125 -0.109375,0.15625 0,0.078125 0.046875,0.109375 0.09375,0.109375 0.109375,0 0.921875,-0.765625 0.921875,-1.9375 z m 0,0"
               style="stroke:none"
               inkscape:connector-curvature="0" />
          </symbol>
          <symbol
             id="symbol8614"
             overflow="visible"
             style="overflow:visible">
            <path
               id="path8616"
               d="m 2.296875,-3.5 c 0.0625,-0.203125 0.15625,-0.59375 0.15625,-0.640625 0,-0.171875 -0.125,-0.265625 -0.296875,-0.265625 -0.015625,0 -0.296875,0.015625 -0.390625,0.359375 l -1.4375,5.765625 c -0.03125,0.125 -0.03125,0.140625 -0.03125,0.171875 0,0.140625 0.109375,0.265625 0.28125,0.265625 0.203125,0 0.328125,-0.1875 0.34375,-0.21875 C 0.96875,1.859375 1.09375,1.328125 1.46875,-0.203125 1.796875,0.0625 2.25,0.109375 2.4375,0.109375 c 0.703125,0 1.09375,-0.453125 1.328125,-0.734375 0.09375,0.453125 0.46875,0.734375 0.90625,0.734375 0.34375,0 0.578125,-0.234375 0.734375,-0.546875 0.171875,-0.359375 0.296875,-0.96875 0.296875,-0.984375 0,-0.109375 -0.09375,-0.109375 -0.125,-0.109375 -0.09375,0 -0.109375,0.046875 -0.140625,0.1875 -0.15625,0.640625 -0.34375,1.234375 -0.75,1.234375 -0.265625,0 -0.296875,-0.265625 -0.296875,-0.453125 0,-0.21875 0.109375,-0.6875 0.1875,-1.046875 L 4.859375,-2.6875 C 4.890625,-2.828125 5,-3.203125 5.03125,-3.359375 5.078125,-3.59375 5.1875,-3.96875 5.1875,-4.03125 c 0,-0.171875 -0.140625,-0.265625 -0.296875,-0.265625 -0.046875,0 -0.3125,0.015625 -0.390625,0.34375 l -0.46875,1.875 c -0.109375,0.5 -0.21875,0.90625 -0.25,1.015625 -0.015625,0.046875 -0.484375,0.953125 -1.296875,0.953125 -0.5,0 -0.734375,-0.328125 -0.734375,-0.875 0,-0.28125 0.0625,-0.5625 0.140625,-0.84375 z m 0,0"
               style="stroke:none"
               inkscape:connector-curvature="0" />
          </symbol>
          <symbol
             id="symbol8618"
             overflow="visible"
             style="overflow:visible">
            <path
               id="path8620"
               d=""
               style="stroke:none"
               inkscape:connector-curvature="0" />
          </symbol>
          <symbol
             id="symbol8622"
             overflow="visible"
             style="overflow:visible">
            <path
               id="path8624"
               d="m 0.984375,-0.4375 c 0,0.125 0,0.1875 -0.1875,0.203125 C 0.6875,-0.21875 0.53125,-0.21875 0.421875,-0.21875 l 0,0.21875 2.1875,0 c 1.0625,0 1.90625,-0.75 1.90625,-1.671875 0,-0.9375 -0.828125,-1.734375 -1.90625,-1.734375 l -2.1875,0 0,0.21875 c 0.125,0 0.265625,0 0.375,0.015625 0.1875,0.015625 0.1875,0.078125 0.1875,0.203125 z m 0.75,0.21875 c -0.25,0 -0.25,-0.03125 -0.25,-0.203125 l 0,-2.5625 c 0,-0.171875 0,-0.203125 0.25,-0.203125 l 0.734375,0 c 0.59375,0 0.953125,0.25 1.078125,0.375 0.1875,0.1875 0.40625,0.484375 0.40625,1.140625 0,0.4375 -0.09375,0.796875 -0.390625,1.078125 -0.15625,0.15625 -0.515625,0.375 -1.09375,0.375 z m 0,0"
               style="stroke:none"
               inkscape:connector-curvature="0" />
          </symbol>
        </g>
      </defs>
      <g
         id="g8626">
        <g
           id="g8628"
           style="fill:#000000;fill-opacity:1">
          <g
             id="use8630"
             transform="translate(223.43201,134.765)">
            <path
               inkscape:connector-curvature="0"
               style="stroke:none"
               d="m 2.96875,-2.25 c 0.15625,0 0.34375,0 0.34375,-0.171875 0,-0.140625 -0.125,-0.140625 -0.296875,-0.140625 l -1.609375,0 c 0.234375,-0.84375 0.796875,-1.421875 1.703125,-1.421875 l 0.3125,0 c 0.171875,0 0.328125,0 0.328125,-0.171875 0,-0.140625 -0.125,-0.140625 -0.296875,-0.140625 l -0.359375,0 c -1.296875,0 -2.625,1 -2.625,2.515625 0,1.109375 0.75,1.890625 1.796875,1.890625 0.65625,0 1.296875,-0.40625 1.296875,-0.515625 0,-0.015625 0,-0.125 -0.09375,-0.125 -0.015625,0 -0.046875,0 -0.125,0.046875 -0.3125,0.203125 -0.6875,0.375 -1.046875,0.375 -0.578125,0 -1.078125,-0.421875 -1.078125,-1.296875 0,-0.34375 0.078125,-0.734375 0.109375,-0.84375 z m 0,0"
               id="path17120" />
          </g>
        </g>
        <g
           id="g8632"
           style="fill:#000000;fill-opacity:1">
          <g
             id="use8634"
             transform="translate(227.476,136.259)">
            <path
               inkscape:connector-curvature="0"
               style="stroke:none"
               d="m 0.984375,-0.4375 c 0,0.125 0,0.1875 -0.1875,0.203125 C 0.6875,-0.21875 0.53125,-0.21875 0.421875,-0.21875 l 0,0.21875 2.1875,0 c 1.0625,0 1.90625,-0.75 1.90625,-1.671875 0,-0.9375 -0.828125,-1.734375 -1.90625,-1.734375 l -2.1875,0 0,0.21875 c 0.125,0 0.265625,0 0.375,0.015625 0.1875,0.015625 0.1875,0.078125 0.1875,0.203125 z m 0.75,0.21875 c -0.25,0 -0.25,-0.03125 -0.25,-0.203125 l 0,-2.5625 c 0,-0.171875 0,-0.203125 0.25,-0.203125 l 0.734375,0 c 0.59375,0 0.953125,0.25 1.078125,0.375 0.1875,0.1875 0.40625,0.484375 0.40625,1.140625 0,0.4375 -0.09375,0.796875 -0.390625,1.078125 -0.15625,0.15625 -0.515625,0.375 -1.09375,0.375 z m 0,0"
               id="path17148" />
          </g>
        </g>
        <g
           id="g8636"
           style="fill:#000000;fill-opacity:1">
          <g
             id="use8638"
             transform="translate(232.976,134.765)">
            <path
               inkscape:connector-curvature="0"
               style="stroke:none"
               d="m 2.03125,-0.015625 c 0,-0.65625 -0.25,-1.046875 -0.640625,-1.046875 -0.328125,0 -0.53125,0.25 -0.53125,0.53125 C 0.859375,-0.265625 1.0625,0 1.390625,0 1.5,0 1.640625,-0.046875 1.734375,-0.125 1.765625,-0.15625 1.78125,-0.15625 1.78125,-0.15625 c 0.015625,0 0.015625,0 0.015625,0.140625 0,0.75 -0.34375,1.34375 -0.671875,1.671875 -0.109375,0.109375 -0.109375,0.125 -0.109375,0.15625 0,0.078125 0.046875,0.109375 0.09375,0.109375 0.109375,0 0.921875,-0.765625 0.921875,-1.9375 z m 0,0"
               id="path17128" />
          </g>
        </g>
        <g
           id="g8640"
           style="fill:#000000;fill-opacity:1">
          <g
             id="use8642"
             transform="translate(237.40736,134.765)">
            <path
               inkscape:connector-curvature="0"
               style="stroke:none"
               d="m 2.296875,-3.5 c 0.0625,-0.203125 0.15625,-0.59375 0.15625,-0.640625 0,-0.171875 -0.125,-0.265625 -0.296875,-0.265625 -0.015625,0 -0.296875,0.015625 -0.390625,0.359375 l -1.4375,5.765625 c -0.03125,0.125 -0.03125,0.140625 -0.03125,0.171875 0,0.140625 0.109375,0.265625 0.28125,0.265625 0.203125,0 0.328125,-0.1875 0.34375,-0.21875 C 0.96875,1.859375 1.09375,1.328125 1.46875,-0.203125 1.796875,0.0625 2.25,0.109375 2.4375,0.109375 c 0.703125,0 1.09375,-0.453125 1.328125,-0.734375 0.09375,0.453125 0.46875,0.734375 0.90625,0.734375 0.34375,0 0.578125,-0.234375 0.734375,-0.546875 0.171875,-0.359375 0.296875,-0.96875 0.296875,-0.984375 0,-0.109375 -0.09375,-0.109375 -0.125,-0.109375 -0.09375,0 -0.109375,0.046875 -0.140625,0.1875 -0.15625,0.640625 -0.34375,1.234375 -0.75,1.234375 -0.265625,0 -0.296875,-0.265625 -0.296875,-0.453125 0,-0.21875 0.109375,-0.6875 0.1875,-1.046875 L 4.859375,-2.6875 C 4.890625,-2.828125 5,-3.203125 5.03125,-3.359375 5.078125,-3.59375 5.1875,-3.96875 5.1875,-4.03125 c 0,-0.171875 -0.140625,-0.265625 -0.296875,-0.265625 -0.046875,0 -0.3125,0.015625 -0.390625,0.34375 l -0.46875,1.875 c -0.109375,0.5 -0.21875,0.90625 -0.25,1.015625 -0.015625,0.046875 -0.484375,0.953125 -1.296875,0.953125 -0.5,0 -0.734375,-0.328125 -0.734375,-0.875 0,-0.28125 0.0625,-0.5625 0.140625,-0.84375 z m 0,0"
               id="path17136" />
          </g>
        </g>
        <g
           id="g8644"
           style="fill:#000000;fill-opacity:1">
          <g
             id="use8646"
             transform="translate(243.407,136.259)">
            <path
               inkscape:connector-curvature="0"
               style="stroke:none"
               d="m 0.984375,-0.4375 c 0,0.125 0,0.1875 -0.1875,0.203125 C 0.6875,-0.21875 0.53125,-0.21875 0.421875,-0.21875 l 0,0.21875 2.1875,0 c 1.0625,0 1.90625,-0.75 1.90625,-1.671875 0,-0.9375 -0.828125,-1.734375 -1.90625,-1.734375 l -2.1875,0 0,0.21875 c 0.125,0 0.265625,0 0.375,0.015625 0.1875,0.015625 0.1875,0.078125 0.1875,0.203125 z m 0.75,0.21875 c -0.25,0 -0.25,-0.03125 -0.25,-0.203125 l 0,-2.5625 c 0,-0.171875 0,-0.203125 0.25,-0.203125 l 0.734375,0 c 0.59375,0 0.953125,0.25 1.078125,0.375 0.1875,0.1875 0.40625,0.484375 0.40625,1.140625 0,0.4375 -0.09375,0.796875 -0.390625,1.078125 -0.15625,0.15625 -0.515625,0.375 -1.09375,0.375 z m 0,0"
               id="path17152" />
          </g>
        </g>
      </g>
    </g>
    <path
       sodipodi:nodetypes="ccc"
       inkscape:connector-curvature="0"
       id="path75462"
       d="M -399.72275,651.21302 -455,438.48568 l 0,7.51256"
       style="fill:none;fill-rule:evenodd;stroke:#000000;stroke-width:2;stroke-linecap:butt;stroke-linejoin:miter;stroke-miterlimit:4;stroke-dasharray:none;stroke-opacity:1;marker-start:url(#marker75496)" />
    <g
       ns0:text="$R\\subt{A}$"
       ns0:preamble="/home/homer/misc/HRCommands.tex"
       transform="matrix(5.5275552,0,0,5.527555,-1656.8899,-194.82917)"
       id="g12378">
      <defs
         id="defs12380">
        <g
           id="g12382">
          <symbol
             style="overflow:visible"
             overflow="visible"
             id="textext-1cf0e6e5-0">
            <path
               inkscape:connector-curvature="0"
               style="stroke:none"
               d=""
               id="path12385" />
          </symbol>
          <symbol
             style="overflow:visible"
             overflow="visible"
             id="textext-1cf0e6e5-1">
            <path
               inkscape:connector-curvature="0"
               style="stroke:none"
               d="m 3.734375,-6.125 c 0.0625,-0.234375 0.09375,-0.328125 0.28125,-0.359375 C 4.109375,-6.5 4.421875,-6.5 4.625,-6.5 c 0.703125,0 1.8125,0 1.8125,0.984375 0,0.34375 -0.15625,1.03125 -0.546875,1.421875 -0.265625,0.25 -0.78125,0.578125 -1.6875,0.578125 l -1.109375,0 z m 1.4375,2.734375 c 1.015625,-0.21875 2.1875,-0.921875 2.1875,-1.921875 0,-0.859375 -0.890625,-1.5 -2.203125,-1.5 l -2.828125,0 c -0.203125,0 -0.296875,0 -0.296875,0.203125 C 2.03125,-6.5 2.125,-6.5 2.3125,-6.5 c 0.015625,0 0.203125,0 0.375,0.015625 0.1875,0.03125 0.265625,0.03125 0.265625,0.171875 0,0.03125 0,0.0625 -0.03125,0.1875 l -1.34375,5.34375 C 1.484375,-0.390625 1.46875,-0.3125 0.671875,-0.3125 0.5,-0.3125 0.40625,-0.3125 0.40625,-0.109375 0.40625,0 0.53125,0 0.546875,0 c 0.28125,0 0.984375,-0.03125 1.25,-0.03125 0.28125,0 1,0.03125 1.28125,0.03125 0.078125,0 0.1875,0 0.1875,-0.203125 0,-0.109375 -0.078125,-0.109375 -0.28125,-0.109375 -0.359375,0 -0.640625,0 -0.640625,-0.171875 0,-0.0625 0.015625,-0.109375 0.03125,-0.171875 l 0.65625,-2.640625 1.1875,0 c 0.90625,0 1.078125,0.5625 1.078125,0.90625 0,0.140625 -0.078125,0.453125 -0.140625,0.6875 C 5.09375,-1.421875 5,-1.0625 5,-0.859375 5,0.21875 6.203125,0.21875 6.328125,0.21875 c 0.84375,0 1.203125,-1 1.203125,-1.140625 0,-0.125 -0.109375,-0.125 -0.125,-0.125 -0.09375,0 -0.109375,0.0625 -0.125,0.140625 C 7.03125,-0.171875 6.59375,0 6.375,0 6.046875,0 5.96875,-0.21875 5.96875,-0.609375 c 0,-0.3125 0.0625,-0.8125 0.109375,-1.140625 0.015625,-0.140625 0.03125,-0.328125 0.03125,-0.46875 0,-0.765625 -0.671875,-1.078125 -0.9375,-1.171875 z m 0,0"
               id="path12388" />
          </symbol>
          <symbol
             style="overflow:visible"
             overflow="visible"
             id="textext-1cf0e6e5-2">
            <path
               inkscape:connector-curvature="0"
               style="stroke:none"
               d=""
               id="path12391" />
          </symbol>
          <symbol
             style="overflow:visible"
             overflow="visible"
             id="textext-1cf0e6e5-3">
            <path
               inkscape:connector-curvature="0"
               style="stroke:none"
               d="M 2.609375,-3.4375 C 2.578125,-3.53125 2.5625,-3.5625 2.4375,-3.5625 c -0.078125,0 -0.125,0.015625 -0.171875,0.109375 l -1.28125,2.9375 c -0.109375,0.25 -0.375,0.296875 -0.625,0.296875 l 0,0.21875 C 0.53125,-0.015625 0.75,-0.015625 0.9375,-0.015625 c 0.0625,0 0.40625,0 0.640625,0.015625 l 0,-0.21875 c -0.28125,0 -0.375,-0.125 -0.375,-0.21875 0,-0.03125 0.015625,-0.046875 0.015625,-0.078125 l 0.265625,-0.59375 1.59375,0 0.3125,0.703125 c 0.03125,0.046875 0.03125,0.0625 0.03125,0.0625 0,0.125 -0.28125,0.125 -0.4375,0.125 l 0,0.21875 c 0.203125,0 0.578125,-0.015625 0.8125,-0.015625 0.25,0 0.53125,0 0.734375,0.015625 l 0,-0.21875 -0.125,0 c -0.3125,0 -0.390625,-0.03125 -0.453125,-0.171875 z m -0.328125,0.5 0.703125,1.609375 -1.40625,0 z m 0,0"
               id="path12394" />
          </symbol>
        </g>
      </defs>
      <g
         id="textext-1cf0e6e5-4">
        <g
           style="fill:#000000;fill-opacity:1"
           id="g12397">
          <use
             height="100%"
             width="100%"
             xlink:href="#textext-1cf0e6e5-1"
             x="223.43201"
             y="134.765"
             id="use12399" />
        </g>
        <g
           style="fill:#000000;fill-opacity:1"
           id="g12401">
          <use
             height="100%"
             width="100%"
             xlink:href="#textext-1cf0e6e5-3"
             x="230.99699"
             y="136.259"
             id="use12403" />
        </g>
      </g>
    </g>
  </g>
</svg>
